<svg xmlns="http://www.w3.org/2000/svg" xmlns:xlink="http://www.w3.org/1999/xlink" width="54" height="54" viewBox="0 0 54 54">
  <defs>
    <clipPath id="clip-path">
      <rect id="Rectángulo_34151" data-name="Rectángulo 34151" width="33" height="33" transform="translate(219 2414)" fill="#f88f05" stroke="#707070" stroke-width="1"/>
    </clipPath>
  </defs>
  <g id="Grupo_82286" data-name="Grupo 82286" transform="translate(-343 -3018)">
    <circle id="Elipse_4816" data-name="Elipse 4816" cx="27" cy="27" r="27" transform="translate(343 3018)" fill="#fff"/>
    <g id="Enmascarar_grupo_105" data-name="Enmascarar grupo 105" transform="translate(135 615)" clip-path="url(#clip-path)">
      <g id="ley" transform="translate(219 2414)">
        <g id="Grupo_81167" data-name="Grupo 81167">
          <g id="Grupo_81166" data-name="Grupo 81166">
            <g id="Grupo_81165" data-name="Grupo 81165">
              <g id="Grupo_81164" data-name="Grupo 81164">
                <path id="Trazado_114680" data-name="Trazado 114680" d="M31.447,29.1h-.36a5,5,0,0,1-.416-.794.483.483,0,0,0-.893.37c.06.144.127.285.2.424H11.012a1.547,1.547,0,0,0-.421.059,5.619,5.619,0,0,1-.71-2.878c0-.211.009-.419.028-.622h9.262a.483.483,0,0,0,0-.967H10.315l1.136-1.23H29.972a6.034,6.034,0,0,0-.465,1.23H23.153a.483.483,0,0,0,0,.967h6.185c-.019.2-.03.395-.031.595a.483.483,0,0,0,.481.485h0a.483.483,0,0,0,.483-.481,5.173,5.173,0,0,1,.813-2.8h.361a1.553,1.553,0,0,0,0-3.106H25.4l5.536-5.537a1.664,1.664,0,0,0,0-2.353l-.122-.122a1.663,1.663,0,0,0-2.268-.079l-.856-.856.291-.291a1.366,1.366,0,0,0,.3-1.486l-.394-.963a1.071,1.071,0,0,0-.778-.645l-.672-.672a.483.483,0,0,0-.684.684l.331.331-7.618,7.618-2.24-2.24,7.618-7.618.3.3a.483.483,0,1,0,.684-.684L24.191,5.1a1.072,1.072,0,0,0-.645-.778h0l-.963-.394a1.366,1.366,0,0,0-1.486.3l-.291.291-.856-.856A1.663,1.663,0,0,0,19.87,1.4l-.122-.122a1.664,1.664,0,0,0-2.354,0L11.379,7.289a1.664,1.664,0,0,0,0,2.354l.122.122a1.663,1.663,0,0,0,2.268.079l.856.856-.291.291a1.366,1.366,0,0,0-.3,1.486l.394.963a1.071,1.071,0,0,0,.767.643L12.77,16.974a1.651,1.651,0,0,0-2.182,2.094l-1.1,1.015a.483.483,0,0,0,.656.71l1.016-.938,1.2,1.2-9,9.751A1.378,1.378,0,1,1,1.41,28.857l7.061-6.518a.483.483,0,1,0-.656-.71L.754,28.146a2.345,2.345,0,0,0,1.589,4.067h.048a2.325,2.325,0,0,0,1.676-.754l2.9-3.138a5.571,5.571,0,0,0,.777,1.657,1.126,1.126,0,0,0,.917.471h.814a1.55,1.55,0,0,0,1.539,1.757H31.447a1.553,1.553,0,0,0,0-3.106Zm.586-7.192a.587.587,0,0,1-.586.586h-19.1l.8-.87a1.652,1.652,0,0,0,1.649-.3H31.447a.587.587,0,0,1,.586.586ZM17.45,16.33l-2.8,2.347-1.113-1.113,2.347-2.8Zm-2.109,4.026a1.66,1.66,0,0,0-.1-.912l2.891-2.424a1.071,1.071,0,0,0,.643.767l.963.394a1.366,1.366,0,0,0,1.486-.3l.291-.291.856.856a1.667,1.667,0,0,0-.192,1.91H15.341Zm14.3-7.532a.693.693,0,0,1,.493.2l.122.122a.7.7,0,0,1,0,.986l-6.016,6.016a.7.7,0,0,1-.986,0l-.122-.122a.7.7,0,0,1,0-.986l6.016-6.016a.692.692,0,0,1,.493-.2Zm-1.778.122-4.813,4.813-.853-.852,4.813-4.813ZM19.1,16.717,26.822,9a.1.1,0,0,1,.074-.032l.023,0A.1.1,0,0,1,27,9.034l.394.963a.4.4,0,0,1-.088.437L20.54,17.2a.4.4,0,0,1-.437.088l-.963-.394a.107.107,0,0,1-.035-.175ZM12.677,9.285a.693.693,0,0,1-.493-.2l-.122-.122a.7.7,0,0,1,0-.986l6.016-6.016a.7.7,0,0,1,.986,0l.122.122a.7.7,0,0,1,0,.986L13.17,9.081a.693.693,0,0,1-.493.2Zm1.778-.122L19.269,4.35l.853.853-4.813,4.813Zm.561,2.511L21.78,4.911a.4.4,0,0,1,.437-.088l.963.394a.107.107,0,0,1,.035.175L15.5,13.109a.107.107,0,0,1-.175-.035l-.394-.963a.4.4,0,0,1,.088-.437ZM11.455,18.5a.684.684,0,0,1,1.167-.483L14.2,19.592a.684.684,0,1,1-.967.967l-1.577-1.577a.679.679,0,0,1-.2-.484ZM8.53,29.418a4.877,4.877,0,0,1-.774-1.954l1.159-1.255c0,.024,0,.048,0,.072a6.707,6.707,0,0,0,.75,3.2h-1A.157.157,0,0,1,8.53,29.418ZM31.447,31.24H11.012a.586.586,0,1,1,0-1.172H31.447a.586.586,0,1,1,0,1.172Z" fill="#f88f05"/>
                <path id="Trazado_114681" data-name="Trazado 114681" d="M13.524,26.888a.483.483,0,1,0,0,.967H24.786a.483.483,0,0,0,0-.967Z" fill="#f88f05"/>
              </g>
            </g>
          </g>
        </g>
      </g>
    </g>
  </g>
</svg>
