<svg xmlns="http://www.w3.org/2000/svg" xmlns:xlink="http://www.w3.org/1999/xlink" width="54" height="54" viewBox="0 0 54 54">
  <defs>
    <clipPath id="clip-path">
      <rect id="Rectángulo_34154" data-name="Rectángulo 34154" width="33" height="33" transform="translate(204 3398)" fill="#f88f05" stroke="#707070" stroke-width="1"/>
    </clipPath>
  </defs>
  <g id="Grupo_82303" data-name="Grupo 82303" transform="translate(8979 8357)">
    <circle id="Elipse_4816" data-name="Elipse 4816" cx="27" cy="27" r="27" transform="translate(-8979 -8357)" fill="#fff"/>
    <g id="Enmascarar_grupo_115" data-name="Enmascarar grupo 115" transform="translate(-9172 -11744)" clip-path="url(#clip-path)">
      <g id="resolucion" transform="translate(204 3398)">
        <path id="Trazado_114876" data-name="Trazado 114876" d="M15.934,31.265H6.393V26.644a.807.807,0,0,0-.806-.806H.967v-15.6a.483.483,0,1,0-.967,0V26.321a.485.485,0,0,0,.142.342L5.568,32.09a.488.488,0,0,0,.342.142H15.934a.483.483,0,0,0,0-.967ZM5.427,30.581,1.65,26.8H5.427Z" fill="#f88f05"/>
        <path id="Trazado_114877" data-name="Trazado 114877" d="M5.227,11.967H19.6a.483.483,0,0,0,0-.967H5.227a.483.483,0,1,0,0,.967Z" fill="#f88f05"/>
        <path id="Trazado_114878" data-name="Trazado 114878" d="M5.227,18.026H19.6a.483.483,0,0,0,0-.967H5.227a.483.483,0,1,0,0,.967Z" fill="#f88f05"/>
        <path id="Trazado_114879" data-name="Trazado 114879" d="M5.227,24.084h6.463a.483.483,0,1,0,0-.967H5.227a.483.483,0,0,0,0,.967Z" fill="#f88f05"/>
        <path id="Trazado_114880" data-name="Trazado 114880" d="M32.6,13.539l-5.564-3.212a.483.483,0,0,0-.66.177l-1.547,2.679V3.66a.807.807,0,0,0-.806-.806H20.433V1.574a.807.807,0,0,0-.806-.806h-1.6a.807.807,0,0,0-.806.806v1.28H7.607V1.574A.807.807,0,0,0,6.8.769H5.2a.807.807,0,0,0-.806.806v1.28H.806A.807.807,0,0,0,0,3.66V7.983a.483.483,0,0,0,.967,0V3.821H4.391V5.1a.807.807,0,0,0,.806.806H6.8A.807.807,0,0,0,7.607,5.1V3.821h9.61V5.1a.807.807,0,0,0,.806.806h1.6a.807.807,0,0,0,.806-.806V3.821h3.424V14.857L17.628,25.646a1.823,1.823,0,0,0,.281,2.191l-.748,1.295a.483.483,0,1,0,.837.483l.748-1.295a1.8,1.8,0,0,0,.457.059,1.831,1.831,0,0,0,.475-.063,1.81,1.81,0,0,0,1.106-.849l3.073-5.322v9.119H18.19a.483.483,0,1,0,0,.967h5.829a.807.807,0,0,0,.806-.806V20.471l2.29-3.966,2.826,1.632a.809.809,0,0,0,1.207-.813l-.236-1.692,1.583-.641a.81.81,0,0,0,.1-1.452ZM6.64,4.939H5.358v-3.2H6.64Zm12.826,0H18.184v-3.2h1.282v3.2Zm7.5,6.466,1.482.855L22.366,22.795l-1.482-.855ZM19.947,26.985a.855.855,0,0,1-1.482-.855L20.4,22.777l1.482.855Zm10.487-12.2a.809.809,0,0,0-.5.863l.209,1.495L27.6,15.668l1.688-2.924,2.548,1.471Z" fill="#f88f05"/>
      </g>
    </g>
  </g>
</svg>
