<svg xmlns="http://www.w3.org/2000/svg" xmlns:xlink="http://www.w3.org/1999/xlink" width="400.876" height="234.482" viewBox="0 0 400.876 234.482">
  <defs>
    <clipPath id="clip-path">
      <rect id="Rectángulo_34508" data-name="Rectángulo 34508" width="400.876" height="234.482" transform="translate(132.683 75.557)" fill="none"/>
    </clipPath>
    <clipPath id="clip-path-2">
      <path id="Trazado_117788" data-name="Trazado 117788" d="M448.14,87.141h78.41c-10.466-6.205-24.184-9.97-39.2-9.97s-28.738,3.765-39.2,9.97" fill="none"/>
    </clipPath>
    <linearGradient id="linear-gradient" x1="-5.715" y1="71.698" x2="-5.703" y2="71.698" gradientUnits="objectBoundingBox">
      <stop offset="0" stop-color="#a3a3a3"/>
      <stop offset="1" stop-color="#464545"/>
    </linearGradient>
    <clipPath id="clip-path-4">
      <path id="Trazado_117791" data-name="Trazado 117791" d="M345.361,87.1h78.411c-10.467-6.206-24.186-9.97-39.206-9.97s-28.739,3.764-39.205,9.97" fill="none"/>
    </clipPath>
    <linearGradient id="linear-gradient-2" x1="-4.404" y1="71.702" x2="-4.392" y2="71.702" xlink:href="#linear-gradient"/>
    <clipPath id="clip-path-6">
      <path id="Trazado_117797" data-name="Trazado 117797" d="M139.692,87.1H218.1c-10.467-6.207-24.184-9.97-39.206-9.97s-28.739,3.763-39.205,9.97" fill="none"/>
    </clipPath>
    <linearGradient id="linear-gradient-3" x1="-1.782" y1="71.702" x2="-1.769" y2="71.702" xlink:href="#linear-gradient"/>
    <clipPath id="clip-path-7">
      <path id="Trazado_117798" data-name="Trazado 117798" d="M242.526,87.1h78.411c-10.466-6.207-24.184-9.97-39.205-9.97s-28.739,3.763-39.206,9.97" fill="none"/>
    </clipPath>
    <linearGradient id="linear-gradient-4" x1="-3.093" y1="71.702" x2="-3.08" y2="71.702" xlink:href="#linear-gradient"/>
    <clipPath id="clip-path-9">
      <path id="Trazado_117819" data-name="Trazado 117819" d="M139.692,208.635H218.1c-10.467-6.205-24.184-9.97-39.206-9.97s-28.739,3.765-39.205,9.97" fill="none"/>
    </clipPath>
    <linearGradient id="linear-gradient-5" x1="-1.782" y1="59.512" x2="-1.769" y2="59.512" xlink:href="#linear-gradient"/>
  </defs>
  <g id="Grupo_83766" data-name="Grupo 83766" transform="translate(8879.438 4469)">
    <g id="Grupo_81942" data-name="Grupo 81942" transform="translate(-9012.121 -4544.557)">
      <g id="Grupo_81923" data-name="Grupo 81923">
        <g id="Grupo_81922" data-name="Grupo 81922" clip-path="url(#clip-path)">
          <path id="Trazado_117784" data-name="Trazado 117784" d="M449.554,87.141h75.583a6.316,6.316,0,0,1,6.3,6.3v75.582a6.316,6.316,0,0,1-6.3,6.3H449.554a6.316,6.316,0,0,1-6.3-6.3V93.439a6.316,6.316,0,0,1,6.3-6.3" fill="#fff" fill-rule="evenodd"/>
          <path id="Rectángulo_34507" data-name="Rectángulo 34507" d="M6.3,0H81.879a6.3,6.3,0,0,1,6.3,6.3V81.88a6.3,6.3,0,0,1-6.3,6.3H6.3A6.3,6.3,0,0,1,0,81.88V6.3A6.3,6.3,0,0,1,6.3,0Z" transform="translate(443.257 87.141)" fill="none" stroke="#a3a3a3" stroke-miterlimit="22.926" stroke-width="1.764"/>
          <path id="Trazado_117785" data-name="Trazado 117785" d="M484.592,169.774,448.8,133.983a3.9,3.9,0,0,1,0-5.506l35.79-35.791a3.905,3.905,0,0,1,5.506,0l35.791,35.791a3.906,3.906,0,0,1,0,5.507L490.1,169.774a3.905,3.905,0,0,1-5.506,0" fill="#ffbc00" fill-rule="evenodd"/>
          <path id="Trazado_117786" data-name="Trazado 117786" d="M485.282,169.086,449.49,133.295a2.929,2.929,0,0,1,0-4.129l35.792-35.791a2.926,2.926,0,0,1,4.128,0L525.2,129.166a2.925,2.925,0,0,1,0,4.129L489.41,169.086a2.926,2.926,0,0,1-4.128,0m.687-.689a1.954,1.954,0,0,0,2.754,0l35.79-35.79a1.952,1.952,0,0,0,0-2.753l-35.79-35.791a1.954,1.954,0,0,0-2.754,0l-35.79,35.791a1.953,1.953,0,0,0,0,2.753Z" fill="#161615" fill-rule="evenodd"/>
          <path id="Trazado_117787" data-name="Trazado 117787" d="M485.293,142.417H497.46a2.079,2.079,0,0,1-1.681-2.4l.232-1.318-9.983-1.76-9.983-1.761-.233,1.318a2.046,2.046,0,0,1-.5,1.021h9.979Zm16.925,0h7.447v1.889H465.026v-6.79h4.948a2.08,2.08,0,0,1-1.23-2.267l1.144-6.49a2.007,2.007,0,0,1,.2-.593,21.773,21.773,0,0,1,.844-4.971c.363-.734,1.5-.9,2.152-1.4.005-.28.178-.542,1.122-1.006a2.107,2.107,0,0,0,.662-.484,8.972,8.972,0,0,1-2.358-.359,2.206,2.206,0,0,1-1.02-1.167.647.647,0,0,1,.414-.687,6.757,6.757,0,0,1,2.361-.3.581.581,0,0,1,.432.343c.184.342.107.807.347,1.111.113.145.581-.151.551.031a14.522,14.522,0,0,1,2.521-3.053c.374-.358,1.939-1.734,2.457-1.72a91.482,91.482,0,0,1,18.253,3.219c.491.163,1.492,1.991,1.72,2.457a14.467,14.467,0,0,1,1.326,3.73c.034-.181.372.257.528.16.33-.205.417-.667.706-.926a.585.585,0,0,1,.524-.175,6.791,6.791,0,0,1,2.114,1.093.645.645,0,0,1,.154.787,2.2,2.2,0,0,1-1.358.747,8.918,8.918,0,0,1-2.338-.469,2.1,2.1,0,0,0,.456.682c.728.758.8,1.066.711,1.328.438.692,1.453,1.24,1.542,2.054a21.683,21.683,0,0,1-.906,4.959,2.068,2.068,0,0,1-.013.627l-1.145,6.489a2.054,2.054,0,0,1-.63,1.155m-12.64-25.61c-2.49-.356-4.45-.748-6.961-.911a2.3,2.3,0,0,0-1.106.437,9.441,9.441,0,0,0-1.693,2.725c-.356.854.38.928,1.456,1.055,1.749.206,3.286.253,7.543,1s5.719,1.231,7.432,1.637c1.055.249,1.772.431,1.73-.494a9.408,9.408,0,0,0-.66-3.139,2.3,2.3,0,0,0-.889-.789c-2.414-.706-4.392-1.008-6.852-1.525m10.692,14.506c.929.76,1.884.521,2.027-.03a7.372,7.372,0,0,0,.031-2.136c-.154-1.309-6.8-2.437-7.177-.943-.116.453.415,1.253,1.58,1.22.992.029,2.61,1.131,3.539,1.889m-16.279.77,5.611.989a.531.531,0,0,1,.429.613l-.351,1.983a.528.528,0,0,1-.611.428l-5.61-.989a.53.53,0,0,1-.429-.612l.35-1.982a.53.53,0,0,1,.611-.43m-9.423-5.3c1.132-.4,3.031-.877,3.972-.566,1.085.429,1.857-.14,1.9-.605.152-1.535-6.475-2.747-7.068-1.569a7.425,7.425,0,0,0-.7,2.018c-.054.566.762,1.117,1.894.722" fill="#161615" fill-rule="evenodd"/>
        </g>
      </g>
      <g id="Grupo_81925" data-name="Grupo 81925">
        <g id="Grupo_81924" data-name="Grupo 81924" clip-path="url(#clip-path-2)">
          <rect id="Rectángulo_34509" data-name="Rectángulo 34509" width="78.41" height="9.97" transform="translate(448.14 77.171)" fill="url(#linear-gradient)"/>
        </g>
      </g>
      <g id="Grupo_81927" data-name="Grupo 81927">
        <g id="Grupo_81926" data-name="Grupo 81926" clip-path="url(#clip-path)">
          <path id="Trazado_117789" data-name="Trazado 117789" d="M454.252,182.085l.1-1.269.074-1.585.047-1.578c0-.069,0-.25,0-.544.268,0,.523.007.761.007.177,0,.41,0,.7-.011s.541-.011.753-.011a5.963,5.963,0,0,1,.8.051,2.046,2.046,0,0,1,.64.192,1.719,1.719,0,0,1,.472.351,1.952,1.952,0,0,1,.329.468,2.4,2.4,0,0,1,.195.573,3.078,3.078,0,0,1,.068.643,3.331,3.331,0,0,1-.217,1.2,2.3,2.3,0,0,1-.647.937,2.085,2.085,0,0,1-.953.475,6.067,6.067,0,0,1-1.187.106l-1.24-.008-.695.008m1.12-.776c.2.009.4.014.59.014a5.287,5.287,0,0,0,.613-.033,2.265,2.265,0,0,0,.487-.1,1.312,1.312,0,0,0,.41-.251,1.5,1.5,0,0,0,.336-.413,1.946,1.946,0,0,0,.2-.523,2.455,2.455,0,0,0,.07-.587,1.936,1.936,0,0,0-.185-.9,1.16,1.16,0,0,0-.49-.506,2.18,2.18,0,0,0-.938-.156c-.275,0-.589.007-.944.016Zm4.507.776.107-1.4.075-1.615.047-1.469v-.5q.9.006,1.879.007l.7,0,1.053,0-.043.787-.346-.018c-.1-.005-.226-.009-.4-.011s-.338,0-.514,0c-.379,0-.623,0-.733,0s-.278.005-.5.012l-.059,1.294c.333.008.669.011,1.007.011q.35,0,1.181-.022c-.02.221-.036.486-.051.795l-1.115-.011q-.429,0-1.071.022l-.059,1.365.4,0c.117,0,.383,0,.8-.007l.791-.016.528-.025c-.025.282-.04.547-.051.8q-.948-.008-1.709-.008l-1.2,0Zm4.438-.106q-.03-.554-.078-.9a3.189,3.189,0,0,0,1.3.324,1.336,1.336,0,0,0,.435-.07.622.622,0,0,0,.3-.2.483.483,0,0,0,.1-.291.539.539,0,0,0-.046-.223,1.064,1.064,0,0,0-.234-.28c-.139-.134-.386-.352-.743-.66-.169-.148-.287-.254-.351-.316a2.55,2.55,0,0,1-.335-.375,1.158,1.158,0,0,1-.168-.33,1.194,1.194,0,0,1-.051-.35,1.172,1.172,0,0,1,.192-.642,1.252,1.252,0,0,1,.572-.471,2.385,2.385,0,0,1,.96-.17,6.092,6.092,0,0,1,1.172.129c.013.253.038.541.074.868a2.939,2.939,0,0,0-1.049-.219.967.967,0,0,0-.584.162.459.459,0,0,0-.229.376.45.45,0,0,0,.017.123.48.48,0,0,0,.047.124,1.129,1.129,0,0,0,.114.157,2,2,0,0,0,.238.226c.1.086.2.155.269.209l.449.408c.113.1.215.188.307.277a2.847,2.847,0,0,1,.23.259,1.291,1.291,0,0,1,.151.237,1.13,1.13,0,0,1,.082.23,1.1,1.1,0,0,1,.028.251,1.219,1.219,0,0,1-.142.577,1.184,1.184,0,0,1-.409.447,1.67,1.67,0,0,1-.582.243,3.3,3.3,0,0,1-.671.067,4.233,4.233,0,0,1-.543-.04q-.311-.041-.816-.153m3.954.106q.069-.654.106-1.466l.084-1.786q.043-.969.044-1.724c.282,0,.521.007.718.007.145,0,.359,0,.638-.007q.412.719,1.137,1.873t1.17,1.915l.136-3.384c0-.079,0-.215,0-.4.228,0,.4.007.517.007l.51-.007-.09,1.338-.114,2.289-.043,1.349q-.381-.008-.646-.008-.213,0-.687.008c-.12-.217-.213-.377-.276-.482-.1-.16-.312-.49-.639-.991q-.319-.5-.8-1.269c-.235-.379-.437-.708-.6-.991q-.031.589-.093,2.191c-.015.435-.03.949-.039,1.542-.23-.005-.393-.008-.495-.008-.081,0-.259,0-.537.008m5.881,0q.087-1.254.141-2.571c.038-.879.055-1.549.055-2.015l0-.39.61.007.557-.007q-.148,1.917-.189,4.976l-.536-.008c-.089,0-.3,0-.634.008m3.554,0-.139-.46c-.018-.06-.1-.291-.24-.7l-.707-2.012-.65-1.808c.251,0,.459.007.624.007.1,0,.281,0,.537-.007l.112.4c.024.084.06.2.106.336l.881,2.673c.053.171.123.4.208.682l.2-.445c.05-.111.15-.325.3-.642l1.149-2.4c.033-.07.068-.145.1-.224s.087-.206.16-.385c.265,0,.467.007.605.007.083,0,.274,0,.572-.007l-.314.583-1.994,3.937-.21.456q-.474-.008-.634-.008c-.1,0-.318,0-.668.008m3.938,0,.1-1.4.076-1.615.048-1.469v-.5q.9.006,1.877.007l.7,0,1.054,0-.044.787-.345-.018c-.1-.005-.227-.009-.4-.011s-.339,0-.513,0c-.381,0-.624,0-.735,0s-.277.005-.5.012l-.057,1.294c.331.008.667.011,1.006.011.233,0,.627-.007,1.18-.022-.02.221-.035.486-.051.795l-1.115-.011q-.429,0-1.07.022l-.059,1.365.4,0c.118,0,.384,0,.8-.007l.79-.016.529-.025c-.025.282-.041.547-.051.8-.633-.005-1.2-.008-1.71-.008l-1.2,0Zm4.537,0q.109-1.1.175-2.444t.076-2.532c.248,0,.454.007.62.007.112,0,.292,0,.536-.007-.031.439-.06.936-.086,1.494l-.074,1.462q-.035.627-.048,1.247l.627.007c.588,0,.975,0,1.159-.006s.367-.009.547-.019c-.022.238-.041.5-.058.791q-.96-.008-1.64-.008l-1.149,0Zm5.776-.106q-.03-.554-.077-.9a3.181,3.181,0,0,0,1.3.324,1.342,1.342,0,0,0,.436-.07.615.615,0,0,0,.3-.2.476.476,0,0,0,.1-.291.523.523,0,0,0-.046-.223,1.026,1.026,0,0,0-.234-.28c-.138-.134-.385-.352-.741-.66-.171-.148-.288-.254-.352-.316a2.55,2.55,0,0,1-.335-.375,1.167,1.167,0,0,1-.027-1.322,1.252,1.252,0,0,1,.572-.471,2.383,2.383,0,0,1,.959-.17,6.1,6.1,0,0,1,1.174.129c.012.253.037.541.073.868A2.934,2.934,0,0,0,494,177.8a.973.973,0,0,0-.585.162.459.459,0,0,0-.227.376.49.49,0,0,0,.016.123.518.518,0,0,0,.047.124,1.2,1.2,0,0,0,.113.157,2.2,2.2,0,0,0,.239.226c.105.086.2.155.269.209l.449.408c.113.1.215.188.306.277a2.884,2.884,0,0,1,.232.259,1.338,1.338,0,0,1,.15.237,1.132,1.132,0,0,1,.082.23,1.1,1.1,0,0,1,.028.251,1.231,1.231,0,0,1-.142.577,1.19,1.19,0,0,1-.408.447,1.672,1.672,0,0,1-.584.243,3.283,3.283,0,0,1-.671.067,4.244,4.244,0,0,1-.542-.04q-.311-.041-.816-.153m3.95.106.106-1.4.076-1.615.047-1.469v-.5q.9.006,1.878.007l.7,0,1.054,0-.043.787-.346-.018c-.1-.005-.227-.009-.395-.011s-.338,0-.514,0c-.379,0-.623,0-.734,0s-.277.005-.5.012l-.059,1.294c.332.008.668.011,1.007.011q.35,0,1.181-.022c-.02.221-.036.486-.051.795l-1.115-.011c-.286,0-.644.007-1.072.022l-.057,1.365.4,0c.117,0,.383,0,.8-.007l.79-.016.529-.025c-.025.282-.041.547-.051.8-.632-.005-1.2-.008-1.71-.008l-1.2,0Zm5.931,0-.139-.46c-.018-.06-.1-.291-.24-.7l-.706-2.012-.65-1.808c.25,0,.458.007.623.007.1,0,.282,0,.537-.007l.113.4c.024.084.06.2.106.336l.881,2.673c.053.171.123.4.207.682l.2-.445q.075-.167.3-.642l1.148-2.4c.034-.07.069-.145.1-.224s.087-.206.161-.385c.265,0,.466.007.6.007.084,0,.274,0,.573-.007l-.314.583-1.994,3.937-.211.456q-.474-.008-.634-.008-.143,0-.668.008m3.938,0,.105-1.4.076-1.615.048-1.469v-.5q.9.006,1.877.007l.7,0,1.054,0-.044.787-.345-.018c-.1-.005-.227-.009-.394-.011s-.339,0-.514,0c-.381,0-.624,0-.735,0s-.277.005-.5.012l-.057,1.294c.332.008.668.011,1.006.011q.35,0,1.181-.022c-.02.221-.036.486-.051.795l-1.115-.011c-.287,0-.643.007-1.071.022l-.059,1.365.4,0c.117,0,.383,0,.8-.007l.79-.016.529-.025c-.025.282-.041.547-.051.8q-.948-.008-1.709-.008l-1.2,0Zm4.556,0c.074-.724.127-1.557.164-2.5s.055-1.767.055-2.479c.291,0,.535.007.731.007.212,0,.42,0,.622-.011s.418-.011.644-.011a5.505,5.505,0,0,1,.756.047,1.421,1.421,0,0,1,.592.219,1.1,1.1,0,0,1,.385.416,1.224,1.224,0,0,1,.126.569,1.554,1.554,0,0,1-.048.387,1.3,1.3,0,0,1-.14.347,1.277,1.277,0,0,1-.221.285,1.237,1.237,0,0,1-.252.192,1.566,1.566,0,0,1-.286.123c-.107.034-.25.075-.43.124l.247.481q.121.229.456.824l.367.645c.021.034.079.146.177.332-.3-.005-.493-.008-.588-.008-.115,0-.322,0-.616.008l-.4-.97c-.072-.147-.156-.323-.255-.525l-.442-.885c-.044-.083-.1-.208-.182-.372a2.55,2.55,0,0,0,.444.043,1.545,1.545,0,0,0,.572-.1.81.81,0,0,0,.4-.315.838.838,0,0,0,.138-.465.688.688,0,0,0-.059-.284.536.536,0,0,0-.2-.222.812.812,0,0,0-.339-.116,3.069,3.069,0,0,0-.394-.027c-.072,0-.172,0-.3,0s-.283.005-.466.005l-.066,1.5-.069,2.734-.565-.008c-.09,0-.273,0-.551.008m7.545-5.064a3.6,3.6,0,0,1,1.043.15,2.359,2.359,0,0,1,.886.487,2.236,2.236,0,0,1,.584.785,2.61,2.61,0,0,1,.2,1.046,3.127,3.127,0,0,1-.186,1.074,2.274,2.274,0,0,1-.575.882,2.4,2.4,0,0,1-.951.547,3.774,3.774,0,0,1-1.174.18,3.836,3.836,0,0,1-1.122-.164,2.406,2.406,0,0,1-.925-.514,2.008,2.008,0,0,1-.556-.8,2.787,2.787,0,0,1-.169-.982,2.992,2.992,0,0,1,.209-1.108,2.2,2.2,0,0,1,.618-.875,2.77,2.77,0,0,1,.95-.524,3.746,3.746,0,0,1,1.172-.18m-.058.778a1.774,1.774,0,0,0-.958.253,1.6,1.6,0,0,0-.615.693,2.2,2.2,0,0,0-.2.948,1.909,1.909,0,0,0,.2.873,1.352,1.352,0,0,0,.609.61,1.959,1.959,0,0,0,.89.209,1.9,1.9,0,0,0,.688-.126,1.472,1.472,0,0,0,.568-.376,1.616,1.616,0,0,0,.358-.61,2.293,2.293,0,0,0,.121-.744,2.212,2.212,0,0,0-.108-.691,1.469,1.469,0,0,0-.333-.571,1.372,1.372,0,0,0-.545-.353,1.948,1.948,0,0,0-.669-.115" fill="#161615"/>
          <path id="Trazado_117790" data-name="Trazado 117790" d="M346.775,87.1h75.583a6.315,6.315,0,0,1,6.3,6.3v75.582a6.315,6.315,0,0,1-6.3,6.3H346.775a6.316,6.316,0,0,1-6.3-6.3V93.4a6.316,6.316,0,0,1,6.3-6.3" fill="#fff" fill-rule="evenodd"/>
          <path id="Rectángulo_34510" data-name="Rectángulo 34510" d="M6.3,0h75.58a6.3,6.3,0,0,1,6.3,6.3V81.88a6.3,6.3,0,0,1-6.3,6.3H6.3A6.3,6.3,0,0,1,0,81.88V6.3A6.3,6.3,0,0,1,6.3,0Z" transform="translate(340.478 87.098)" fill="none" stroke="#a3a3a3" stroke-miterlimit="22.926" stroke-width="1.764"/>
        </g>
      </g>
      <g id="Grupo_81929" data-name="Grupo 81929">
        <g id="Grupo_81928" data-name="Grupo 81928" clip-path="url(#clip-path-4)">
          <rect id="Rectángulo_34512" data-name="Rectángulo 34512" width="78.411" height="9.97" transform="translate(345.361 77.128)" fill="url(#linear-gradient-2)"/>
        </g>
      </g>
      <g id="Grupo_81931" data-name="Grupo 81931">
        <g id="Grupo_81930" data-name="Grupo 81930" clip-path="url(#clip-path)">
          <path id="Trazado_117792" data-name="Trazado 117792" d="M381.813,169.73l-35.791-35.79a3.906,3.906,0,0,1,0-5.507l35.791-35.791a3.905,3.905,0,0,1,5.506,0l35.791,35.791a3.906,3.906,0,0,1,0,5.507l-35.791,35.79a3.905,3.905,0,0,1-5.506,0" fill="#ffbc00" fill-rule="evenodd"/>
          <path id="Trazado_117793" data-name="Trazado 117793" d="M382.5,169.043l-35.792-35.791a2.927,2.927,0,0,1,0-4.129L382.5,93.332a2.926,2.926,0,0,1,4.128,0l35.792,35.791a2.929,2.929,0,0,1,0,4.129l-35.792,35.791a2.926,2.926,0,0,1-4.128,0m.687-.689a1.951,1.951,0,0,0,2.753,0l35.79-35.79a1.951,1.951,0,0,0,0-2.753L385.943,94.02a1.953,1.953,0,0,0-2.753,0L347.4,129.811a1.953,1.953,0,0,0,0,2.753Z" fill="#161615" fill-rule="evenodd"/>
          <path id="Trazado_117794" data-name="Trazado 117794" d="M371.3,148.868h0a4.332,4.332,0,0,0-2.792,2.083c-.009.025-.017.051-.024.075h19.812c-.728-1.5-4.608-2.137-7.952-1.423-.424-1.046-2.7-1.362-5.172-1.362-.16-.451-.309-.9-.448-1.345h-3.76q.148.984.334,1.972m23-35.552h7.258l.192.334H390.611l-.161-.279h-3.488l-.193-.333h7.362Zm11.282,11.344h5.669l.192.333H400.5l-.16-.28h-3.687l-.192-.333h8.948Zm-14.432-5.927h13.965l.27.468H391.411Zm-.087,10.074h11.137l.294.51h-19.2l-.247-.428h-3.2l-.3-.51h11.261Zm-9.632-12.962c2-3.342,5.587-3.861,9.4-4.022-4.218-2.813-7.669-1.028-10.391,3.864a2.967,2.967,0,0,0-1.026.185c-2.447-3.351-5.444-.284-5.4,4.336a7.724,7.724,0,0,0,.454,2.679c-.117.2-.231.4-.343.6l.994.6c1.346,1.833,3.86,2.5,7.187,2.514-3.052-.785-4.729-2.278-5.634-4.025q.231-.434.472-.845l-1.088-.765a12.72,12.72,0,0,1-.386-3.082c-.053-3.371,1.811-3.4,2.692-1.116a1.105,1.105,0,0,0-.092.44,1.129,1.129,0,0,0,.143.543,25.565,25.565,0,0,0-2.117,2.418l1.243.907a19.228,19.228,0,0,1,1.877-2.529,2.925,2.925,0,0,0,1.04.183,3.267,3.267,0,0,0,.412-.026c4.2,6.8,9.035,9.66,12.653,4.489-4.8,2.582-9.506-.392-11.6-4.855a1.845,1.845,0,0,0,.408-.344c2.391,1.06,5.276,6.315,10.552,2.084-6.8,1.309-8.885-1.956-10.239-2.828v-.042a1.125,1.125,0,0,0-.173-.593c6.476,1.214,7.031,3.579,10.035-1.521-6.481,3.942-6.268.318-10.391,1.12a2.26,2.26,0,0,0-.689-.372m-6.9,30.38q-.4-1.392-.674-2.759l-3.317-.292q.119,1.485.325,2.987Zm-.806-3.462q-.258-1.453-.382-2.872l-2.951-.522q0,1.514.094,3.053Zm-.438-3.6c-.066-1-.085-1.983-.062-2.946l-2.644-.711q-.149,1.53-.181,3.1Zm-.037-3.685c.048-1.019.143-2.012.277-2.978l-2.359-.862q-.319,1.522-.5,3.1Zm.391-3.719-2.3-.887a31.068,31.068,0,0,1,.875-3.038l2.059.965q-.377,1.425-.631,2.96m.832-3.692-1.991-.976a27.407,27.407,0,0,1,1.28-2.9l1.709.989a30.451,30.451,0,0,0-1,2.889" fill="#161615" fill-rule="evenodd"/>
          <path id="Trazado_117795" data-name="Trazado 117795" d="M243.941,87.1h75.582a6.315,6.315,0,0,1,6.3,6.3v75.583a6.315,6.315,0,0,1-6.3,6.3H243.941a6.316,6.316,0,0,1-6.3-6.3V93.395a6.316,6.316,0,0,1,6.3-6.3" fill="#fff" fill-rule="evenodd"/>
          <rect id="Rectángulo_34513" data-name="Rectángulo 34513" width="88.176" height="88.177" rx="6.297" transform="translate(237.644 87.098)" fill="none" stroke="#a3a3a3" stroke-miterlimit="22.926" stroke-width="1.764"/>
          <path id="Trazado_117796" data-name="Trazado 117796" d="M141.106,87.1h75.583a6.316,6.316,0,0,1,6.3,6.3v75.583a6.316,6.316,0,0,1-6.3,6.3H141.106a6.316,6.316,0,0,1-6.3-6.3V93.395a6.316,6.316,0,0,1,6.3-6.3" fill="#fff" fill-rule="evenodd"/>
          <rect id="Rectángulo_34514" data-name="Rectángulo 34514" width="88.177" height="88.177" rx="6.297" transform="translate(134.809 87.098)" fill="none" stroke="#a3a3a3" stroke-miterlimit="22.926" stroke-width="1.764"/>
        </g>
      </g>
      <g id="Grupo_81933" data-name="Grupo 81933">
        <g id="Grupo_81932" data-name="Grupo 81932" clip-path="url(#clip-path-6)">
          <rect id="Rectángulo_34516" data-name="Rectángulo 34516" width="78.411" height="9.97" transform="translate(139.692 77.128)" fill="url(#linear-gradient-3)"/>
        </g>
      </g>
      <g id="Grupo_81935" data-name="Grupo 81935">
        <g id="Grupo_81934" data-name="Grupo 81934" clip-path="url(#clip-path-7)">
          <rect id="Rectángulo_34517" data-name="Rectángulo 34517" width="78.411" height="9.97" transform="translate(242.526 77.128)" fill="url(#linear-gradient-4)"/>
        </g>
      </g>
      <g id="Grupo_81937" data-name="Grupo 81937">
        <g id="Grupo_81936" data-name="Grupo 81936" clip-path="url(#clip-path)">
          <path id="Trazado_117799" data-name="Trazado 117799" d="M149.161,181.912l.066-.863.091-1.914.044-1.39c0-.125,0-.254,0-.382,0-.1,0-.238,0-.426.311,0,.563.007.758.007q.232,0,.649-.011c.276-.007.5-.012.66-.012a2.705,2.705,0,0,1,.739.074,1.213,1.213,0,0,1,.441.251,1.15,1.15,0,0,1,.288.412,1.531,1.531,0,0,1,.109.58,1.608,1.608,0,0,1-.235.854,1.444,1.444,0,0,1-.651.575,2.2,2.2,0,0,1-.922.19,3.055,3.055,0,0,1-.529-.051c-.053-.253-.113-.489-.182-.711a2.231,2.231,0,0,0,.449.047,1.377,1.377,0,0,0,.525-.09.759.759,0,0,0,.353-.3.852.852,0,0,0,.131-.465.719.719,0,0,0-.055-.281.476.476,0,0,0-.158-.2.592.592,0,0,0-.231-.1,1.7,1.7,0,0,0-.357-.028c-.137,0-.273,0-.411.008s-.261.006-.369.006c-.029.477-.05.932-.065,1.368l-.044,1.392c-.013.494-.022.856-.022,1.085,0,.089,0,.216.005.38l-.53-.006c-.067,0-.25,0-.547.006m4.382,0q.109-1.086.163-2.5t.056-2.479c.291,0,.535.007.731.007.212,0,.42,0,.622-.011s.417-.012.644-.012a5.691,5.691,0,0,1,.756.047,1.432,1.432,0,0,1,.592.22,1.092,1.092,0,0,1,.384.416,1.218,1.218,0,0,1,.126.569,1.572,1.572,0,0,1-.047.387,1.38,1.38,0,0,1-.14.346,1.255,1.255,0,0,1-.221.284,1.273,1.273,0,0,1-.252.194,1.5,1.5,0,0,1-.286.121c-.107.036-.25.077-.431.125l.247.482c.082.153.233.426.456.824l.368.644c.02.035.078.146.175.332-.295-.005-.492-.006-.586-.006-.116,0-.323,0-.616.006l-.4-.969c-.071-.149-.156-.323-.255-.525l-.442-.886c-.043-.084-.105-.206-.182-.372a2.643,2.643,0,0,0,.444.043,1.554,1.554,0,0,0,.573-.1.836.836,0,0,0,.4-.315.849.849,0,0,0,.137-.466.683.683,0,0,0-.059-.283.538.538,0,0,0-.2-.223.826.826,0,0,0-.338-.116,3.083,3.083,0,0,0-.4-.026c-.072,0-.172,0-.3,0s-.282,0-.467,0l-.065,1.5-.068,2.733-.566-.006c-.09,0-.273,0-.55.006m7.545-5.063a3.6,3.6,0,0,1,1.042.15,2.365,2.365,0,0,1,.886.486,2.239,2.239,0,0,1,.584.786,2.589,2.589,0,0,1,.2,1.046,3.144,3.144,0,0,1-.185,1.073,2.266,2.266,0,0,1-.576.882,2.421,2.421,0,0,1-.95.548,3.93,3.93,0,0,1-2.3.015,2.4,2.4,0,0,1-.927-.514,2.005,2.005,0,0,1-.555-.8,2.787,2.787,0,0,1-.169-.982,3.005,3.005,0,0,1,.209-1.108,2.227,2.227,0,0,1,.617-.876,2.777,2.777,0,0,1,.952-.523,3.713,3.713,0,0,1,1.172-.18m-.059.777a1.769,1.769,0,0,0-.958.254,1.585,1.585,0,0,0-.615.691,2.231,2.231,0,0,0-.2.95,1.92,1.92,0,0,0,.2.872,1.338,1.338,0,0,0,.61.609,1.931,1.931,0,0,0,.89.209,1.91,1.91,0,0,0,.687-.124,1.467,1.467,0,0,0,.568-.377,1.635,1.635,0,0,0,.359-.609,2.334,2.334,0,0,0,.12-.745,2.239,2.239,0,0,0-.107-.691,1.48,1.48,0,0,0-.333-.571,1.381,1.381,0,0,0-.545-.354,1.981,1.981,0,0,0-.67-.114m4.469,4.286q.045-.4.09-1.058c.031-.435.048-.781.054-1.039l-1.634-2.878c.275,0,.487.007.642.007s.34,0,.583-.007c.108.252.268.572.477.959s.389.745.54,1.067l1.083-1.749.16-.277c.235,0,.444.007.627.007.1,0,.29,0,.587-.007l-1.991,2.956-.043.923c-.015.271-.026.637-.034,1.1-.26-.005-.448-.006-.568-.006s-.313,0-.573.006m3.367,0,.1-1.4.076-1.615.047-1.47v-.494q.9.006,1.877.007l.7,0,1.054,0-.044.787-.345-.018c-.1,0-.227-.01-.4-.012s-.339,0-.513,0c-.381,0-.624,0-.735,0s-.277.005-.5.014L170.132,179c.332.007.668.011,1.006.011q.351,0,1.181-.023c-.02.222-.035.487-.051.795l-1.115-.01q-.429,0-1.07.022l-.059,1.363.4,0,.8-.006.79-.015.529-.026q-.037.423-.051.8c-.633-.005-1.2-.006-1.71-.006l-1.2,0ZM177.5,181c-.053.284-.1.574-.138.868-.277.048-.531.083-.762.1s-.428.028-.594.028a3.541,3.541,0,0,1-1.045-.153,2.568,2.568,0,0,1-.9-.483,1.891,1.891,0,0,1-.578-.8,3.03,3.03,0,0,1,.036-2.147,2.342,2.342,0,0,1,.619-.868,2.627,2.627,0,0,1,.953-.527,3.783,3.783,0,0,1,1.148-.173,6.856,6.856,0,0,1,1.291.135c.007.216.015.369.022.46l.025.39a6.691,6.691,0,0,0-.686-.15,3.676,3.676,0,0,0-.521-.04,2.378,2.378,0,0,0-.749.119,1.711,1.711,0,0,0-.635.377,1.73,1.73,0,0,0-.421.626,2,2,0,0,0-.148.762,1.914,1.914,0,0,0,.183.849,1.411,1.411,0,0,0,.585.61,1.962,1.962,0,0,0,1,.232A4.9,4.9,0,0,0,177.5,181m4.846,0c-.054.284-.1.574-.138.868-.278.048-.532.083-.763.1s-.428.028-.594.028a3.541,3.541,0,0,1-1.045-.153,2.568,2.568,0,0,1-.9-.483,1.889,1.889,0,0,1-.577-.8,3.015,3.015,0,0,1,.036-2.147,2.329,2.329,0,0,1,.618-.868,2.628,2.628,0,0,1,.953-.527,3.784,3.784,0,0,1,1.149-.173,6.855,6.855,0,0,1,1.29.135c.007.216.015.369.022.46l.025.39a6.68,6.68,0,0,0-.685-.15,3.7,3.7,0,0,0-.522-.04,2.382,2.382,0,0,0-.749.119,1.7,1.7,0,0,0-.634.377,1.719,1.719,0,0,0-.422.626,2.019,2.019,0,0,0-.148.762,1.914,1.914,0,0,0,.183.849,1.405,1.405,0,0,0,.585.61,1.965,1.965,0,0,0,1,.232,4.909,4.909,0,0,0,1.317-.218m.78.911q.087-1.253.142-2.572c.037-.879.054-1.549.054-2.015l0-.388.609.007.558-.007q-.15,1.916-.189,4.975l-.537-.006c-.089,0-.3,0-.634.006m5.015-5.063a3.6,3.6,0,0,1,1.043.15,2.357,2.357,0,0,1,.886.486,2.227,2.227,0,0,1,.584.786,2.606,2.606,0,0,1,.2,1.046,3.144,3.144,0,0,1-.185,1.073,2.266,2.266,0,0,1-.576.882,2.418,2.418,0,0,1-.951.548,3.93,3.93,0,0,1-2.3.015,2.394,2.394,0,0,1-.925-.514,2.011,2.011,0,0,1-.557-.8,2.809,2.809,0,0,1-.167-.982,2.965,2.965,0,0,1,.209-1.108,2.188,2.188,0,0,1,.617-.876,2.768,2.768,0,0,1,.95-.523,3.718,3.718,0,0,1,1.172-.18m-.058.777a1.769,1.769,0,0,0-.958.254,1.585,1.585,0,0,0-.615.691,2.216,2.216,0,0,0-.205.95,1.92,1.92,0,0,0,.2.872,1.338,1.338,0,0,0,.61.609,1.985,1.985,0,0,0,1.577.085,1.475,1.475,0,0,0,.568-.377,1.62,1.62,0,0,0,.358-.609,2.308,2.308,0,0,0,.121-.745,2.239,2.239,0,0,0-.107-.691,1.47,1.47,0,0,0-.334-.571,1.374,1.374,0,0,0-.545-.354,1.967,1.967,0,0,0-.669-.114m-.361-1.152.134-.337c.028-.071.06-.159.1-.262s.077-.2.113-.287c.2.005.378.007.544.007.135,0,.317,0,.546-.007-.163.2-.284.359-.365.474l-.3.412c-.128-.005-.261-.008-.393-.008s-.245,0-.376.008m3.821,5.438c.046-.436.082-.923.106-1.465l.085-1.786c.028-.646.043-1.222.043-1.724.283,0,.522.007.718.007.146,0,.359,0,.638-.007q.413.719,1.138,1.873t1.169,1.914l.136-3.382c0-.081,0-.217,0-.4.229,0,.4.007.517.007l.51-.007-.09,1.338-.114,2.289-.043,1.348c-.254-.005-.469-.006-.646-.006-.142,0-.371,0-.687.006-.12-.217-.213-.377-.276-.481-.1-.161-.312-.49-.638-.992q-.32-.5-.8-1.268-.351-.568-.6-.991-.03.588-.092,2.191-.025.649-.04,1.541c-.229-.005-.393-.006-.495-.006-.081,0-.259,0-.537.006m7.743,0,.1-1.269.072-1.585.048-1.578c0-.068,0-.25,0-.543.27,0,.525.007.763.007q.264,0,.7-.011c.29-.007.542-.012.753-.012a5.818,5.818,0,0,1,.8.052,1.982,1.982,0,0,1,.638.191,1.743,1.743,0,0,1,.473.352,1.878,1.878,0,0,1,.329.468,2.459,2.459,0,0,1,.2.573,3.061,3.061,0,0,1,.066.642,3.327,3.327,0,0,1-.216,1.195,2.278,2.278,0,0,1-.647.937,2.1,2.1,0,0,1-.953.476,5.981,5.981,0,0,1-1.187.1l-1.239-.006c-.077,0-.31,0-.7.006m1.12-.776c.2.01.4.015.59.015a5.054,5.054,0,0,0,.613-.034,2.19,2.19,0,0,0,.487-.1,1.285,1.285,0,0,0,.411-.248,1.592,1.592,0,0,0,.336-.414,2.081,2.081,0,0,0,.2-.523,2.578,2.578,0,0,0,.069-.589,1.924,1.924,0,0,0-.185-.9,1.146,1.146,0,0,0-.491-.506,2.153,2.153,0,0,0-.937-.156c-.274,0-.589.005-.943.015Zm4.508.776.106-1.4.076-1.615.047-1.47v-.494q.9.006,1.878.007l.7,0,1.054,0-.044.787-.345-.018c-.1,0-.227-.01-.4-.012s-.338,0-.513,0c-.379,0-.623,0-.735,0s-.276.005-.5.014L206.182,179c.332.007.668.011,1.006.011.233,0,.628-.007,1.182-.023-.021.222-.037.487-.051.795l-1.115-.01c-.286,0-.644.007-1.072.022l-.058,1.363.4,0,.8-.006.789-.015.53-.026q-.037.423-.051.8c-.633-.005-1.2-.006-1.71-.006l-1.2,0ZM163.6,185.7q.5.007.963.008.6,0,1-.008-.095,1.221-.134,2.712-.606.12-1.094.169a8.175,8.175,0,0,1-.831.05,4.98,4.98,0,0,1-1.191-.135,2.381,2.381,0,0,1-.927-.438,1.892,1.892,0,0,1-.577-.8,2.758,2.758,0,0,1-.2-1.044,2.836,2.836,0,0,1,.148-.907,2.622,2.622,0,0,1,.437-.8,2.536,2.536,0,0,1,.7-.606,2.728,2.728,0,0,1,.871-.333,5.167,5.167,0,0,1,.974-.088,8.184,8.184,0,0,1,1.627.189c0,.278.016.567.04.871a4.891,4.891,0,0,0-1.557-.292,2.735,2.735,0,0,0-.847.129,1.811,1.811,0,0,0-.688.393,1.754,1.754,0,0,0-.441.665,2.264,2.264,0,0,0-.152.818,1.972,1.972,0,0,0,.173.841,1.207,1.207,0,0,0,.581.573,2.073,2.073,0,0,0,.937.2,3.53,3.53,0,0,0,1-.153l.058-1.278-.287,0q-.245,0-.62.01c.023-.327.033-.574.033-.748m2.814,2.843c.074-.724.127-1.556.164-2.5s.056-1.767.056-2.479q.435.008.731.007c.211,0,.419,0,.622-.01s.417-.011.644-.011a5.362,5.362,0,0,1,.756.047,1.418,1.418,0,0,1,.592.219,1.1,1.1,0,0,1,.385.416,1.232,1.232,0,0,1,.125.568,1.612,1.612,0,0,1-.046.388,1.333,1.333,0,0,1-.142.346,1.279,1.279,0,0,1-.22.286,1.3,1.3,0,0,1-.253.191,1.474,1.474,0,0,1-.286.123c-.107.034-.25.075-.43.125l.247.482c.081.151.233.426.456.822l.368.645c.02.034.078.146.176.332-.3,0-.493-.007-.588-.007-.115,0-.322,0-.616.007l-.4-.969c-.071-.147-.156-.324-.255-.526l-.442-.885c-.043-.083-.1-.207-.182-.372a2.569,2.569,0,0,0,.445.044,1.548,1.548,0,0,0,.572-.1.817.817,0,0,0,.4-.315.841.841,0,0,0,.138-.466.691.691,0,0,0-.059-.284.542.542,0,0,0-.2-.222.812.812,0,0,0-.339-.116,3.26,3.26,0,0,0-.394-.026l-.3,0c-.126,0-.282.005-.466.005l-.066,1.5-.069,2.734-.565-.007c-.09,0-.273,0-.551.007m4.057,0c.308,0,.519-.007.63-.007l.594.007c.27-.6.547-1.19.831-1.768h1.917c.088.229.2.526.319.893s.218.659.276.875c.3,0,.512-.007.637-.007l.548.007-.157-.4-1.134-3.084-.52-1.491q-.333.008-.679.007-.2,0-.671-.007-.294.624-.742,1.478l-.96,1.84q-.511.987-.889,1.658m2.38-2.526.529-1.071.295-.612.572,1.683Zm5.269,2.526-.139-.459c-.019-.061-.1-.291-.24-.7l-.707-2.012-.649-1.809c.25.005.457.007.623.007.1,0,.281,0,.537-.007l.112.4c.024.084.06.2.106.335l.881,2.674c.054.171.123.4.208.682l.2-.445c.049-.111.15-.325.3-.644l1.149-2.4c.033-.069.068-.144.1-.223s.087-.207.16-.386q.4.008.6.007c.083,0,.274,0,.572-.007l-.313.584-2,3.936-.21.456c-.316,0-.527-.007-.635-.007l-.667.007m3.948,0q.089-1.254.142-2.571c.038-.878.055-1.55.055-2.015l0-.39.61.007.557-.007q-.148,1.917-.189,4.976l-.536-.007-.635.007m2.162,0c.073-.731.13-1.547.174-2.443s.07-1.743.077-2.533q.372.008.62.007c.112,0,.291,0,.536-.007-.031.439-.061.936-.087,1.5l-.073,1.461c-.022.418-.039.834-.048,1.247l.627.008c.588,0,.975,0,1.159-.007s.367-.009.547-.019c-.022.238-.041.5-.058.791q-.96-.006-1.64-.007l-1.149,0Zm4.01,0c.073-.731.131-1.547.174-2.443s.07-1.743.077-2.533c.248.005.454.007.62.007.112,0,.291,0,.536-.007-.031.439-.061.936-.087,1.5l-.073,1.461q-.035.627-.048,1.247l.628.008c.587,0,.974,0,1.158-.007s.367-.009.547-.019c-.022.238-.041.5-.058.791q-.96-.006-1.64-.007l-1.148,0Zm3.376,0c.308,0,.519-.007.631-.007l.593.007c.27-.6.548-1.19.831-1.768h1.918c.087.229.194.526.318.893s.218.659.276.875c.3,0,.512-.007.637-.007l.548.007-.157-.4-1.133-3.084-.522-1.491c-.221.005-.446.007-.678.007-.13,0-.354,0-.67-.007q-.3.624-.743,1.478l-.96,1.84q-.512.987-.889,1.658m2.38-2.526.529-1.071.295-.612.572,1.683Z" fill="#161615"/>
          <path id="Trazado_117800" data-name="Trazado 117800" d="M240.328,181.808c-.02-.37-.046-.671-.077-.9a3.194,3.194,0,0,0,1.3.324,1.279,1.279,0,0,0,.434-.071.6.6,0,0,0,.3-.2.473.473,0,0,0,.1-.289.54.54,0,0,0-.046-.224,1.064,1.064,0,0,0-.234-.28c-.139-.135-.387-.353-.742-.66-.17-.149-.288-.254-.352-.316a2.663,2.663,0,0,1-.335-.375,1.153,1.153,0,0,1-.168-.329,1.193,1.193,0,0,1,.141-.994,1.268,1.268,0,0,1,.572-.47,2.369,2.369,0,0,1,.96-.169,6.013,6.013,0,0,1,1.172.129q.02.376.074.866a2.935,2.935,0,0,0-1.049-.219.983.983,0,0,0-.584.162.431.431,0,0,0-.212.5.521.521,0,0,0,.047.122.975.975,0,0,0,.114.157,1.781,1.781,0,0,0,.238.227c.1.086.195.156.269.209l.45.407c.112.1.214.189.306.279a2.881,2.881,0,0,1,.231.259,1.363,1.363,0,0,1,.15.235,1.089,1.089,0,0,1,.082.232,1.073,1.073,0,0,1,.028.251,1.222,1.222,0,0,1-.142.577,1.2,1.2,0,0,1-.408.446,1.676,1.676,0,0,1-.583.243,3.239,3.239,0,0,1-.672.066,4.585,4.585,0,0,1-.542-.038q-.311-.042-.816-.153m3.294.1q.378-.67.889-1.658l.96-1.841q.447-.855.742-1.476c.317,0,.54.006.671.006.232,0,.456,0,.678-.006l.522,1.49,1.133,3.084.156.4-.547-.007c-.126,0-.338,0-.636.007-.059-.217-.152-.508-.277-.875s-.232-.664-.318-.893h-1.918q-.426.868-.831,1.768l-.593-.007c-.112,0-.323,0-.631.007M246,179.387h1.4l-.573-1.683-.294.612Zm3.876,2.526c.074-.731.131-1.547.175-2.443s.07-1.743.077-2.532c.247,0,.454.006.62.006.112,0,.291,0,.536-.006-.031.437-.061.935-.087,1.494l-.074,1.462q-.033.627-.047,1.247l.628.007c.586,0,.973,0,1.157-.006s.367-.01.548-.021c-.022.239-.041.5-.059.792q-.958-.006-1.639-.007l-1.149,0Zm4.044,0q.088-1.254.143-2.572c.037-.879.054-1.549.054-2.014l0-.389.61.006c.033,0,.219,0,.557-.006q-.148,1.914-.189,4.975l-.536-.007-.635.007m2.191,0,.1-1.269.073-1.585.048-1.578c0-.069,0-.251,0-.543.269,0,.524.006.762.006q.264,0,.7-.01c.29-.008.541-.013.752-.013a5.792,5.792,0,0,1,.8.053,1.994,1.994,0,0,1,.64.191,1.733,1.733,0,0,1,.472.352,1.932,1.932,0,0,1,.329.468,2.422,2.422,0,0,1,.2.572,3.072,3.072,0,0,1,.067.643,3.317,3.317,0,0,1-.216,1.194,2.284,2.284,0,0,1-.647.937,2.1,2.1,0,0,1-.953.477,6.067,6.067,0,0,1-1.188.1l-1.239-.007-.7.007m1.121-.776c.2.009.4.014.59.014a4.842,4.842,0,0,0,.612-.034,2.149,2.149,0,0,0,.488-.1,1.278,1.278,0,0,0,.41-.249,1.571,1.571,0,0,0,.336-.413,2.05,2.05,0,0,0,.2-.524,2.5,2.5,0,0,0,.07-.588,1.924,1.924,0,0,0-.185-.9,1.159,1.159,0,0,0-.491-.507,2.164,2.164,0,0,0-.938-.155c-.274,0-.589.005-.943.015Zm3.85.776q.379-.67.89-1.658l.959-1.841q.448-.855.743-1.476c.316,0,.54.006.671.006.231,0,.457,0,.678-.006l.521,1.49,1.134,3.084.157.4-.548-.007c-.126,0-.338,0-.637.007-.058-.217-.15-.508-.276-.875s-.231-.664-.319-.893h-1.917q-.426.868-.831,1.768l-.594-.007c-.112,0-.322,0-.631.007m2.381-2.526h1.4l-.572-1.683-.3.612Zm5.772,2.526.1-1.269.073-1.585.048-1.578c0-.069,0-.251,0-.543.269,0,.524.006.762.006q.266,0,.7-.01c.29-.008.541-.013.753-.013a5.788,5.788,0,0,1,.8.053,1.98,1.98,0,0,1,.639.191,1.723,1.723,0,0,1,.473.352,1.906,1.906,0,0,1,.329.468,2.42,2.42,0,0,1,.2.572,3.07,3.07,0,0,1,.067.643,3.318,3.318,0,0,1-.216,1.194,2.284,2.284,0,0,1-.647.937,2.1,2.1,0,0,1-.953.477,6.063,6.063,0,0,1-1.187.1l-1.24-.007-.7.007m1.12-.776c.2.009.4.014.589.014a4.874,4.874,0,0,0,.614-.034,2.13,2.13,0,0,0,.486-.1,1.261,1.261,0,0,0,.411-.249,1.555,1.555,0,0,0,.337-.413,2.049,2.049,0,0,0,.2-.524,2.5,2.5,0,0,0,.07-.588,1.925,1.925,0,0,0-.185-.9,1.159,1.159,0,0,0-.491-.507,2.163,2.163,0,0,0-.938-.155q-.411,0-.943.015Zm4.508.776.106-1.4.075-1.615.048-1.47v-.494q.9.007,1.877.006l.7,0,1.054,0-.043.787-.346-.018c-.1-.005-.227-.01-.4-.012s-.338,0-.513,0c-.381,0-.624,0-.735,0s-.277,0-.5.013L276.132,179c.332.007.668.011,1.006.011q.35,0,1.181-.023c-.02.222-.036.487-.051.8q-.972-.012-1.115-.012c-.287,0-.643.008-1.071.022l-.059,1.364.4,0c.117,0,.383,0,.8-.008l.79-.014.529-.026c-.025.282-.041.548-.051.8q-.948-.006-1.709-.007l-1.2,0Zm7.8,0-.139-.459c-.019-.061-.1-.293-.241-.7l-.706-2.01-.649-1.808c.25,0,.458.006.623.006.1,0,.281,0,.536-.006l.114.4c.023.083.059.2.1.335l.881,2.674q.081.257.208.682l.2-.446q.074-.165.3-.642l1.149-2.4c.033-.069.068-.143.1-.223s.087-.207.16-.384c.265,0,.467.006.605.006.083,0,.274,0,.572-.006l-.313.583-1.995,3.936-.21.456c-.316,0-.528-.007-.635-.007l-.667.007m3.937,0,.106-1.4.076-1.615.047-1.47v-.494q.9.007,1.878.006l.7,0,1.054,0-.044.787-.345-.018c-.1-.005-.227-.01-.395-.012s-.339,0-.514,0c-.379,0-.623,0-.734,0s-.277,0-.5.013L287.866,179c.332.007.668.011,1.006.011q.351,0,1.182-.023c-.021.222-.036.487-.051.8q-.973-.012-1.115-.012c-.286,0-.644.008-1.072.022l-.058,1.364.4,0q.174,0,.8-.008l.79-.014.529-.026c-.025.282-.041.548-.051.8-.633,0-1.2-.007-1.71-.007l-1.2,0Zm4.572,0,.083-1.308c.047-.715.079-1.378.1-1.989s.028-1.037.028-1.278l0-.4c.286,0,.49.006.609.006.09,0,.273,0,.55-.006l-.1,1.642-.011.381h2.486l.044-.986c.009-.339.015-.561.015-.669v-.368l.609.006c.053,0,.236,0,.547-.006l-.117,1.986-.056,1.471-.015.866q-.007.532-.008.652l-.569-.007-.6.007q.093-1.033.119-2.169h-2.487l-.051,1.342-.014.827-.6-.007-.558.007m5.8,0q.087-1.254.141-2.572c.038-.879.055-1.549.055-2.014l0-.389.61.006c.034,0,.219,0,.558-.006q-.151,1.914-.19,4.975l-.536-.007-.634.007m.389-5.442.134-.337c.028-.072.06-.159.1-.262s.077-.2.113-.287c.2,0,.378.008.544.008.135,0,.316,0,.546-.008-.163.2-.284.36-.365.474l-.3.412c-.128,0-.26-.007-.393-.007s-.244,0-.375.007M303.226,181c-.054.284-.1.574-.139.867q-.416.073-.763.1c-.23.019-.427.028-.593.028a3.548,3.548,0,0,1-1.046-.153,2.545,2.545,0,0,1-.9-.482,1.891,1.891,0,0,1-.578-.8,3.023,3.023,0,0,1,.037-2.147,2.317,2.317,0,0,1,.618-.868,2.629,2.629,0,0,1,.953-.528,3.815,3.815,0,0,1,1.149-.172,6.836,6.836,0,0,1,1.289.135c.008.216.016.369.023.459l.025.39q-.412-.106-.685-.149a3.707,3.707,0,0,0-.522-.041,2.378,2.378,0,0,0-.749.12,1.714,1.714,0,0,0-.635.376,1.734,1.734,0,0,0-.421.626,2.015,2.015,0,0,0-.149.764,1.916,1.916,0,0,0,.183.847,1.406,1.406,0,0,0,.585.61,1.957,1.957,0,0,0,1,.233,4.909,4.909,0,0,0,1.318-.218m.973-4.064c.281,0,.471.006.572.006.122,0,.308,0,.554-.006l-.172,2.94c0,.034,0,.071,0,.111a1.529,1.529,0,0,0,.141.738.819.819,0,0,0,.411.362,1.607,1.607,0,0,0,.621.112,1.716,1.716,0,0,0,.424-.051,1.263,1.263,0,0,0,.3-.12.936.936,0,0,0,.193-.153.967.967,0,0,0,.164-.244,1.108,1.108,0,0,0,.1-.307,8.8,8.8,0,0,0,.087-.9l.077-1.269q.027-.555.041-1.22c.275,0,.478.006.612.006l.532-.006-.113,1.757-.073,1.4a3.793,3.793,0,0,1-.1.729,1.534,1.534,0,0,1-.165.372,1.283,1.283,0,0,1-.244.272,1.822,1.822,0,0,1-.426.27,2.4,2.4,0,0,1-.579.186,4.63,4.63,0,0,1-.872.079,4.2,4.2,0,0,1-.86-.082,2.392,2.392,0,0,1-.628-.227,1.59,1.59,0,0,1-.454-.341,1.153,1.153,0,0,1-.216-.385,1.669,1.669,0,0,1-.091-.569c0-.072,0-.166.007-.281s.015-.264.025-.448l.035-.512c.01-.162.024-.4.039-.708l.036-.79c.01-.218.018-.456.027-.718m5.379,4.975c.074-.731.131-1.547.175-2.443s.069-1.743.077-2.532c.247,0,.454.006.62.006.112,0,.291,0,.535-.006q-.046.655-.086,1.494l-.074,1.462q-.033.627-.047,1.247l.627.007c.587,0,.974,0,1.158-.006s.367-.01.548-.021c-.022.239-.041.5-.059.792q-.959-.006-1.639-.007l-1.149,0Zm6.865-5.063a3.637,3.637,0,0,1,1.043.149,2.361,2.361,0,0,1,.885.487,2.239,2.239,0,0,1,.585.786,2.6,2.6,0,0,1,.2,1.046,3.117,3.117,0,0,1-.186,1.073,2.278,2.278,0,0,1-.575.882,2.418,2.418,0,0,1-.951.548,3.952,3.952,0,0,1-2.3.015,2.418,2.418,0,0,1-.926-.514,2.008,2.008,0,0,1-.556-.8,2.811,2.811,0,0,1-.168-.983,2.992,2.992,0,0,1,.209-1.108,2.2,2.2,0,0,1,.618-.874,2.753,2.753,0,0,1,.95-.524,3.718,3.718,0,0,1,1.172-.18m-.058.776a1.784,1.784,0,0,0-.958.254,1.593,1.593,0,0,0-.615.692,2.213,2.213,0,0,0-.206.95,1.9,1.9,0,0,0,.2.871,1.342,1.342,0,0,0,.609.61,1.994,1.994,0,0,0,1.578.086,1.479,1.479,0,0,0,.568-.379,1.629,1.629,0,0,0,.358-.608,2.312,2.312,0,0,0,.12-.745,2.256,2.256,0,0,0-.107-.692,1.49,1.49,0,0,0-.333-.571,1.394,1.394,0,0,0-.545-.353,2,2,0,0,0-.669-.115m3.333,4.182c-.02-.37-.046-.671-.077-.9a3.194,3.194,0,0,0,1.3.324,1.287,1.287,0,0,0,.436-.071.61.61,0,0,0,.3-.2.472.472,0,0,0,.1-.289.51.51,0,0,0-.046-.224,1.02,1.02,0,0,0-.233-.28c-.139-.135-.386-.353-.742-.66-.171-.149-.287-.254-.352-.316a2.664,2.664,0,0,1-.335-.375,1.124,1.124,0,0,1-.167-.329,1.181,1.181,0,0,1-.051-.35,1.167,1.167,0,0,1,.191-.644,1.274,1.274,0,0,1,.572-.47,2.367,2.367,0,0,1,.959-.169,6.016,6.016,0,0,1,1.174.129c.012.251.037.54.073.866a2.935,2.935,0,0,0-1.049-.219.983.983,0,0,0-.584.162.463.463,0,0,0-.228.377.5.5,0,0,0,.016.124.521.521,0,0,0,.047.122,1.1,1.1,0,0,0,.113.157,1.952,1.952,0,0,0,.24.227c.1.086.193.156.268.209l.449.407c.114.1.216.189.306.279a2.62,2.62,0,0,1,.232.259,1.253,1.253,0,0,1,.15.235,1.147,1.147,0,0,1,.082.232,1.023,1.023,0,0,1,.028.251,1.234,1.234,0,0,1-.142.577,1.194,1.194,0,0,1-.408.446,1.672,1.672,0,0,1-.584.243,3.213,3.213,0,0,1-.67.066,4.585,4.585,0,0,1-.542-.038c-.207-.028-.48-.079-.817-.153m-64.65,6.735.1-1.269.074-1.585.047-1.577c0-.07,0-.251,0-.545.268.005.523.008.761.008q.264,0,.7-.012c.29-.007.542-.01.753-.01a5.827,5.827,0,0,1,.8.051,2.054,2.054,0,0,1,.64.191,1.774,1.774,0,0,1,.473.352,1.9,1.9,0,0,1,.327.468,2.393,2.393,0,0,1,.2.572,3.083,3.083,0,0,1,.068.644,3.315,3.315,0,0,1-.218,1.2,2.286,2.286,0,0,1-.647.936,2.067,2.067,0,0,1-.952.475,5.983,5.983,0,0,1-1.187.106l-1.24-.008-.7.008m1.12-.776c.2.01.4.015.59.015a5.521,5.521,0,0,0,.614-.033,2.274,2.274,0,0,0,.487-.1,1.308,1.308,0,0,0,.41-.25,1.522,1.522,0,0,0,.336-.414,1.981,1.981,0,0,0,.2-.523,2.455,2.455,0,0,0,.07-.587,1.944,1.944,0,0,0-.185-.9,1.16,1.16,0,0,0-.49-.506,2.169,2.169,0,0,0-.939-.155q-.411,0-.943.015Zm4.508.776.106-1.4.076-1.615.047-1.469v-.5q.9.008,1.878.008l.7,0,1.054,0-.043.788-.346-.019c-.1-.005-.227-.008-.395-.01s-.338,0-.514,0q-.568,0-.733,0c-.112,0-.278,0-.5.012l-.059,1.294c.332.008.668.011,1.007.011q.35,0,1.181-.021c-.02.22-.036.485-.051.794l-1.115-.011c-.286,0-.644.007-1.072.022l-.058,1.365.4,0c.117,0,.383,0,.8-.007l.791-.016.528-.024c-.025.281-.041.547-.051.8-.632-.005-1.2-.008-1.71-.008l-1.2,0Zm6.438,0q.069-.772.1-1.265c.017-.328.038-.887.066-1.68s.04-1.336.04-1.633c0-.091,0-.222,0-.4q.459.008.761.008c.2,0,.456,0,.754-.012s.547-.01.741-.01a4.02,4.02,0,0,1,.614.035,1.545,1.545,0,0,1,.366.1.949.949,0,0,1,.27.169,1,1,0,0,1,.188.236,1.126,1.126,0,0,1,.116.295,1.407,1.407,0,0,1,.038.324,1.5,1.5,0,0,1-.049.388,1.2,1.2,0,0,1-.142.331,1.086,1.086,0,0,1-.217.251,1.36,1.36,0,0,1-.236.163,2.537,2.537,0,0,1-.3.124,2.677,2.677,0,0,1,.273.07,1.176,1.176,0,0,1,.219.106,1.059,1.059,0,0,1,.22.182.946.946,0,0,1,.166.236,1.189,1.189,0,0,1,.1.275,1.423,1.423,0,0,1,.035.316,1.387,1.387,0,0,1-.152.642,1.177,1.177,0,0,1-.417.461,1.62,1.62,0,0,1-.6.226,10.584,10.584,0,0,1-1.4.056l-.882,0Zm1.193-2.913h.587a4.2,4.2,0,0,0,.5-.018,1.259,1.259,0,0,0,.272-.071.579.579,0,0,0,.24-.165.686.686,0,0,0,.143-.244.808.808,0,0,0,.046-.271.655.655,0,0,0-.05-.255.471.471,0,0,0-.15-.2.653.653,0,0,0-.247-.113,1.925,1.925,0,0,0-.42-.034h-.874Zm-.089,2.2h.827a2.831,2.831,0,0,0,.392-.02,1.2,1.2,0,0,0,.269-.07.881.881,0,0,0,.2-.11.611.611,0,0,0,.13-.149.862.862,0,0,0,.089-.207.912.912,0,0,0,.032-.239.7.7,0,0,0-.058-.295.615.615,0,0,0-.173-.222.706.706,0,0,0-.267-.133,1.823,1.823,0,0,0-.468-.043h-.918Zm6.6-4.348a3.591,3.591,0,0,1,1.042.148,2.379,2.379,0,0,1,.886.487,2.212,2.212,0,0,1,.584.785,2.6,2.6,0,0,1,.2,1.046,3.155,3.155,0,0,1-.185,1.075,2.3,2.3,0,0,1-.576.882,2.436,2.436,0,0,1-.951.547,3.908,3.908,0,0,1-2.3.015,2.424,2.424,0,0,1-.926-.513,2.031,2.031,0,0,1-.556-.805,2.805,2.805,0,0,1-.168-.982,3,3,0,0,1,.209-1.108,2.2,2.2,0,0,1,.618-.875,2.77,2.77,0,0,1,.95-.524,3.742,3.742,0,0,1,1.172-.178m-.058.776a1.777,1.777,0,0,0-.958.253,1.6,1.6,0,0,0-.615.693,2.207,2.207,0,0,0-.2.948,1.921,1.921,0,0,0,.2.873,1.352,1.352,0,0,0,.609.61,1.946,1.946,0,0,0,.89.209,1.9,1.9,0,0,0,.688-.125,1.482,1.482,0,0,0,.568-.377,1.627,1.627,0,0,0,.358-.61,2.317,2.317,0,0,0,.014-1.435,1.489,1.489,0,0,0-.334-.571,1.372,1.372,0,0,0-.545-.353,1.948,1.948,0,0,0-.669-.115m3.368,4.286.094-.824.241-2.895.084-1.257q.52.008.762.008c.129,0,.363,0,.7-.008.039.2.067.337.087.419s.057.215.113.4.127.4.216.664c.127.394.244.783.346,1.167l.277,1.042.487-1.337.713-1.74c.023-.058.048-.125.074-.2s.068-.214.13-.411c.288.005.546.008.772.008.15,0,.391,0,.721-.008q-.05,1.05-.076,2.321c-.016.846-.026,1.48-.026,1.9,0,.2,0,.453.008.757-.24-.005-.4-.008-.491-.008-.127,0-.3,0-.5.008.016-.248.025-.452.029-.612l.063-2.168c.007-.306.011-.609.011-.906l0-.294-1.345,3.546-.157.434c-.236-.005-.4-.008-.485-.008-.109,0-.281,0-.514.008l-.627-2.245q-.031-.122-.153-.5l-.225-.743c-.022-.071-.039-.129-.05-.174s-.035-.143-.071-.3l-.047.467q-.02.222-.055.742l-.142,2.261c-.005.111-.009.276-.011.495l-.47-.008c-.081,0-.24,0-.478.008" fill="#161615"/>
          <path id="Trazado_117801" data-name="Trazado 117801" d="M284.861,188.543q.069-.772.1-1.265c.017-.329.038-.887.066-1.68s.039-1.336.039-1.634c0-.09,0-.221,0-.4q.461.008.762.007c.2,0,.456,0,.754-.011s.547-.011.74-.011a4.025,4.025,0,0,1,.615.035,1.545,1.545,0,0,1,.366.1.949.949,0,0,1,.27.169,1.013,1.013,0,0,1,.188.235,1.17,1.17,0,0,1,.116.3,1.352,1.352,0,0,1,.038.323,1.5,1.5,0,0,1-.049.389,1.188,1.188,0,0,1-.143.331,1.058,1.058,0,0,1-.216.251,1.481,1.481,0,0,1-.236.163,2.47,2.47,0,0,1-.3.124,2.676,2.676,0,0,1,.273.07,1.061,1.061,0,0,1,.219.106,1,1,0,0,1,.22.182.979.979,0,0,1,.167.236,1.219,1.219,0,0,1,.1.275,1.414,1.414,0,0,1,.035.315,1.358,1.358,0,0,1-.153.642,1.164,1.164,0,0,1-.416.462,1.62,1.62,0,0,1-.6.226,10.583,10.583,0,0,1-1.4.056l-.882,0Zm1.193-2.913h.586a4.451,4.451,0,0,0,.5-.018,1.324,1.324,0,0,0,.272-.072.567.567,0,0,0,.239-.164.668.668,0,0,0,.144-.244.813.813,0,0,0,.046-.271.648.648,0,0,0-.05-.255.475.475,0,0,0-.15-.2.652.652,0,0,0-.247-.112,1.93,1.93,0,0,0-.421-.034H286.1Zm-.089,2.2h.827a3.031,3.031,0,0,0,.392-.019,1.212,1.212,0,0,0,.269-.071.845.845,0,0,0,.2-.109.634.634,0,0,0,.13-.149.9.9,0,0,0,.089-.207.915.915,0,0,0,.033-.24.707.707,0,0,0-.059-.294.609.609,0,0,0-.173-.222.708.708,0,0,0-.267-.134,1.88,1.88,0,0,0-.468-.042h-.918Zm3.766.715.106-1.4.076-1.615.047-1.469v-.5q.9.008,1.878.007l.7,0,1.054,0-.044.788-.345-.019c-.1-.005-.227-.008-.395-.011s-.338,0-.514,0c-.379,0-.623,0-.734,0s-.278,0-.5.012L291,185.63c.332.007.668.011,1.006.011q.35,0,1.182-.022c-.02.221-.036.486-.051.795-.649-.008-1.021-.011-1.115-.011-.286,0-.644.007-1.072.022l-.058,1.364.4,0c.117,0,.383,0,.8-.007l.79-.016.529-.024c-.025.28-.041.547-.051.8-.632-.005-1.2-.008-1.71-.008l-1.2,0Zm4.556,0q.111-1.086.165-2.5t.055-2.479q.437.008.731.007c.212,0,.42,0,.623-.011s.416-.011.643-.011a5.34,5.34,0,0,1,.756.048,1.421,1.421,0,0,1,.593.218,1.108,1.108,0,0,1,.384.416,1.238,1.238,0,0,1,.126.568,1.512,1.512,0,0,1-.048.388,1.3,1.3,0,0,1-.141.347,1.248,1.248,0,0,1-.219.285,1.3,1.3,0,0,1-.253.192,1.5,1.5,0,0,1-.286.123c-.107.034-.251.075-.431.124l.248.482q.121.228.455.823l.369.645c.019.034.078.146.175.332-.3-.005-.493-.008-.587-.008-.117,0-.323,0-.616.008l-.4-.97c-.07-.147-.156-.323-.255-.525l-.441-.886c-.044-.082-.105-.206-.182-.372a2.455,2.455,0,0,0,.444.044,1.554,1.554,0,0,0,.573-.1.821.821,0,0,0,.4-.315.838.838,0,0,0,.137-.465.68.68,0,0,0-.059-.285.548.548,0,0,0-.2-.222.82.82,0,0,0-.339-.115,3.056,3.056,0,0,0-.394-.027c-.072,0-.172,0-.3,0s-.282,0-.466,0l-.066,1.5-.068,2.735-.566-.008c-.09,0-.273,0-.551.008m7.545-5.063a3.61,3.61,0,0,1,1.044.149,2.38,2.38,0,0,1,.886.487,2.233,2.233,0,0,1,.583.785,2.606,2.606,0,0,1,.2,1.046,3.156,3.156,0,0,1-.186,1.075,2.291,2.291,0,0,1-.576.882,2.418,2.418,0,0,1-.95.546,3.923,3.923,0,0,1-2.3.016,2.4,2.4,0,0,1-.925-.514,2.008,2.008,0,0,1-.556-.8,2.809,2.809,0,0,1-.168-.982,2.98,2.98,0,0,1,.209-1.108,2.2,2.2,0,0,1,.617-.875,2.775,2.775,0,0,1,.951-.524,3.735,3.735,0,0,1,1.171-.179m-.057.777a1.778,1.778,0,0,0-.959.253,1.6,1.6,0,0,0-.615.693,2.218,2.218,0,0,0-.2.948,1.909,1.909,0,0,0,.2.873,1.347,1.347,0,0,0,.609.61,1.944,1.944,0,0,0,.89.209,1.9,1.9,0,0,0,.688-.125,1.49,1.49,0,0,0,.567-.377,1.629,1.629,0,0,0,.358-.61,2.293,2.293,0,0,0,.121-.744,2.239,2.239,0,0,0-.107-.691,1.475,1.475,0,0,0-.333-.571,1.381,1.381,0,0,0-.545-.354,1.976,1.976,0,0,0-.669-.114m3.333,4.18q-.03-.555-.077-.9a3.161,3.161,0,0,0,1.3.324,1.332,1.332,0,0,0,.435-.07.607.607,0,0,0,.3-.2.477.477,0,0,0,.1-.291.513.513,0,0,0-.047-.222,1.045,1.045,0,0,0-.233-.281c-.139-.133-.386-.352-.743-.66-.169-.148-.287-.254-.351-.316a2.6,2.6,0,0,1-.335-.375,1.158,1.158,0,0,1-.168-.33,1.191,1.191,0,0,1-.051-.349,1.176,1.176,0,0,1,.192-.643,1.249,1.249,0,0,1,.572-.47,2.349,2.349,0,0,1,.959-.17,6.1,6.1,0,0,1,1.174.128c.012.253.037.541.073.868a2.939,2.939,0,0,0-1.049-.219.974.974,0,0,0-.584.162.461.461,0,0,0-.229.376.455.455,0,0,0,.017.123.493.493,0,0,0,.047.124,1.2,1.2,0,0,0,.113.157,2.021,2.021,0,0,0,.239.226c.1.086.194.155.269.209l.449.408c.113.095.215.188.306.277a3.038,3.038,0,0,1,.232.259,1.374,1.374,0,0,1,.15.237,1.119,1.119,0,0,1,.082.231,1.084,1.084,0,0,1,.028.25,1.206,1.206,0,0,1-.143.577,1.176,1.176,0,0,1-.408.448,1.7,1.7,0,0,1-.583.242,3.281,3.281,0,0,1-.67.067,4.243,4.243,0,0,1-.543-.04q-.311-.04-.816-.153" fill="#161615"/>
          <path id="Trazado_117802" data-name="Trazado 117802" d="M278.978,169.73l-35.79-35.791a3.9,3.9,0,0,1,0-5.506l35.79-35.791a3.906,3.906,0,0,1,5.507,0l35.79,35.791a3.905,3.905,0,0,1,0,5.506l-35.79,35.791a3.906,3.906,0,0,1-5.507,0" fill="#ffbc00" fill-rule="evenodd"/>
          <path id="Trazado_117803" data-name="Trazado 117803" d="M279.668,169.041l-35.792-35.789a2.93,2.93,0,0,1,0-4.13l35.792-35.791a2.928,2.928,0,0,1,4.128,0l35.792,35.791a2.929,2.929,0,0,1,0,4.13L283.8,169.041a2.924,2.924,0,0,1-4.128,0m.687-.687a1.954,1.954,0,0,0,2.754,0l35.79-35.791a1.951,1.951,0,0,0,0-2.752L283.109,94.02a1.954,1.954,0,0,0-2.754,0l-35.791,35.791a1.951,1.951,0,0,0,0,2.752Z" fill="#161615" fill-rule="evenodd"/>
          <path id="Trazado_117804" data-name="Trazado 117804" d="M261.306,129.093h9.764l.594.527v3.851h.384V131.1a.259.259,0,1,1,.519,0v2.376h.257V131.1a.26.26,0,1,1,.52,0v2.376h.256V131.1a.26.26,0,1,1,.52,0v2.376h.257V131.1a.259.259,0,1,1,.519,0v2.376h.257V131.1a.259.259,0,1,1,.519,0v2.376h.68v-2.976l1.468-1.672h15.887v-.946l-32.106-8.6.5-.476.538.145,1.678-1.507-.65-.174.27-.3,30.242,8.1.8-.8h3.2l1.274,1.274v3.286h3.9l.816,12.007h1.373v1.709h-3.363a4.053,4.053,0,1,0-8.079-.468,4.247,4.247,0,0,0,.027.468H276.352v-.47h-4.688v.47h-1.442a4.24,4.24,0,0,0,.027-.468,4.053,4.053,0,1,0-8.079.468h-3.892a.355.355,0,0,1-.354-.354v-1.426a.355.355,0,0,1,.354-.355h.275v-6.55l1.873-4.266Zm32.4-1.847v-1.709l.179-.179-.872-.234Zm-30.7-8.207,2.377.637-.7-2.142Zm2.377.637.365.1.365.1,2.376.637.366.1.365.1,2.376.637.365.1.365.1,2.377.637.365.1.365.1,2.377.636.365.1.365.1,2.377.636.365.1.365.1,2.377.637.365.1.365.1,2.377.636.366.1.365.1,2.376.637.366.1.365.1,2.376.637-.7-2.142-1.676,1.5Zm.365.1,1.677-1.507-2.376-.636Zm.365.1,2.376.637-.7-2.143Zm2.742.735,1.677-1.505-2.377-.638Zm.365.1,2.376.637-.7-2.142Zm2.741.736,1.678-1.506-2.377-.636Zm.365.1,2.377.637-.7-2.144Zm2.742.734,1.677-1.505-2.376-.637Zm.365.1,2.377.636-.7-2.143Zm2.742.734,1.677-1.506-2.376-.637Zm.365.1,2.377.636-.7-2.143Zm2.742.734,1.677-1.5-2.376-.638Zm.365.1,2.377.637-.7-2.142Zm2.742.734,1.677-1.5-2.376-.637Zm.365.1,2.377.636-.7-2.142Zm2.743.735,1.676-1.507-2.376-.637Zm.365.1,2.376.637-.7-2.142Zm2.742.735,1.676-1.507-2.376-.636Zm-31.642,7.1h.163a1.366,1.366,0,0,0,1.11-.909l.8-1.707c.188-.4-.213-.584-.646-.629Zm7.6-3.1a.838.838,0,0,0-.836.836v1.32a.839.839,0,0,0,.836.836h3.692a.839.839,0,0,0,.836-.836v-1.32a.838.838,0,0,0-.836-.836Zm-3.93,0a1.1,1.1,0,0,0-.946.836l-.472,1.32c-.156.437.267.836.726.836h2.264a.962.962,0,0,0,.947-.836l.089-1.32a.734.734,0,0,0-.727-.836Zm16.072.561v.264h.908v1.916h-.908v.263h22.959v-.263h-.635v-1.916h.635v-.264Zm1.275,2.18h1.137v-1.916h-1.137Zm1.5,0h1.137v-1.916h-1.137Zm1.5,0h1.137v-1.916h-1.137Zm1.5,0h1.137v-1.915h-1.137Zm1.5,0h1.137v-1.916H286Zm1.5,0h1.137v-1.916H287.5Zm1.5,0h1.137v-1.916H289Zm1.5,0h1.137v-1.916h-1.137Zm1.5,0h1.137v-1.916H292.01Zm1.5,0h1.137v-1.916h-1.137Zm1.5,0h1.137v-1.916h-1.137Zm1.5,0h1.137v-1.916h-1.137Zm1.5,0h1.137v-1.916h-1.137Zm1.5,0h1.137v-1.916h-1.137Zm-26.776,1.536a.7.7,0,1,0,.7.7.7.7,0,0,0-.7-.7M275.277,137a.489.489,0,1,0,.488.488.488.488,0,0,0-.488-.488m-2.2,2.361h.373V137h-.373Zm2.2-.977a.488.488,0,1,0,.488.488.489.489,0,0,0-.488-.488m-9.082.346a3.346,3.346,0,1,0,3.345,3.345,3.345,3.345,0,0,0-3.345-3.345m0,1.632a1.714,1.714,0,1,0,1.713,1.713,1.713,1.713,0,0,0-1.713-1.713m31.955-1.632a3.346,3.346,0,1,0,3.344,3.345,3.345,3.345,0,0,0-3.344-3.345m0,1.632a1.714,1.714,0,1,0,1.713,1.713,1.713,1.713,0,0,0-1.713-1.713m-34.873-12.416-.5.939h2.7l-.5-.939Z" fill="#161615" fill-rule="evenodd"/>
          <path id="Trazado_117805" data-name="Trazado 117805" d="M176.144,169.73l-35.79-35.791a3.9,3.9,0,0,1,0-5.506l35.79-35.791a3.906,3.906,0,0,1,5.507,0l35.79,35.791a3.905,3.905,0,0,1,0,5.506l-35.79,35.791a3.906,3.906,0,0,1-5.507,0" fill="#ffbc00" fill-rule="evenodd"/>
          <path id="Trazado_117806" data-name="Trazado 117806" d="M176.834,169.041l-35.792-35.789a2.93,2.93,0,0,1,0-4.13l35.792-35.791a2.928,2.928,0,0,1,4.128,0l35.792,35.791a2.928,2.928,0,0,1,0,4.13l-35.792,35.789a2.924,2.924,0,0,1-4.128,0m.687-.687a1.954,1.954,0,0,0,2.754,0l35.79-35.791a1.951,1.951,0,0,0,0-2.752L180.275,94.02a1.954,1.954,0,0,0-2.754,0L141.73,129.811a1.951,1.951,0,0,0,0,2.752Z" fill="#161615" fill-rule="evenodd"/>
          <path id="Trazado_117807" data-name="Trazado 117807" d="M157.886,137.16h7.271a.679.679,0,0,1,.675.675V140.4a.678.678,0,0,1-.675.674h-7.271a.677.677,0,0,1-.674-.674v-2.569a.678.678,0,0,1,.674-.675m20.291-4.575c1.335.748,2.482.238,2.54-.488a9.413,9.413,0,0,0-.434-2.691c-.484-1.611-9.082-1.558-9.231.406-.045.594.8,1.481,2.257,1.182,1.252-.184,3.532.843,4.868,1.591m-16.655-17.368q-1.231-.011-2.484-.005l-1.6,1.6c1.307-.034,2.629-.047,4.087-.1,3.207.1,5.759.046,8.95.4a2.922,2.922,0,0,1,1.293.8,12,12,0,0,1,1.525,3.8c.258,1.153-.684,1.084-2.065,1-2.243-.129-4.184-.41-9.7-.41s-7.46.281-9.7.41l-.3.017-5.568,5.567c2.636-.186,5.951.3,6.042,1.511.045.594-.8,1.481-2.256,1.182-1.253-.184-3.532.843-4.868,1.591-.09.051-.181.095-.269.136l10.09,10.089H174.46v1.708a2.653,2.653,0,0,0,2.645,2.646h3.871a2.654,2.654,0,0,0,2.645-2.646v-8.411a2.6,2.6,0,0,0-.121-.789c.191-2.687.337-5.412.039-6.436-.292-1-1.69-1.467-2.394-2.238.056-.351-.1-.721-1.187-1.513a2.685,2.685,0,0,1-.725-.754,11.479,11.479,0,0,0,3.043.071,2.824,2.824,0,0,0,1.543-1.24.825.825,0,0,0-.369-.955,8.614,8.614,0,0,0-2.9-.9.743.743,0,0,0-.621.335c-.306.389-.313.99-.682,1.319-.175.157-.7-.318-.7-.084v0a18.5,18.5,0,0,0-2.492-4.4c-.39-.534-2.053-2.61-2.707-2.707a77.066,77.066,0,0,0-11.827-.6" fill="#161615" fill-rule="evenodd"/>
          <path id="Trazado_117808" data-name="Trazado 117808" d="M183.2,146.437a.485.485,0,0,0,.841.483l7.083-12.268a.484.484,0,0,0-.84-.483Z" fill="#161615"/>
          <path id="Trazado_117809" data-name="Trazado 117809" d="M185.217,146.332a.487.487,0,0,0,.688.689l14.976-14.975a.487.487,0,1,0-.689-.689Z" fill="#161615"/>
          <path id="Trazado_117810" data-name="Trazado 117810" d="M187.26,146.258a.485.485,0,1,0,.483.841l12.268-7.083a.485.485,0,0,0-.482-.841Z" fill="#161615"/>
          <path id="Trazado_117811" data-name="Trazado 117811" d="M201.594,138.432a.487.487,0,1,0-.486-.486.487.487,0,0,0,.486.486" fill="#161615" fill-rule="evenodd"/>
          <path id="Trazado_117812" data-name="Trazado 117812" d="M203.875,133.241a.486.486,0,1,0-.487-.487.488.488,0,0,0,.487.487" fill="#161615" fill-rule="evenodd"/>
          <path id="Trazado_117813" data-name="Trazado 117813" d="M199.313,137.134a.487.487,0,1,0-.487-.486.488.488,0,0,0,.487.486" fill="#161615" fill-rule="evenodd"/>
          <path id="Trazado_117814" data-name="Trazado 117814" d="M192.47,131.943a.486.486,0,1,0-.487-.487.488.488,0,0,0,.487.487" fill="#161615" fill-rule="evenodd"/>
          <path id="Trazado_117815" data-name="Trazado 117815" d="M206.156,135.836a.486.486,0,1,0-.487-.486.487.487,0,0,0,.487.486" fill="#161615" fill-rule="evenodd"/>
          <path id="Trazado_117816" data-name="Trazado 117816" d="M197.032,130.645a.487.487,0,1,0-.487-.487.488.488,0,0,0,.487.487" fill="#161615" fill-rule="evenodd"/>
          <path id="Trazado_117817" data-name="Trazado 117817" d="M194.751,134.539a.487.487,0,1,0-.487-.487.487.487,0,0,0,.487.487" fill="#161615" fill-rule="evenodd"/>
          <path id="Trazado_117818" data-name="Trazado 117818" d="M141.106,208.636h75.582a6.315,6.315,0,0,1,6.3,6.3v75.582a6.316,6.316,0,0,1-6.3,6.3H141.106a6.316,6.316,0,0,1-6.3-6.3V214.933a6.316,6.316,0,0,1,6.3-6.3" fill="#fff" fill-rule="evenodd"/>
          <path id="Rectángulo_34518" data-name="Rectángulo 34518" d="M6.3,0H81.879a6.3,6.3,0,0,1,6.3,6.3V81.879a6.3,6.3,0,0,1-6.3,6.3H6.3a6.3,6.3,0,0,1-6.3-6.3V6.3A6.3,6.3,0,0,1,6.3,0Z" transform="translate(134.809 208.636)" fill="none" stroke="#a3a3a3" stroke-miterlimit="22.926" stroke-width="1.764"/>
        </g>
      </g>
      <g id="Grupo_81939" data-name="Grupo 81939">
        <g id="Grupo_81938" data-name="Grupo 81938" clip-path="url(#clip-path-9)">
          <rect id="Rectángulo_34520" data-name="Rectángulo 34520" width="78.411" height="9.97" transform="translate(139.692 198.665)" fill="url(#linear-gradient-5)"/>
        </g>
      </g>
      <g id="Grupo_81941" data-name="Grupo 81941">
        <g id="Grupo_81940" data-name="Grupo 81940" clip-path="url(#clip-path)">
          <path id="Trazado_117820" data-name="Trazado 117820" d="M148.822,303.321l.1-1.268.074-1.586.047-1.577c0-.07,0-.251,0-.545.268.005.524.007.761.007q.264,0,.7-.01c.29-.008.541-.011.753-.011a5.8,5.8,0,0,1,.8.051,2.02,2.02,0,0,1,.64.192,1.732,1.732,0,0,1,.473.352,1.917,1.917,0,0,1,.328.468,2.376,2.376,0,0,1,.2.572,3.072,3.072,0,0,1,.068.643,3.322,3.322,0,0,1-.217,1.194,2.288,2.288,0,0,1-.647.937,2.082,2.082,0,0,1-.953.476,5.982,5.982,0,0,1-1.187.105l-1.24-.007q-.116,0-.7.007m1.121-.776c.2.01.4.015.59.015a5.063,5.063,0,0,0,.613-.034,2.149,2.149,0,0,0,.487-.1,1.289,1.289,0,0,0,.41-.25,1.518,1.518,0,0,0,.336-.413,2,2,0,0,0,.2-.524,2.5,2.5,0,0,0,.069-.587,1.932,1.932,0,0,0-.185-.9,1.166,1.166,0,0,0-.49-.506,2.169,2.169,0,0,0-.939-.155q-.411,0-.943.015Zm4.508.776.106-1.4.075-1.615.047-1.469v-.5c.6.005,1.226.007,1.879.007l.7,0,1.053,0-.043.787-.346-.018c-.1-.005-.226-.008-.4-.01s-.338,0-.514,0q-.568,0-.733,0c-.111,0-.278,0-.5.011l-.059,1.294q.5.012,1.007.012c.233,0,.627-.008,1.181-.022-.02.221-.036.486-.051.794l-1.115-.011q-.429,0-1.072.023l-.058,1.364.4,0c.117,0,.383,0,.8-.008l.791-.015.528-.025c-.025.281-.041.547-.051.8q-.948-.008-1.709-.007l-1.2,0Zm4.537,0c.074-.731.131-1.547.174-2.443s.071-1.742.078-2.533q.372.008.619.007c.112,0,.291,0,.537-.007-.032.439-.062.936-.088,1.495l-.072,1.462c-.023.418-.04.834-.048,1.247l.627.008c.588,0,.974,0,1.159-.007s.367-.01.547-.02c-.022.239-.041.5-.059.791q-.959-.008-1.64-.007l-1.148,0Zm4.045,0q.087-1.254.142-2.571t.054-2.014l0-.391.609.007.558-.007q-.15,1.917-.189,4.976l-.537-.007c-.089,0-.3,0-.634.007m2.187,0c.046-.435.082-.922.106-1.465l.084-1.785q.043-.972.044-1.726c.283.005.521.007.718.007q.218,0,.638-.007.413.72,1.137,1.875t1.17,1.913l.135-3.383c0-.079,0-.215,0-.4.229.005.4.007.518.007l.51-.007-.091,1.338-.113,2.29-.043,1.348c-.254-.005-.47-.007-.646-.007-.143,0-.371,0-.688.007-.12-.216-.212-.377-.276-.481q-.148-.24-.637-.991c-.213-.33-.481-.754-.8-1.268-.235-.38-.437-.709-.6-.993q-.03.591-.093,2.192-.024.651-.04,1.541c-.228-.005-.393-.007-.5-.007-.081,0-.258,0-.536.007m5.869,0,.1-1.4.076-1.615.048-1.469v-.5q.9.008,1.877.007l.7,0,1.053,0-.043.787-.346-.018c-.1-.005-.226-.008-.394-.01s-.338,0-.514,0c-.38,0-.623,0-.734,0s-.278,0-.5.011l-.058,1.294q.5.012,1.007.012c.233,0,.626-.008,1.18-.022q-.029.331-.051.794l-1.115-.011q-.429,0-1.071.023l-.058,1.364.4,0c.118,0,.383,0,.8-.008l.791-.015.528-.025c-.025.281-.041.547-.051.8q-.946-.008-1.709-.007l-1.2,0Zm3.9,0q.378-.669.889-1.658l.959-1.84q.448-.855.743-1.478.476.008.67.007c.232,0,.457,0,.679-.007l.522,1.491,1.133,3.085.156.4-.547-.007c-.126,0-.339,0-.637.007-.058-.216-.151-.508-.276-.874s-.232-.664-.319-.894h-1.917q-.426.868-.832,1.768l-.593-.007c-.111,0-.322,0-.63.007m2.379-2.525h1.4l-.572-1.684-.295.613Zm3.906,2.525.1-1.268.074-1.586.047-1.577c0-.07,0-.251,0-.545.269.005.524.007.761.007q.266,0,.7-.01c.29-.008.541-.011.753-.011a5.8,5.8,0,0,1,.8.051,2.02,2.02,0,0,1,.64.192,1.732,1.732,0,0,1,.473.352,1.891,1.891,0,0,1,.328.468,2.376,2.376,0,0,1,.2.572,3.006,3.006,0,0,1,.068.643A3.322,3.322,0,0,1,186,301.8a2.288,2.288,0,0,1-.647.937,2.084,2.084,0,0,1-.952.476,6,6,0,0,1-1.187.105l-1.24-.007q-.117,0-.7.007m1.12-.776q.3.015.59.015a5.08,5.08,0,0,0,.614-.034,2.152,2.152,0,0,0,.486-.1,1.279,1.279,0,0,0,.41-.25,1.518,1.518,0,0,0,.336-.413,2,2,0,0,0,.2-.524,2.5,2.5,0,0,0,.07-.587,1.931,1.931,0,0,0-.186-.9,1.16,1.16,0,0,0-.49-.506,2.166,2.166,0,0,0-.939-.155c-.273,0-.588.005-.943.015Zm7.34-4.286a3.643,3.643,0,0,1,1.043.149,2.355,2.355,0,0,1,.885.487,2.22,2.22,0,0,1,.584.784,2.6,2.6,0,0,1,.2,1.047,3.178,3.178,0,0,1-.185,1.074,2.3,2.3,0,0,1-.577.882,2.427,2.427,0,0,1-.95.548,3.952,3.952,0,0,1-2.3.015,2.431,2.431,0,0,1-.926-.514,2.014,2.014,0,0,1-.556-.8,2.774,2.774,0,0,1-.168-.982,3,3,0,0,1,.209-1.108,2.211,2.211,0,0,1,.617-.875,2.78,2.78,0,0,1,.951-.523,3.742,3.742,0,0,1,1.172-.179m-.059.776a1.771,1.771,0,0,0-.958.254,1.592,1.592,0,0,0-.614.692,2.212,2.212,0,0,0-.206.949,1.914,1.914,0,0,0,.2.872,1.347,1.347,0,0,0,.611.61,1.924,1.924,0,0,0,.889.209,1.9,1.9,0,0,0,.688-.125,1.46,1.46,0,0,0,.567-.377,1.613,1.613,0,0,0,.359-.609,2.328,2.328,0,0,0,.12-.744,2.246,2.246,0,0,0-.107-.692,1.5,1.5,0,0,0-.333-.571,1.379,1.379,0,0,0-.545-.353,1.95,1.95,0,0,0-.67-.115m3.453,4.286c.074-.724.127-1.556.165-2.5s.054-1.767.054-2.479q.437.008.732.007c.211,0,.419,0,.622-.01s.417-.011.643-.011a5.52,5.52,0,0,1,.757.047,1.426,1.426,0,0,1,.592.219,1.1,1.1,0,0,1,.385.415,1.239,1.239,0,0,1,.125.569,1.626,1.626,0,0,1-.046.389,1.356,1.356,0,0,1-.142.345,1.279,1.279,0,0,1-.22.286,1.356,1.356,0,0,1-.252.193,1.73,1.73,0,0,1-.287.122c-.107.034-.25.075-.43.123l.247.482c.081.154.233.427.456.823l.368.646c.02.035.079.145.176.331q-.445-.008-.588-.007c-.115,0-.322,0-.616.007l-.4-.968c-.071-.148-.156-.325-.255-.527l-.442-.885c-.043-.083-.1-.207-.181-.372a2.542,2.542,0,0,0,.444.044,1.528,1.528,0,0,0,.572-.1.81.81,0,0,0,.4-.314.842.842,0,0,0,.138-.466.683.683,0,0,0-.059-.283.544.544,0,0,0-.2-.223.812.812,0,0,0-.339-.116,3.055,3.055,0,0,0-.394-.025l-.3,0c-.127,0-.282,0-.466,0l-.066,1.5-.069,2.733-.565-.007c-.09,0-.273,0-.551.007m6.587,0,.1-1.268.073-1.586.047-1.577c0-.07,0-.251,0-.545.269.005.524.007.762.007q.264,0,.7-.01c.29-.008.542-.011.753-.011a5.827,5.827,0,0,1,.8.051,2.007,2.007,0,0,1,.638.192,1.707,1.707,0,0,1,.474.352,1.864,1.864,0,0,1,.328.468,2.422,2.422,0,0,1,.2.572,3.071,3.071,0,0,1,.067.643,3.3,3.3,0,0,1-.217,1.194,2.278,2.278,0,0,1-.647.937,2.077,2.077,0,0,1-.953.476,5.982,5.982,0,0,1-1.187.105l-1.239-.007c-.077,0-.31,0-.7.007m1.12-.776c.2.01.4.015.59.015a5.068,5.068,0,0,0,.614-.034,2.14,2.14,0,0,0,.486-.1,1.283,1.283,0,0,0,.411-.25,1.555,1.555,0,0,0,.336-.413,2.036,2.036,0,0,0,.2-.524,2.5,2.5,0,0,0,.07-.587,1.931,1.931,0,0,0-.186-.9,1.16,1.16,0,0,0-.49-.506,2.164,2.164,0,0,0-.938-.155c-.274,0-.589.005-.943.015Zm4.508.776.106-1.4.076-1.615.047-1.469v-.5q.9.008,1.877.007l.7,0,1.054,0-.044.787-.345-.018c-.1-.005-.227-.008-.4-.01s-.337,0-.513,0c-.379,0-.623,0-.734,0s-.277,0-.5.011l-.059,1.294q.5.012,1.007.012c.233,0,.627-.008,1.18-.022-.02.221-.035.486-.051.794l-1.115-.011q-.429,0-1.071.023l-.058,1.364.4,0c.117,0,.383,0,.8-.008l.79-.015.529-.025q-.037.422-.051.8c-.632-.005-1.2-.007-1.71-.007l-1.2,0Zm-60.682,5.72q-.081.426-.139.867-.416.074-.763.1t-.593.027a3.472,3.472,0,0,1-1.045-.153,2.571,2.571,0,0,1-.9-.482,1.884,1.884,0,0,1-.576-.8,2.85,2.85,0,0,1-.18-1.028,2.9,2.9,0,0,1,.215-1.119,2.342,2.342,0,0,1,.619-.868,2.634,2.634,0,0,1,.953-.527,3.814,3.814,0,0,1,1.148-.173,6.928,6.928,0,0,1,1.29.135c.008.217.016.37.023.46l.025.39a6.977,6.977,0,0,0-.686-.15,3.824,3.824,0,0,0-.521-.039,2.381,2.381,0,0,0-.749.118,1.7,1.7,0,0,0-.634.377,1.736,1.736,0,0,0-.422.626,2.029,2.029,0,0,0-.148.763,1.906,1.906,0,0,0,.182.848,1.4,1.4,0,0,0,.586.61,1.955,1.955,0,0,0,1,.232,4.9,4.9,0,0,0,1.317-.217m.972-4.065c.281,0,.472.008.573.008.123,0,.308,0,.553-.008l-.171,2.941c0,.034,0,.07,0,.11a1.556,1.556,0,0,0,.14.739.824.824,0,0,0,.412.361,1.611,1.611,0,0,0,.621.113,1.7,1.7,0,0,0,.423-.051,1.229,1.229,0,0,0,.3-.12.942.942,0,0,0,.193-.153.957.957,0,0,0,.165-.245,1.222,1.222,0,0,0,.1-.306c.03-.172.06-.473.086-.9l.077-1.27q.027-.554.041-1.22c.274,0,.478.008.611.008l.534-.008-.114,1.757-.074,1.4a3.783,3.783,0,0,1-.1.729,1.5,1.5,0,0,1-.165.372,1.237,1.237,0,0,1-.244.272,1.757,1.757,0,0,1-.427.27,2.385,2.385,0,0,1-.578.187,4.638,4.638,0,0,1-.872.079,4.192,4.192,0,0,1-.86-.082,2.4,2.4,0,0,1-.629-.227,1.621,1.621,0,0,1-.454-.342,1.177,1.177,0,0,1-.215-.383,1.681,1.681,0,0,1-.09-.569c0-.074,0-.167.007-.283s.014-.263.025-.447l.033-.513c.012-.161.025-.395.041-.707l.035-.791c.01-.217.019-.455.026-.718m5.4,4.976q.109-1.086.165-2.5t.054-2.479c.291,0,.536.008.732.008s.419,0,.622-.012.417-.011.643-.011a5.52,5.52,0,0,1,.757.047,1.405,1.405,0,0,1,.592.22,1.108,1.108,0,0,1,.385.415,1.239,1.239,0,0,1,.126.569,1.56,1.56,0,0,1-.048.387,1.3,1.3,0,0,1-.141.347,1.225,1.225,0,0,1-.22.284,1.258,1.258,0,0,1-.253.194,1.474,1.474,0,0,1-.286.121c-.107.035-.25.076-.43.125l.247.481c.081.154.233.427.456.824l.368.644c.02.035.078.146.175.333-.3-.005-.492-.007-.587-.007-.116,0-.322,0-.616.007l-.4-.97q-.106-.222-.255-.524l-.441-.886c-.045-.084-.106-.207-.182-.372a2.635,2.635,0,0,0,.444.043,1.528,1.528,0,0,0,.572-.1.827.827,0,0,0,.4-.314.841.841,0,0,0,.138-.465.671.671,0,0,0-.06-.285.532.532,0,0,0-.2-.222.827.827,0,0,0-.339-.117,3.066,3.066,0,0,0-.394-.025l-.3,0c-.126,0-.282,0-.466,0l-.066,1.5-.069,2.734-.565-.007c-.091,0-.273,0-.551.007m6.085,0-.139-.459c-.019-.061-.1-.293-.241-.7l-.707-2.011-.649-1.808c.25,0,.458.008.623.008.1,0,.281,0,.536-.008l.114.4c.023.082.059.194.1.335l.881,2.673c.054.172.124.4.208.682l.2-.446c.05-.109.15-.323.3-.641l1.149-2.4c.033-.071.068-.145.1-.225s.087-.207.16-.384c.265,0,.467.008.6.008.083,0,.274,0,.572-.008l-.313.583-1.995,3.938-.21.455q-.474-.008-.635-.007-.141,0-.666.007m3.279,0c.309-.005.52-.007.631-.007l.594.007q.405-.9.831-1.768h1.917q.131.342.319.893t.276.875c.3-.005.512-.007.637-.007l.548.007-.157-.4-1.134-3.084-.52-1.491q-.333.007-.679.008-.2,0-.671-.008-.294.624-.743,1.476l-.959,1.841q-.511.987-.89,1.659m2.381-2.526.529-1.072.294-.611.573,1.683Zm5.776,2.526.083-1.309q.07-1.071.1-1.989t.028-1.277l0-.4c.288,0,.491.008.61.008.09,0,.273,0,.55-.008l-.1,1.643-.011.38H172.3l.045-.985c.008-.339.013-.561.013-.67v-.368l.61.008.548-.008-.119,1.987-.056,1.472-.015.864q-.008.532-.007.653l-.569-.007c-.071,0-.272,0-.606.007q.095-1.033.12-2.169H169.78l-.051,1.342-.015.827-.6-.007c-.066,0-.252,0-.558.007m8.616-5.064a3.6,3.6,0,0,1,1.043.15,2.378,2.378,0,0,1,.886.486,2.233,2.233,0,0,1,.583.786,2.589,2.589,0,0,1,.2,1.046,3.145,3.145,0,0,1-.185,1.074,2.272,2.272,0,0,1-.577.882,2.426,2.426,0,0,1-.95.548,3.941,3.941,0,0,1-2.3.014,2.392,2.392,0,0,1-.926-.514,2.011,2.011,0,0,1-.556-.8,2.805,2.805,0,0,1-.168-.982,3,3,0,0,1,.209-1.108,2.2,2.2,0,0,1,.618-.875,2.753,2.753,0,0,1,.95-.524,3.713,3.713,0,0,1,1.172-.18m-.058.777a1.777,1.777,0,0,0-.958.254,1.585,1.585,0,0,0-.614.692,2.2,2.2,0,0,0-.207.95,1.914,1.914,0,0,0,.2.871,1.347,1.347,0,0,0,.609.61,1.987,1.987,0,0,0,1.578.085,1.494,1.494,0,0,0,.567-.377,1.633,1.633,0,0,0,.359-.61,2.3,2.3,0,0,0,.121-.744,2.246,2.246,0,0,0-.107-.692,1.5,1.5,0,0,0-.334-.571,1.385,1.385,0,0,0-.545-.354,2,2,0,0,0-.669-.114m3.453,4.287q.11-1.086.164-2.5t.055-2.479q.437.007.731.008c.212,0,.42,0,.622-.012s.417-.011.644-.011a5.5,5.5,0,0,1,.756.047,1.405,1.405,0,0,1,.592.22,1.1,1.1,0,0,1,.385.415,1.239,1.239,0,0,1,.126.569,1.56,1.56,0,0,1-.048.387,1.337,1.337,0,0,1-.14.347,1.256,1.256,0,0,1-.221.284,1.282,1.282,0,0,1-.252.194,1.5,1.5,0,0,1-.286.121c-.107.035-.25.076-.431.125l.248.481c.081.154.232.427.455.824l.368.644c.02.035.079.146.176.333-.3-.005-.493-.007-.587-.007-.116,0-.323,0-.616.007l-.4-.97c-.071-.148-.155-.323-.255-.524l-.441-.886c-.044-.084-.1-.207-.182-.372a2.644,2.644,0,0,0,.444.043,1.525,1.525,0,0,0,.572-.1.817.817,0,0,0,.536-.779.67.67,0,0,0-.059-.285.535.535,0,0,0-.2-.222.822.822,0,0,0-.338-.117,3.081,3.081,0,0,0-.4-.025l-.3,0c-.126,0-.282,0-.466,0l-.066,1.5-.068,2.734-.566-.007c-.09,0-.273,0-.55.007m4.724,0q.088-1.254.142-2.573t.055-2.014l0-.389.609.008.558-.008q-.148,1.915-.189,4.976l-.536-.007c-.09,0-.3,0-.635.007m1.921,0c.021-.332.034-.605.036-.824l.172-.189q.012-.012.31-.372l1.785-2.14.567-.7-.242,0h-.091l-.317,0h-.554q-.684,0-1.337.04.022-.285.022-.613c0-.041,0-.1,0-.171q.949.007,2.019.008l1.218,0,.662,0q-.027.4-.035.813l-.248.273c-.048.054-.1.11-.143.168l-1.3,1.593-1.141,1.364.291,0q1.231,0,1.586-.007c.235-.005.493-.015.773-.033-.02.34-.031.608-.036.8-.7-.005-1.336-.007-1.918-.007l-1.345,0Zm7.717-5.064a3.591,3.591,0,0,1,1.042.15,2.363,2.363,0,0,1,.886.486,2.224,2.224,0,0,1,.584.786,2.589,2.589,0,0,1,.2,1.046,3.145,3.145,0,0,1-.185,1.074,2.283,2.283,0,0,1-.577.882,2.426,2.426,0,0,1-.95.548,3.834,3.834,0,0,1-1.175.178,3.8,3.8,0,0,1-1.121-.164,2.392,2.392,0,0,1-.926-.514,2.011,2.011,0,0,1-.556-.8,2.805,2.805,0,0,1-.168-.982,3,3,0,0,1,.209-1.108,2.2,2.2,0,0,1,.617-.875,2.767,2.767,0,0,1,.951-.524,3.714,3.714,0,0,1,1.172-.18m-.058.777a1.777,1.777,0,0,0-.958.254,1.593,1.593,0,0,0-.615.692,2.213,2.213,0,0,0-.206.95,1.914,1.914,0,0,0,.2.871,1.347,1.347,0,0,0,.609.61,1.987,1.987,0,0,0,1.578.085,1.494,1.494,0,0,0,.567-.377,1.647,1.647,0,0,0,.359-.61,2.3,2.3,0,0,0,.121-.744,2.276,2.276,0,0,0-.107-.692,1.5,1.5,0,0,0-.334-.571,1.385,1.385,0,0,0-.545-.354,2,2,0,0,0-.669-.114m3.459,4.287c.047-.436.083-.923.107-1.465l.084-1.787c.029-.646.043-1.222.043-1.724.283,0,.522.008.719.008.146,0,.358,0,.638-.008q.413.718,1.138,1.874t1.169,1.914l.136-3.383c0-.081,0-.216,0-.4.228,0,.4.008.517.008l.51-.008-.091,1.338-.113,2.289-.043,1.349c-.254-.005-.469-.007-.647-.007q-.212,0-.686.007c-.121-.216-.213-.378-.276-.481-.1-.162-.312-.491-.639-.993q-.319-.494-.8-1.267-.353-.57-.605-.992-.028.59-.092,2.191-.024.651-.039,1.542c-.23-.005-.394-.007-.5-.007-.081,0-.258,0-.537.007m6.934,0,.081-1.066.08-1.584.051-1.561h-.255l-.237,0-.227,0-.842.024q.03-.525.034-.8,1.049.007,2.2.008l1.309,0,.7,0c-.025.345-.035.611-.035.8-.441-.02-.862-.032-1.265-.032h-.281l-.043.665-.106,2.563-.008.429c0,.178,0,.362,0,.554l-.554-.007c-.062,0-.259,0-.6.007m2.58,0c.309-.005.519-.007.632-.007l.593.007q.4-.9.831-1.768h1.918c.087.228.194.526.318.893s.217.659.276.875c.3-.005.511-.007.638-.007l.546.007-.156-.4-1.134-3.084-.521-1.491c-.221,0-.446.008-.678.008-.13,0-.355,0-.671-.008q-.294.624-.742,1.476l-.96,1.841q-.512.987-.89,1.659m2.381-2.526.528-1.072.3-.611.572,1.683Zm3.876,2.526q.109-1.1.174-2.444t.077-2.532c.248,0,.454.008.619.008.113,0,.292,0,.537-.008-.031.438-.061.936-.087,1.495l-.073,1.462q-.034.627-.048,1.246l.628.008c.587,0,.974,0,1.158-.006s.367-.01.547-.02q-.033.357-.058.791c-.64-.005-1.186-.007-1.641-.007l-1.147,0Z" fill="#161615"/>
          <path id="Trazado_117821" data-name="Trazado 117821" d="M153.185,213.045H204.61a6.049,6.049,0,0,1,6.031,6.032v67.3a6.049,6.049,0,0,1-6.031,6.031H153.185a6.049,6.049,0,0,1-6.031-6.031v-67.3a6.049,6.049,0,0,1,6.031-6.032" fill="#ffbc00" fill-rule="evenodd"/>
          <path id="Trazado_117822" data-name="Trazado 117822" d="M207.625,252.724,179.019,216.06h-28.85l28.607,36.664-28.607,36.664h28.85Z" fill="#161615" fill-rule="evenodd"/>
          <path id="Trazado_117823" data-name="Trazado 117823" d="M207.625,252.724,179.019,216.06h-28.85l28.607,36.664-28.607,36.664h28.85Z" fill="none" stroke="#161615" stroke-miterlimit="22.926" stroke-width="0.353"/>
        </g>
      </g>
      <text id="SP-75" transform="translate(167.666 207.366)" fill="#fff" font-size="8.71" font-family="ErasITC-Demi, Eras ITC" font-weight="300"><tspan x="0" y="0">SP-75</tspan></text>
      <text id="SP-71" transform="translate(167.997 84.887)" fill="#fff" font-size="8.71" font-family="ErasITC-Demi, Eras ITC" font-weight="300"><tspan x="0" y="0">SP-71</tspan></text>
      <text id="SP-72" transform="translate(270.599 85.628)" fill="#fff" font-size="8.71" font-family="ErasITC-Demi, Eras ITC" font-weight="300"><tspan x="0" y="0">SP-72</tspan></text>
      <text id="SP-73" transform="translate(373.934 85.541)" fill="#fff" font-size="8.71" font-family="ErasITC-Demi, Eras ITC" font-weight="300"><tspan x="0" y="0">SP-73</tspan></text>
      <text id="SP-74" transform="translate(476.257 85.471)" fill="#fff" font-size="8.71" font-family="ErasITC-Demi, Eras ITC" font-weight="300"><tspan x="0" y="0">SP-74</tspan></text>
      <text id="RÁFAGAS_DE_" data-name="RÁFAGAS DE " transform="translate(361.106 182.173)" fill="#161615" font-size="7.466" font-family="ErasITC-Demi, Eras ITC" font-weight="300"><tspan x="0" y="0">RÁFAGAS DE </tspan></text>
      <text id="VIENTO_LATERAL" data-name="VIENTO LATERAL" transform="translate(354.17 188.391)" fill="#161615" font-size="7.466" font-family="ErasITC-Demi, Eras ITC" font-weight="300"><tspan x="0" y="0">VIENTO LATERAL</tspan></text>
    </g>
  </g>
</svg>
