<svg xmlns="http://www.w3.org/2000/svg" width="372.422" height="397.631" viewBox="0 0 372.422 397.631">
  <g id="Grupo_82311" data-name="Grupo 82311" transform="translate(10080.421 3371)">
    <path id="Trazado_117824" data-name="Trazado 117824" d="M221.615,363.314v66.007a5.157,5.157,0,0,1-5.137,5.138H192.639a5.163,5.163,0,0,1-5.136-5.138V363.314a5.157,5.157,0,0,1,5.136-5.136h23.839a5.15,5.15,0,0,1,5.137,5.136" transform="translate(-10229.414 -3448.661)" fill="#006a4e" fill-rule="evenodd"/>
    <path id="Trazado_117825" data-name="Trazado 117825" d="M218,363.314a1.541,1.541,0,0,0-1.524-1.526h-23.84a1.545,1.545,0,0,0-1.525,1.526v66.007a1.543,1.543,0,0,0,1.525,1.526h23.84A1.543,1.543,0,0,0,218,429.321Zm1.972,0v66.007a3.514,3.514,0,0,1-3.5,3.495h-23.84a3.514,3.514,0,0,1-3.5-3.495V363.314a3.516,3.516,0,0,1,3.5-3.5h23.84a3.513,3.513,0,0,1,3.5,3.5" transform="translate(-10229.414 -3448.661)" fill="#fff" fill-rule="evenodd"/>
    <path id="Trazado_117826" data-name="Trazado 117826" d="M221.715,439.247V448.4a4.807,4.807,0,0,1-4.787,4.787H192.286A4.809,4.809,0,0,1,187.5,448.4v-9.151a4.8,4.8,0,0,1,4.783-4.786h24.642a4.8,4.8,0,0,1,4.787,4.786" transform="translate(-10229.414 -3448.661)" fill="#006a4e" fill-rule="evenodd"/>
    <path id="Trazado_117827" data-name="Trazado 117827" d="M218.352,439.247a1.438,1.438,0,0,0-1.423-1.423H192.287a1.44,1.44,0,0,0-1.42,1.423V448.4a1.439,1.439,0,0,0,1.42,1.424h24.642a1.441,1.441,0,0,0,1.423-1.424Zm1.834,0V448.4a3.273,3.273,0,0,1-3.257,3.257H192.287a3.275,3.275,0,0,1-3.256-3.257v-9.151a3.276,3.276,0,0,1,3.256-3.257h24.642a3.272,3.272,0,0,1,3.257,3.257" transform="translate(-10229.414 -3448.661)" fill="#fff" fill-rule="evenodd"/>
    <path id="Trazado_117828" data-name="Trazado 117828" d="M198.206,367.717h4.512a3.014,3.014,0,0,1,2.126.8,2.659,2.659,0,0,1,.866,2.044,2.8,2.8,0,0,1-.4,1.424,2.913,2.913,0,0,1-2.752,1.423h-2.64v3.731h-1.714Zm4.512,4a1.4,1.4,0,0,0,.916-.32,1.033,1.033,0,0,0,.39-.84,1.075,1.075,0,0,0-.425-.9,1.556,1.556,0,0,0-.974-.291H199.92v2.347Z" transform="translate(-10229.414 -3448.661)" fill="#fff"/>
    <path id="Trazado_117829" data-name="Trazado 117829" d="M207.007,370.26h1.659v.5a1.656,1.656,0,0,1,1.306-.594,2.085,2.085,0,0,1,1.3.4l-.519,1.622a1.067,1.067,0,0,0-.816-.4,1.208,1.208,0,0,0-.922.372,1.338,1.338,0,0,0-.346.949v4.031h-1.659Z" transform="translate(-10229.414 -3448.661)" fill="#fff"/>
    <path id="Trazado_117830" data-name="Trazado 117830" d="M195.8,443.927a4.4,4.4,0,0,1,1.005-.511c.308-.112.5-.189.572-.227.231-.131.346-.285.346-.459,0-.217-.141-.378-.427-.482a2.023,2.023,0,0,0-.691-.111,2.264,2.264,0,0,0-1.518.593l-.8-.854a3.8,3.8,0,0,1,2.295-.9,2.936,2.936,0,0,1,1.542.361,1.479,1.479,0,0,1,.73,1.347,1.719,1.719,0,0,1-.908,1.5,4.187,4.187,0,0,1-.691.314,5.428,5.428,0,0,0-.7.3,2.188,2.188,0,0,0-.846.906h3.2v1.162h-4.624a3.641,3.641,0,0,1,1.518-2.945" transform="translate(-10229.414 -3448.661)" fill="#fff"/>
    <path id="Trazado_117831" data-name="Trazado 117831" d="M200.091,445.4a3,3,0,0,0,1.622.434q1.25,0,1.251-.847c0-.611-.394-.918-1.177-.918a3.048,3.048,0,0,0-1.039.227l-1.16-.471.239-2.765h3.76v1.167l-2.622.018-.1.76a3.839,3.839,0,0,1,.868-.1,2.978,2.978,0,0,1,1.195.208,1.857,1.857,0,0,1,.883.832,1.959,1.959,0,0,1,.075,1.882,2.175,2.175,0,0,1-2.193,1.19,4.505,4.505,0,0,1-1.153-.161,4.08,4.08,0,0,1-1.073-.448Z" transform="translate(-10229.414 -3448.661)" fill="#fff"/>
    <path id="Trazado_117832" data-name="Trazado 117832" d="M205.219,441.882a2.12,2.12,0,0,1,1.839-.912,2.093,2.093,0,0,1,1.8.942,3.413,3.413,0,0,1,.594,2.026,3.606,3.606,0,0,1-.565,2.079,2.081,2.081,0,0,1-1.827.949,2.111,2.111,0,0,1-1.845-.931,3.6,3.6,0,0,1-.559-2.091,3.5,3.5,0,0,1,.565-2.062m.828,3.306a1.122,1.122,0,0,0,2.011-.018,2.676,2.676,0,0,0,.262-1.243q0-1.8-1.291-1.8-1.239,0-1.239,1.818a2.642,2.642,0,0,0,.257,1.244" transform="translate(-10229.414 -3448.661)" fill="#fff"/>
    <path id="Trazado_117833" data-name="Trazado 117833" d="M211.2,445.819a2.3,2.3,0,0,0,.577-.126,2.466,2.466,0,0,0,1.633-1.451,2.635,2.635,0,0,1-1.171.272,2.579,2.579,0,0,1-1.529-.442,1.608,1.608,0,0,1-.7-1.383,1.474,1.474,0,0,1,.76-1.319,2.835,2.835,0,0,1,1.535-.4,2.084,2.084,0,0,1,2.33,2.387,3.454,3.454,0,0,1-1.05,2.606,3.624,3.624,0,0,1-2.644,1h-.068v-1.2a.656.656,0,0,0,.324.056m2.188-3.113a.518.518,0,0,0-.343-.47,1.325,1.325,0,0,0-.612-.139H212.2a1.564,1.564,0,0,0-.658.128.539.539,0,0,0-.371.5c0,.391.347.588,1.04.588q1.17,0,1.171-.606" transform="translate(-10229.414 -3448.661)" fill="#fff"/>
    <path id="Trazado_117834" data-name="Trazado 117834" d="M201.908,395.354a10.192,10.192,0,0,1,3.058-.475,6.892,6.892,0,0,1,3.891,1.054,3.859,3.859,0,0,1,1.864,3.421,4.019,4.019,0,0,1-1.793,3.452,6.5,6.5,0,0,1-3.831,1.113,6.178,6.178,0,0,1-4.514-1.624,6,6,0,0,1-1.662-4.5,9.214,9.214,0,0,1,1.735-5.55,8.641,8.641,0,0,1,4.719-3.267,12.114,12.114,0,0,1,3.278-.371v2.638q-4.984-.045-6.745,4.105m5.069,2.547a5.038,5.038,0,0,0-1.981-.354,4.672,4.672,0,0,0-1.967.37,1.6,1.6,0,0,0-1.049,1.511,1.564,1.564,0,0,0,1.093,1.452,4.663,4.663,0,0,0,1.923.371,5.021,5.021,0,0,0,1.966-.356,1.582,1.582,0,0,0,1.122-1.481,1.621,1.621,0,0,0-1.107-1.513" transform="translate(-10229.414 -3448.661)" fill="#fff"/>
    <path id="Trazado_117835" data-name="Trazado 117835" d="M200.78,419.661a4.151,4.151,0,0,0,1.719,1.478,4.92,4.92,0,0,0,2.207.512,4.809,4.809,0,0,0,2.133-.422,1.825,1.825,0,0,0,1.126-1.732,2.282,2.282,0,0,0-.311-1.117A2.7,2.7,0,0,0,205,417.221h-.369v-2.69a3.951,3.951,0,0,0,1.673-.211,1.3,1.3,0,0,0,.933-1.263,1.352,1.352,0,0,0-.948-1.262,3.906,3.906,0,0,0-1.658-.331,4.38,4.38,0,0,0-3.289,1.491l-1.985-1.852a7.028,7.028,0,0,1,5.332-2.321,6.059,6.059,0,0,1,3.6,1.04,3.8,3.8,0,0,1,1.657,3.27,4.367,4.367,0,0,1-1.2,2.757,4.584,4.584,0,0,1,1.88,3.541,4.409,4.409,0,0,1-1.88,3.692,6.49,6.49,0,0,1-4.015,1.282,7.66,7.66,0,0,1-6.1-3.075Z" transform="translate(-10229.414 -3448.661)" fill="#fff"/>
    <path id="Trazado_117839" data-name="Trazado 117839" d="M285.181,243.511h99.281a4.675,4.675,0,0,1,4.659,4.66v37.917a4.678,4.678,0,0,1-4.659,4.662H285.181a4.676,4.676,0,0,1-4.659-4.662V248.171a4.673,4.673,0,0,1,4.659-4.66" transform="translate(-10229.414 -3448.661)" fill="#006a4e" fill-rule="evenodd"/>
    <path id="Trazado_117840" data-name="Trazado 117840" d="M285.181,246.787a1.4,1.4,0,0,0-1.383,1.384v37.918a1.4,1.4,0,0,0,1.383,1.384h99.281a1.4,1.4,0,0,0,1.385-1.384V248.171a1.4,1.4,0,0,0-1.385-1.384Zm0-1.787h99.281a3.185,3.185,0,0,1,3.17,3.171v37.918a3.188,3.188,0,0,1-3.17,3.172H285.181a3.187,3.187,0,0,1-3.171-3.172V248.171A3.184,3.184,0,0,1,285.181,245" transform="translate(-10229.414 -3448.661)" fill="#fff" fill-rule="evenodd"/>
    <path id="Trazado_117841" data-name="Trazado 117841" d="M315.98,255.371h4.112a2.748,2.748,0,0,1,1.938.73,2.428,2.428,0,0,1,.79,1.865,2.555,2.555,0,0,1-.363,1.3,2.655,2.655,0,0,1-2.508,1.3h-2.407v3.4H315.98Zm4.112,3.65a1.273,1.273,0,0,0,.837-.292.942.942,0,0,0,.354-.763.979.979,0,0,0-.389-.817,1.417,1.417,0,0,0-.886-.266h-2.466v2.138Z" transform="translate(-10229.414 -3448.661)" fill="#fff"/>
    <path id="Trazado_117842" data-name="Trazado 117842" d="M325.8,257.691v3.762a1.184,1.184,0,0,0,.29.812.978.978,0,0,0,.773.331,1.221,1.221,0,0,0,.833-.318,1.024,1.024,0,0,0,.358-.8v-3.788h1.444v6.271h-1.444v-.482a2.458,2.458,0,0,1-1.36.568,2.221,2.221,0,0,1-2.271-1.212,1.707,1.707,0,0,1-.162-.7v-4.45Z" transform="translate(-10229.414 -3448.661)" fill="#fff"/>
    <path id="Trazado_117843" data-name="Trazado 117843" d="M335.63,263.094a2.4,2.4,0,0,1-1.993,1.013,2.377,2.377,0,0,1-1.993-1.047,3.834,3.834,0,0,1-.032-4.4,2.228,2.228,0,0,1,1.9-1.067,2.3,2.3,0,0,1,2.034,1.117,4.234,4.234,0,0,1,.626,2.372v.223h-3.748c.1.315.177.552.226.713a1.092,1.092,0,0,0,.988.705,1.277,1.277,0,0,0,.98-.543Zm-1.275-3.8a.93.93,0,0,0-.785-.316.912.912,0,0,0-.727.351,1.594,1.594,0,0,0-.328.773h2.195a3.608,3.608,0,0,0-.355-.808" transform="translate(-10229.414 -3448.661)" fill="#fff"/>
    <path id="Trazado_117844" data-name="Trazado 117844" d="M337.61,257.691h1.512v.455a1.514,1.514,0,0,1,1.191-.541,1.9,1.9,0,0,1,1.183.361l-.474,1.477a.969.969,0,0,0-.743-.361,1.087,1.087,0,0,0-.838.34,1.208,1.208,0,0,0-.319.863v3.677H337.61Z" transform="translate(-10229.414 -3448.661)" fill="#fff"/>
    <path id="Trazado_117845" data-name="Trazado 117845" d="M342.935,257.725h1.005v-1.932l1.53-.577v2.509h1.265v1.444H345.47l-.011,2.593a.682.682,0,0,0,.761.782.923.923,0,0,0,.6-.292l-.235,1.538a2.2,2.2,0,0,1-1.113.317,1.378,1.378,0,0,1-1.134-.523,1.9,1.9,0,0,1-.4-1.237l.007-3.178h-1.005Z" transform="translate(-10229.414 -3448.661)" fill="#fff"/>
    <path id="Trazado_117846" data-name="Trazado 117846" d="M352.937,263.051a2.391,2.391,0,0,1-3.968,0,3.652,3.652,0,0,1-.71-2.224,3.7,3.7,0,0,1,.71-2.234,2.4,2.4,0,0,1,3.968.009,3.579,3.579,0,0,1,.727,2.215,3.627,3.627,0,0,1-.727,2.234m-1.071-3.376a1.033,1.033,0,0,0-.911-.592.982.982,0,0,0-.906.6,2.437,2.437,0,0,0-.252,1.143,2.679,2.679,0,0,0,.245,1.177,1,1,0,0,0,.913.636,1.042,1.042,0,0,0,.927-.653,2.5,2.5,0,0,0,.28-1.179,2.219,2.219,0,0,0-.3-1.133" transform="translate(-10229.414 -3448.661)" fill="#fff"/>
    <path id="Trazado_117847" data-name="Trazado 117847" d="M318.148,278.625a3.8,3.8,0,0,1-1.9.48,3.121,3.121,0,0,1-2.728-1.374,5.3,5.3,0,0,1-.836-3.083,5.169,5.169,0,0,1,.844-3.1,3.213,3.213,0,0,1,2.786-1.333,3.535,3.535,0,0,1,1.853.5,3.808,3.808,0,0,1,1.358,1.4l-1.343.731c-.137-.179-.234-.31-.3-.4a2.263,2.263,0,0,0-1.724-.7,1.669,1.669,0,0,0-1.553,1.006,4.2,4.2,0,0,0-.4,1.932,3.958,3.958,0,0,0,.43,1.95,1.744,1.744,0,0,0,1.613.954,2.516,2.516,0,0,0,1.934-1.108l1.343.73a3.478,3.478,0,0,1-1.377,1.409" transform="translate(-10229.414 -3448.661)" fill="#fff"/>
    <path id="Trazado_117848" data-name="Trazado 117848" d="M324.68,278.676a2.919,2.919,0,0,1-1.467.4,2.319,2.319,0,0,1-1.609-.55,2.293,2.293,0,0,1,.005-3.186,2.431,2.431,0,0,1,1.653-.526,4.8,4.8,0,0,1,1.418.216,1,1,0,0,0-.352-.775,1.3,1.3,0,0,0-.813-.239,2.887,2.887,0,0,0-1.467.472l-.611-1.322a4.251,4.251,0,0,1,2.16-.636q2.517,0,2.517,2.62v3.806H324.68Zm0-2.293a3.469,3.469,0,0,0-1.28-.3,1.4,1.4,0,0,0-.715.18.663.663,0,0,0-.37.6.708.708,0,0,0,.353.635,1.251,1.251,0,0,0,.715.2,3.158,3.158,0,0,0,1.3-.351Z" transform="translate(-10229.414 -3448.661)" fill="#fff"/>
    <path id="Trazado_117849" data-name="Trazado 117849" d="M327.554,272.68h1.513v.456a1.507,1.507,0,0,1,1.189-.542,1.9,1.9,0,0,1,1.183.36l-.473,1.478a.976.976,0,0,0-.743-.361,1.09,1.09,0,0,0-.839.341,1.206,1.206,0,0,0-.317.862v3.678h-1.513Z" transform="translate(-10229.414 -3448.661)" fill="#fff"/>
    <path id="Trazado_117850" data-name="Trazado 117850" d="M332.878,272.68h1.512v.456a1.512,1.512,0,0,1,1.191-.542,1.9,1.9,0,0,1,1.182.36l-.473,1.478a.976.976,0,0,0-.743-.361,1.1,1.1,0,0,0-.841.341,1.218,1.218,0,0,0-.316.862v3.678h-1.512Z" transform="translate(-10229.414 -3448.661)" fill="#fff"/>
    <path id="Trazado_117851" data-name="Trazado 117851" d="M342.9,278.083a2.439,2.439,0,0,1-3.984-.035,3.836,3.836,0,0,1-.034-4.4,2.234,2.234,0,0,1,1.9-1.065,2.3,2.3,0,0,1,2.036,1.117,4.232,4.232,0,0,1,.623,2.371v.224H339.69c.1.314.177.552.227.711a1.089,1.089,0,0,0,.988.707,1.278,1.278,0,0,0,.98-.542Zm-1.274-3.8a.928.928,0,0,0-.785-.318.914.914,0,0,0-.727.353,1.578,1.578,0,0,0-.329.772h2.2a3.649,3.649,0,0,0-.356-.807" transform="translate(-10229.414 -3448.661)" fill="#fff"/>
    <path id="Trazado_117852" data-name="Trazado 117852" d="M344.879,272.68h1.529v.516a1.766,1.766,0,0,1,1.47-.636,2.371,2.371,0,0,1,1.569.524,1.866,1.866,0,0,1,.668,1.5v4.372H348.62V275.18a1.244,1.244,0,0,0-.269-.816.925.925,0,0,0-.761-.361,1.152,1.152,0,0,0-.844.335,1.133,1.133,0,0,0-.338.842v3.772h-1.529Zm4.484-2.182h-3.547l-.169,1.117H349.2Z" transform="translate(-10229.414 -3448.661)" fill="#fff"/>
    <path id="Trazado_117853" data-name="Trazado 117853" d="M356.233,278.04a2.391,2.391,0,0,1-3.969,0,3.66,3.66,0,0,1-.709-2.225,3.7,3.7,0,0,1,.709-2.234,2.4,2.4,0,0,1,3.969.01,3.581,3.581,0,0,1,.727,2.215,3.629,3.629,0,0,1-.727,2.234m-1.071-3.376a1.035,1.035,0,0,0-.913-.592.978.978,0,0,0-.9.6,2.43,2.43,0,0,0-.253,1.142,2.7,2.7,0,0,0,.244,1.178,1,1,0,0,0,.913.636,1.042,1.042,0,0,0,.928-.654,2.488,2.488,0,0,0,.279-1.178,2.218,2.218,0,0,0-.294-1.133" transform="translate(-10229.414 -3448.661)" fill="#fff"/>
    <path id="Trazado_117854" data-name="Trazado 117854" d="M417.339,245.41H516.89a4.537,4.537,0,0,1,4.524,4.525v34.391a4.538,4.538,0,0,1-4.524,4.525H417.339a4.538,4.538,0,0,1-4.525-4.525V249.935a4.537,4.537,0,0,1,4.525-4.525" transform="translate(-10229.414 -3448.661)" fill="#006a4e" fill-rule="evenodd"/>
    <path id="Trazado_117855" data-name="Trazado 117855" d="M417.339,249.391H516.89a.544.544,0,0,1,.542.544v34.391a.544.544,0,0,1-.542.542H417.339a.544.544,0,0,1-.543-.542V249.935a.544.544,0,0,1,.543-.544m0-2.172a2.724,2.724,0,0,0-2.716,2.716v34.391a2.724,2.724,0,0,0,2.716,2.714H516.89a2.724,2.724,0,0,0,2.715-2.714V249.935a2.724,2.724,0,0,0-2.715-2.716Z" transform="translate(-10229.414 -3448.661)" fill="#fff" fill-rule="evenodd"/>
    <path id="Trazado_117856" data-name="Trazado 117856" d="M444.337,255.531h1.649l3.754,9.006h-1.735l-.884-2.117H443.2l-.881,2.117h-1.766Zm2.09,5.277-1.26-3.034-1.271,3.034Z" transform="translate(-10229.414 -3448.661)" fill="#fff"/>
    <path id="Trazado_117857" data-name="Trazado 117857" d="M452.862,257.962l1.585,4.458,1.586-4.458h1.61l-2.34,6.574h-1.711l-2.341-6.574Z" transform="translate(-10229.414 -3448.661)" fill="#fff"/>
    <path id="Trazado_117858" data-name="Trazado 117858" d="M459.4,263.245a.756.756,0,0,1,.567-.257.768.768,0,0,1,.567.252.826.826,0,0,1,.244.594.734.734,0,0,1-.248.563.809.809,0,0,1-1.125.005.72.72,0,0,1-.249-.559.843.843,0,0,1,.244-.6" transform="translate(-10229.414 -3448.661)" fill="#fff"/>
    <path id="Trazado_117859" data-name="Trazado 117859" d="M468.59,255.531h1.54l4.125,5.917v-5.917h1.539v9.006h-1.387l-4.25-6.205v6.205H468.59Z" transform="translate(-10229.414 -3448.661)" fill="#fff"/>
    <path id="Trazado_117860" data-name="Trazado 117860" d="M482.491,264.4a3.51,3.51,0,0,1-1.423.287,3.311,3.311,0,0,1-2.846-1.449,5.3,5.3,0,0,1-.917-3.16,5.453,5.453,0,0,1,.907-3.225,3.59,3.59,0,0,1,5.764-.035,5.42,5.42,0,0,1,.892,3.2,4.93,4.93,0,0,1-1.206,3.566l.477.73-1.2.783Zm-.432-3.188.657.98a4.471,4.471,0,0,0,.54-2.3,3.747,3.747,0,0,0-.468-1.962,1.861,1.861,0,0,0-1.684-.937,1.9,1.9,0,0,0-1.739.982,3.987,3.987,0,0,0-.476,2.044,4.152,4.152,0,0,0,.451,2.026,1.811,1.811,0,0,0,1.675,1.027,1.894,1.894,0,0,0,.531-.054l-.668-1.009Z" transform="translate(-10229.414 -3448.661)" fill="#fff"/>
    <path id="Trazado_117861" data-name="Trazado 117861" d="M487.683,261.88a2.905,2.905,0,0,0,2.4,1.162,3.025,3.025,0,0,0,1.251-.252,1.037,1.037,0,0,0,.711-.946c0-.487-.456-.855-1.368-1.109q-2.324-.637-2.539-.738a2.265,2.265,0,0,1-.352-3.971,3.833,3.833,0,0,1,2.17-.585,4.422,4.422,0,0,1,3.306,1.387L492.05,257.9a2.91,2.91,0,0,0-2.15-.883q-1.5,0-1.5.92c0,.426.454.747,1.367.963a13.824,13.824,0,0,1,2.54.747,2.446,2.446,0,0,1,1.369,2.333,2.272,2.272,0,0,1-1.189,2,4.319,4.319,0,0,1-2.359.648,4.651,4.651,0,0,1-3.747-1.738Z" transform="translate(-10229.414 -3448.661)" fill="#fff"/>
    <path id="Trazado_117862" data-name="Trazado 117862" d="M438.175,276.8a4.119,4.119,0,0,1-2.027.505,3.345,3.345,0,0,1-2.908-1.441,5.485,5.485,0,0,1-.891-3.232,5.372,5.372,0,0,1,.9-3.252,3.45,3.45,0,0,1,2.972-1.4,3.83,3.83,0,0,1,1.977.527,4.021,4.021,0,0,1,1.446,1.464l-1.434.765c-.142-.186-.246-.324-.314-.414a2.432,2.432,0,0,0-1.836-.73,1.787,1.787,0,0,0-1.659,1.052,4.368,4.368,0,0,0-.432,2.028,4.088,4.088,0,0,0,.461,2.043,1.863,1.863,0,0,0,1.719,1,2.689,2.689,0,0,0,2.061-1.162l1.434.765a3.655,3.655,0,0,1-1.468,1.477" transform="translate(-10229.414 -3448.661)" fill="#fff"/>
    <path id="Trazado_117863" data-name="Trazado 117863" d="M445.115,276.856a3.127,3.127,0,0,1-1.562.414,2.506,2.506,0,0,1-1.717-.576,2.074,2.074,0,0,1-.684-1.649,2.1,2.1,0,0,1,.69-1.693,2.631,2.631,0,0,1,1.761-.549,5.127,5.127,0,0,1,1.512.226,1.032,1.032,0,0,0-.375-.81,1.379,1.379,0,0,0-.867-.253,3.12,3.12,0,0,0-1.562.494l-.653-1.386a4.616,4.616,0,0,1,2.305-.666q2.684,0,2.683,2.747v3.989h-1.531Zm0-2.4a3.8,3.8,0,0,0-1.363-.314,1.52,1.52,0,0,0-.763.188.7.7,0,0,0-.394.63.738.738,0,0,0,.375.666,1.339,1.339,0,0,0,.762.207,3.389,3.389,0,0,0,1.383-.369Z" transform="translate(-10229.414 -3448.661)" fill="#fff"/>
    <path id="Trazado_117864" data-name="Trazado 117864" d="M448.154,270.57h1.613v.476a1.632,1.632,0,0,1,1.27-.566,2.033,2.033,0,0,1,1.261.378l-.506,1.549a1.031,1.031,0,0,0-.791-.378,1.172,1.172,0,0,0-.9.354,1.263,1.263,0,0,0-.339.906v3.855h-1.613Z" transform="translate(-10229.414 -3448.661)" fill="#fff"/>
    <path id="Trazado_117865" data-name="Trazado 117865" d="M453.807,270.57h1.613v.476a1.632,1.632,0,0,1,1.27-.566,2.025,2.025,0,0,1,1.259.378l-.5,1.549a1.034,1.034,0,0,0-.791-.378,1.178,1.178,0,0,0-.9.354,1.27,1.27,0,0,0-.337.906v3.855h-1.613Z" transform="translate(-10229.414 -3448.661)" fill="#fff"/>
    <path id="Trazado_117866" data-name="Trazado 117866" d="M464.466,276.235a2.58,2.58,0,0,1-2.125,1.062,2.544,2.544,0,0,1-2.124-1.1,3.963,3.963,0,0,1-.038-4.609,2.394,2.394,0,0,1,2.027-1.118,2.463,2.463,0,0,1,2.17,1.173,4.388,4.388,0,0,1,.666,2.484v.234h-4c.107.33.19.579.242.748a1.164,1.164,0,0,0,1.055.739,1.362,1.362,0,0,0,1.043-.569Zm-1.36-3.981a1,1,0,0,0-.837-.333.986.986,0,0,0-.775.369,1.664,1.664,0,0,0-.35.81h2.341a3.834,3.834,0,0,0-.379-.846" transform="translate(-10229.414 -3448.661)" fill="#fff"/>
    <path id="Trazado_117867" data-name="Trazado 117867" d="M466.553,270.57h1.611v.476a1.635,1.635,0,0,1,1.27-.566,2.031,2.031,0,0,1,1.261.378l-.5,1.549a1.037,1.037,0,0,0-.793-.378,1.175,1.175,0,0,0-.9.354,1.263,1.263,0,0,0-.339.906v3.855h-1.611Z" transform="translate(-10229.414 -3448.661)" fill="#fff"/>
    <path id="Trazado_117868" data-name="Trazado 117868" d="M476.167,276.856a3.127,3.127,0,0,1-1.562.414,2.506,2.506,0,0,1-1.717-.576,2.074,2.074,0,0,1-.684-1.649,2.1,2.1,0,0,1,.69-1.693,2.631,2.631,0,0,1,1.761-.549,5.127,5.127,0,0,1,1.512.226,1.032,1.032,0,0,0-.375-.81,1.379,1.379,0,0,0-.867-.253,3.12,3.12,0,0,0-1.562.494l-.653-1.386a4.616,4.616,0,0,1,2.305-.666q2.683,0,2.683,2.747v3.989h-1.531Zm0-2.4a3.8,3.8,0,0,0-1.363-.314,1.522,1.522,0,0,0-.763.188.7.7,0,0,0-.394.63.738.738,0,0,0,.375.666,1.344,1.344,0,0,0,.763.207,3.382,3.382,0,0,0,1.382-.369Z" transform="translate(-10229.414 -3448.661)" fill="#fff"/>
    <path id="Trazado_117869" data-name="Trazado 117869" d="M486.818,274.488a2.49,2.49,0,0,0,1.043.881,3.024,3.024,0,0,0,1.342.307,2.983,2.983,0,0,0,1.3-.252,1.09,1.09,0,0,0,.685-1.035,1.36,1.36,0,0,0-.19-.667,1.651,1.651,0,0,0-1.61-.693h-.226v-1.608a2.431,2.431,0,0,0,1.017-.124.781.781,0,0,0,.567-.756.808.808,0,0,0-.576-.754,2.4,2.4,0,0,0-1.008-.2,2.689,2.689,0,0,0-2,.894l-1.206-1.108a4.305,4.305,0,0,1,3.242-1.386,3.73,3.73,0,0,1,2.187.62,2.26,2.26,0,0,1,1.009,1.953,2.6,2.6,0,0,1-.729,1.649,2.731,2.731,0,0,1,1.143,2.117,2.622,2.622,0,0,1-1.143,2.206,3.99,3.99,0,0,1-2.44.766,4.69,4.69,0,0,1-3.71-1.838Z" transform="translate(-10229.414 -3448.661)" fill="#fff"/>
    <path id="Trazado_117870" data-name="Trazado 117870" d="M501,275.848a3.375,3.375,0,0,1-2.946,1.457,3.27,3.27,0,0,1-2.862-1.485,5.594,5.594,0,0,1-.875-3.215,5.349,5.349,0,0,1,.9-3.2,3.64,3.64,0,0,1,5.773-.017,5.376,5.376,0,0,1,.892,3.188,5.626,5.626,0,0,1-.882,3.27m-1.162-5.251a1.845,1.845,0,0,0-1.73-1.018,1.891,1.891,0,0,0-1.729,1.026,4.1,4.1,0,0,0-.477,2.062,3.971,3.971,0,0,0,.477,2.045,1.872,1.872,0,0,0,1.729,1.009,1.823,1.823,0,0,0,1.675-1.035,4.093,4.093,0,0,0,.477-2.028,4.382,4.382,0,0,0-.422-2.061" transform="translate(-10229.414 -3448.661)" fill="#fff"/>
    <path id="Trazado_117871" data-name="Trazado 117871" d="M177.189,223.69h0a25.364,25.364,0,0,0,25.339,0h0a25.364,25.364,0,0,0,25.339,0l18.1,18.1h0a25.224,25.224,0,0,0-3.389,12.668c0,8.805,3.859,14.153,3.222,25.23a25.342,25.342,0,0,1-25.174,22.429c-.918,0-1.812-.058-2.735-.058a18.086,18.086,0,0,0-15.352,8.51h0a18.084,18.084,0,0,0-15.352-8.51c-.93,0-1.83.058-2.757.058a25.34,25.34,0,0,1-25.172-22.429c-.638-11.1,3.223-16.423,3.223-25.23a25.226,25.226,0,0,0-3.391-12.668h0Z" transform="translate(-10229.414 -3448.661)" fill="#fff" stroke="#1d1d1b" stroke-miterlimit="22.926" stroke-width="0.543"/>
    <path id="Trazado_117872" data-name="Trazado 117872" d="M202.54,308.061a19.526,19.526,0,0,1,15.353-7.448c.913,0,1.824.058,2.736.058,11.89,0,23.026-8.854,23.728-21.064.7-12.18-3.225-15.738-3.225-25.147a26.692,26.692,0,0,1,3.045-12.415l-16.563-16.563a26.823,26.823,0,0,1-25.085-.135,26.823,26.823,0,0,1-25.085.135l-16.562,16.563a26.692,26.692,0,0,1,3.045,12.415c0,9.415-3.926,12.949-3.225,25.147s11.838,21.064,23.727,21.064c.919,0,1.838-.058,2.757-.058a19.531,19.531,0,0,1,15.354,7.448m37.2-55.406H165.319a28.138,28.138,0,0,0-2.675-10.324l15.087-15.087a28.292,28.292,0,0,0,24.8-.265,28.294,28.294,0,0,0,24.8.265l15.088,15.087a28.1,28.1,0,0,0-2.675,10.324m-37.2,53.183a20.975,20.975,0,0,0-15.354-6.672c-.919,0-1.838.057-2.757.057-11.119,0-21.622-8.257-22.281-19.7-.691-12.024,3.227-15.551,3.227-25.064,0-.118,0-.238,0-.358h74.312c0,.12,0,.24,0,.358,0,9.5,3.918,13.058,3.227,25.064-.658,11.442-11.163,19.7-22.282,19.7-.912,0-1.823-.057-2.736-.057a20.971,20.971,0,0,0-15.353,6.672" transform="translate(-10229.414 -3448.661)" fill="#1d1d1b" fill-rule="evenodd"/>
    <path id="Trazado_117873" data-name="Trazado 117873" d="M202.54,308.061a19.526,19.526,0,0,1,15.353-7.448c.913,0,1.824.058,2.736.058,11.89,0,23.026-8.854,23.728-21.064.7-12.18-3.225-15.738-3.225-25.147a26.692,26.692,0,0,1,3.045-12.415l-16.563-16.563a26.823,26.823,0,0,1-25.085-.135,26.823,26.823,0,0,1-25.085.135l-16.562,16.563a26.692,26.692,0,0,1,3.045,12.415c0,9.415-3.926,12.949-3.225,25.147s11.838,21.064,23.727,21.064c.919,0,1.838-.058,2.757-.058A19.531,19.531,0,0,1,202.54,308.061Zm37.2-55.406H165.319a28.138,28.138,0,0,0-2.675-10.324l15.087-15.087a28.292,28.292,0,0,0,24.8-.265,28.294,28.294,0,0,0,24.8.265l15.088,15.087A28.1,28.1,0,0,0,239.741,252.655Zm-37.2,53.183a20.975,20.975,0,0,0-15.354-6.672c-.919,0-1.838.057-2.757.057-11.119,0-21.622-8.257-22.281-19.7-.691-12.024,3.227-15.551,3.227-25.064,0-.118,0-.238,0-.358h74.312c0,.12,0,.24,0,.358,0,9.5,3.918,13.058,3.227,25.064-.658,11.442-11.163,19.7-22.282,19.7-.912,0-1.823-.057-2.736-.057A20.971,20.971,0,0,0,202.54,305.838Z" transform="translate(-10229.414 -3448.661)" fill="none" stroke="#1d1d1b" stroke-miterlimit="22.926" stroke-width="0.543"/>
    <path id="Trazado_117874" data-name="Trazado 117874" d="M186.075,257.96l.025,3.4.861.12,1.491,4.779.991.215-.508-2.314,1.2,1.691.043,1.168.595.216.174,1.6,1.112.351.6.829,1.048.049,1.658.593,1.519-.013,1.084.639,1.178.119.184.855,1.073.218.477.546,1.038-.273.5,1.288-.478,1.137-.893.61v1.588l-.382.223.013.283-.506.327.03.858.667.487.8,2.011.049,1.5,1.19.088,1.519,1.186.654.74.126,2.147-.162,2-.686,1.252.039,2.73.509.683.109,3.151.219.476.394-.133-.044,1.4,1.08.157.129.826.392.013-.044-4.064,1.213-1.328,1.642-1.669.493-.319-.053-.882.637-.008,1.287-1.185.784-1.486.024-.826.746-.1,2.993-2.609.43-.67-.02-1.372,1.528-1.9.137-2.594-.023-.8-1.286.46-1.122-.353-.477-.625-.967.1-1.009-1.488-1.574-1.55-1.42-.862-2.27-1.129-1.853-.563-.269-.9-1.246.248-.151-1.063-1.037.518-.855.729-.555.159-.461.888-1.021-.072-.518-.278-.4-.8-.092-1.131-.955-.383-1-.165-.428-.691-.1-1.049-.476-.286-1.005.938-1-.365-1.048-1.049-.191-1.334.572-1.144.857.381.573-.668,1.049.287.571-.858.763.476h.762l.192,1.218.285.4.453-.206.4-1.32-.177-1.535.654-.617.308-.624.168-1.7.667-.258-.014-1.267.212-.575.247-1.978-.733-.005-.855,1.415-.988.119-.777,1.533-.522-.6-.413-.4-1.292.174-.235.832-.616.07.007-1.772-2.122.023-.285-.734-3.088-.261-.153-.31-2.192-.095-.837.3-.089-.386-.521.315Z" transform="translate(-10229.414 -3448.661)" fill="#fff" fill-rule="evenodd"/>
    <path id="Trazado_117875" data-name="Trazado 117875" d="M186.075,257.96l.025,3.4.861.12,1.491,4.779.991.215-.508-2.314,1.2,1.691.043,1.168.595.216.174,1.6,1.112.351.6.829,1.048.049,1.658.593,1.519-.013,1.084.639,1.178.119.184.855,1.073.218.477.546,1.038-.273.5,1.288-.478,1.137-.893.61v1.588l-.382.223.013.283-.506.327.03.858.667.487.8,2.011.049,1.5,1.19.088,1.519,1.186.654.74.126,2.147-.162,2-.686,1.252.039,2.73.509.683.109,3.151.219.476.394-.133-.044,1.4,1.08.157.129.826.392.013-.044-4.064,1.213-1.328,1.642-1.669.493-.319-.053-.882.637-.008,1.287-1.185.784-1.486.024-.826.746-.1,2.993-2.609.43-.67-.02-1.372,1.528-1.9.137-2.594-.023-.8-1.286.46-1.122-.353-.477-.625-.967.1-1.009-1.488-1.574-1.55-1.42-.862-2.27-1.129-1.853-.563-.269-.9-1.246.248-.151-1.063-1.037.518-.855.729-.555.159-.461.888-1.021-.072-.518-.278-.4-.8-.092-1.131-.955-.383-1-.165-.428-.691-.1-1.049-.476-.286-1.005.938-1-.365-1.048-1.049-.191-1.334.572-1.144.857.381.573-.668,1.049.287.571-.858.763.476h.762l.192,1.218.285.4.453-.206.4-1.32-.177-1.535.654-.617.308-.624.168-1.7.667-.258-.014-1.267.212-.575.247-1.978-.733-.005-.855,1.415-.988.119-.777,1.533-.522-.6-.413-.4-1.292.174-.235.832-.616.07.007-1.772-2.122.023-.285-.734-3.088-.261-.153-.31-2.192-.095-.837.3-.089-.386-.521.315Z" transform="translate(-10229.414 -3448.661)" fill="none" stroke="#1d1d1b" stroke-miterlimit="22.926" stroke-width="0.588"/>
    <path id="Trazado_117876" data-name="Trazado 117876" d="M169.526,284.159l-3.307-11.231h2.152l2.466,8.648,2.388-8.648H175.4l-3.308,11.231Z" transform="translate(-10229.414 -3448.661)" fill="#1d1d1b"/>
    <rect id="Rectángulo_34523" data-name="Rectángulo 34523" width="1.995" height="11.231" transform="translate(-10052.814 -3175.733)" fill="#1d1d1b"/>
    <path id="Trazado_117877" data-name="Trazado 117877" d="M185.393,272.928h-2.562l-3.307,11.231H181.7l.548-1.975h3.738l.568,1.975H188.7Zm-2.543,7.025,1.232-4.423,1.311,4.423Z" transform="translate(-10229.414 -3448.661)" fill="#1d1d1b"/>
    <path id="Trazado_117878" data-name="Trazado 117878" d="M201.458,274.963a3,3,0,0,0-1.771-1.79,3.765,3.765,0,0,0-1.389-.244h-4.187V284.16h2v-4.266h2.016a3.681,3.681,0,0,0,2.593-.909,3.328,3.328,0,0,0,.987-2.573,4.066,4.066,0,0,0-.244-1.449m-3.219,2.935h-2.133v-2.974h2.133q1.447,0,1.468,1.546a1.291,1.291,0,0,1-1.468,1.428" transform="translate(-10229.414 -3448.661)" fill="#1d1d1b"/>
    <path id="Trazado_117879" data-name="Trazado 117879" d="M206.819,272.928h-2.564l-3.307,11.231h2.173l.547-1.975h3.738l.568,1.975h2.152Zm-2.544,7.025,1.232-4.423,1.312,4.423Z" transform="translate(-10229.414 -3448.661)" fill="#1d1d1b"/>
    <path id="Trazado_117880" data-name="Trazado 117880" d="M212.932,276.743v7.416h-2V272.928h2.309l3.62,7.1v-7.1h1.995v11.231H216.71Z" transform="translate(-10229.414 -3448.661)" fill="#1d1d1b"/>
    <path id="Trazado_117881" data-name="Trazado 117881" d="M225.563,272.928H223l-3.307,11.231h2.173l.547-1.975h3.738l.567,1.975h2.153Zm-2.544,7.025,1.233-4.423,1.311,4.423Z" transform="translate(-10229.414 -3448.661)" fill="#1d1d1b"/>
    <path id="Trazado_117882" data-name="Trazado 117882" d="M237.116,277.174l-2.6,7.337-2.778-7.395v7.043h-2V272.928h2.524l2.251,6.2,2.191-6.2h2.407v11.231h-2Z" transform="translate(-10229.414 -3448.661)" fill="#1d1d1b"/>
    <path id="Trazado_117883" data-name="Trazado 117883" d="M179.383,239.689h-1.694a1.681,1.681,0,0,0-.691-.97,1.989,1.989,0,0,0-1.152-.363q-2.2,0-2.2,4.147t2.2,4.146a1.545,1.545,0,0,0,1.612-.969h1.826a3.439,3.439,0,0,1-1.275,1.9,3.481,3.481,0,0,1-2.163.732,3.328,3.328,0,0,1-3.11-1.974,9.5,9.5,0,0,1-.033-7.667,3.335,3.335,0,0,1,3.143-1.942,3.442,3.442,0,0,1,2.287.847,3.594,3.594,0,0,1,1.25,2.114M186.7,242.5q0-4.146-2.206-4.147-2.187,0-2.188,4.147t2.188,4.146q2.207,0,2.206-4.146m1.711,0a8.3,8.3,0,0,1-.79,3.851,3.443,3.443,0,0,1-6.22-.017,8.149,8.149,0,0,1-.822-3.834,8.253,8.253,0,0,1,.789-3.833,3.488,3.488,0,0,1,6.253,0,8.253,8.253,0,0,1,.79,3.833m6.8,5.661h-5.743V236.859h1.564v9.692h4.179Zm6.586-5.661q0-4.146-2.2-4.147-2.188,0-2.189,4.147t2.189,4.146q2.205,0,2.2-4.146m1.713,0a8.284,8.284,0,0,1-.791,3.851,3.443,3.443,0,0,1-6.22-.017,8.161,8.161,0,0,1-.822-3.834,8.253,8.253,0,0,1,.789-3.833,3.488,3.488,0,0,1,6.253,0,8.24,8.24,0,0,1,.791,3.833m9.795,5.661h-1.629v-7.932l-2.468,7.6-2.6-7.6v7.932h-1.5V236.859h2.056l2.041,6.088,2.04-6.088H213.3Zm6.472-3.538a2.259,2.259,0,0,0-.345-1.234,1.2,1.2,0,0,0-1.053-.625h-1.91v3.9h1.925a1.176,1.176,0,0,0,1.038-.723,2.643,2.643,0,0,0,.345-1.317m-.411-4.673a2.034,2.034,0,0,0-.33-1.078.977.977,0,0,0-.855-.534h-1.712v3.043h1.712a1.02,1.02,0,0,0,.855-.443,1.623,1.623,0,0,0,.33-.988m2.074,4.771a3.692,3.692,0,0,1-.758,2.468,2.913,2.913,0,0,1-2.354.972h-3.439V236.859h3.472a2.391,2.391,0,0,1,1.886.9,3.031,3.031,0,0,1,.763,2.015,3.411,3.411,0,0,1-1.2,2.173,2.79,2.79,0,0,1,1.63,2.78m3.164,3.44h-1.564V236.859H224.6Zm6.307-3.818-1.1-4.8-1.087,4.8Zm2.617,3.818h-1.679l-.576-2.585h-2.9l-.593,2.585h-1.728l2.881-11.305h1.694Z" transform="translate(-10229.414 -3448.661)" fill="#1d1d1b"/>
    <path id="Trazado_117884" data-name="Trazado 117884" d="M416.723,105.9H517.505a3.922,3.922,0,0,1,3.91,3.91v44.3a3.922,3.922,0,0,1-3.91,3.908H416.723a3.921,3.921,0,0,1-3.91-3.908v-44.3a3.922,3.922,0,0,1,3.91-3.91" transform="translate(-10229.414 -3448.661)" fill="#006a4e" fill-rule="evenodd"/>
    <path id="Trazado_117885" data-name="Trazado 117885" d="M416.724,108.614H517.5a1.2,1.2,0,0,1,1.195,1.195v44.305a1.2,1.2,0,0,1-1.195,1.2H416.724a1.2,1.2,0,0,1-1.2-1.2V109.809a1.2,1.2,0,0,1,1.2-1.195m0-1.629a2.833,2.833,0,0,0-2.825,2.824v44.305a2.833,2.833,0,0,0,2.825,2.824H517.5a2.833,2.833,0,0,0,2.824-2.824V109.809a2.833,2.833,0,0,0-2.824-2.824Z" transform="translate(-10229.414 -3448.661)" fill="#fff" fill-rule="evenodd"/>
    <path id="Trazado_117886" data-name="Trazado 117886" d="M430.931,135.028a2.613,2.613,0,0,1-1.292.322,2.131,2.131,0,0,1-1.853-.92,3.489,3.489,0,0,1-.569-2.059,3.42,3.42,0,0,1,.574-2.072,2.2,2.2,0,0,1,1.894-.89,2.444,2.444,0,0,1,1.261.336,2.584,2.584,0,0,1,.921.933l-.914.487c-.092-.118-.159-.206-.2-.263a1.549,1.549,0,0,0-1.17-.465,1.133,1.133,0,0,0-1.055.671,2.751,2.751,0,0,0-.277,1.292,2.6,2.6,0,0,0,.293,1.3,1.188,1.188,0,0,0,1.1.638,1.717,1.717,0,0,0,1.314-.741l.914.487a2.351,2.351,0,0,1-.936.942" transform="translate(-10229.414 -3448.661)" fill="#fff"/>
    <path id="Trazado_117887" data-name="Trazado 117887" d="M436.008,134.638a1.64,1.64,0,0,1-2.7,0,2.4,2.4,0,0,1-.482-1.486,2.433,2.433,0,0,1,.482-1.492,1.645,1.645,0,0,1,2.7.006,2.364,2.364,0,0,1,.494,1.481,2.394,2.394,0,0,1-.494,1.491m-.729-2.255a.7.7,0,0,0-.62-.4.666.666,0,0,0-.614.4,1.592,1.592,0,0,0-.173.763,1.743,1.743,0,0,0,.168.786.674.674,0,0,0,.619.425.709.709,0,0,0,.631-.435,1.65,1.65,0,0,0,.19-.787,1.456,1.456,0,0,0-.2-.758" transform="translate(-10229.414 -3448.661)" fill="#fff"/>
    <path id="Trazado_117888" data-name="Trazado 117888" d="M437.463,131.057h1.027v.3A1.039,1.039,0,0,1,439.3,131a1.3,1.3,0,0,1,.8.241l-.322.987a.659.659,0,0,0-.5-.242.75.75,0,0,0-.572.227.8.8,0,0,0-.215.577v2.457h-1.027Z" transform="translate(-10229.414 -3448.661)" fill="#fff"/>
    <path id="Trazado_117889" data-name="Trazado 117889" d="M444.244,134.638a1.64,1.64,0,0,1-2.7,0,2.4,2.4,0,0,1-.481-1.486,2.432,2.432,0,0,1,.481-1.492,1.645,1.645,0,0,1,2.7.006,2.357,2.357,0,0,1,.493,1.481,2.387,2.387,0,0,1-.493,1.491m-.729-2.255a.7.7,0,0,0-.619-.4.664.664,0,0,0-.614.4,1.58,1.58,0,0,0-.172.763,1.783,1.783,0,0,0,.165.786.677.677,0,0,0,.621.425.711.711,0,0,0,.632-.435,1.661,1.661,0,0,0,.189-.787,1.448,1.448,0,0,0-.2-.758" transform="translate(-10229.414 -3448.661)" fill="#fff"/>
    <path id="Trazado_117890" data-name="Trazado 117890" d="M445.7,134.322l2.13-2.267H445.8v-1h3.576v.821l-2.255,2.388h2.255v.981H445.7Z" transform="translate(-10229.414 -3448.661)" fill="#fff"/>
    <path id="Trazado_117891" data-name="Trazado 117891" d="M452.861,135.062a2,2,0,0,1-1,.264,1.592,1.592,0,0,1-1.092-.367,1.317,1.317,0,0,1-.437-1.05,1.342,1.342,0,0,1,.439-1.079,1.682,1.682,0,0,1,1.124-.351,3.3,3.3,0,0,1,.964.145.661.661,0,0,0-.239-.517.889.889,0,0,0-.554-.161,1.986,1.986,0,0,0-.995.316l-.417-.884a2.938,2.938,0,0,1,1.469-.424,1.53,1.53,0,0,1,1.711,1.749v2.543h-.975Zm0-1.532a2.437,2.437,0,0,0-.87-.2.964.964,0,0,0-.487.121.443.443,0,0,0-.251.4.471.471,0,0,0,.241.424.861.861,0,0,0,.486.132,2.169,2.169,0,0,0,.881-.236Z" transform="translate(-10229.414 -3448.661)" fill="#fff"/>
    <path id="Trazado_117892" data-name="Trazado 117892" d="M454.8,129.823l1.034-.424v5.848H454.8Z" transform="translate(-10229.414 -3448.661)" fill="#fff"/>
    <path id="Trazado_117893" data-name="Trazado 117893" d="M428.05,147.01a1.849,1.849,0,0,0,1.532.741,1.921,1.921,0,0,0,.8-.161.661.661,0,0,0,.453-.6q0-.467-.872-.706c-.988-.272-1.526-.428-1.619-.471a1.444,1.444,0,0,1-.225-2.531,2.436,2.436,0,0,1,1.385-.372,2.816,2.816,0,0,1,2.106.882l-.775.684a1.853,1.853,0,0,0-1.371-.562c-.64,0-.959.194-.959.585q0,.408.872.613a8.875,8.875,0,0,1,1.619.477,1.559,1.559,0,0,1,.872,1.487,1.449,1.449,0,0,1-.758,1.274,2.759,2.759,0,0,1-1.5.413,2.964,2.964,0,0,1-2.387-1.108Z" transform="translate(-10229.414 -3448.661)" fill="#fff"/>
    <path id="Trazado_117894" data-name="Trazado 117894" d="M432.977,143a.537.537,0,0,1,.733,0,.481.481,0,0,1,.15.359.494.494,0,0,1-.154.373.528.528,0,0,1-.379.149.466.466,0,0,1-.358-.152.52.52,0,0,1-.141-.37.483.483,0,0,1,.149-.362m-.149,1.509h1.033V148.7h-1.033Z" transform="translate(-10229.414 -3448.661)" fill="#fff"/>
    <path id="Trazado_117895" data-name="Trazado 117895" d="M434.823,144.514h1.038v.344a1.211,1.211,0,0,1,1-.424,1.632,1.632,0,0,1,1.067.35,1.237,1.237,0,0,1,.454,1V148.7h-1.016v-2.519a.819.819,0,0,0-.184-.545.629.629,0,0,0-.516-.242.79.79,0,0,0-.574.224.755.755,0,0,0-.23.563V148.7h-1.038Z" transform="translate(-10229.414 -3448.661)" fill="#fff"/>
    <path id="Trazado_117896" data-name="Trazado 117896" d="M442.222,148.594a1.911,1.911,0,0,1-.875.212,1.854,1.854,0,0,1-1.47-.659,2.483,2.483,0,0,1,0-3.077,1.859,1.859,0,0,1,1.47-.654,1.916,1.916,0,0,1,1.555.787l-.649.843a.941.941,0,0,0-.889-.649.924.924,0,0,0-.77.373,1.347,1.347,0,0,0-.265.839,1.326,1.326,0,0,0,.265.837.931.931,0,0,0,.77.368.974.974,0,0,0,.832-.523l.706.724a1.826,1.826,0,0,1-.68.579" transform="translate(-10229.414 -3448.661)" fill="#fff"/>
    <path id="Trazado_117897" data-name="Trazado 117897" d="M447.054,148.124a1.644,1.644,0,0,1-1.355.677,1.625,1.625,0,0,1-1.354-.7,2.532,2.532,0,0,1-.023-2.937,1.525,1.525,0,0,1,1.291-.712A1.568,1.568,0,0,1,447,145.2a2.787,2.787,0,0,1,.426,1.584v.149h-2.548c.068.21.119.37.154.476a.74.74,0,0,0,.671.471.868.868,0,0,0,.666-.362Zm-.866-2.537a.636.636,0,0,0-.533-.212.626.626,0,0,0-.495.235,1.072,1.072,0,0,0-.224.516h1.491a2.317,2.317,0,0,0-.239-.539" transform="translate(-10229.414 -3448.661)" fill="#fff"/>
    <path id="Trazado_117898" data-name="Trazado 117898" d="M448.384,143.28l1.033-.424V148.7h-1.033Z" transform="translate(-10229.414 -3448.661)" fill="#fff"/>
    <path id="Trazado_117899" data-name="Trazado 117899" d="M453.57,148.124a1.645,1.645,0,0,1-1.355.677,1.625,1.625,0,0,1-1.354-.7,2.527,2.527,0,0,1-.023-2.937,1.525,1.525,0,0,1,1.292-.712,1.568,1.568,0,0,1,1.382.746,2.779,2.779,0,0,1,.425,1.584v.149h-2.548c.069.21.12.37.155.476a.739.739,0,0,0,.671.471.868.868,0,0,0,.666-.362Zm-.866-2.537a.637.637,0,0,0-.533-.212.626.626,0,0,0-.495.235,1.063,1.063,0,0,0-.224.516h1.493a2.431,2.431,0,0,0-.241-.539" transform="translate(-10229.414 -3448.661)" fill="#fff"/>
    <path id="Trazado_117900" data-name="Trazado 117900" d="M455.439,149.387a1.037,1.037,0,0,0,.131-.592v-4.286h1.051v4.1a2.949,2.949,0,0,1-.1.9,1.383,1.383,0,0,1-.643.763,2.075,2.075,0,0,1-.976.263V149.6a.641.641,0,0,0,.541-.217m.28-6.374a.493.493,0,0,1,.368-.152.507.507,0,0,1,.361.147.462.462,0,0,1,.155.352.494.494,0,0,1-.158.371.528.528,0,0,1-.376.152.492.492,0,0,1-.348-.147.474.474,0,0,1-.151-.347.515.515,0,0,1,.149-.376" transform="translate(-10229.414 -3448.661)" fill="#fff"/>
    <path id="Trazado_117901" data-name="Trazado 117901" d="M460.762,148.1a1.64,1.64,0,0,1-2.7,0,2.4,2.4,0,0,1-.482-1.486,2.433,2.433,0,0,1,.482-1.492,1.644,1.644,0,0,1,2.7,0,2.363,2.363,0,0,1,.495,1.481,2.39,2.39,0,0,1-.495,1.492m-.729-2.255a.7.7,0,0,0-.62-.4.665.665,0,0,0-.613.4,1.584,1.584,0,0,0-.172.764,1.769,1.769,0,0,0,.165.787.679.679,0,0,0,.62.424.708.708,0,0,0,.631-.436,1.631,1.631,0,0,0,.19-.786,1.463,1.463,0,0,0-.2-.758" transform="translate(-10229.414 -3448.661)" fill="#fff"/>
    <path id="Trazado_117902" data-name="Trazado 117902" d="M500.923,148.643a3.106,3.106,0,0,1,.556-1.825,3.493,3.493,0,0,1,1.465-1.234c.06-.03.308-.117.744-.258a1.992,1.992,0,0,0,.661-.305.526.526,0,0,0,.2-.39c0-.463-.408-.694-1.218-.694a2.419,2.419,0,0,0-1.7.62l-.706-.781a3.5,3.5,0,0,1,2.393-.884,2.822,2.822,0,0,1,1.549.385,1.52,1.52,0,0,1,.705,1.36,1.542,1.542,0,0,1-.332.947,2.041,2.041,0,0,1-1.044.643,5.544,5.544,0,0,0-1.148.453,2.494,2.494,0,0,0-.866,1.039h3.39v1.01h-4.647Z" transform="translate(-10229.414 -3448.661)" fill="#fff"/>
    <path id="Trazado_117903" data-name="Trazado 117903" d="M506.533,148.643a3.113,3.113,0,0,1,.556-1.825,3.493,3.493,0,0,1,1.465-1.234c.061-.03.308-.117.745-.258a1.983,1.983,0,0,0,.66-.305.52.52,0,0,0,.194-.39q0-.694-1.216-.694a2.42,2.42,0,0,0-1.7.62l-.706-.781a3.5,3.5,0,0,1,2.393-.884,2.817,2.817,0,0,1,1.549.385,1.518,1.518,0,0,1,.706,1.36,1.543,1.543,0,0,1-.333.947,2.047,2.047,0,0,1-1.043.643,5.56,5.56,0,0,0-1.149.453,2.511,2.511,0,0,0-.867,1.039h3.392v1.01h-4.648Z" transform="translate(-10229.414 -3448.661)" fill="#fff"/>
    <path id="Trazado_117904" data-name="Trazado 117904" d="M507.882,130.954h-.734v-.821a1.391,1.391,0,0,0,.895-.625h.827v5.738h-.988Z" transform="translate(-10229.414 -3448.661)" fill="#fff"/>
    <path id="Trazado_117905" data-name="Trazado 117905" d="M510.566,130.954h-.735v-.821a1.393,1.393,0,0,0,.9-.625h.827v5.738h-.988Z" transform="translate(-10229.414 -3448.661)" fill="#fff"/>
    <path id="Trazado_117906" data-name="Trazado 117906" d="M427.217,116.051h1.02v4.872h3.284v.867h-4.3Z" transform="translate(-10229.414 -3448.661)" fill="#fff"/>
    <path id="Trazado_117907" data-name="Trazado 117907" d="M435.663,121.181a1.641,1.641,0,0,1-2.7,0,2.537,2.537,0,0,1,0-2.978,1.644,1.644,0,0,1,2.7,0,2.367,2.367,0,0,1,.494,1.48,2.4,2.4,0,0,1-.494,1.493m-.729-2.255a.705.705,0,0,0-.621-.4.666.666,0,0,0-.613.4,1.6,1.6,0,0,0-.173.764,1.755,1.755,0,0,0,.166.785.68.68,0,0,0,.62.425.7.7,0,0,0,.632-.436,1.637,1.637,0,0,0,.189-.786,1.464,1.464,0,0,0-.2-.757" transform="translate(-10229.414 -3448.661)" fill="#fff"/>
    <path id="Trazado_117908" data-name="Trazado 117908" d="M437.5,120.584a5.844,5.844,0,0,0,1.418.322c.462,0,.694-.111.694-.333a.312.312,0,0,0-.022-.126c-.047-.107-.279-.218-.7-.333a4.652,4.652,0,0,1-1.1-.413,1.129,1.129,0,0,1-.573-1.01.985.985,0,0,1,.573-.935,2.407,2.407,0,0,1,1.136-.236,3.073,3.073,0,0,1,1.526.425l-.373.907a2.5,2.5,0,0,0-1.308-.344c-.357,0-.533.091-.533.275a.262.262,0,0,0,.137.241,4.435,4.435,0,0,0,.581.172,3.7,3.7,0,0,1,1.135.406,1.156,1.156,0,0,1,.528,1.023q0,1.244-1.836,1.245a3.41,3.41,0,0,1-1.664-.378Z" transform="translate(-10229.414 -3448.661)" fill="#fff"/>
    <path id="Trazado_117909" data-name="Trazado 117909" d="M445.6,116.05h2.8a1.892,1.892,0,0,1,1.317.488,1.612,1.612,0,0,1,.537,1.246,1.686,1.686,0,0,1-.247.867,1.815,1.815,0,0,1-1.706.865H446.66v2.274H445.6Zm2.8,2.44a.871.871,0,0,0,.567-.2.624.624,0,0,0,.241-.51.651.651,0,0,0-.264-.546.98.98,0,0,0-.6-.177H446.66v1.429Z" transform="translate(-10229.414 -3448.661)" fill="#fff"/>
    <path id="Trazado_117910" data-name="Trazado 117910" d="M453.734,121.606a2,2,0,0,1-1,.264,1.6,1.6,0,0,1-1.094-.367,1.327,1.327,0,0,1-.435-1.05,1.341,1.341,0,0,1,.439-1.08,1.675,1.675,0,0,1,1.124-.349,3.258,3.258,0,0,1,.963.144.656.656,0,0,0-.239-.517.888.888,0,0,0-.553-.161,1.974,1.974,0,0,0-1,.316l-.416-.884A2.927,2.927,0,0,1,453,117.5a1.53,1.53,0,0,1,1.71,1.75v2.543h-.975Zm0-1.532a2.437,2.437,0,0,0-.87-.2.968.968,0,0,0-.486.12.443.443,0,0,0-.251.4.476.476,0,0,0,.24.426.865.865,0,0,0,.487.132,2.195,2.195,0,0,0,.88-.234Z" transform="translate(-10229.414 -3448.661)" fill="#fff"/>
    <path id="Trazado_117911" data-name="Trazado 117911" d="M455.672,116.366l1.033-.424v5.848h-1.033Z" transform="translate(-10229.414 -3448.661)" fill="#fff"/>
    <path id="Trazado_117912" data-name="Trazado 117912" d="M457.666,117.6h1.027v.339a1.5,1.5,0,0,1,1.033-.442,1.353,1.353,0,0,1,1.091.5,2.027,2.027,0,0,1,1.279-.5,1.606,1.606,0,0,1,1.088.391,1.279,1.279,0,0,1,.45,1.015v2.888H462.6v-2.509a.807.807,0,0,0-.177-.527.627.627,0,0,0-.505-.236.764.764,0,0,0-.528.2.643.643,0,0,0-.225.5v2.573h-.993v-2.509a.736.736,0,0,0-.224-.533.748.748,0,0,0-1.055-.024.738.738,0,0,0-.2.54v2.526h-1.027Z" transform="translate(-10229.414 -3448.661)" fill="#fff"/>
    <path id="Trazado_117913" data-name="Trazado 117913" d="M464.746,116.086a.534.534,0,0,1,.732,0,.475.475,0,0,1,.151.359.5.5,0,0,1-.154.373.528.528,0,0,1-.38.148.462.462,0,0,1-.358-.152.528.528,0,0,1-.141-.369.475.475,0,0,1,.15-.361m-.15,1.508h1.033v4.2H464.6Z" transform="translate(-10229.414 -3448.661)" fill="#fff"/>
    <path id="Trazado_117914" data-name="Trazado 117914" d="M466.592,117.623h.683v-1.291l1.038-.386v1.677h.861v.964h-.861l0,1.734a.459.459,0,0,0,.516.522.641.641,0,0,0,.408-.2l-.161,1.028a1.522,1.522,0,0,1-.758.212.942.942,0,0,1-.769-.351,1.251,1.251,0,0,1-.275-.825l.006-2.124h-.683Z" transform="translate(-10229.414 -3448.661)" fill="#fff"/>
    <path id="Trazado_117915" data-name="Trazado 117915" d="M473.373,121.181a1.641,1.641,0,0,1-2.7,0,2.541,2.541,0,0,1,0-2.978,1.644,1.644,0,0,1,2.7,0,2.36,2.36,0,0,1,.493,1.48,2.391,2.391,0,0,1-.493,1.493m-.729-2.255a.706.706,0,0,0-.62-.4.664.664,0,0,0-.613.4,1.584,1.584,0,0,0-.172.764,1.755,1.755,0,0,0,.165.785.679.679,0,0,0,.62.425.7.7,0,0,0,.631-.436,1.626,1.626,0,0,0,.19-.786,1.465,1.465,0,0,0-.2-.757" transform="translate(-10229.414 -3448.661)" fill="#fff"/>
    <path id="Trazado_117916" data-name="Trazado 117916" d="M475.207,120.584a5.864,5.864,0,0,0,1.418.322c.462,0,.7-.111.7-.333a.311.311,0,0,0-.023-.126c-.046-.107-.279-.218-.7-.333a4.664,4.664,0,0,1-1.1-.413,1.129,1.129,0,0,1-.573-1.01.985.985,0,0,1,.573-.935,2.409,2.409,0,0,1,1.136-.236,3.067,3.067,0,0,1,1.526.425l-.372.907a2.509,2.509,0,0,0-1.309-.344c-.356,0-.533.091-.533.275a.263.263,0,0,0,.138.241,4.513,4.513,0,0,0,.578.172,3.7,3.7,0,0,1,1.137.406,1.152,1.152,0,0,1,.528,1.023q0,1.244-1.836,1.245a3.4,3.4,0,0,1-1.664-.378Z" transform="translate(-10229.414 -3448.661)" fill="#fff"/>
    <path id="Trazado_117917" data-name="Trazado 117917" d="M507.365,120.091a1.608,1.608,0,0,0,.664.562,1.937,1.937,0,0,0,.855.195,1.916,1.916,0,0,0,.828-.16.7.7,0,0,0,.437-.661.856.856,0,0,0-.121-.424,1.056,1.056,0,0,0-1.028-.442h-.144v-1.025a1.537,1.537,0,0,0,.649-.079.5.5,0,0,0,.362-.482.517.517,0,0,0-.367-.48,1.526,1.526,0,0,0-.644-.127,1.717,1.717,0,0,0-1.274.569l-.769-.706a2.749,2.749,0,0,1,2.068-.883,2.392,2.392,0,0,1,1.393.4,1.445,1.445,0,0,1,.642,1.246,1.648,1.648,0,0,1-.464,1.05,1.736,1.736,0,0,1,.729,1.349,1.674,1.674,0,0,1-.729,1.406,2.546,2.546,0,0,1-1.556.488,2.989,2.989,0,0,1-2.365-1.171Z" transform="translate(-10229.414 -3448.661)" fill="#fff"/>
    <path id="Trazado_117918" data-name="Trazado 117918" d="M295.725,364.75h78.194a4.357,4.357,0,0,1,4.343,4.344v78.193a4.357,4.357,0,0,1-4.343,4.344H295.725a4.358,4.358,0,0,1-4.344-4.344V369.094a4.358,4.358,0,0,1,4.344-4.344" transform="translate(-10229.414 -3448.661)" fill="#183b68" fill-rule="evenodd"/>
    <path id="Trazado_117919" data-name="Trazado 117919" d="M295.725,366.2h78.194a2.9,2.9,0,0,1,2.895,2.9v78.193a2.9,2.9,0,0,1-2.895,2.9H295.725a2.9,2.9,0,0,1-2.9-2.9V369.094a2.9,2.9,0,0,1,2.9-2.9m0,1.739a1.162,1.162,0,0,0-1.159,1.158v78.193a1.163,1.163,0,0,0,1.159,1.159h78.194a1.163,1.163,0,0,0,1.158-1.159V369.094a1.162,1.162,0,0,0-1.158-1.158Z" transform="translate(-10229.414 -3448.661)" fill="#fff" fill-rule="evenodd"/>
    <path id="Trazado_117920" data-name="Trazado 117920" d="M321.552,440.773h7.164V403.5c2.56-.685,3.837-2.527,3.712-5.71l-1.306-22.009-2.505,0v17.316h-2.536V375.777l-.8,0h-1.172l-.807,0v17.317h-2.534V375.778l-2.5,0-1.308,22.009c-.123,3.183,1.153,5.025,3.713,5.71h.887Zm3.183-35.287h.8a.931.931,0,0,1,.93.928v26.8a.932.932,0,0,1-.93.929h-.8a.931.931,0,0,1-.928-.929v-26.8a.93.93,0,0,1,.928-.928" transform="translate(-10229.414 -3448.661)" fill="#fff" fill-rule="evenodd"/>
    <path id="Trazado_117921" data-name="Trazado 117921" d="M345.535,440.772H352.7V378.9h-.046v-3.175c-5.587-.588-8.915,1.086-9.517,5.5v26.812a4.592,4.592,0,0,0,2.4,3.527Zm3.183-26.51h.8a.935.935,0,0,1,.93.929V433.21a.936.936,0,0,1-.93.929h-.8a.933.933,0,0,1-.928-.929V415.191a.931.931,0,0,1,.928-.929" transform="translate(-10229.414 -3448.661)" fill="#fff" fill-rule="evenodd"/>
    <path id="Trazado_117922" data-name="Trazado 117922" d="M428.016,364.75H506.21a4.358,4.358,0,0,1,4.344,4.344v78.192a4.358,4.358,0,0,1-4.344,4.345H428.016a4.357,4.357,0,0,1-4.343-4.345V369.094a4.357,4.357,0,0,1,4.343-4.344" transform="translate(-10229.414 -3448.661)" fill="#fff" fill-rule="evenodd"/>
    <path id="Rectángulo_34524" data-name="Rectángulo 34524" d="M4.344,0H82.537a4.344,4.344,0,0,1,4.344,4.344V82.536a4.345,4.345,0,0,1-4.345,4.345H4.343A4.343,4.343,0,0,1,0,82.538V4.344A4.344,4.344,0,0,1,4.344,0Z" transform="translate(-9805.741 -3083.911)" fill="none" stroke="#643b1a" stroke-miterlimit="22.926" stroke-width="0.766"/>
    <path id="Trazado_117923" data-name="Trazado 117923" d="M428.016,366.488H506.21a2.613,2.613,0,0,1,2.605,2.606v78.192a2.614,2.614,0,0,1-2.605,2.608H428.016a2.614,2.614,0,0,1-2.6-2.608V369.094a2.614,2.614,0,0,1,2.6-2.606" transform="translate(-10229.414 -3448.661)" fill="#643b1a" fill-rule="evenodd"/>
    <path id="Trazado_117924" data-name="Trazado 117924" d="M465.656,385.321a26.255,26.255,0,0,0,25.881.043,5.094,5.094,0,0,0,1.722-1.859v-4.871a5.408,5.408,0,0,0-1.722-1.994,30.345,30.345,0,0,0-12.852-3.2,26.7,26.7,0,0,0-13.029,3.38,7.8,7.8,0,0,0-1.677,1.816v4.871a6.157,6.157,0,0,0,1.677,1.816m13.029-9.884c6.767,0,12.29,1.822,12.29,4.054s-5.523,4.054-12.29,4.054-12.291-1.82-12.291-4.054,5.52-4.054,12.291-4.054" transform="translate(-10229.414 -3448.661)" fill="#fff" fill-rule="evenodd"/>
    <path id="Trazado_117925" data-name="Trazado 117925" d="M441.824,405.026a22.477,22.477,0,0,0,8.291,1.685,22.989,22.989,0,0,0,8.55-1.658,3.289,3.289,0,0,0,1.121-1.21v-3.17a3.512,3.512,0,0,0-1.121-1.3,24.131,24.131,0,0,0-8.55-1.857,17.3,17.3,0,0,0-8.291,1.972,5.13,5.13,0,0,0-1.092,1.181v3.17a4.049,4.049,0,0,0,1.092,1.183m8.288-4.84h0c3.84,0,6.971.729,6.971,1.622s-3.131,1.624-6.971,1.624h0c-3.837,0-6.971-.73-6.971-1.624s3.134-1.622,6.971-1.622" transform="translate(-10229.414 -3448.661)" fill="#fff" fill-rule="evenodd"/>
    <path id="Trazado_117926" data-name="Trazado 117926" d="M498.892,416.456l.028-.035-.177-.18c-.082-.112-1.47-1.64-1.729-1.862l.1-.054-4.223-2.817c-1.5-.978-2.281-2.834-2.375-5.63v-15.6a29.271,29.271,0,0,1-11.645,2.427,33.288,33.288,0,0,1-12.086-2.427v18.091l-1.191.974-2.274-3.793c-1.526,2.321-4.051,3.643-7.258,4.285a82.488,82.488,0,0,1-11.754.065,10.5,10.5,0,0,1-6.552-4.35,11.018,11.018,0,0,0-3.357,4.441,8.819,8.819,0,0,0,4.008,4.658,12.843,12.843,0,0,0,4.548,1.734,46.582,46.582,0,0,0,14.625,0c.389-.107.767-.226,1.137-.362a9.655,9.655,0,0,0-1.239,2.259v6.979a5.59,5.59,0,0,0,.323,2.069l.063.119a15.327,15.327,0,0,1-4.076,1.176,34.849,34.849,0,0,1-9.316-.11,26.9,26.9,0,0,1-9.586-4.562c-.312-.221-.49-.295-.557-.258v.214c.38,1.01,3.883,5.165,5.473,6.533a20.064,20.064,0,0,0,4.686,3.018,34.725,34.725,0,0,0,9.3.012,15.342,15.342,0,0,0,5.2-2.139c3.273,5.307,6.323,8.833,12.237,10.94a43.373,43.373,0,0,0,7.646.67,34.054,34.054,0,0,0,6.544-.66c5.986-1.365,11.67-10.4,11.576-10.109,1.367-2.023,1.424-2.789,2.585-4.737a5.654,5.654,0,0,0,.323-2.07v-6.979a9.944,9.944,0,0,0-1.007-1.93m-37.306-1.9c4.005,2.682,10.527,4.01,17.285,3.945,6.22-.062,12.64-1.306,17.476-3.767a11.317,11.317,0,0,1,1.412,1.321,31.081,31.081,0,0,1-18.888,5.42c-7.81-.164-15.042-2.725-18.891-5.986a12.309,12.309,0,0,0,1.606-.933m37.3,11.338-1.652,4.229a30.925,30.925,0,0,1-13.013,4.461,52.952,52.952,0,0,1-5.353.383c-2.161.049-4.337-.015-6.524-.148a38.059,38.059,0,0,1-12.535-4.134l-.6-2.625-.728-2.272-.04-7.545a9.948,9.948,0,0,1,.881-2.46q.147-.06.291-.126l.856,5.9,2.777-2.6,1.045,4.677,2.721-3.2,1.694,4.326,2.363-2.937,1.851,3.865L475.7,422.5l2.465,3.915.705-1.126,1.608-2.582,2.774,3.3,2.107-3.656,2.861,3.328.888-4.1,2.826,3.5,1.7-4.74,2.039,2.748,1.87-5.2.968-.957a8.98,8.98,0,0,1,.421,1.416Z" transform="translate(-10229.414 -3448.661)" fill="#fff" fill-rule="evenodd"/>
    <rect id="Rectángulo_34525" data-name="Rectángulo 34525" width="3.081" height="2.679" transform="translate(-9768.713 -3024.977)" fill="#fff"/>
    <rect id="Rectángulo_34526" data-name="Rectángulo 34526" width="3.083" height="2.679" transform="translate(-9764.604 -3022.968)" fill="#fff"/>
    <rect id="Rectángulo_34527" data-name="Rectángulo 34527" width="3.081" height="2.68" transform="translate(-9759.928 -3021.733)" fill="#fff"/>
    <rect id="Rectángulo_34528" data-name="Rectángulo 34528" width="3.083" height="2.68" transform="translate(-9754.896 -3021.219)" fill="#fff"/>
    <rect id="Rectángulo_34529" data-name="Rectángulo 34529" width="3.081" height="2.678" transform="translate(-9749.398 -3021.319)" fill="#fff"/>
    <rect id="Rectángulo_34530" data-name="Rectángulo 34530" width="3.081" height="2.677" transform="translate(-9744.056 -3021.73)" fill="#fff"/>
    <rect id="Rectángulo_34531" data-name="Rectángulo 34531" width="3.083" height="2.677" transform="translate(-9739.331 -3022.915)" fill="#fff"/>
    <rect id="Rectángulo_34532" data-name="Rectángulo 34532" width="3.081" height="2.68" transform="translate(-9735.271 -3024.772)" fill="#fff"/>
    <text id="PRESEÑALIZACIÓN" transform="translate(-10069.461 -3251.213)" fill="#1d1d1b" font-size="9.195" font-family="ErasITC-Demi, Eras ITC" font-weight="300"><tspan x="0" y="0">PRESEÑALIZACIÓN</tspan></text>
    <text id="DIRECCIÓN" transform="translate(-9919.898 -3251.213)" fill="#1d1d1b" font-size="9.195" font-family="ErasITC-Demi, Eras ITC" font-weight="300"><tspan x="0" y="0">DIRECCIÓN</tspan></text>
    <text id="CONFIRMACIÓN" transform="translate(-9798.939 -3251.213)" fill="#1d1d1b" font-size="9.195" font-family="ErasITC-Demi, Eras ITC" font-weight="300"><tspan x="0" y="0">CONFIRMACIÓN</tspan></text>
    <text id="IDENTIFICACIÓN" transform="translate(-10064.339 -3128.619)" fill="#1d1d1b" font-size="9.195" font-family="ErasITC-Demi, Eras ITC" font-weight="300"><tspan x="0" y="0">IDENTIFICACIÓN</tspan></text>
    <text id="VIAL" transform="translate(-10037.426 -3117.585)" fill="#1d1d1b" font-size="9.195" font-family="ErasITC-Demi, Eras ITC" font-weight="300"><tspan x="0" y="0">VIAL</tspan></text>
    <text id="NOMBRE_DE_CALLES" data-name="NOMBRE DE CALLES" transform="translate(-9807.657 -3128.619)" fill="#1d1d1b" font-size="9.195" font-family="ErasITC-Demi, Eras ITC" font-weight="300"><tspan x="0" y="0">NOMBRE DE CALLES</tspan></text>
    <text id="Y_NOMENCLATURA" data-name="Y NOMENCLATURA" transform="translate(-9805.46 -3117.585)" fill="#1d1d1b" font-size="9.195" font-family="ErasITC-Demi, Eras ITC" font-weight="300"><tspan x="0" y="0">Y NOMENCLATURA</tspan></text>
    <text id="LOCALIZACIÓN" transform="translate(-9929.24 -3128.619)" fill="#1d1d1b" font-size="9.195" font-family="ErasITC-Demi, Eras ITC" font-weight="300"><tspan x="0" y="0">LOCALIZACIÓN</tspan></text>
    <text id="POSTES_DE_REFERENCIA" data-name="POSTES DE REFERENCIA" transform="translate(-10080.421 -2975.369)" fill="#1d1d1b" font-size="9.195" font-family="ErasITC-Demi, Eras ITC" font-weight="300"><tspan x="0" y="0">POSTES DE REFERENCIA</tspan></text>
    <text id="SERVICIOS_GENERALES" data-name="SERVICIOS GENERALES" transform="translate(-9945.671 -2975.369)" fill="#1d1d1b" font-size="9.195" font-family="ErasITC-Demi, Eras ITC" font-weight="300"><tspan x="0" y="0">SERVICIOS GENERALES</tspan></text>
    <text id="TURÍSTICAS" transform="translate(-9787.796 -2975.369)" fill="#1d1d1b" font-size="9.195" font-family="ErasITC-Demi, Eras ITC" font-weight="300"><tspan x="0" y="0">TURÍSTICAS</tspan></text>
    <g id="Grupo_82310" data-name="Grupo 82310">
      <path id="Trazado_117836" data-name="Trazado 117836" d="M163,77.661H242.06a7.552,7.552,0,0,1,7.53,7.53v93.541a7.552,7.552,0,0,1-7.53,7.529H163a7.552,7.552,0,0,1-7.53-7.529V85.191a7.552,7.552,0,0,1,7.53-7.53" transform="translate(-10229.414 -3448.661)" fill="#006a4e" fill-rule="evenodd"/>
      <path id="Trazado_117837" data-name="Trazado 117837" d="M163,81.281H242.06a3.921,3.921,0,0,1,3.909,3.91v93.542a3.92,3.92,0,0,1-3.909,3.909H163a3.921,3.921,0,0,1-3.91-3.909V85.191a3.922,3.922,0,0,1,3.91-3.91m0-2.172a6.1,6.1,0,0,0-6.082,6.082v93.542A6.1,6.1,0,0,0,163,184.814H242.06a6.1,6.1,0,0,0,6.081-6.081V85.191a6.1,6.1,0,0,0-6.081-6.082Z" transform="translate(-10229.414 -3448.661)" fill="#fff" fill-rule="evenodd"/>
      <path id="Trazado_117838" data-name="Trazado 117838" d="M171.58,107.9v66.7h6.292l.006-10.353a3.141,3.141,0,0,1,1.56-2.709l13.526-7.809.423,1.514.005.01v0h0l.016.033a.4.4,0,0,0,.7-.04l2.652-5.609a.392.392,0,0,0-.323-.561l-6.184-.508a.394.394,0,0,0-.386.587.2.2,0,0,0,.02.03v0l.007.009,1.1,1.123-9.628,5.559a2.358,2.358,0,0,1-3.5-2.062V107.9l2.436.625.019,0h0c.02,0,.039,0,.059,0a.629.629,0,0,0,.629-.63.622.622,0,0,0-.124-.374l-5.65-8.163a.629.629,0,0,0-1.036,0h0l-5.65,8.163a.63.63,0,0,0,.506,1l.058,0h0l.02,0Z" transform="translate(-10229.414 -3448.661)" fill="#fff" fill-rule="evenodd"/>
      <path id="Trazado_117927" data-name="Trazado 117927" d="M170.906,88.584H168.8V87.059h5.67v1.525h-2.092v6.138h-1.471Z" transform="translate(-10229.414 -3448.661)" fill="#fff"/>
      <path id="Trazado_117928" data-name="Trazado 117928" d="M178.721,94.369a2.24,2.24,0,0,1-1.356.429,3.027,3.027,0,0,1-.989-.13,1.972,1.972,0,0,1-.885-.674,1.648,1.648,0,0,1-.379-1.02V89.128h1.54v3.249a.909.909,0,0,0,.253.655.861.861,0,0,0,.651.264,1.242,1.242,0,0,0,.721-.222.751.751,0,0,0,.367-.636v-3.31h1.525v5.593h-1.448Z" transform="translate(-10229.414 -3448.661)" fill="#fff"/>
      <path id="Trazado_117929" data-name="Trazado 117929" d="M180.813,89.128h1.555v.3a2.586,2.586,0,0,1,1.472-.437,2.094,2.094,0,0,1,1.409.506,1.654,1.654,0,0,1,.621,1.325v3.9h-1.509V91.365a.862.862,0,0,0-.272-.674,1.022,1.022,0,0,0-.709-.245,1.039,1.039,0,0,0-.674.26.8.8,0,0,0-.338.629v3.387h-1.555Z" transform="translate(-10229.414 -3448.661)" fill="#fff"/>
      <path id="Trazado_117930" data-name="Trazado 117930" d="M189.357,94.974q0,2.592-2.842,2.644V96.139a1.544,1.544,0,0,0,.992-.295,1.22,1.22,0,0,0,.3-.939V89.143h1.54Zm-.241-7.8a.758.758,0,0,1,.234.54.8.8,0,0,1-.774.774.779.779,0,0,1-.563-.218.739.739,0,0,1-.226-.556.784.784,0,0,1,.781-.781.739.739,0,0,1,.548.241" transform="translate(-10229.414 -3448.661)" fill="#fff"/>
      <path id="Trazado_117931" data-name="Trazado 117931" d="M193.678,94.53a3.977,3.977,0,0,1-1.471.268,2.5,2.5,0,0,1-1.548-.46,1.68,1.68,0,0,1-.674-1.417,1.783,1.783,0,0,1,.735-1.494,2.6,2.6,0,0,1,1.632-.514,4.166,4.166,0,0,1,1.326.215q-.039-.751-1.165-.751a3.036,3.036,0,0,0-1.5.429l-.567-1.2a4.518,4.518,0,0,1,2.2-.59,2.5,2.5,0,0,1,1.762.575,2.237,2.237,0,0,1,.644,1.724v3.409h-1.372Zm0-2.069a3.964,3.964,0,0,0-1.272-.238,1.682,1.682,0,0,0-.667.123.528.528,0,0,0-.375.5c0,.215.143.383.429.506a1.88,1.88,0,0,0,.72.138,2.2,2.2,0,0,0,1.165-.3Z" transform="translate(-10229.414 -3448.661)" fill="#fff"/>
      <path id="Trazado_117932" data-name="Trazado 117932" d="M204.065,142.852q-.207,3.985-3.073,3.984a2.735,2.735,0,0,1-2.413-1.249,4.8,4.8,0,0,1-.728-2.735,4.744,4.744,0,0,1,.712-2.667,2.643,2.643,0,0,1,2.337-1.256,2.82,2.82,0,0,1,2.866,1.885l-1.425.536a1.3,1.3,0,0,0-1.349-.881q-1.593,0-1.593,2.383a3.753,3.753,0,0,0,.291,1.6,1.311,1.311,0,0,0,1.264.843,1.449,1.449,0,0,0,1.387-.9h-.9v-1.54Z" transform="translate(-10229.414 -3448.661)" fill="#fff"/>
      <path id="Trazado_117933" data-name="Trazado 117933" d="M208.318,146.362a2.24,2.24,0,0,1-1.356.429,3.027,3.027,0,0,1-.989-.13,1.972,1.972,0,0,1-.885-.674,1.648,1.648,0,0,1-.379-1.02v-3.846h1.54v3.249a.909.909,0,0,0,.253.655.861.861,0,0,0,.651.264,1.242,1.242,0,0,0,.721-.222.749.749,0,0,0,.367-.636v-3.31h1.525v5.594h-1.448Z" transform="translate(-10229.414 -3448.661)" fill="#fff"/>
      <path id="Trazado_117934" data-name="Trazado 117934" d="M214.1,146.523a3.977,3.977,0,0,1-1.471.268,2.5,2.5,0,0,1-1.548-.46,1.68,1.68,0,0,1-.674-1.417,1.783,1.783,0,0,1,.735-1.494,2.6,2.6,0,0,1,1.632-.514,4.166,4.166,0,0,1,1.326.215q-.039-.752-1.165-.751a3.036,3.036,0,0,0-1.5.429l-.567-1.2a4.518,4.518,0,0,1,2.2-.59,2.5,2.5,0,0,1,1.762.575,2.237,2.237,0,0,1,.644,1.724v3.409H214.1Zm0-2.069a3.96,3.96,0,0,0-1.272-.237,1.682,1.682,0,0,0-.667.122.528.528,0,0,0-.375.5c0,.215.143.383.429.506a1.88,1.88,0,0,0,.72.138,2.2,2.2,0,0,0,1.165-.3Z" transform="translate(-10229.414 -3448.661)" fill="#fff"/>
      <path id="Trazado_117935" data-name="Trazado 117935" d="M216.111,141.121h1.057V139.5l1.495-.6v2.222H220.1v1.349h-1.432v2.183q0,.69.574.69a1.144,1.144,0,0,0,.874-.406l-.4,1.594-.475.214a1.513,1.513,0,0,1-.528.084,1.349,1.349,0,0,1-1.449-1,1.762,1.762,0,0,1-.1-.551l.007-2.812h-1.057Z" transform="translate(-10229.414 -3448.661)" fill="#fff"/>
      <path id="Trazado_117936" data-name="Trazado 117936" d="M223.436,146.837a2.474,2.474,0,0,1-1.938-.9,2.975,2.975,0,0,1-.759-2.023,3.045,3.045,0,0,1,.736-2.008,2.347,2.347,0,0,1,1.877-.927,2.183,2.183,0,0,1,1.264.414,3.263,3.263,0,0,1,1.18,2.935v.13h-3.463a1.29,1.29,0,0,0,.383.682,1,1,0,0,0,.72.306.971.971,0,0,0,.851-.513l1.05.912a2.363,2.363,0,0,1-1.9,1m-.084-4.452a.923.923,0,0,0-.935.774h1.816q-.276-.774-.881-.774" transform="translate(-10229.414 -3448.661)" fill="#fff"/>
      <path id="Trazado_117937" data-name="Trazado 117937" d="M229.995,146.462a1.859,1.859,0,0,1-1.134.375,2.134,2.134,0,0,1-1.77-.958,3.238,3.238,0,0,1-.651-1.977,3.164,3.164,0,0,1,.659-1.984,2.194,2.194,0,0,1,1.8-.927,1.681,1.681,0,0,1,1.1.375v-.245h1.5v7.3l-1.5.575Zm0-3.479a.927.927,0,0,0-.919-.536.974.974,0,0,0-.843.482,1.7,1.7,0,0,0-.284.973,1.68,1.68,0,0,0,.291.981,1.006,1.006,0,0,0,.866.475,1.045,1.045,0,0,0,.889-.544Z" transform="translate(-10229.414 -3448.661)" fill="#fff"/>
      <path id="Trazado_117938" data-name="Trazado 117938" d="M235.749,146.362a2.24,2.24,0,0,1-1.356.429,3.027,3.027,0,0,1-.989-.13,1.972,1.972,0,0,1-.885-.674,1.648,1.648,0,0,1-.379-1.02v-3.846h1.54v3.249a.91.91,0,0,0,.253.655.861.861,0,0,0,.651.264,1.242,1.242,0,0,0,.721-.222.749.749,0,0,0,.367-.636v-3.31H237.2v5.594h-1.448Z" transform="translate(-10229.414 -3448.661)" fill="#fff"/>
      <path id="Trazado_117939" data-name="Trazado 117939" d="M240.538,146.837a2.474,2.474,0,0,1-1.938-.9,2.975,2.975,0,0,1-.759-2.023,3.045,3.045,0,0,1,.736-2.008,2.347,2.347,0,0,1,1.877-.927,2.183,2.183,0,0,1,1.264.414,3.263,3.263,0,0,1,1.18,2.935v.13h-3.463a1.283,1.283,0,0,0,.383.682,1,1,0,0,0,.72.306.972.972,0,0,0,.851-.513l1.05.912a2.363,2.363,0,0,1-1.9,1m-.084-4.452a.923.923,0,0,0-.935.774h1.815q-.274-.774-.88-.774" transform="translate(-10229.414 -3448.661)" fill="#fff"/>
      <path id="Trazado_117940" data-name="Trazado 117940" d="M190.028,174.368h1.241l2.419,6.02h-1.281l-.567-1.414h-2.383l-.567,1.414h-1.282Zm1.325,3.4-.674-1.686-.735,1.686Z" transform="translate(-10229.414 -3448.661)" fill="#fff"/>
      <path id="Trazado_117941" data-name="Trazado 117941" d="M200.394,177.335a4.664,4.664,0,0,1,1.06-.529c.325-.117.525-.2.6-.236.244-.136.367-.3.367-.476q0-.336-.451-.5a2.162,2.162,0,0,0-.729-.114,2.413,2.413,0,0,0-1.6.613l-.849-.885a4.041,4.041,0,0,1,2.42-.927,3.15,3.15,0,0,1,1.625.373,1.525,1.525,0,0,1,.771,1.4,1.778,1.778,0,0,1-.957,1.554,4.636,4.636,0,0,1-.729.325,5.913,5.913,0,0,0-.741.313,2.292,2.292,0,0,0-.89.939h3.377v1.2h-4.876a3.758,3.758,0,0,1,1.6-3.052" transform="translate(-10229.414 -3448.661)" fill="#fff"/>
      <path id="Trazado_117942" data-name="Trazado 117942" d="M208.772,174.367h1.18v2.378l1.909-2.378h1.5l-1.522,1.981,1.9,4.039h-1.33l-1.391-2.992-1.066,1.288v1.7h-1.18Z" transform="translate(-10229.414 -3448.661)" fill="#fff"/>
      <path id="Trazado_117943" data-name="Trazado 117943" d="M214.214,175.993h1.21v.235a2.093,2.093,0,0,1,1.125-.343,1.5,1.5,0,0,1,1.157.511,2.069,2.069,0,0,1,1.282-.511,2.122,2.122,0,0,1,1.246.373,1.293,1.293,0,0,1,.6,1.108v3.022h-1.193v-2.715a.575.575,0,0,0-.246-.452.785.785,0,0,0-.518-.192.931.931,0,0,0-.524.18.564.564,0,0,0-.265.464v2.715h-1.144v-2.637a.669.669,0,0,0-.223-.517.759.759,0,0,0-.535-.2.822.822,0,0,0-.524.192.582.582,0,0,0-.241.47v2.7h-1.21Z" transform="translate(-10229.414 -3448.661)" fill="#fff"/>
    </g>
    <path id="Trazado_117944" data-name="Trazado 117944" d="M287.026,136.973h91.655a3.566,3.566,0,0,1,3.555,3.555V180.82a3.568,3.568,0,0,1-3.555,3.556H287.026a3.567,3.567,0,0,1-3.555-3.556V140.528a3.566,3.566,0,0,1,3.555-3.555" transform="translate(-10229.414 -3448.661)" fill="#006a4e" fill-rule="evenodd"/>
    <path id="Trazado_117945" data-name="Trazado 117945" d="M287.026,139.442h91.655a1.09,1.09,0,0,1,1.086,1.086V180.82a1.09,1.09,0,0,1-1.086,1.087H287.026a1.091,1.091,0,0,1-1.087-1.087V140.528a1.09,1.09,0,0,1,1.087-1.086m0-1.482a2.576,2.576,0,0,0-2.568,2.568V180.82a2.576,2.576,0,0,0,2.568,2.568h91.655a2.576,2.576,0,0,0,2.567-2.568V140.528a2.576,2.576,0,0,0-2.567-2.568Z" transform="translate(-10229.414 -3448.661)" fill="#fff" fill-rule="evenodd"/>
    <rect id="Rectángulo_34534" data-name="Rectángulo 34534" width="93.826" height="0.74" transform="translate(-9943.474 -3288.356)" fill="#fff"/>
    <path id="Trazado_117946" data-name="Trazado 117946" d="M320.063,152.475l-.829-.443a1.56,1.56,0,0,1-1.2.673,1.083,1.083,0,0,1-1-.58,2.379,2.379,0,0,1-.266-1.184,2.528,2.528,0,0,1,.25-1.174,1.033,1.033,0,0,1,.962-.61,1.4,1.4,0,0,1,1.063.423c.039.052.1.131.183.24l.829-.446a2.334,2.334,0,0,0-.836-.847,2.23,2.23,0,0,0-1.146-.306,2,2,0,0,0-1.721.809,3.1,3.1,0,0,0-.524,1.885,3.179,3.179,0,0,0,.517,1.873,1.944,1.944,0,0,0,1.686.836,2.381,2.381,0,0,0,1.175-.292,2.11,2.11,0,0,0,.849-.857m.876,1.055h.94v-2.323a.613.613,0,0,1,.194-.458.632.632,0,0,1,.459-.19.791.791,0,0,1,.539.194.638.638,0,0,1,.221.507v2.27h.882v-2.619a1.183,1.183,0,0,0-.423-.946,1.485,1.485,0,0,0-1-.339,1.034,1.034,0,0,0-.876.365v-1.774l-.94.344Zm6.411,0h.883v-2.313a1.391,1.391,0,0,0-1.555-1.591,2.675,2.675,0,0,0-1.337.385l.379.8a1.821,1.821,0,0,1,.909-.286.813.813,0,0,1,.5.146.592.592,0,0,1,.217.469,3.009,3.009,0,0,0-.877-.129,1.524,1.524,0,0,0-1.023.318,1.218,1.218,0,0,0-.4.981,1.205,1.205,0,0,0,.4.956,1.461,1.461,0,0,0,1,.332,1.82,1.82,0,0,0,.907-.239Zm0-.977a1.983,1.983,0,0,1-.8.214.791.791,0,0,1-.443-.12.428.428,0,0,1-.219-.386.4.4,0,0,1,.23-.365.868.868,0,0,1,.442-.11,2.209,2.209,0,0,1,.793.182Zm1.757,2.528.94-.351v-1.477a.984.984,0,0,0,.735.349,1.353,1.353,0,0,0,1.158-.662,2.267,2.267,0,0,0,.4-1.319,2.223,2.223,0,0,0-.411-1.316,1.391,1.391,0,0,0-1.171-.637,1,1,0,0,0-.714.329v-.278h-.94Zm.94-2.8v-1.247a.633.633,0,0,1,.605-.491.672.672,0,0,1,.606.391,1.5,1.5,0,0,1,.177.735,1.235,1.235,0,0,1-.208.705.709.709,0,0,1-.606.351.635.635,0,0,1-.574-.444m3.171,1.247h.939v-3.816h-.939Zm0-4.859a.471.471,0,0,0,.129.336.421.421,0,0,0,.325.138.48.48,0,0,0,.346-.135.459.459,0,0,0,.139-.339.431.431,0,0,0-.137-.327.461.461,0,0,0-.331-.132.467.467,0,0,0-.335.13.441.441,0,0,0-.136.329m1.815,4.859h.945v-2.291a.686.686,0,0,1,.207-.511.72.72,0,0,1,.524-.2.571.571,0,0,1,.468.218.746.746,0,0,1,.168.5v2.291h.923v-2.657a1.128,1.128,0,0,0-.412-.909,1.49,1.49,0,0,0-.97-.318,1.1,1.1,0,0,0-.908.387v-.314h-.945Zm6.386-1.081a.794.794,0,0,1-.606.33.674.674,0,0,1-.61-.429c-.031-.1-.079-.241-.141-.433h2.317v-.134a2.54,2.54,0,0,0-.387-1.442,1.426,1.426,0,0,0-1.258-.679,1.386,1.386,0,0,0-1.173.646,2.3,2.3,0,0,0,.021,2.674,1.479,1.479,0,0,0,1.231.637,1.5,1.5,0,0,0,1.232-.617Zm.057-1.263h-1.358a.969.969,0,0,1,.2-.469.567.567,0,0,1,.448-.216.585.585,0,0,1,.487.194,2.2,2.2,0,0,1,.218.491m1.778,2.344h.934V151.3a.736.736,0,0,1,.2-.525.68.68,0,0,1,.52-.206.6.6,0,0,1,.459.218l.292-.9a1.183,1.183,0,0,0-.73-.219.944.944,0,0,0-.736.329v-.278h-.934Zm6.616-1.909a2.151,2.151,0,0,0-.45-1.348,1.5,1.5,0,0,0-2.452,0,2.308,2.308,0,0,0,0,2.708,1.492,1.492,0,0,0,2.452,0,2.176,2.176,0,0,0,.45-1.356m-.93-.007a1.479,1.479,0,0,1-.172.715.646.646,0,0,1-.574.4.619.619,0,0,1-.564-.387,1.6,1.6,0,0,1-.15-.715,1.431,1.431,0,0,1,.157-.694.6.6,0,0,1,.557-.365.642.642,0,0,1,.564.36,1.33,1.33,0,0,1,.182.688" transform="translate(-10229.414 -3448.661)" fill="#fff"/>
    <path id="Trazado_117947" data-name="Trazado 117947" d="M295.849,151.751l1.761.48a.647.647,0,0,0,.713-.983l-3.766-5.454-3.767,5.454a.648.648,0,0,0,.536,1.008.694.694,0,0,0,.185-.028l1.753-.477v4.381h2.585Z" transform="translate(-10229.414 -3448.661)" fill="#fff" fill-rule="evenodd"/>
    <path id="Trazado_117948" data-name="Trazado 117948" d="M297.881,173.249l-.829-.443a1.562,1.562,0,0,1-1.2.674,1.082,1.082,0,0,1-1-.581,2.358,2.358,0,0,1-.268-1.184,2.5,2.5,0,0,1,.252-1.174,1.032,1.032,0,0,1,.961-.611,1.409,1.409,0,0,1,1.064.423c.037.053.1.132.183.241l.829-.446a2.313,2.313,0,0,0-.837-.847,2.227,2.227,0,0,0-1.146-.306,2,2,0,0,0-1.722.809,3.112,3.112,0,0,0-.521,1.885,3.179,3.179,0,0,0,.515,1.873,1.945,1.945,0,0,0,1.687.836,2.37,2.37,0,0,0,1.174-.293,2.1,2.1,0,0,0,.85-.856m3.15-.026a.792.792,0,0,1-.605.33.674.674,0,0,1-.611-.429c-.031-.1-.077-.241-.142-.433h2.319v-.135a2.552,2.552,0,0,0-.387-1.442,1.427,1.427,0,0,0-1.257-.678,1.389,1.389,0,0,0-1.175.646,2.3,2.3,0,0,0,.021,2.674,1.524,1.524,0,0,0,2.464.02Zm.058-1.263h-1.357a.955.955,0,0,1,.2-.469.565.565,0,0,1,.448-.216.58.58,0,0,1,.486.194,2.112,2.112,0,0,1,.219.491m1.777,2.344h.946v-2.291a.68.68,0,0,1,.208-.511.716.716,0,0,1,.523-.2.573.573,0,0,1,.469.218.746.746,0,0,1,.168.5V174.3h.922v-2.657a1.132,1.132,0,0,0-.411-.909,1.493,1.493,0,0,0-.971-.318,1.1,1.1,0,0,0-.908.387v-.314h-.946Zm4.112-2.912h.621l-.006,1.932a1.148,1.148,0,0,0,.25.751.861.861,0,0,0,.7.318,1.37,1.37,0,0,0,.687-.194l.147-.934a.577.577,0,0,1-.37.177.418.418,0,0,1-.471-.475l.007-1.575h.783v-.877h-.783V168.99l-.945.349v1.176h-.621Zm3.275,2.912h.934V172.07a.74.74,0,0,1,.195-.525.687.687,0,0,1,.519-.206.6.6,0,0,1,.46.219l.291-.9a1.178,1.178,0,0,0-.729-.219.94.94,0,0,0-.736.329v-.278h-.934Zm6.615-1.91a2.15,2.15,0,0,0-.449-1.347,1.5,1.5,0,0,0-2.452,0,2.213,2.213,0,0,0-.439,1.357,2.188,2.188,0,0,0,.439,1.352,1.492,1.492,0,0,0,2.452,0,2.178,2.178,0,0,0,.449-1.357m-.929-.006a1.5,1.5,0,0,1-.172.716.646.646,0,0,1-.574.4.617.617,0,0,1-.564-.386,1.6,1.6,0,0,1-.15-.715,1.451,1.451,0,0,1,.156-.694.6.6,0,0,1,.558-.366.643.643,0,0,1,.564.361,1.327,1.327,0,0,1,.182.688" transform="translate(-10229.414 -3448.661)" fill="#fff"/>
    <path id="Trazado_117949" data-name="Trazado 117949" d="M367.37,171.412l-.479-1.761a.655.655,0,0,1-.026-.178.647.647,0,0,1,.648-.645.633.633,0,0,1,.36.11l5.453,3.766-5.453,3.765a.634.634,0,0,1-.36.112.648.648,0,0,1-.648-.647.715.715,0,0,1,.028-.186L367.37,174h-4.382v-2.585Z" transform="translate(-10229.414 -3448.661)" fill="#fff" fill-rule="evenodd"/>
    <path id="Trazado_117950" data-name="Trazado 117950" d="M286.954,79.406h91.655a3.566,3.566,0,0,1,3.555,3.555v40.292a3.567,3.567,0,0,1-3.555,3.556H286.954a3.567,3.567,0,0,1-3.555-3.556V82.961a3.566,3.566,0,0,1,3.555-3.555" transform="translate(-10229.414 -3448.661)" fill="#006a4e" fill-rule="evenodd"/>
    <path id="Trazado_117951" data-name="Trazado 117951" d="M286.954,81.874h91.655a1.09,1.09,0,0,1,1.086,1.087v40.292a1.091,1.091,0,0,1-1.086,1.087H286.954a1.091,1.091,0,0,1-1.087-1.087V82.961a1.091,1.091,0,0,1,1.087-1.087m0-1.481a2.576,2.576,0,0,0-2.568,2.568v40.292a2.577,2.577,0,0,0,2.568,2.568h91.655a2.575,2.575,0,0,0,2.566-2.568V82.961a2.575,2.575,0,0,0-2.566-2.568Z" transform="translate(-10229.414 -3448.661)" fill="#fff" fill-rule="evenodd"/>
    <rect id="Rectángulo_34535" data-name="Rectángulo 34535" width="93.827" height="0.74" transform="translate(-9943.546 -3345.923)" fill="#fff"/>
    <path id="Trazado_117952" data-name="Trazado 117952" d="M295.731,93.8l1.762.48a.715.715,0,0,0,.179.024.647.647,0,0,0,.647-.647.639.639,0,0,0-.111-.361l-3.77-5.46-3.772,5.46a.64.64,0,0,0-.111.361.647.647,0,0,0,.647.647.682.682,0,0,0,.187-.027l1.754-.477v4.386h2.588Z" transform="translate(-10229.414 -3448.661)" fill="#fff" fill-rule="evenodd"/>
    <path id="Trazado_117953" data-name="Trazado 117953" d="M367.445,113.487l-.48-1.762a.7.7,0,0,1-.024-.178.646.646,0,0,1,.646-.646.637.637,0,0,1,.362.11l5.46,3.77-5.46,3.772a.646.646,0,0,1-1.008-.536.676.676,0,0,1,.027-.187l.477-1.754h-4.386v-2.589Z" transform="translate(-10229.414 -3448.661)" fill="#fff" fill-rule="evenodd"/>
    <path id="Trazado_117954" data-name="Trazado 117954" d="M321.616,90.85l2.583,0a1.528,1.528,0,0,1,1.1.411,1.415,1.415,0,0,1,.431,1.073,1.265,1.265,0,0,1-.428.982,1.535,1.535,0,0,1,.592,1.152,1.508,1.508,0,0,1-.407,1.16,1.441,1.441,0,0,1-1.115.5h-2.757Zm2.5,1.944c.374,0,.561-.156.561-.471a.384.384,0,0,0-.429-.438h-1.59v.909Zm.169,2.271a.57.57,0,0,0,.4-.15.5.5,0,0,0,.164-.383q0-.687-.75-.687h-1.442v1.22Z" transform="translate(-10229.414 -3448.661)" fill="#fff"/>
    <path id="Trazado_117955" data-name="Trazado 117955" d="M329.418,95.577a1.636,1.636,0,0,1-2.588,0,2.235,2.235,0,0,1-.011-2.784,1.612,1.612,0,0,1,1.3-.618,1.65,1.65,0,0,1,1.3.64,2.115,2.115,0,0,1,0,2.762m-.74-2.055a.639.639,0,0,0-.555-.349.613.613,0,0,0-.548.349,1.331,1.331,0,0,0-.17.671,1.274,1.274,0,0,0,.17.655.618.618,0,0,0,.548.349.635.635,0,0,0,.55-.349,1.22,1.22,0,0,0,.185-.655,1.3,1.3,0,0,0-.18-.671" transform="translate(-10229.414 -3448.661)" fill="#fff"/>
    <path id="Trazado_117956" data-name="Trazado 117956" d="M332.516,96.744a.948.948,0,0,0,.362-.739c0-.032,0-.069-.005-.111a1.393,1.393,0,0,1-2.083-.365,2.315,2.315,0,0,1-.416-1.346,2.223,2.223,0,0,1,.438-1.374,1.5,1.5,0,0,1,1.248-.639,1.431,1.431,0,0,1,.818.269V92.27h.982v3.846a1.807,1.807,0,0,1-.242.993,2.559,2.559,0,0,1-.771.676,2.628,2.628,0,0,1-.639.322l-.429-.914a4.275,4.275,0,0,0,.737-.449m.362-3.2a.9.9,0,0,0-.723-.37.618.618,0,0,0-.56.323,1.261,1.261,0,0,0-.164.665,1.364,1.364,0,0,0,.157.671.6.6,0,0,0,.545.354.841.841,0,0,0,.745-.375Z" transform="translate(-10229.414 -3448.661)" fill="#fff"/>
    <path id="Trazado_117957" data-name="Trazado 117957" d="M337.385,95.577a1.637,1.637,0,0,1-2.589,0,2.238,2.238,0,0,1-.011-2.784,1.613,1.613,0,0,1,1.3-.618,1.653,1.653,0,0,1,1.3.64,2.115,2.115,0,0,1,0,2.762m-.74-2.055a.64.64,0,0,0-.555-.349.61.61,0,0,0-.548.349,1.321,1.321,0,0,0-.17.671,1.265,1.265,0,0,0,.17.655.618.618,0,0,0,.548.349.635.635,0,0,0,.55-.349,1.228,1.228,0,0,0,.184-.655,1.3,1.3,0,0,0-.179-.671" transform="translate(-10229.414 -3448.661)" fill="#fff"/>
    <path id="Trazado_117958" data-name="Trazado 117958" d="M338.34,92.27h.729V91.15l1.031-.412V92.27h.988v.93H340.1v1.506c0,.316.132.475.4.475a.791.791,0,0,0,.6-.28l-.276,1.1-.327.148a1.082,1.082,0,0,1-.365.058.931.931,0,0,1-1-.687,1.2,1.2,0,0,1-.069-.38l.005-1.939h-.729Z" transform="translate(-10229.414 -3448.661)" fill="#fff"/>
    <path id="Trazado_117959" data-name="Trazado 117959" d="M344.015,95.994a2.585,2.585,0,0,1-.957.185,1.732,1.732,0,0,1-1.067-.316,1.161,1.161,0,0,1-.465-.978,1.224,1.224,0,0,1,.508-1.029,1.778,1.778,0,0,1,1.124-.354,2.691,2.691,0,0,1,.857.147c-.014-.344-.263-.518-.745-.518a2.093,2.093,0,0,0-1.036.3l-.39-.829a3.1,3.1,0,0,1,1.515-.407,1.723,1.723,0,0,1,1.215.4,1.54,1.54,0,0,1,.443,1.189v2.351h-1Zm0-1.425a2.566,2.566,0,0,0-.82-.164q-.686,0-.686.427c0,.148.1.265.285.349a1.173,1.173,0,0,0,.476.1,1.4,1.4,0,0,0,.745-.206ZM343.4,91.7l.8-1.02h-.861l-.481,1.02Z" transform="translate(-10229.414 -3448.661)" fill="#fff"/>
    <path id="Trazado_117960" data-name="Trazado 117960" d="M297.006,112.091h-1.453V111.04h3.91v1.051H298.02v4.231h-1.014Z" transform="translate(-10229.414 -3448.661)" fill="#fff"/>
    <path id="Trazado_117961" data-name="Trazado 117961" d="M302.394,116.079a1.55,1.55,0,0,1-.935.3,2.059,2.059,0,0,1-.681-.09,1.352,1.352,0,0,1-.61-.465,1.132,1.132,0,0,1-.262-.7v-2.652h1.062v2.24a.631.631,0,0,0,.174.452.593.593,0,0,0,.45.183.857.857,0,0,0,.5-.154.516.516,0,0,0,.253-.439v-2.282h1.051v3.857h-1Z" transform="translate(-10229.414 -3448.661)" fill="#fff"/>
    <path id="Trazado_117962" data-name="Trazado 117962" d="M303.837,112.466h1.072v.206a1.776,1.776,0,0,1,1.014-.3,1.441,1.441,0,0,1,.972.349,1.143,1.143,0,0,1,.428.914v2.689h-1.041v-2.315a.594.594,0,0,0-.187-.464.706.706,0,0,0-.489-.169.715.715,0,0,0-.465.18.549.549,0,0,0-.232.433v2.335h-1.072Z" transform="translate(-10229.414 -3448.661)" fill="#fff"/>
    <path id="Trazado_117963" data-name="Trazado 117963" d="M309.726,116.5q0,1.786-1.959,1.823V117.3a1.078,1.078,0,0,0,.684-.2.84.84,0,0,0,.209-.647v-3.973h1.061Zm-.166-5.375a.52.52,0,0,1,.161.372.551.551,0,0,1-.533.534.532.532,0,0,1-.388-.151.509.509,0,0,1-.156-.383.539.539,0,0,1,.539-.538.507.507,0,0,1,.377.166" transform="translate(-10229.414 -3448.661)" fill="#fff"/>
    <path id="Trazado_117964" data-name="Trazado 117964" d="M312.706,116.19a2.756,2.756,0,0,1-1.014.185,1.727,1.727,0,0,1-1.068-.317,1.158,1.158,0,0,1-.464-.977,1.227,1.227,0,0,1,.506-1.03,1.8,1.8,0,0,1,1.127-.354,2.867,2.867,0,0,1,.913.148q-.027-.518-.8-.518a2.085,2.085,0,0,0-1.036.3l-.391-.83a3.115,3.115,0,0,1,1.517-.407,1.722,1.722,0,0,1,1.215.4,1.542,1.542,0,0,1,.443,1.189v2.351h-.945Zm0-1.426a2.747,2.747,0,0,0-.877-.164,1.155,1.155,0,0,0-.46.084.366.366,0,0,0-.258.344q0,.222.3.348a1.29,1.29,0,0,0,.5.1,1.515,1.515,0,0,0,.8-.205Z" transform="translate(-10229.414 -3448.661)" fill="#fff"/>
  </g>
</svg>
