<svg xmlns="http://www.w3.org/2000/svg" xmlns:xlink="http://www.w3.org/1999/xlink" width="190" height="190" viewBox="0 0 190 190">
  <defs>
    <clipPath id="clip-path">
      <rect id="Rectángulo_34360" data-name="Rectángulo 34360" width="190" height="190" transform="translate(285 4627)"/>
    </clipPath>
  </defs>
  <g id="Enmascarar_grupo_124" data-name="Enmascarar grupo 124" transform="translate(-285 -4627)" clip-path="url(#clip-path)">
    <g id="senal-de-stop_1_" data-name="senal-de-stop (1)" transform="translate(285 4627)">
      <path id="Trazado_117140" data-name="Trazado 117140" d="M0,95a95.019,95.019,0,0,0,82.658,94.205,96.3,96.3,0,0,0,24.688,0,95.023,95.023,0,0,0,82.506-88.89Q190,97.676,190,95A95,95,0,1,0,0,95Zm0,0" transform="translate(0 0)" fill="#69b8d4"/>
      <path id="Trazado_117141" data-name="Trazado 117141" d="M158.734,102.1a6.338,6.338,0,0,0-6.338-6.339H98.98a6.339,6.339,0,0,0,0,12.678h17.278a6.338,6.338,0,1,1,0,12.677H114.5a6.339,6.339,0,1,0,0,12.678h51.195a6.338,6.338,0,0,0,6.338-6.339,6.339,6.339,0,0,1,6.339-6.339h1.761a6.338,6.338,0,1,0,0-12.677H165.073a6.339,6.339,0,0,1-6.339-6.339Zm0,0" transform="translate(-89.11 0)" fill="#8cd2e5"/>
      <path id="Trazado_117142" data-name="Trazado 117142" d="M0,68.625a6.34,6.34,0,0,0,6.339,6.336H23.618a6.34,6.34,0,0,1,0,12.679H21.857a6.338,6.338,0,1,0,0,12.675H32.842q.146-2.64.148-5.316A94.809,94.809,0,0,0,27.2,62.286H6.339A6.339,6.339,0,0,0,0,68.625Zm0,0" transform="translate(157.01 0)" fill="#8cd2e5"/>
      <path id="Trazado_117143" data-name="Trazado 117143" d="M87.46,125.595a6.339,6.339,0,0,0-6.339-6.339H27.706a6.338,6.338,0,0,0,0,12.677H44.985a6.339,6.339,0,0,1,0,12.678H43.222a6.338,6.338,0,0,0,0,12.677H94.417a6.339,6.339,0,0,0,6.339-6.339,6.338,6.338,0,0,1,6.339-6.338h1.761a6.339,6.339,0,0,0,0-12.678H93.8a6.339,6.339,0,0,1-6.339-6.338Zm0,0" transform="translate(53.438 0)" fill="#8cd2e5"/>
      <path id="Trazado_117144" data-name="Trazado 117144" d="M82.654,128.475v60.73a96.3,96.3,0,0,0,24.688,0v-60.73Zm0,0" transform="translate(0.004 0)" fill="#ccc"/>
      <path id="Trazado_117145" data-name="Trazado 117145" d="M95,150.077v39.128a96.03,96.03,0,0,0,12.342.794V150.077Zm0,0" transform="translate(-12.342 0)" fill="#e6e6e6"/>
      <g id="Icon" transform="translate(22 0)">
        <path id="Trazado_117146" data-name="Trazado 117146" d="M73,2A71,71,0,1,1,2,73,71,71,0,0,1,73,2ZM16.2,73a56.5,56.5,0,0,0,11.226,33.861l79.435-79.435A56.77,56.77,0,0,0,16.2,73Zm113.6,0a56.5,56.5,0,0,0-11.226-33.861L39.139,118.574A56.77,56.77,0,0,0,129.8,73Z" transform="translate(-9 -1)" fill="#d82525"/>
        <circle id="Elipse_4815" data-name="Elipse 4815" cx="57" cy="57" r="57" transform="translate(14 14)" fill="#f5f5f5"/>
        <path id="Trazado_117147" data-name="Trazado 117147" d="M37.83,25.19H55.221l-.8-7.2a4.734,4.734,0,0,1,7.828-4.077l20.914,18.36a4.737,4.737,0,0,1,0,7.114L62.254,57.749a4.734,4.734,0,0,1-7.828-4.077l.793-7.2-12.665.017a7.11,7.11,0,0,0-7.091,7.1v40.23a7.108,7.108,0,0,1-7.1,7.1h-7.1a7.108,7.108,0,0,1-7.1-7.1V48.857A23.694,23.694,0,0,1,37.83,25.19Z" transform="translate(28.437 12.676)" fill="#212121"/>
        <path id="Trazado_117148" data-name="Trazado 117148" d="M73,2A71,71,0,1,1,2,73,71,71,0,0,1,73,2ZM16.2,73a56.5,56.5,0,0,0,11.226,33.861l79.435-79.435A56.77,56.77,0,0,0,16.2,73Zm113.6,0a56.5,56.5,0,0,0-11.226-33.861L39.139,118.574A56.77,56.77,0,0,0,129.8,73Z" transform="translate(-2 -2)" fill="#f73e3e"/>
      </g>
    </g>
  </g>
</svg>
