<svg xmlns="http://www.w3.org/2000/svg" width="190" height="190" viewBox="0 0 190 190">
  <g id="Grupo_80254" data-name="Grupo 80254" transform="translate(-285 -4627)">
    <g id="senal-de-stop_1_" data-name="senal-de-stop (1)" transform="translate(285 4627)">
      <path id="Trazado_113850" data-name="Trazado 113850" d="M190,95a95.019,95.019,0,0,1-82.658,94.205,96.3,96.3,0,0,1-24.688,0A95.023,95.023,0,0,1,.148,100.316Q0,97.676,0,95a95,95,0,1,1,190,0Zm0,0" fill="#69b8d4"/>
      <path id="Trazado_113851" data-name="Trazado 113851" d="M120.376,102.1a6.338,6.338,0,0,1,6.338-6.339H180.13a6.339,6.339,0,0,1,0,12.678H162.852a6.338,6.338,0,1,0,0,12.677h1.761a6.339,6.339,0,1,1,0,12.678H113.418a6.338,6.338,0,0,1-6.338-6.339,6.339,6.339,0,0,0-6.339-6.339H98.98a6.338,6.338,0,1,1,0-12.677h15.057a6.339,6.339,0,0,0,6.339-6.339Zm0,0" fill="#8cd2e5"/>
      <path id="Trazado_113852" data-name="Trazado 113852" d="M32.99,68.625a6.34,6.34,0,0,1-6.339,6.336H9.372a6.34,6.34,0,0,0,0,12.679h1.761a6.338,6.338,0,1,1,0,12.675H.148Q0,97.676,0,95A94.809,94.809,0,0,1,5.785,62.286H26.651a6.339,6.339,0,0,1,6.339,6.339Zm0,0" fill="#8cd2e5"/>
      <path id="Trazado_113853" data-name="Trazado 113853" d="M49.1,125.595a6.339,6.339,0,0,1,6.339-6.339h53.416a6.338,6.338,0,0,1,0,12.677H91.577a6.339,6.339,0,0,0,0,12.678H93.34a6.338,6.338,0,0,1,0,12.677H42.145a6.339,6.339,0,0,1-6.339-6.339,6.338,6.338,0,0,0-6.339-6.338H27.706a6.339,6.339,0,0,1,0-12.678H42.762a6.339,6.339,0,0,0,6.339-6.338Zm0,0" fill="#8cd2e5"/>
      <path id="Trazado_113854" data-name="Trazado 113854" d="M107.342,128.475v60.73a96.3,96.3,0,0,1-24.688,0v-60.73Zm0,0" fill="#ccc"/>
      <path id="Trazado_113855" data-name="Trazado 113855" d="M107.342,150.077v39.128A96.03,96.03,0,0,1,95,190V150.077Zm0,0" fill="#e6e6e6"/>
      <g id="_016---Traffic-Lights" data-name="016---Traffic-Lights" transform="translate(21.082 -0.027)">
        <rect id="Rectangle-path" width="103.959" height="103.959" rx="2" transform="translate(66.526 0.377) rotate(45)" fill="#eba00c"/>
        <rect id="Rectangle-path-2" data-name="Rectangle-path" width="103.959" height="103.959" rx="2" transform="translate(73.918 0.377) rotate(45)" fill="#f0c419"/>
        <path id="Shape" d="M68.694,145.637c-.246,0,3.7,3.671-66.53-66.53a7.392,7.392,0,0,1,0-10.448l66.53-66.53a7.54,7.54,0,0,1,10.448,0l66.53,66.53a7.392,7.392,0,0,1,0,10.448l-66.53,66.53A7.392,7.392,0,0,1,68.694,145.637ZM72.169,5.6,5.639,72.134a2.464,2.464,0,0,0,0,3.5c70.2,70.1,66.283,66.53,66.53,66.53a2.464,2.464,0,0,0,3.5,0l66.53-66.53a2.464,2.464,0,0,0,0-3.5L75.668,5.6a2.464,2.464,0,0,0-3.5,0Z" transform="translate(0 0)" fill="#393f4a"/>
        <rect id="Rectangle-path-3" data-name="Rectangle-path" width="44.353" height="83.778" rx="1" transform="translate(51.742 31.994)" fill="#393f4a"/>
        <circle id="Oval" cx="7.392" cy="7.392" r="7.392" transform="translate(66.526 41.85)" fill="#e64c3c"/>
        <circle id="Oval-2" data-name="Oval" cx="7.392" cy="7.392" r="7.392" transform="translate(66.526 66.491)" fill="#f0c419"/>
        <circle id="Oval-3" data-name="Oval" cx="7.392" cy="7.392" r="7.392" transform="translate(66.526 91.132)" fill="#4fba6f"/>
      </g>
    </g>
  </g>
</svg>
