<svg xmlns="http://www.w3.org/2000/svg" xmlns:xlink="http://www.w3.org/1999/xlink" width="190" height="190" viewBox="0 0 190 190">
  <defs>
    <clipPath id="clip-path">
      <rect id="Rectángulo_33911" data-name="Rectángulo 33911" width="190" height="190" transform="translate(285 4627)"/>
    </clipPath>
  </defs>
  <g id="Enmascarar_grupo_64" data-name="Enmascarar grupo 64" transform="translate(-285 -4627)" clip-path="url(#clip-path)">
    <g id="senal-de-stop_1_" data-name="senal-de-stop (1)" transform="translate(285 4627)">
      <path id="Trazado_113837" data-name="Trazado 113837" d="M190,95a95.019,95.019,0,0,1-82.658,94.205,96.3,96.3,0,0,1-24.688,0A95.023,95.023,0,0,1,.148,100.316Q0,97.676,0,95a95,95,0,1,1,190,0Zm0,0" fill="#69b8d4"/>
      <path id="Trazado_113838" data-name="Trazado 113838" d="M120.376,102.1a6.338,6.338,0,0,1,6.338-6.339H180.13a6.339,6.339,0,0,1,0,12.678H162.852a6.338,6.338,0,1,0,0,12.677h1.761a6.339,6.339,0,1,1,0,12.678H113.418a6.338,6.338,0,0,1-6.338-6.339,6.339,6.339,0,0,0-6.339-6.339H98.98a6.338,6.338,0,1,1,0-12.677h15.057a6.339,6.339,0,0,0,6.339-6.339Zm0,0" fill="#8cd2e5"/>
      <path id="Trazado_113839" data-name="Trazado 113839" d="M32.99,68.625a6.34,6.34,0,0,1-6.339,6.336H9.372a6.34,6.34,0,0,0,0,12.679h1.761a6.338,6.338,0,1,1,0,12.675H.148Q0,97.676,0,95A94.809,94.809,0,0,1,5.785,62.286H26.651a6.339,6.339,0,0,1,6.339,6.339Zm0,0" fill="#8cd2e5"/>
      <path id="Trazado_113840" data-name="Trazado 113840" d="M49.1,125.595a6.339,6.339,0,0,1,6.339-6.339h53.416a6.338,6.338,0,0,1,0,12.677H91.577a6.339,6.339,0,0,0,0,12.678H93.34a6.338,6.338,0,0,1,0,12.677H42.145a6.339,6.339,0,0,1-6.339-6.339,6.338,6.338,0,0,0-6.339-6.338H27.706a6.339,6.339,0,0,1,0-12.678H42.762a6.339,6.339,0,0,0,6.339-6.338Zm0,0" fill="#8cd2e5"/>
      <path id="Trazado_113841" data-name="Trazado 113841" d="M107.342,128.475v60.73a96.3,96.3,0,0,1-24.688,0v-60.73Zm0,0" fill="#ccc"/>
      <path id="Trazado_113842" data-name="Trazado 113842" d="M107.342,150.077v39.128A96.03,96.03,0,0,1,95,190V150.077Zm0,0" fill="#e6e6e6"/>
      <g id="_040---Sharp-Bends" data-name="040---Sharp-Bends" transform="translate(22.002 -0.998)">
        <path id="Shape" d="M140.738,68.66,75.5,3.421a4.833,4.833,0,0,0-6.838,0L3.421,68.66a4.833,4.833,0,0,0,0,6.838L68.66,140.738a4.833,4.833,0,0,0,6.838,0L140.738,75.5a4.833,4.833,0,0,0,0-6.838Z" transform="translate(-8.006 1.424)" fill="#eba00c"/>
        <path id="Shape-2" data-name="Shape" d="M140.738,68.66,75.5,3.421a4.833,4.833,0,0,0-6.838,0L3.421,68.66a4.833,4.833,0,0,0,0,6.838L68.66,140.738a4.833,4.833,0,0,0,6.838,0L140.738,75.5a4.833,4.833,0,0,0,0-6.838Z" transform="translate(1.424 1.424)" fill="#f0c419"/>
        <g id="Grupo_80253" data-name="Grupo 80253" transform="translate(0.998 0.998)">
          <path id="Shape-3" data-name="Shape" d="M68.369,143.878,3.13,78.638a7.249,7.249,0,0,1,0-10.269L68.369,3.13a7.249,7.249,0,0,1,10.269,0l65.239,65.239a7.249,7.249,0,0,1,0,10.245L78.638,143.853a7.249,7.249,0,0,1-10.269.024ZM71.8,6.537,6.561,71.776a2.416,2.416,0,0,0,0,3.407L71.8,140.422a2.416,2.416,0,0,0,3.431,0l65.239-65.239a2.416,2.416,0,0,0,0-3.407L75.231,6.537a2.416,2.416,0,0,0-3.431,0Z" transform="translate(-0.998 -0.998)" fill="#393f4a"/>
          <path id="Shape-4" data-name="Shape" d="M36.513,43.244A2.8,2.8,0,0,1,34.6,45.9l-.749.266A17.276,17.276,0,0,0,22.16,64.991,17.832,17.832,0,0,0,34.435,79.247L49.1,84.079a2.8,2.8,0,0,1,0,5.316l-.749.266a17.276,17.276,0,0,0-11.84,16.407v9.665a2.416,2.416,0,0,0,2.416,2.416h9.665a2.416,2.416,0,0,0,2.416-2.416v-9.665a2.8,2.8,0,0,1,1.909-2.658l.749-.266A17.276,17.276,0,0,0,65.363,84.321,17.832,17.832,0,0,0,53.089,70.065L38.422,65.232a2.8,2.8,0,0,1,0-5.316l.749-.266a17.276,17.276,0,0,0,11.84-16.407V32.782l8.554,1.426a2.416,2.416,0,0,0,2.416-3.842L44.728,7.483a1.208,1.208,0,0,0-1.933,0L25.64,30.365a2.416,2.416,0,0,0,2.416,3.842l8.457-1.426Z" transform="translate(28.732 7.503)" fill="#393f4a"/>
        </g>
      </g>
    </g>
  </g>
</svg>
