<svg xmlns="http://www.w3.org/2000/svg" xmlns:xlink="http://www.w3.org/1999/xlink" width="190" height="190" viewBox="0 0 190 190">
  <defs>
    <clipPath id="clip-path">
      <rect id="Rectángulo_33915" data-name="Rectángulo 33915" width="190" height="190" transform="translate(285 4627)"/>
    </clipPath>
  </defs>
  <g id="Enmascarar_grupo_68" data-name="Enmascarar grupo 68" transform="translate(-285 -4627)" clip-path="url(#clip-path)">
    <g id="senal-de-stop_1_" data-name="senal-de-stop (1)" transform="translate(285 4627)">
      <path id="Trazado_113875" data-name="Trazado 113875" d="M190,95a95.019,95.019,0,0,1-82.658,94.205,96.3,96.3,0,0,1-24.688,0A95.023,95.023,0,0,1,.148,100.316Q0,97.676,0,95a95,95,0,1,1,190,0Zm0,0" fill="#69b8d4"/>
      <path id="Trazado_113876" data-name="Trazado 113876" d="M120.376,102.1a6.338,6.338,0,0,1,6.338-6.339H180.13a6.339,6.339,0,0,1,0,12.678H162.852a6.338,6.338,0,1,0,0,12.677h1.761a6.339,6.339,0,1,1,0,12.678H113.418a6.338,6.338,0,0,1-6.338-6.339,6.339,6.339,0,0,0-6.339-6.339H98.98a6.338,6.338,0,1,1,0-12.677h15.057a6.339,6.339,0,0,0,6.339-6.339Zm0,0" fill="#8cd2e5"/>
      <path id="Trazado_113877" data-name="Trazado 113877" d="M32.99,68.625a6.34,6.34,0,0,1-6.339,6.336H9.372a6.34,6.34,0,0,0,0,12.679h1.761a6.338,6.338,0,1,1,0,12.675H.148Q0,97.676,0,95A94.809,94.809,0,0,1,5.785,62.286H26.651a6.339,6.339,0,0,1,6.339,6.339Zm0,0" fill="#8cd2e5"/>
      <path id="Trazado_113878" data-name="Trazado 113878" d="M49.1,125.595a6.339,6.339,0,0,1,6.339-6.339h53.416a6.338,6.338,0,0,1,0,12.677H91.577a6.339,6.339,0,0,0,0,12.678H93.34a6.338,6.338,0,0,1,0,12.677H42.145a6.339,6.339,0,0,1-6.339-6.339,6.338,6.338,0,0,0-6.339-6.338H27.706a6.339,6.339,0,0,1,0-12.678H42.762a6.339,6.339,0,0,0,6.339-6.338Zm0,0" fill="#8cd2e5"/>
      <path id="Trazado_113879" data-name="Trazado 113879" d="M107.342,128.475V217a66.373,66.373,0,0,1-24.688,0V128.475Zm0,0" transform="translate(0 -28.16)" fill="#ccc"/>
      <path id="Trazado_113880" data-name="Trazado 113880" d="M107.342,150.077v82.328A46.774,46.774,0,0,1,95,234.077v-84Zm0,0" transform="translate(0 -44.077)" fill="#e6e6e6"/>
      <g id="Grupo_81262" data-name="Grupo 81262" transform="translate(-285 -8081)">
        <rect id="Rectángulo_34166" data-name="Rectángulo 34166" width="178" height="68" rx="10" transform="translate(288 8125)" fill="#065b1a"/>
        <rect id="Rectángulo_34164" data-name="Rectángulo 34164" width="178" height="68" rx="10" transform="translate(291 8123)" fill="#008b20"/>
        <g id="Rectángulo_34165" data-name="Rectángulo 34165" transform="translate(300 8128)" fill="none" stroke="#fff" stroke-width="3">
          <rect width="160" height="58" rx="10" stroke="none"/>
          <rect x="1.5" y="1.5" width="157" height="55" rx="8.5" fill="none"/>
        </g>
        <g id="Grupo_82312" data-name="Grupo 82312" transform="translate(-43.811 -55.393)">
          <path id="Trazado_117856" data-name="Trazado 117856" d="M446.307,255.531h2.508l5.709,13.7h-2.639l-1.345-3.22h-5.959l-1.34,3.22h-2.686Zm3.179,8.026-1.916-4.615-1.933,4.615Z" transform="translate(-57.139 7940.414)" fill="#fff"/>
          <path id="Trazado_117857" data-name="Trazado 117857" d="M453.7,257.962l2.411,6.78,2.412-6.78h2.449l-3.559,10h-2.6l-3.56-10Z" transform="translate(-51.568 7941.68)" fill="#fff"/>
          <path id="Trazado_117858" data-name="Trazado 117858" d="M459.525,263.379a1.15,1.15,0,0,1,.862-.391,1.168,1.168,0,0,1,.862.383,1.256,1.256,0,0,1,.371.9,1.116,1.116,0,0,1-.377.856,1.231,1.231,0,0,1-1.711.008,1.1,1.1,0,0,1-.379-.85,1.282,1.282,0,0,1,.371-.91" transform="translate(-47.451 7944.298)" fill="#fff"/>
          <path id="Trazado_117859" data-name="Trazado 117859" d="M468.59,255.531h2.342l6.274,9v-9h2.341v13.7h-2.109l-6.464-9.437v9.437H468.59Z" transform="translate(-42.535 7940.414)" fill="#fff"/>
          <path id="Trazado_117860" data-name="Trazado 117860" d="M485.192,269.1a5.339,5.339,0,0,1-2.164.436,5.036,5.036,0,0,1-4.329-2.2,8.059,8.059,0,0,1-1.395-4.806,8.293,8.293,0,0,1,1.379-4.9,5.46,5.46,0,0,1,8.767-.053,8.243,8.243,0,0,1,1.357,4.861,7.5,7.5,0,0,1-1.834,5.424l.726,1.11-1.821,1.191Zm-.657-4.849,1,1.491a6.8,6.8,0,0,0,.821-3.506,5.7,5.7,0,0,0-.712-2.984,2.831,2.831,0,0,0-2.561-1.425,2.894,2.894,0,0,0-2.645,1.494,6.064,6.064,0,0,0-.724,3.109,6.315,6.315,0,0,0,.686,3.081,2.755,2.755,0,0,0,2.548,1.562,2.882,2.882,0,0,0,.808-.082l-1.016-1.535Z" transform="translate(-37.996 7940.339)" fill="#fff"/>
          <path id="Trazado_117861" data-name="Trazado 117861" d="M488.363,265.234A4.419,4.419,0,0,0,492.021,267a4.6,4.6,0,0,0,1.9-.383,1.577,1.577,0,0,0,1.081-1.439c0-.741-.694-1.3-2.081-1.687q-3.534-.97-3.862-1.122a3.444,3.444,0,0,1-.535-6.04,5.829,5.829,0,0,1,3.3-.89,6.726,6.726,0,0,1,5.028,2.11l-1.851,1.629a4.425,4.425,0,0,0-3.27-1.343q-2.288,0-2.287,1.4c0,.648.69,1.136,2.079,1.465a21.025,21.025,0,0,1,3.863,1.136,3.72,3.72,0,0,1,2.082,3.548,3.455,3.455,0,0,1-1.808,3.04,6.568,6.568,0,0,1-3.588.986,7.074,7.074,0,0,1-5.7-2.643Z" transform="translate(-33.27 7940.366)" fill="#fff"/>
          <path id="Trazado_117862" data-name="Trazado 117862" d="M441.21,281.392a6.264,6.264,0,0,1-3.083.768,5.087,5.087,0,0,1-4.423-2.192,8.342,8.342,0,0,1-1.355-4.916,8.17,8.17,0,0,1,1.367-4.946,5.247,5.247,0,0,1,4.52-2.122,5.825,5.825,0,0,1,3.007.8,6.116,6.116,0,0,1,2.2,2.227l-2.181,1.163c-.216-.283-.374-.493-.478-.63a3.7,3.7,0,0,0-2.792-1.11,2.718,2.718,0,0,0-2.523,1.6,6.642,6.642,0,0,0-.657,3.084,6.217,6.217,0,0,0,.7,3.107,2.834,2.834,0,0,0,2.615,1.521,4.09,4.09,0,0,0,3.135-1.767l2.181,1.163a5.559,5.559,0,0,1-2.233,2.246" transform="translate(-61.414 7946.901)" fill="#fff"/>
          <path id="Trazado_117863" data-name="Trazado 117863" d="M447.179,280.215a4.756,4.756,0,0,1-2.376.63,3.811,3.811,0,0,1-2.611-.876,3.154,3.154,0,0,1-1.04-2.508,3.2,3.2,0,0,1,1.049-2.575,4,4,0,0,1,2.678-.835,7.8,7.8,0,0,1,2.3.344,1.57,1.57,0,0,0-.57-1.232,2.1,2.1,0,0,0-1.319-.385,4.745,4.745,0,0,0-2.376.751l-.993-2.108a7.021,7.021,0,0,1,3.506-1.013q4.081,0,4.081,4.178v6.067h-2.328Zm0-3.658a5.774,5.774,0,0,0-2.073-.478,2.31,2.31,0,0,0-1.16.286,1.057,1.057,0,0,0-.6.958,1.122,1.122,0,0,0,.57,1.013,2.036,2.036,0,0,0,1.159.315,5.156,5.156,0,0,0,2.1-.561Z" transform="translate(-56.828 7948.163)" fill="#fff"/>
          <path id="Trazado_117864" data-name="Trazado 117864" d="M448.154,270.617h2.453v.724a2.482,2.482,0,0,1,1.932-.861,3.092,3.092,0,0,1,1.918.575l-.77,2.356a1.567,1.567,0,0,0-1.2-.575,1.783,1.783,0,0,0-1.361.538,1.921,1.921,0,0,0-.516,1.378v5.863h-2.453Z" transform="translate(-53.181 7948.201)" fill="#fff"/>
          <path id="Trazado_117865" data-name="Trazado 117865" d="M453.807,270.617h2.453v.724a2.482,2.482,0,0,1,1.932-.861,3.08,3.08,0,0,1,1.915.575l-.767,2.356a1.572,1.572,0,0,0-1.2-.575,1.792,1.792,0,0,0-1.364.538,1.932,1.932,0,0,0-.512,1.378v5.863h-2.453Z" transform="translate(-50.236 7948.201)" fill="#fff"/>
          <path id="Trazado_117866" data-name="Trazado 117866" d="M467.074,279.238a3.924,3.924,0,0,1-3.232,1.615,3.869,3.869,0,0,1-3.23-1.673,6.028,6.028,0,0,1-.058-7.01,3.641,3.641,0,0,1,3.083-1.7,3.745,3.745,0,0,1,3.3,1.784,6.673,6.673,0,0,1,1.013,3.778v.356H461.87c.163.5.289.881.368,1.138a1.77,1.77,0,0,0,1.6,1.124,2.071,2.071,0,0,0,1.586-.865Zm-2.068-6.055a1.517,1.517,0,0,0-1.273-.507,1.5,1.5,0,0,0-1.179.561,2.531,2.531,0,0,0-.532,1.232h3.56a5.83,5.83,0,0,0-.576-1.287" transform="translate(-47.292 7948.195)" fill="#fff"/>
          <path id="Trazado_117867" data-name="Trazado 117867" d="M466.553,270.617H469v.724a2.486,2.486,0,0,1,1.932-.861,3.089,3.089,0,0,1,1.918.575l-.767,2.356a1.578,1.578,0,0,0-1.206-.575,1.787,1.787,0,0,0-1.361.538,1.921,1.921,0,0,0-.516,1.378v5.863h-2.45Z" transform="translate(-43.597 7948.201)" fill="#fff"/>
          <path id="Trazado_117868" data-name="Trazado 117868" d="M478.231,280.215a4.756,4.756,0,0,1-2.376.63,3.811,3.811,0,0,1-2.611-.876,3.154,3.154,0,0,1-1.04-2.508,3.2,3.2,0,0,1,1.049-2.575,4,4,0,0,1,2.678-.835,7.8,7.8,0,0,1,2.3.344,1.57,1.57,0,0,0-.57-1.232,2.1,2.1,0,0,0-1.319-.385,4.745,4.745,0,0,0-2.376.751l-.993-2.108a7.02,7.02,0,0,1,3.506-1.013q4.081,0,4.081,4.178v6.067h-2.328Zm0-3.658a5.774,5.774,0,0,0-2.073-.478,2.315,2.315,0,0,0-1.16.286,1.058,1.058,0,0,0-.6.958,1.122,1.122,0,0,0,.57,1.013,2.045,2.045,0,0,0,1.161.315,5.144,5.144,0,0,0,2.1-.561Z" transform="translate(-40.653 7948.163)" fill="#fff"/>
          <path id="Trazado_117869" data-name="Trazado 117869" d="M487.5,277.875a3.787,3.787,0,0,0,1.586,1.34,4.6,4.6,0,0,0,2.041.467,4.537,4.537,0,0,0,1.973-.383,1.658,1.658,0,0,0,1.042-1.574,2.069,2.069,0,0,0-.289-1.014,2.511,2.511,0,0,0-2.449-1.054h-.344V273.21a3.7,3.7,0,0,0,1.547-.189,1.188,1.188,0,0,0,.862-1.15,1.23,1.23,0,0,0-.876-1.147,3.657,3.657,0,0,0-1.533-.3,4.09,4.09,0,0,0-3.042,1.36l-1.834-1.685a6.548,6.548,0,0,1,4.931-2.108,5.673,5.673,0,0,1,3.326.943,3.437,3.437,0,0,1,1.535,2.97,3.95,3.95,0,0,1-1.109,2.508,4.153,4.153,0,0,1,1.738,3.22,3.988,3.988,0,0,1-1.738,3.355,6.068,6.068,0,0,1-3.711,1.165,7.133,7.133,0,0,1-5.643-2.8Z" transform="translate(-33.72 7946.902)" fill="#fff"/>
          <path id="Trazado_117870" data-name="Trazado 117870" d="M504.479,279.949A5.133,5.133,0,0,1,500,282.165a4.973,4.973,0,0,1-4.353-2.259,8.507,8.507,0,0,1-1.331-4.89,8.135,8.135,0,0,1,1.369-4.864,5.536,5.536,0,0,1,8.78-.026,8.178,8.178,0,0,1,1.357,4.849,8.556,8.556,0,0,1-1.341,4.973m-1.767-7.986a2.806,2.806,0,0,0-2.631-1.548,2.876,2.876,0,0,0-2.63,1.56,6.241,6.241,0,0,0-.726,3.136,6.039,6.039,0,0,0,.726,3.11,2.847,2.847,0,0,0,2.63,1.535,2.773,2.773,0,0,0,2.548-1.574,6.226,6.226,0,0,0,.725-3.084,6.666,6.666,0,0,0-.642-3.135" transform="translate(-29.135 7946.896)" fill="#fff"/>
        </g>
      </g>
    </g>
  </g>
</svg>
