<svg xmlns="http://www.w3.org/2000/svg" xmlns:xlink="http://www.w3.org/1999/xlink" width="105" height="105" viewBox="0 0 105 105">
  <defs>
    <clipPath id="clip-path">
      <rect id="Rectángulo_34833" data-name="Rectángulo 34833" width="105" height="105" transform="translate(475 3165)" fill="#fff" stroke="#707070" stroke-width="1"/>
    </clipPath>
  </defs>
  <g id="Enmascarar_grupo_126" data-name="Enmascarar grupo 126" transform="translate(-475 -3165)" clip-path="url(#clip-path)">
    <g id="examen" transform="translate(475 3165)">
      <path id="Trazado_118953" data-name="Trazado 118953" d="M67.388,18.806V8.7H1.685v94.343h65.7V18.806Z" fill="#92e0c0"/>
      <g id="Grupo_82335" data-name="Grupo 82335">
        <rect id="Rectángulo_34834" data-name="Rectángulo 34834" width="38.748" height="13.478" transform="translate(15.162 1.959)" fill="#d3a06c"/>
        <path id="Trazado_118954" data-name="Trazado 118954" d="M60.649,40.707v-7.76A17.512,17.512,0,0,1,78.16,15.437h0A11.352,11.352,0,0,1,87.6,20.491h0a8.9,8.9,0,0,1,6.739,8.631V40.707H60.649Z" fill="#d3a06c"/>
      </g>
      <path id="Trazado_118955" data-name="Trazado 118955" d="M87.6,20.491a11.352,11.352,0,0,0-9.444-5.054,17.713,17.713,0,0,0-1.877.1,11.351,11.351,0,0,1,7.952,4.951,8.9,8.9,0,0,1,6.739,8.631V40.707h3.369V29.122A8.9,8.9,0,0,0,87.6,20.491Z" fill="#b27946"/>
      <path id="Trazado_118956" data-name="Trazado 118956" d="M87.6,35.653h1.685a5.054,5.054,0,0,1,5.054,5.054h0a5.054,5.054,0,0,1-5.054,5.054H87.6Z" fill="#f9e0a6"/>
      <path id="Trazado_118957" data-name="Trazado 118957" d="M53.91,15.437h6.739V96.3H8.423V15.437H53.91Z" fill="#ececec"/>
      <rect id="Rectángulo_34835" data-name="Rectángulo 34835" width="52.225" height="3.369" transform="translate(8.423 92.933)" fill="#b6c1ce"/>
      <path id="Trazado_118958" data-name="Trazado 118958" d="M67.388,35.653H65.7a5.054,5.054,0,0,0-5.054,5.054h0A5.054,5.054,0,0,0,65.7,45.761h1.685Z" fill="#f9e0a6"/>
      <path id="Trazado_118959" data-name="Trazado 118959" d="M72.442,57.554l-10.8,2.161A10.108,10.108,0,0,0,53.9,66.85l-1.676,5.866h50.541L101.09,66.85a10.105,10.105,0,0,0-7.736-7.135l-10.8-2.161Z" fill="#b6c1ce"/>
      <g id="Grupo_82336" data-name="Grupo 82336">
        <path id="Trazado_118960" data-name="Trazado 118960" d="M72.442,54.185v5.054L77.5,62.608l5.054-3.369V54.185Z" fill="#f9e0a6"/>
        <path id="Trazado_118961" data-name="Trazado 118961" d="M65.7,35.653v8.423A11.793,11.793,0,0,0,77.5,55.869h0A11.793,11.793,0,0,0,89.289,44.077V35.653h0a20.216,20.216,0,0,1-12.13-4.043L75.811,30.6,74.33,32.08A12.2,12.2,0,0,1,65.7,35.653Z" fill="#f9e0a6"/>
      </g>
      <path id="Trazado_118962" data-name="Trazado 118962" d="M85.919,35.653v8.423A11.783,11.783,0,0,1,75.811,55.735,11.7,11.7,0,0,0,89.289,44.077V35.653a20.067,20.067,0,0,1-3.369-.288Z" fill="#eabd8c"/>
      <path id="Trazado_118963" data-name="Trazado 118963" d="M77.5,89.563,66.112,78.18a7.147,7.147,0,0,1-2.094-5.054h0a7.147,7.147,0,0,1,7.148-7.148h0a7.147,7.147,0,0,1,5.054,2.094L77.5,69.347l1.275-1.275a7.147,7.147,0,0,1,5.054-2.094h0a7.147,7.147,0,0,1,7.148,7.148h0a7.147,7.147,0,0,1-2.094,5.054Z" fill="#fb5968"/>
      <path id="Trazado_118964" data-name="Trazado 118964" d="M33.694,27.23H28.64V22.176H21.9V27.23H16.847v6.739H21.9v5.054H28.64V33.968h5.054Z" fill="#ffc729"/>
      <path id="Trazado_118965" data-name="Trazado 118965" d="M105,74.4l-2.289-8.014a11.745,11.745,0,0,0-9.025-8.324l-9.451-1.89v-.441a13.508,13.508,0,0,0,6.328-8.413,6.745,6.745,0,0,0,5.465-6.611V29.122a10.565,10.565,0,0,0-7.389-10.088,13.006,13.006,0,0,0-10.477-5.282,19.068,19.068,0,0,0-9.089,2.295V7.013H55.595V.275H13.478V7.013H0v97.712H69.072v-21.2L77.5,91.945,90.072,79.369A8.741,8.741,0,0,0,92.533,74.4ZM77.5,54.185A10.118,10.118,0,0,1,67.388,44.077V37.225a13.775,13.775,0,0,0,8.134-3.954l.448-.448.179.135A22.053,22.053,0,0,0,87.6,37.269v6.808A10.118,10.118,0,0,1,77.5,54.185ZM64.018,43.608a3.34,3.34,0,0,1,0-5.8Zm26.955,0v-5.8a3.339,3.339,0,0,1,0,5.8ZM86.2,21.426l.361.542.633.158a7.2,7.2,0,0,1,5.462,6.995v5.784a6.669,6.669,0,0,0-3.369-.937A18.647,18.647,0,0,1,78.17,30.262l-2.517-1.889-2.514,2.514A10.446,10.446,0,0,1,65.7,33.968a6.669,6.669,0,0,0-3.369.937V32.947A15.845,15.845,0,0,1,78.161,17.122,9.644,9.644,0,0,1,86.2,21.426ZM16.847,3.644H52.225V13.752H48.856v3.369H58.964v3.369h3.369V13.752H55.595V10.383H65.7v7.989a19.143,19.143,0,0,0-6.739,14.576v7.76a6.745,6.745,0,0,0,5.465,6.611,13.508,13.508,0,0,0,6.328,8.413v.441l-8.423,1.685V50.815H58.964v8a11.722,11.722,0,0,0-6.683,7.569L49.991,74.4h8.973V94.617H10.108v-77.5H45.487V13.752H16.847ZM65.7,101.356H3.369V10.383H13.478v3.369H6.739V97.987H62.334V74.4h.125a8.741,8.741,0,0,0,2.461,4.968l.783.783ZM87.69,76.987,77.5,87.181,67.3,76.987a5.463,5.463,0,0,1,7.726-7.726L77.5,71.729l2.468-2.468a5.463,5.463,0,0,1,7.726,7.726ZM83.827,64.293a8.775,8.775,0,0,0-6.245,2.586l-.086.086-.086-.086a8.81,8.81,0,0,0-14.8,4.153H54.459l1.063-3.72a8.391,8.391,0,0,1,6.446-5.945l12.158-2.431V57.109a13.009,13.009,0,0,0,6.739,0v1.826l12.158,2.429a8.391,8.391,0,0,1,6.446,5.945l1.063,3.72H92.38A8.827,8.827,0,0,0,83.827,64.293Z"/>
      <path id="Trazado_118966" data-name="Trazado 118966" d="M20.216,40.707H30.324V35.653h5.054V25.545H30.324V20.491H20.216v5.054H15.162V35.653h5.054Zm-1.685-8.423V28.914h5.054V23.86h3.369v5.054h5.054v3.369H26.955v5.054H23.586V32.284Z"/>
      <rect id="Rectángulo_34836" data-name="Rectángulo 34836" width="13.478" height="3.369" transform="translate(40.433 25.545)"/>
      <rect id="Rectángulo_34837" data-name="Rectángulo 34837" width="13.478" height="3.369" transform="translate(40.433 32.284)"/>
      <path id="Trazado_118967" data-name="Trazado 118967" d="M30.324,49.131H16.847V52.5H30.324Z"/>
      <path id="Trazado_118968" data-name="Trazado 118968" d="M18.532,55.869H16.847v3.369H30.324V55.869H18.532Z"/>
      <rect id="Rectángulo_34838" data-name="Rectángulo 34838" width="10.108" height="3.369" transform="translate(37.063 49.131)"/>
      <rect id="Rectángulo_34839" data-name="Rectángulo 34839" width="10.108" height="3.369" transform="translate(37.063 55.869)"/>
      <path id="Trazado_118969" data-name="Trazado 118969" d="M28.64,79.455h1.685V76.086H16.847v3.369H28.64Z"/>
      <rect id="Rectángulo_34840" data-name="Rectángulo 34840" width="10.108" height="3.369" transform="translate(37.063 76.086)"/>
      <rect id="Rectángulo_34841" data-name="Rectángulo 34841" width="30.324" height="3.369" transform="translate(16.847 62.608)"/>
      <rect id="Rectángulo_34842" data-name="Rectángulo 34842" width="30.324" height="3.369" transform="translate(16.847 69.347)"/>
      <rect id="Rectángulo_34843" data-name="Rectángulo 34843" width="30.324" height="3.369" transform="translate(16.847 82.824)"/>
      <rect id="Rectángulo_34844" data-name="Rectángulo 34844" width="3.369" height="3.369" transform="translate(42.117 7.013)"/>
      <rect id="Rectángulo_34845" data-name="Rectángulo 34845" width="3.369" height="3.369" transform="translate(23.586 7.013)"/>
    </g>
  </g>
</svg>
