<svg xmlns="http://www.w3.org/2000/svg" width="86" height="78.494" viewBox="0 0 86 78.494">
  <g id="accidente-automovilistico" transform="translate(-22 -33.172)">
    <circle id="Elipse_4804" data-name="Elipse 4804" cx="29" cy="29" r="29" transform="translate(30 36.247)" fill="#e8e6dd"/>
    <g id="Grupo_81272" data-name="Grupo 81272" transform="translate(49.369 33.172)">
      <path id="Trazado_116406" data-name="Trazado 116406" d="M161.488,39.66a1.34,1.34,0,0,1-.95-.394l-3.8-3.8a1.344,1.344,0,1,1,1.9-1.9l3.8,3.8a1.344,1.344,0,0,1-.95,2.294Z" transform="translate(-138.582 -33.173)"/>
      <path id="Trazado_116407" data-name="Trazado 116407" d="M157.688,39.66a1.344,1.344,0,0,1-.95-2.294l3.8-3.8a1.344,1.344,0,0,1,1.9,1.9l-3.8,3.8A1.338,1.338,0,0,1,157.688,39.66Z" transform="translate(-138.582 -33.172)"/>
      <circle id="Elipse_4805" data-name="Elipse 4805" cx="1.521" cy="1.521" r="1.521" transform="translate(0 3.738)"/>
    </g>
    <g id="Grupo_81273" data-name="Grupo 81273" transform="translate(22 94.197)">
      <path id="Trazado_116408" data-name="Trazado 116408" d="M26,222.859H75.847l1.216-4.031H26Z" transform="translate(-24.656 -217.484)" fill="#77a052"/>
      <path id="Trazado_116409" data-name="Trazado 116409" d="M73.19,221.547H23.344A1.344,1.344,0,0,1,22,220.2v-4.031a1.344,1.344,0,0,1,1.344-1.344H74.406a1.344,1.344,0,0,1,1.287,1.731l-1.216,4.031A1.344,1.344,0,0,1,73.19,221.547Zm-48.5-2.687h47.5l.4-1.344H24.688Z" transform="translate(-22 -214.828)"/>
    </g>
    <circle id="Elipse_4806" data-name="Elipse 4806" cx="1.521" cy="1.521" r="1.521" transform="translate(43.994 47.66)"/>
    <g id="Grupo_81274" data-name="Grupo 81274" transform="translate(22 75.385)">
      <path id="Trazado_116410" data-name="Trazado 116410" d="M26,162.828H72.188c3.434,0,6.218,3.069,6.218,6.856v9.424a2.424,2.424,0,0,1-2.3,2.533H26" transform="translate(-24.656 -161.484)" fill="#a9ba5a"/>
      <path id="Trazado_116411" data-name="Trazado 116411" d="M73.452,180.328H23.344a1.344,1.344,0,0,1,0-2.687H73.452a1.106,1.106,0,0,0,.954-1.19v-9.423c0-3.039-2.187-5.512-4.874-5.512H23.344a1.344,1.344,0,0,1,0-2.687H69.532c4.17,0,7.562,3.678,7.562,8.2v9.423A3.769,3.769,0,0,1,73.452,180.328Z" transform="translate(-22 -158.828)"/>
    </g>
    <g id="Grupo_81275" data-name="Grupo 81275" transform="translate(22 59.26)">
      <path id="Trazado_116412" data-name="Trazado 116412" d="M26,114.828h2.791c8.368,0,16.221,3.464,21.085,9.3l5.687,6.825H26" transform="translate(-24.656 -113.484)" fill="#c1dbdc"/>
      <path id="Trazado_116413" data-name="Trazado 116413" d="M52.906,129.641H23.344a1.344,1.344,0,0,1,0-2.687H50.037l-3.85-4.62c-4.6-5.521-12.1-8.817-20.052-8.817H23.344a1.344,1.344,0,0,1,0-2.687h2.791c8.743,0,17.012,3.658,22.117,9.784l5.687,6.824a1.343,1.343,0,0,1-1.032,2.2Z" transform="translate(-22 -110.828)"/>
    </g>
    <g id="Grupo_81276" data-name="Grupo 81276" transform="translate(46.188 84.791)">
      <ellipse id="Elipse_4807" data-name="Elipse 4807" cx="9" cy="9.5" rx="9" ry="9.5" transform="translate(1.813 1.456)" fill="#6b4f5b"/>
      <path id="Trazado_116414" data-name="Trazado 116414" d="M104.75,208.328a10.75,10.75,0,1,1,10.75-10.75A10.762,10.762,0,0,1,104.75,208.328Zm0-18.812a8.063,8.063,0,1,0,8.063,8.063A8.071,8.071,0,0,0,104.75,189.516Z" transform="translate(-94 -186.828)"/>
    </g>
    <g id="Grupo_81277" data-name="Grupo 81277" transform="translate(50.219 88.822)">
      <ellipse id="Elipse_4808" data-name="Elipse 4808" cx="5" cy="5.5" rx="5" ry="5.5" transform="translate(1.781 1.425)" fill="#ccc"/>
      <path id="Trazado_116415" data-name="Trazado 116415" d="M112.719,212.266a6.719,6.719,0,1,1,6.719-6.719A6.727,6.727,0,0,1,112.719,212.266Zm0-10.75a4.031,4.031,0,1,0,4.031,4.031A4.036,4.036,0,0,0,112.719,201.516Z" transform="translate(-106 -198.828)"/>
    </g>
    <path id="Trazado_116416" data-name="Trazado 116416" d="M87.4,152.2a1.336,1.336,0,0,1-.425-.07l-8.062-2.687a1.344,1.344,0,0,1,.851-2.55l8.063,2.688A1.344,1.344,0,0,1,87.4,152.2Z" transform="translate(-37.186 -75.471)"/>
    <path id="Trazado_116417" data-name="Trazado 116417" d="M75.344,146.889a1.343,1.343,0,0,1-1.305-1.67l1.344-5.375a1.344,1.344,0,0,1,2.608.652l-1.344,5.375A1.345,1.345,0,0,1,75.344,146.889Z" transform="translate(-34.53 -70.161)"/>
    <g id="Grupo_81278" data-name="Grupo 81278" transform="translate(66.344 79.416)">
      <path id="Trazado_116418" data-name="Trazado 116418" d="M166.063,178.859h-5.277A2.785,2.785,0,0,1,158,176.074v-1.246h5.375a2.688,2.688,0,0,1,2.688,2.688Z" transform="translate(-156.656 -173.484)" fill="#ffce56"/>
      <path id="Trazado_116419" data-name="Trazado 116419" d="M163.406,177.547h-5.277A4.134,4.134,0,0,1,154,173.418v-1.246a1.344,1.344,0,0,1,1.344-1.344h5.375a4.036,4.036,0,0,1,4.031,4.031V176.2A1.344,1.344,0,0,1,163.406,177.547Zm-6.715-4.031a1.444,1.444,0,0,0,1.438,1.344h3.933a1.346,1.346,0,0,0-1.344-1.344Z" transform="translate(-154 -170.828)"/>
    </g>
    <path id="Trazado_116420" data-name="Trazado 116420" d="M83.384,179.733h-.06a1.344,1.344,0,0,1-1.284-1.4A13.688,13.688,0,0,1,90.089,166v-5.832a1.344,1.344,0,0,1,2.688,0v6.719a1.344,1.344,0,0,1-.852,1.251,11.122,11.122,0,0,0-7.2,10.306,1.344,1.344,0,0,1-1.341,1.285Z" transform="translate(-39.87 -83.444)"/>
    <path id="Trazado_116421" data-name="Trazado 116421" d="M38.031,173.516H35.344a1.344,1.344,0,0,1,0-2.687h2.688a1.344,1.344,0,0,1,0,2.688Z" transform="translate(-7.969 -91.412)"/>
    <g id="Grupo_81279" data-name="Grupo 81279" transform="translate(78.438 71.354)">
      <path id="Trazado_116422" data-name="Trazado 116422" d="M219.531,150.828H200.218A6.135,6.135,0,0,0,194,156.877v11.872a2.267,2.267,0,0,0,2.3,2.235h23.234" transform="translate(-192.656 -149.484)" fill="#ffce56"/>
      <path id="Trazado_116423" data-name="Trazado 116423" d="M216.875,169.672H193.642A3.615,3.615,0,0,1,190,166.093V154.221a7.487,7.487,0,0,1,7.562-7.393h19.313a1.344,1.344,0,0,1,0,2.688H197.562a4.8,4.8,0,0,0-4.874,4.705v11.872a.925.925,0,0,0,.954.892h23.233a1.344,1.344,0,0,1,0,2.688Z" transform="translate(-190 -146.828)"/>
    </g>
    <g id="Grupo_81280" data-name="Grupo 81280" transform="translate(78.438 91.51)">
      <path id="Trazado_116424" data-name="Trazado 116424" d="M218.188,218.891H198.031L194,210.828h25.531Z" transform="translate(-192.656 -209.484)" fill="#6b4f5b"/>
      <path id="Trazado_116425" data-name="Trazado 116425" d="M215.532,217.578H195.375a1.343,1.343,0,0,1-1.2-.743l-4.031-8.062a1.344,1.344,0,0,1,1.2-1.945h25.531a1.343,1.343,0,0,1,1.326,1.565l-1.344,8.063A1.344,1.344,0,0,1,215.532,217.578Zm-19.325-2.687h18.187l.9-5.375h-21.77Z" transform="translate(-190 -206.828)"/>
    </g>
    <g id="Grupo_81281" data-name="Grupo 81281" transform="translate(86.5 84.791)">
      <circle id="Elipse_4809" data-name="Elipse 4809" cx="9.5" cy="9.5" r="9.5" transform="translate(1.5 1.456)" fill="#6b4f5b"/>
      <path id="Trazado_116426" data-name="Trazado 116426" d="M224.75,208.328a10.75,10.75,0,1,1,10.75-10.75A10.762,10.762,0,0,1,224.75,208.328Zm0-18.812a8.063,8.063,0,1,0,8.063,8.063A8.071,8.071,0,0,0,224.75,189.516Z" transform="translate(-214 -186.828)"/>
    </g>
    <g id="Grupo_81282" data-name="Grupo 81282" transform="translate(90.531 88.822)">
      <circle id="Elipse_4810" data-name="Elipse 4810" cx="5.5" cy="5.5" r="5.5" transform="translate(1.469 1.425)" fill="#ccc"/>
      <path id="Trazado_116427" data-name="Trazado 116427" d="M232.719,212.266a6.719,6.719,0,1,1,6.719-6.719A6.727,6.727,0,0,1,232.719,212.266Zm0-10.75a4.031,4.031,0,1,0,4.031,4.031A4.036,4.036,0,0,0,232.719,201.516Z" transform="translate(-226 -198.828)"/>
    </g>
    <path id="Trazado_116428" data-name="Trazado 116428" d="M109.219,253.547h-64.5A6.719,6.719,0,0,1,38,246.828h77.938A6.719,6.719,0,0,1,109.219,253.547Z" transform="translate(-10.625 -141.881)" fill="#b5a19c"/>
    <path id="Trazado_116429" data-name="Trazado 116429" d="M113.281,245.516H35.344a1.344,1.344,0,0,1,0-2.687h77.938a1.344,1.344,0,0,1,0,2.688Z" transform="translate(-7.969 -139.224)"/>
    <g id="Grupo_81283" data-name="Grupo 81283" transform="translate(78.438 78.072)">
      <path id="Trazado_116430" data-name="Trazado 116430" d="M194,170.828h4.031V176.2H194Z" transform="translate(-192.656 -169.484)" fill="#e66353"/>
      <path id="Trazado_116431" data-name="Trazado 116431" d="M195.375,174.891h-4.031A1.344,1.344,0,0,1,190,173.547v-5.375a1.344,1.344,0,0,1,1.344-1.344h4.031a1.344,1.344,0,0,1,1.344,1.344v5.375A1.344,1.344,0,0,1,195.375,174.891Zm-2.687-2.687h1.344v-2.687h-1.344Z" transform="translate(-190 -166.828)"/>
    </g>
    <g id="Grupo_81284" data-name="Grupo 81284" transform="translate(61.055 53.208)">
      <path id="Trazado_116432" data-name="Trazado 116432" d="M154.807,115.152l-12.551-8.434,5.03-1.895-1.947-5.17,5.071,2.026,2.474-4.868Z" transform="translate(-140.913 -95.468)" fill="#e66353"/>
      <path id="Trazado_116433" data-name="Trazado 116433" d="M152.151,113.841a1.339,1.339,0,0,1-.749-.228l-12.551-8.434a1.344,1.344,0,0,1,.275-2.373l3.773-1.421-1.474-3.912a1.344,1.344,0,0,1,1.756-1.722l3.931,1.57,1.917-3.773a1.344,1.344,0,0,1,2.535.469l1.924,18.342a1.342,1.342,0,0,1-1.336,1.484Zm-9.638-9.44,8,5.378-1.15-10.961-.413.814a1.344,1.344,0,0,1-1.7.639l-2.241-.895.873,2.318a1.345,1.345,0,0,1-.784,1.732Z" transform="translate(-138.257 -92.813)"/>
    </g>
    <g id="Grupo_81285" data-name="Grupo 81285" transform="translate(76.98 52.832)">
      <path id="Trazado_116434" data-name="Trazado 116434" d="M189.662,108.167,191.133,95.7l3.38,4.179,3.134-2.535.445,4.824,4.625,1.445Z" transform="translate(-188.318 -94.351)" fill="#e66353"/>
      <path id="Trazado_116435" data-name="Trazado 116435" d="M187.005,106.854a1.344,1.344,0,0,1-1.335-1.5l1.471-12.472a1.344,1.344,0,0,1,2.379-.688l2.535,3.134,2.089-1.689a1.343,1.343,0,0,1,2.183.921l.363,3.932,3.77,1.177a1.343,1.343,0,0,1,.043,2.551l-13.056,4.559a1.337,1.337,0,0,1-.443.076Zm2.432-10.491-.846,7.17,7.189-2.51-.745-.233a1.343,1.343,0,0,1-.938-1.159l-.215-2.325-1.183.956a1.343,1.343,0,0,1-1.89-.2Z" transform="translate(-185.661 -91.694)"/>
    </g>
  </g>
</svg>
