<svg xmlns="http://www.w3.org/2000/svg" width="400" height="526" viewBox="0 0 400 526">
  <g id="Grupo_81267" data-name="Grupo 81267" transform="translate(-1020 -789)">
    <rect id="Rectángulo_33976" data-name="Rectángulo 33976" width="400" height="139" transform="translate(1020 1176)" fill="#f88f05"/>
    <g id="Grupo_80645" data-name="Grupo 80645" transform="translate(-780.973 666.238)">
      <g id="Grupo_80627" data-name="Grupo 80627" transform="translate(1990.973 327.064)">
        <g id="Grupo_80626" data-name="Grupo 80626">
          <g id="Grupo_80625" data-name="Grupo 80625" transform="translate(0 313.827)">
            <g id="Grupo_80624" data-name="Grupo 80624">
              <path id="Trazado_114199" data-name="Trazado 114199" d="M2154.1,750.116c0-4.846-40.9-4.716-89.6-4.716s-74.115-.315-73.521,4.019c.375,2.734,26.146,3.377,74.84,3.377S2154.1,753.2,2154.1,750.116Z" transform="translate(-1990.973 -745.395)" fill="#817892"/>
            </g>
          </g>
          <path id="Trazado_114200" data-name="Trazado 114200" d="M2128.409,646.624c0,.6,4.816,34.121,6.019,42.5s1.2,21.55,1.2,21.55l22.272-1.8s-3.612-40.706-3.612-58.665S2128.409,646.624,2128.409,646.624Z" transform="translate(-2014.04 -414.077)" fill="#eee3d9"/>
          <path id="Trazado_114201" data-name="Trazado 114201" d="M2065.791,669.764c0,.6-1.806,17.36-1.806,25.142a76.561,76.561,0,0,0,2.408,16.761l-34.913,1.2s7.826-11.374,9.03-16.163-1.2-38.91-1.2-38.91Z" transform="translate(-1997.772 -416.864)" fill="#eee3d9"/>
          <path id="Trazado_114202" data-name="Trazado 114202" d="M2149.9,651.361l-39.993.325s-7.382-78.842-11.169-104.147c-1.847-12.323-4.729-30.383-7.384-46.789-.991-6.094-1.946-11.961-2.8-17.216-.751-4.581-1.429-8.7-2-12.107-.671-4.1-1.182-7.184-1.453-8.8-.135-.839-.21-1.287-.21-1.287s-.011.074-.042.221c-.117.661-.493,2.768-1.029,5.8-.671,3.828-1.589,9.137-2.544,14.863-1,6.032-2.032,12.524-2.845,18.238-.622,4.361-1.115,8.261-1.367,11.158-1.083,12.4-3.641,38.682-5.5,57.845-.209,2.119-5.934,80.54-5.934,80.54s-38.012.223-38.695-.916c-.148-.245,2.878-93.987,5.607-150,.412-8.592.831-17.129,1.243-25.452.573-11.575,1.134-22.745,1.657-33.089.086-1.782.179-3.533.265-5.254.012-.208.018-.41.031-.612q.2-4.006.394-7.815c.049-.961.1-1.916.147-2.853q.148-2.995.3-5.837c.013-.2.018-.392.031-.582.037-.833.08-1.648.123-2.45.031-.643.067-1.28.1-1.9.123-2.37.234-4.648.351-6.81.018-.49.043-.974.068-1.451q.029-.533.056-1.048c.123-2.376.234-4.605.339-6.676.025-.4.043-.8.067-1.182.3-5.83.523-10.289.666-13.027.111-2.033.166-3.123.166-3.123l.351-.569,1.539-2.5.838-1.372.486-.784.314-.508,1.558-2.536,1.54-2.5s3.418-.257,8.88-.5c10.993-.478,30.28-.87,46.63,1.12,2.236.27,4.422.588,6.516.956,6.429,1.12,12.064,2.719,16.1,4.961a16.781,16.781,0,0,1,3.732,2.713,8.911,8.911,0,0,1,2.414,3.914c.073.269.154.582.234.93.185.82.382,1.868.585,3.124.147.912.3,1.929.455,3.05.474,3.349.979,7.624,1.521,12.659.087.8.172,1.616.259,2.456q.379,3.7.789,7.87.257,2.672.522,5.511c.179,1.972.37,4.005.554,6.094.1,1.065.191,2.149.29,3.245q.35,3.9.7,8.035.221,2.59.444,5.254c1.336,15.929,2.74,33.873,4.113,52.277,4.465,59.821,8.671,124.554,9.736,141.089C2149.807,636.524,2149.9,651.361,2149.9,651.361Z" transform="translate(-1997.008 -368.271)" fill="#464c7b"/>
          <path id="Trazado_114203" data-name="Trazado 114203" d="M2063.78,740.59a5.935,5.935,0,0,1-.6,2.395c-.6,1.2-12.64,1.2-13.845.6s-1.2-2.993-2.407-3.592-7.223,3.592-13.243,4.19-26.786,1.5-36.718,0c-1.884-.281-3.01-2.394-2.408-5.986a7.256,7.256,0,0,1,.192-.845c.879-3,3.611-4.394,9.138-6.04,2.217-.662,4.43-1.344,6.578-2.212a69.11,69.11,0,0,0,6.608-3.55c2.173-1.158,3.871-3.557,5.412-5.445,1.773-2.173,3.432-4.434,5.141-6.655,1.452-1.887,3.131-3.925,5.579-4.475,3.029-.682,5.64,1.566,7.923,3.244a50.663,50.663,0,0,0,5.124,3.619,7.963,7.963,0,0,0,4.27,1.2,7,7,0,0,0,4.337-2.123c1.171-1.14,2.645-4.727,4.313-2.362a13.611,13.611,0,0,1,1.693,4.44A91.822,91.822,0,0,1,2063,730.569C2063.557,736.059,2063.78,740.59,2063.78,740.59Z" transform="translate(-1991.547 -425.434)" fill="#3f414c"/>
          <path id="Trazado_114204" data-name="Trazado 114204" d="M2063.78,744.964a5.935,5.935,0,0,1-.6,2.395c-.6,1.2-14.446,1.2-15.651.6s-.6-2.395-1.806-2.993-6.019,2.993-12.039,3.592-26.786,1.5-36.718,0c-1.884-.281-3.01-2.394-2.408-5.986a7.256,7.256,0,0,1,.192-.845c3.178.354,20.857,2.174,29.6.545,9.631-1.8,18.36-3.891,28.292-6.585,3.506-.951,7.5-.772,10.353-.742C2063.557,740.433,2063.78,744.964,2063.78,744.964Z" transform="translate(-1991.547 -429.808)"/>
          <path id="Trazado_114205" data-name="Trazado 114205" d="M2163.766,743.829c-3.69,1.108-31.77,4.22-35.34-.275-.879-1.1-.951-4.549-.343-7.764.463-2.412,1.306-4.7,2.492-5.764,4.1-3.688,1.324-18.833,5.537-20.03,0,0,12.9-3.166,18.432-.407s4.3,13.253,7.374,18.228a27.856,27.856,0,0,1,3.076,7.627C2165.975,739.423,2165.945,743.177,2163.766,743.829Z" transform="translate(-2013.919 -425.368)" fill="#3f414c"/>
          <path id="Trazado_114206" data-name="Trazado 114206" d="M2163.766,749.271c-3.69,1.108-31.77,4.22-35.34-.275-.879-1.1-.951-4.549-.343-7.764a134.445,134.445,0,0,0,36.911-.347C2165.975,744.865,2165.945,748.619,2163.766,749.271Z" transform="translate(-2013.919 -430.811)"/>
          <path id="Trazado_114207" data-name="Trazado 114207" d="M2151.667,728.713c-6.763-1.173-12.693.194-19.138,2.569-1.292.475-1.531,1.737-.213,1.265a36,36,0,0,1,18.731-1.6C2152.517,731.214,2153.142,728.969,2151.667,728.713Z" transform="translate(-2014.548 -428.696)"/>
          <path id="Trazado_114208" data-name="Trazado 114208" d="M2096.72,482.865q-4.607-19.416-9.228-38.83c-.331-1.388-2.476-.8-2.149.589q4.551,19.433,9.11,38.863C2094.8,484.952,2097.068,484.332,2096.72,482.865Z" transform="translate(-2006.806 -380.854)" fill="#2c335b"/>
          <path id="Trazado_114209" data-name="Trazado 114209" d="M2077.764,477.89q-4.538,31.189-8.211,62.492-3.713,31.667-6.553,63.428c-1.063,11.914-2.635,35.809-3.515,47.739-.057.766,1.143.762,1.2,0,1.55-21,3.981-53.951,6.1-74.9s4.515-41.873,7.2-62.759q2.3-17.87,4.854-35.7C2078.934,477.489,2077.866,477.188,2077.764,477.89Z" transform="translate(-2002.472 -386.602)" fill="#2c335b"/>
          <path id="Trazado_114210" data-name="Trazado 114210" d="M2140.111,428.713c-4.622-4.474-9.04-8.693-12.609-14.1-.781-1.182-2.7-.084-1.917,1.113,3.544,5.436,7.9,10.863,13.319,14.543C2139.846,430.911,2140.912,429.489,2140.111,428.713Z" transform="translate(-2013.535 -375.964)" fill="#2c335b"/>
          <path id="Trazado_114211" data-name="Trazado 114211" d="M2083.206,429.535a57.883,57.883,0,0,1-1.86-9.15c-.539-2.86-1-5.735-1.286-8.67a122.212,122.212,0,0,1-.369-17.707c.067-1.37-2.051-1.357-2.135,0a114.825,114.825,0,0,0,1.237,26.687c-3.531-2.515-6.371-5.461-7.148-10.161-.962-5.818-.263-11.835.1-17.675.086-1.386-2.007-1.342-2.145,0-.675,6.6-1.677,14.243.354,20.7,1.5,4.778,5.421,7.8,9.476,10.418.486,2.234,1.064,4.435,1.746,6.587a1.1,1.1,0,0,0,2.122-.582C2083.269,429.834,2083.237,429.685,2083.206,429.535Z" transform="translate(-2004.027 -372.226)" fill="#2c335b"/>
        </g>
      </g>
      <g id="Grupo_80644" data-name="Grupo 80644" transform="translate(1998.761 122.762)">
        <path id="Trazado_114212" data-name="Trazado 114212" d="M2071.533,220.538c5.467-6.058,31.967-6,32.979-5.764s2.288,2.021,2.977,4.976,1.232,10.909-3.25,15.5-9.7,20.257-10.64,20.4-7.476-4.876-10.387-9.555-12.861-14.088-13.7-15.072S2071.533,220.538,2071.533,220.538Z" transform="translate(-2011.917 -138.192)" fill="#464c7b"/>
        <path id="Trazado_114213" data-name="Trazado 114213" d="M2068.982,201.947c2.623,12.634,2.623,12.184,2.623,17.47a31.721,31.721,0,0,0,2.967,12.674c1.1,2.29,6.281,24.529,12.7,25.859s13.594-19.727,15.526-25.194-1.242-20.909-1.518-23.347-31.951-7.462-31.951-7.462Z" transform="translate(-2011.854 -136.052)" fill="#e8936b"/>
        <path id="Trazado_114214" data-name="Trazado 114214" d="M2101.5,209.435c-.25-2.207-26.211-6.53-31.144-7.332-.75,9.96,9.643,18.114,17.917,19.966a16.34,16.34,0,0,0,14.69-3.083C2102.388,214.529,2101.631,210.57,2101.5,209.435Z" transform="translate(-2012.079 -136.079)" fill="#1a1a1a"/>
        <path id="Trazado_114215" data-name="Trazado 114215" d="M2060.8,220.553c-3.841,4.335-7.518,9.317-8.537,9.584s-26.532,15.93-28.9,18.294-17.338,35.957-17.929,39.306,20,15.762,22.657,17.043a48.161,48.161,0,0,1,5.621,3.354s-5.961,44.9-3.1,51.792,10.782,5.833,10.782,5.833,14.875,3.645,42.557.887,40.685-9.457,42.261-12.019-4.335-27.189-1.182-31.129-1.182-25.021-1.182-25.021,31.425-17.437,31.818-18.028-12.313-28.372-18.076-34.922-27.781-17.781-33.691-20.44-5.689-5.837-7.093-8.128-3.026-2.169-3.026-2.169,1.2.469,1.854,4.607-1.561,9.9-5.625,16.624a181.611,181.611,0,0,0-8.521,16.845s-1.01-4.951-7.142-11.009-6.428-7.167-10.122-11.822A15.249,15.249,0,0,1,2060.8,220.553Z" transform="translate(-2001.187 -138.208)" fill="#dae0e8"/>
        <path id="Trazado_114216" data-name="Trazado 114216" d="M2016.622,283.231c-.4-11.091,2.659-21.081,8.078-19.751s5.63,9.655,1.133,14.432C2020.365,283.72,2016.681,284.86,2016.622,283.231Z" transform="translate(-2003.06 -146.36)" fill="#ffba4a"/>
        <path id="Trazado_114217" data-name="Trazado 114217" d="M2173.863,277.13c.4-11.091-2.659-21.081-8.078-19.751s-5.631,9.655-1.134,14.432C2170.119,277.619,2173.8,278.759,2173.863,277.13Z" transform="translate(-2027.379 -145.336)" fill="#ffba4a"/>
        <path id="Trazado_114218" data-name="Trazado 114218" d="M2126.177,250.855l-.923-.464c-.126-.063-12.748-6.393-17.986-8.527a.578.578,0,1,1,.438-1.071c4.434,1.807,14.078,6.575,17.126,8.094a70.963,70.963,0,0,0-2.907-13.775c-2.281-6.712-2.81-7.752-2.831-7.793a.581.581,0,0,1,.236-.781.574.574,0,0,1,.779.226,80.482,80.482,0,0,1,2.912,7.975,73.69,73.69,0,0,1,3.07,15.087Z" transform="translate(-2018.22 -140.168)" fill="#92a9bb"/>
        <path id="Trazado_114219" data-name="Trazado 114219" d="M2066.437,254.459l-5.674-19.29a.579.579,0,0,1,1.111-.326l5.163,17.553c1.87-1.641,7.222-6.35,11.428-10.159a.579.579,0,1,1,.777.858c-5.164,4.678-12.055,10.708-12.124,10.769Z" transform="translate(-2010.471 -141.504)" fill="#92a9bb"/>
        <path id="Trazado_114220" data-name="Trazado 114220" d="M2096.405,366.611a.578.578,0,0,1-.577-.558c-.032-.888-3.124-89.009-.439-105.717a.579.579,0,0,1,1.143.184c-2.667,16.6.42,104.6.452,105.492a.578.578,0,0,1-.558.6Z" transform="translate(-2016.102 -145.771)" fill="#92a9bb"/>
        <path id="Trazado_114221" data-name="Trazado 114221" d="M2146.2,308.631h-.021a.578.578,0,0,1-.558-.6c.878-24.854,2.353-38.472,2.368-38.606a.579.579,0,0,1,1.151.126c-.015.134-1.486,13.715-2.362,38.521A.579.579,0,0,1,2146.2,308.631Z" transform="translate(-2024.716 -147.291)" fill="#92a9bb"/>
        <path id="Trazado_114222" data-name="Trazado 114222" d="M2152.234,260.976a.579.579,0,0,1-.524-.825c3.975-8.467,6.193-11.171,6.285-11.281a.579.579,0,0,1,.89.74c-.021.027-2.233,2.739-6.127,11.033A.58.58,0,0,1,2152.234,260.976Z" transform="translate(-2025.73 -143.893)" fill="#92a9bb"/>
        <path id="Trazado_114223" data-name="Trazado 114223" d="M2040.024,270.893a.579.579,0,0,1-.512-.309,65.733,65.733,0,0,0-11.094-14.227.579.579,0,0,1,.812-.826,66.913,66.913,0,0,1,11.306,14.513.578.578,0,0,1-.511.849Z" transform="translate(-2005.017 -145.018)" fill="#92a9bb"/>
        <path id="Trazado_114224" data-name="Trazado 114224" d="M2034.329,255.864a.579.579,0,0,1-.312-1.067c.093-.059,9.349-5.964,13.865-9.194a.579.579,0,0,1,.673.942c-4.54,3.246-13.822,9.168-13.915,9.228A.574.574,0,0,1,2034.329,255.864Z" transform="translate(-2005.94 -143.362)" fill="#92a9bb"/>
        <path id="Trazado_114225" data-name="Trazado 114225" d="M2006.063,302.655c6.666,1.893,8.207,2.887,13.3,5.541s14.155,12.5,14.746,13.49.2,2.463-11.723-3.94S2003.213,301.846,2006.063,302.655Z" transform="translate(-2001.19 -152.947)" fill="#464c7b"/>
        <path id="Trazado_114226" data-name="Trazado 114226" d="M2055.917,318.059c-2.367,0-10.734-2.2-12.519-2.675l-.284-.076.919-15.038.245-.07c10.68-3.063,28.381-3.189,28.558-3.19l.365,0-.181,16.733-.27.067c-.151.037-15.138,3.75-16.346,4.193A1.536,1.536,0,0,1,2055.917,318.059Zm-12.049-3.294c4.74,1.257,11.515,2.845,12.289,2.561,1.168-.428,14.046-3.627,16.151-4.148l.166-15.445c-2.564.036-18,.36-27.754,3.089Z" transform="translate(-2007.512 -152.008)" fill="#92a9bb"/>
        <path id="Trazado_114227" data-name="Trazado 114227" d="M2054.389,342.728l-10.7-5.027.488-18.173a.359.359,0,1,1,.718.02l-.474,17.7L2054.524,342l12.549-.923,5.713-6.845-.611-15.1a.36.36,0,0,1,.344-.374.375.375,0,0,1,.374.345l.622,15.374-6.086,7.293Z" transform="translate(-2007.608 -155.658)" fill="#92a9bb"/>
        <path id="Trazado_114228" data-name="Trazado 114228" d="M2052.938,300.757c4.82-.592,10.217-1.6,10.8-1.536s.538,3.146-.117,3.686-10.737.931-11.04.989S2052.242,300.842,2052.938,300.757Z" transform="translate(-2009.067 -152.378)" fill="#ffba4a"/>
        <path id="Trazado_114229" data-name="Trazado 114229" d="M2152.406,251.057a.58.58,0,0,1-.4-.161c-.071-.068-7.279-6.884-23.079-13.551a.579.579,0,0,1,.45-1.067c16.021,6.761,23.136,13.5,23.431,13.783a.579.579,0,0,1-.4,1Z" transform="translate(-2021.856 -141.807)" fill="#92a9bb"/>
        <g id="Grupo_80629" data-name="Grupo 80629" transform="translate(0 145.984)">
          <path id="Trazado_114230" data-name="Trazado 114230" d="M2158.057,298.19c.69,18.618-1.773,31.818-.886,36.744s.689,12.264-3.152,17.412-11.822,8.3-20,9.284-27.806,1.625-29.073,1.971-9.051,7.683-13.779,8.866-9.161-3.842-9.161-3.842-7.487-.2-8.571-1.133-1.773-1.626-1.773-1.626-5.123,2.168-7.438,1.626-.442-3.3,0-3.891,13.152-11.559,16.895-13.513,8.374-4.286,11.625-3.859,9.753,2.3,13.4,2.348,11.723-.837,16.648-3.695,11.92-8.784,11.92-9.465-1.379-22.944-1.379-23.437S2158.057,298.19,2158.057,298.19Z" transform="translate(-2010.865 -298.19)" fill="#ea9267"/>
          <path id="Trazado_114231" data-name="Trazado 114231" d="M2091.722,366.41a.685.685,0,0,1-.284-1.309l5.714-2.593a.684.684,0,1,1,.566,1.247L2092,366.348A.678.678,0,0,1,2091.722,366.41Z" transform="translate(-2015.556 -308.975)" fill="#df8157"/>
          <path id="Trazado_114232" data-name="Trazado 114232" d="M2045.454,374.293l1.034,4.211h7.315l31.917-10.984L2084.1,363.8l-19.875,4.211Z" transform="translate(-2007.905 -309.202)" fill="#fff"/>
          <g id="Grupo_80628" data-name="Grupo 80628" transform="translate(0 5.892)">
            <rect id="Rectángulo_34003" data-name="Rectángulo 34003" width="2.314" height="40.271" transform="matrix(0.692, -0.722, 0.722, 0.692, 32.118, 25.383)" fill="#2c335b"/>
            <path id="Trazado_114233" data-name="Trazado 114233" d="M2011.966,305.395c-10,17.7-12.6,26.787-11.341,35.136,2.065,13.724,8.294,15.293,16.568,17.953s16.919,3.547,17.807,4.286.443,2.364,3.915,2.734,18.767-5.024,19.432-6.723-1.257-3.251-1.257-3.251a3.415,3.415,0,0,0,.739-1.995c.148-1.4-.3-1.847-.3-1.847a4.667,4.667,0,0,0,0-1.773c-.221-.369,1.478-3.25,1.625-5.172s-.221-3.1-4.063-2.807-5.246,1.995-5.246,1.995-5.614-4.286-9.087-4.063-4.8.073-5.689,1.995a6.566,6.566,0,0,0-.444,3.842,16.716,16.716,0,0,1-5.541-3.842,39.533,39.533,0,0,1-4.892-6.456s7.429-11.054,9.054-13.271S2012.926,303.7,2011.966,305.395Z" transform="translate(-2000.332 -305.27)" fill="#ea9267"/>
            <path id="Trazado_114234" data-name="Trazado 114234" d="M2058.569,357.213a52.148,52.148,0,0,1-14.622-2.4.685.685,0,0,1,.429-1.3,51.651,51.651,0,0,0,14.193,2.33.685.685,0,0,1,0,1.37Z" transform="translate(-2007.573 -313.362)" fill="#df8157"/>
            <path id="Trazado_114235" data-name="Trazado 114235" d="M2066.409,359.546a6.124,6.124,0,0,1-1.9-.364c-2.535-.845-3.964-2.9-5.462-7.839a.685.685,0,0,1,1.311-.4c1.532,5.058,2.793,6.34,4.585,6.938,1.356.453,1.839.254,1.915.214a.685.685,0,0,1,1.116.788A1.677,1.677,0,0,1,2066.409,359.546Zm.388-1.366h0Zm0,0h0Zm0,0Z" transform="translate(-2010.181 -312.855)" fill="#df8157"/>
            <path id="Trazado_114236" data-name="Trazado 114236" d="M2057.512,366.409c-2.085,0-4.213-.544-12.017-2.616a.685.685,0,1,1,.352-1.323c8.2,2.176,10,2.628,12.065,2.563a42.765,42.765,0,0,0,6.495-1.267.685.685,0,0,1,.357,1.323,43.088,43.088,0,0,1-6.8,1.312Q2057.735,366.409,2057.512,366.409Z" transform="translate(-2007.827 -314.867)" fill="#df8157"/>
            <path id="Trazado_114237" data-name="Trazado 114237" d="M2028.08,341.52a.681.681,0,0,1-.469-.186,65.547,65.547,0,0,0-8.763-7.013.685.685,0,1,1,.73-1.158,65.506,65.506,0,0,1,8.97,7.172.685.685,0,0,1-.469,1.184Z" transform="translate(-2003.386 -309.934)" fill="#df8157"/>
            <path id="Trazado_114238" data-name="Trazado 114238" d="M2042.147,374.311a.685.685,0,0,1-.643-.45,23.466,23.466,0,0,1-.867-2.963l-.028-.148a9.329,9.329,0,0,0-1.387-3.823c-1.088-1.555-1.132-1.761-.8-3.669l.042-.241a1.84,1.84,0,0,0-.4-1.425,2.886,2.886,0,0,1-.125-3.31.685.685,0,0,1,1.21.643,1.553,1.553,0,0,0,.085,1.956,3.141,3.141,0,0,1,.576,2.372l-.042.244c-.259,1.462-.259,1.462.568,2.645a10.622,10.622,0,0,1,1.611,4.353l.028.147a22.325,22.325,0,0,0,.808,2.749.685.685,0,0,1-.408.878A.671.671,0,0,1,2042.147,374.311Z" transform="translate(-2006.568 -314.107)" fill="#df8157"/>
            <path id="Trazado_114239" data-name="Trazado 114239" d="M2051,371.3a.684.684,0,0,1-.035-1.368c4.142-.215,10.834-2.431,10.9-2.453a.685.685,0,1,1,.433,1.3c-.281.094-6.934,2.3-11.263,2.521Z" transform="translate(-2008.721 -315.706)" fill="#df8157"/>
          </g>
          <path id="Trazado_114240" data-name="Trazado 114240" d="M2074.674,378.738a.685.685,0,0,1-.078-1.366c12.56-1.46,20.7-2.452,20.781-2.462a.684.684,0,0,1,.166,1.359c-.081.01-8.225,1-20.789,2.464C2074.727,378.736,2074.7,378.738,2074.674,378.738Z" transform="translate(-2012.694 -311.066)" fill="#df8157"/>
          <path id="Trazado_114241" data-name="Trazado 114241" d="M2094.071,383.149a.473.473,0,0,1-.06,0l-13-1.133a.685.685,0,0,1,.119-1.364l13,1.133a.685.685,0,0,1-.059,1.367Z" transform="translate(-2013.767 -312.03)" fill="#df8157"/>
          <path id="Trazado_114242" data-name="Trazado 114242" d="M2111.728,376.987a.685.685,0,0,1-.335-1.282l6.8-3.8a.685.685,0,0,1,.67,1.2l-6.8,3.8A.689.689,0,0,1,2111.728,376.987Z" transform="translate(-2018.913 -310.547)" fill="#df8157"/>
          <path id="Trazado_114243" data-name="Trazado 114243" d="M2164.982,340.936a.687.687,0,0,1-.29-.064c-.06-.027-6.07-2.783-10.634-.5a.685.685,0,0,1-.613-1.225c5.164-2.581,11.558.359,11.828.485a.684.684,0,0,1-.291,1.3Z" transform="translate(-2025.967 -304.887)" fill="#df8157"/>
        </g>
        <g id="Grupo_80631" data-name="Grupo 80631" transform="translate(36.852 89.944)">
          <path id="Trazado_114244" data-name="Trazado 114244" d="M2044.624,235.366c2.932,11.728,4.038,18.322,4.728,19.308s14.284-4.137,14.186-4.63-4.729-18.421-5.418-19.111S2044.253,233.881,2044.624,235.366Z" transform="translate(-2044.617 -230.847)"/>
          <g id="Grupo_80630" data-name="Grupo 80630">
            <path id="Trazado_114245" data-name="Trazado 114245" d="M2061.541,242.558c-3.787,1.294-11.738,4.009-14.057,4.785.363,1.6.675,3,.946,4.2l14.217-4.848C2062.3,245.4,2061.926,243.982,2061.541,242.558Z" transform="translate(-2045.098 -232.812)" fill="#444" opacity="0.97"/>
            <path id="Trazado_114246" data-name="Trazado 114246" d="M2058.12,230.933c-.69-.69-13.867,2.948-13.5,4.433.025.1.047.192.072.292,2.406-1.172,5.374-2.407,8.6-1.672,1.136.26,2.728,1.257,5.911,3.251.4.251.775.492,1.134.726A51.071,51.071,0,0,0,2058.12,230.933Z" transform="translate(-2044.617 -230.847)" fill="#444" opacity="0.97"/>
            <path id="Trazado_114247" data-name="Trazado 114247" d="M2059.515,269.115a1.157,1.157,0,0,1-1.157-1.158V254.363a1.157,1.157,0,1,1,2.314,0v13.595A1.158,1.158,0,0,1,2059.515,269.115Z" transform="translate(-2046.923 -234.599)"/>
          </g>
        </g>
        <path id="Trazado_114248" data-name="Trazado 114248" d="M2039.772,320.081a.578.578,0,0,1-.578-.575,250.722,250.722,0,0,1,2.669-40,.579.579,0,1,1,1.14.2,249.551,249.551,0,0,0-2.651,39.794.578.578,0,0,1-.576.582Z" transform="translate(-2006.853 -148.989)" fill="#92a9bb"/>
        <g id="Grupo_80643" data-name="Grupo 80643" transform="translate(32.608)">
          <g id="Grupo_80641" data-name="Grupo 80641" transform="translate(11.283 11.73)">
            <g id="Grupo_80632" data-name="Grupo 80632">
              <path id="Trazado_114249" data-name="Trazado 114249" d="M2099.66,172.212c1.758-2.659,6.309-1.939,2.486-9.347-1.586-3.073,3.722-19.011-.716-22.76a14.067,14.067,0,0,0-5.014-2.867,8.169,8.169,0,0,0-5.687.272c-4.1,1.9-6,5.937-11.053,5.761-1.812-.062-3.687-.335-5.392.278-5.581,2.006-7.216,8.969-11.663,12.36-1.926,1.468-4.834,2.177-6.434,3.974a11.916,11.916,0,0,0-3.01,5.6c-.438,2.918.658,5.791,1.228,8.609a59.715,59.715,0,0,0,4.794,13.492c1.092,2.316,2.137,4.761,3.388,6.978.909,1.609,2.128,3.489,3.924,4.207a3.552,3.552,0,0,0,.875.231c6.831.836,22.8-12.423,22.8-12.423Z" transform="translate(-2053.075 -136.858)" fill="#261a1a"/>
            </g>
            <g id="Grupo_80640" data-name="Grupo 80640" transform="translate(4.894 28.248)">
              <g id="Grupo_80633" data-name="Grupo 80633">
                <path id="Trazado_114250" data-name="Trazado 114250" d="M2102.192,175.475l.022.093a64.882,64.882,0,0,1,.894,7.158c.352,3.3.626,6.607.767,9.921a68.617,68.617,0,0,1-.156,9.8c-.227,2.248-.545,4.832-1.848,6.75-2.472,3.64-10.24,4.975-14.006,4.993-11.6.054-17.02-6.825-20.8-15.257,0,0-10.047-2.7-7.781-11.662.686-2.713,2.654-4.141,5.406-3.393a10.691,10.691,0,0,1,2.686,1.2,4.665,4.665,0,0,1,1.736,2.155c.206.6.266,1.563,1.276,1.2a1.827,1.827,0,0,0,1.019-1.422c.516-2.488-1.385-5.183-.351-7.5.541-1.212,1.806-2.052,2.112-3.344.331-1.4-.528-3.069.348-4.207a2.976,2.976,0,0,1,1.884-.923,21.822,21.822,0,0,1,8.32.487,40.049,40.049,0,0,0,8.188.782,18.773,18.773,0,0,0,7.647-1.285,1.267,1.267,0,0,1,.906-.169,1.148,1.148,0,0,1,.581.7A22.243,22.243,0,0,1,2102.192,175.475Z" transform="translate(-2058.956 -170.804)" fill="#e8936b"/>
              </g>
              <g id="Grupo_80634" data-name="Grupo 80634" transform="translate(22.342 14.654)">
                <path id="Trazado_114251" data-name="Trazado 114251" d="M2088.37,188.743a1.307,1.307,0,0,0-1.128-.3c-.047,0-.092.009-.137.017a.26.26,0,0,0-.051,0c-.017,0-.028.012-.044.016-1.372.31-1.517,2.256-.717,3.233a1.162,1.162,0,0,0,.525.578,1.307,1.307,0,0,0,.791.1.269.269,0,0,0,.076.021,1.2,1.2,0,0,0,1.247-.967A2.157,2.157,0,0,0,2088.37,188.743Z" transform="translate(-2085.804 -188.414)" fill="#1a1a1a"/>
              </g>
              <g id="Grupo_80635" data-name="Grupo 80635" transform="translate(40.625 11.688)">
                <path id="Trazado_114252" data-name="Trazado 114252" d="M2110.542,185.359a1.655,1.655,0,0,0-2.43.043,1.33,1.33,0,0,0-.149.21,1.151,1.151,0,0,0-.173.816c0,.035.011.069.018.1,0,.01,0,.02.006.031a3.334,3.334,0,0,0,.667,1.417,1.509,1.509,0,0,0,2.387-.357A1.905,1.905,0,0,0,2110.542,185.359Z" transform="translate(-2107.775 -184.849)" fill="#1a1a1a"/>
              </g>
              <g id="Grupo_80636" data-name="Grupo 80636" transform="translate(33.392 23.253)">
                <path id="Trazado_114253" data-name="Trazado 114253" d="M2102.2,199.4a.9.9,0,0,0-1.1-.617l-1.371.4a.893.893,0,0,0,.487,1.718l1.37-.4A.908.908,0,0,0,2102.2,199.4Z" transform="translate(-2099.083 -198.747)" fill="#d4745c"/>
              </g>
              <g id="Grupo_80637" data-name="Grupo 80637" transform="translate(18.97 3)">
                <path id="Trazado_114254" data-name="Trazado 114254" d="M2088.9,174.5c-1.132.523-2.336.864-3.44,1.449-1.121.593-2.164,1.326-3.26,1.962-.99.573-.181,2.165.816,1.587,1.1-.636,2.138-1.373,3.26-1.962,1.106-.581,2.308-.926,3.439-1.449C2090.762,175.6,2089.947,174.017,2088.9,174.5Z" transform="translate(-2081.753 -174.409)" fill="#261a1a"/>
              </g>
              <g id="Grupo_80639" data-name="Grupo 80639" transform="translate(39.227 6.566)">
                <g id="Grupo_80638" data-name="Grupo 80638">
                  <path id="Trazado_114255" data-name="Trazado 114255" d="M2106.138,180.035a1.068,1.068,0,0,1,0-.611.964.964,0,0,1,.417-.632,1.55,1.55,0,0,1,1.084.014q.563.115,1.115.278a11.082,11.082,0,0,1,2.516,1.08.857.857,0,0,1,.3,1.173.843.843,0,0,1-1.174.3,10.044,10.044,0,0,0-2.824-1.088c-.352-.082-.716-.114-1.065-.2A.5.5,0,0,1,2106.138,180.035Z" transform="translate(-2106.095 -178.695)" fill="#261a1a"/>
                </g>
              </g>
            </g>
            <path id="Trazado_114256" data-name="Trazado 114256" d="M2099.7,207.893s-9.959.429-9.645,1.167c.5,1.176,3.893,2.092,5.157,1.9S2102.551,207.988,2099.7,207.893Z" transform="translate(-2059.28 -148.781)" fill="#fff"/>
            <path id="Trazado_114257" data-name="Trazado 114257" d="M2057,157.981a9.187,9.187,0,0,1,4.774-.112c-.133-.152-.265-.305-.41-.453-1.08-1.105.764-2.67,1.831-1.555a11.656,11.656,0,0,1,2.168,3.2,1.109,1.109,0,0,1-.391,1.429,1.181,1.181,0,0,1-1.676.508,7.509,7.509,0,0,0-5.908-.838C2056,160.535,2055.658,158.378,2057,157.981Z" transform="translate(-2053.592 -139.983)" fill="#261a1a"/>
          </g>
          <g id="Grupo_80642" data-name="Grupo 80642">
            <path id="Trazado_114258" data-name="Trazado 114258" d="M2102.277,148.039c7.128-3.437,7.257-6.019,5.645-11.045s-16.647-15.55-32.9-14.1-31.865,16.824-34.947,26.8,7.415,11.048,10.06,10.89c.689-.041-.75,2.554.565,2.175,3.727-1.074,13.07-4.117,24.018-6.342,14.81-3.01,28.152-4.261,28.152-4.261S2101.764,148.286,2102.277,148.039Z" transform="translate(-2039.516 -122.762)" fill="#464c7b"/>
            <path id="Trazado_114259" data-name="Trazado 114259" d="M2054.069,172.036c8.1,8.087,23.478,3.684,32.2,2.277a66.124,66.124,0,0,0,18.011-5.668c4.218-2.591,1.677-8.208,1.677-8.208s-18.742,1.76-28.332,3.071S2054.069,172.036,2054.069,172.036Z" transform="translate(-2041.958 -129.085)" fill="#2c335b"/>
            <path id="Trazado_114260" data-name="Trazado 114260" d="M2052.4,167.207a.7.7,0,0,1-.686-.561,12.92,12.92,0,0,1,1.856-10.2c3.5-5.145,11.1-8.783,22.59-10.809,14-2.471,24.215.425,26.572,2.525a10.035,10.035,0,0,1,2.394,4.274.7.7,0,0,1-1.353.363,8.767,8.767,0,0,0-1.973-3.591c-2.112-1.882-12.032-4.549-25.4-2.191-10.943,1.931-18.438,5.464-21.675,10.218a11.565,11.565,0,0,0-1.641,9.137.7.7,0,0,1-.547.826A.677.677,0,0,1,2052.4,167.207Z" transform="translate(-2041.51 -126.441)" fill="#2c335b"/>
            <path id="Trazado_114261" data-name="Trazado 114261" d="M2053.4,172.637a2.1,2.1,0,0,1-.935-3.985c12.388-6.14,29.951-9.779,53.692-11.125a2.1,2.1,0,0,1,.238,4.2c-23.163,1.314-40.193,4.812-52.063,10.7A2.1,2.1,0,0,1,2053.4,172.637Z" transform="translate(-2041.493 -128.596)" fill="#ffba4a"/>
            <circle id="Elipse_4734" data-name="Elipse 4734" cx="7.005" cy="7.005" r="7.005" transform="translate(29.168 14.659) rotate(-16.296)" fill="#2c335b"/>
            <path id="Trazado_114262" data-name="Trazado 114262" d="M2089.577,143.742a5.871,5.871,0,1,0-4.584,6.923A5.87,5.87,0,0,0,2089.577,143.742Z" transform="translate(-2045.967 -125.494)" fill="#ffba4a"/>
            <path id="Trazado_114263" data-name="Trazado 114263" d="M2084.01,150.011a4.914,4.914,0,1,1,.987-.1A4.87,4.87,0,0,1,2084.01,150.011Zm.018-8.409a3.568,3.568,0,0,0-.706.072,3.5,3.5,0,1,0,4.131,2.734h0a3.506,3.506,0,0,0-3.425-2.806Z" transform="translate(-2046.162 -125.689)" fill="#2c335b"/>
          </g>
        </g>
        <path id="Trazado_114264" data-name="Trazado 114264" d="M2130.022,310.7a1.4,1.4,0,0,1-.507-.067c-.309-.133-2.342-.5-4.493-.878-7.559-1.347-11.506-2.169-12.11-2.922-1.017-1.267-.8-5.643-.078-15.324l.027-.365,28.907,2.722-.833,14.5-.25.067C2138.568,309.005,2132.074,310.7,2130.022,310.7Zm-16.5-18.772c-.6,8.038-.918,13.375-.051,14.455.564.683,7.792,1.971,11.675,2.664a45.332,45.332,0,0,1,4.65.925c.616.227,5.75-.913,10.448-2.167l.763-13.289Z" transform="translate(-2019.111 -151.024)" fill="#92a9bb"/>
        <path id="Trazado_114265" data-name="Trazado 114265" d="M2133.593,341.206l-15-.751-.089-.068c-2.432-1.864-6.45-4.889-6.875-5.074-.451-.186-.546-.712.018-12.275.221-4.544.45-9.243.415-11.6a.359.359,0,1,1,.718-.011c.037,2.377-.192,7.088-.415,11.644-.234,4.8-.523,10.743-.329,11.645.994.582,5.636,4.125,6.817,5.029l14.527.727,5.893-4.292.8-24.76a.357.357,0,0,1,.371-.348.361.361,0,0,1,.348.371l-.812,25.111Z" transform="translate(-2018.949 -154.368)" fill="#92a9bb"/>
        <path id="Trazado_114266" data-name="Trazado 114266" d="M2129.836,270.7c-3.245,3.589-3.842,5.467-3.768,5.763s2.475,1.552,2.512,3.805-2.26,2.29-2.848,4.359,1.031,4.639,3.883,6.317c2.511,1.478,3.915,1.33,3.915,1.33s4.95-.48,7.2-3.509,1.182-4.618-.259-6.28-1.588-3.066-.517-3.915,1.921-1.331,1.847-1.958a27.421,27.421,0,0,0-3.362-5.874C2137.852,270.336,2130.111,270.4,2129.836,270.7Z" transform="translate(-2021.359 -147.551)" fill="#ffba4a"/>
      </g>
      <path id="Trazado_114267" data-name="Trazado 114267" d="M2067.765,401.407c-8.784,0-18.124-.408-28.166-1.208-1.238-.1-1-8.209,0-8.128,38.955,3.157,66.919.312,92.453-9.42.733-.28,2.1,7.879.538,8.446C2113.381,398.082,2092.854,401.407,2067.765,401.407Z" transform="translate(-8.02 -43.619)"/>
      <path id="Trazado_114268" data-name="Trazado 114268" d="M2044.5,404.608l-1.157,0c0-.076.01-1.97.809-10.3l1.152.111C2044.51,402.646,2044.5,404.588,2044.5,404.608Z" transform="translate(-8.789 -45.576)" fill="#464c7b"/>
      <path id="Trazado_114269" data-name="Trazado 114269" d="M2107.891,401.875a84.2,84.2,0,0,0-.856-8.4l1.136-.22a83.338,83.338,0,0,1,.876,8.562Z" transform="translate(-19.48 -45.399)" fill="#464c7b"/>
      <path id="Trazado_114270" data-name="Trazado 114270" d="M2148.946,392.593l-1.157-.031c0-.055.128-5.544-1.129-8.4l1.059-.466C2149.081,386.79,2148.952,392.357,2148.946,392.593Z" transform="translate(-26.131 -43.795)" fill="#464c7b"/>
      <rect id="Rectángulo_34004" data-name="Rectángulo 34004" width="21.352" height="10.713" transform="translate(2049.387 349.499)" fill="#3f414c"/>
    </g>
    <path id="Trazado_116312" data-name="Trazado 116312" d="M201.145,583.8H149.7l88.531-82.311a19.175,19.175,0,0,1,25.725,0,16.087,16.087,0,0,1,0,23.92Z" transform="translate(870.305 592.203)" fill="#535353"/>
    <path id="Trazado_116313" data-name="Trazado 116313" d="M330.292,632.948H181.614l131.332-122.1c20.527-19.087,53.81-19.087,74.339,0s20.527,50.03,0,69.117Z" transform="translate(912.32 543.052)" fill="#f88f05"/>
  </g>
</svg>
