<svg xmlns="http://www.w3.org/2000/svg" xmlns:xlink="http://www.w3.org/1999/xlink" width="70" height="70" viewBox="0 0 70 70">
  <defs>
    <clipPath id="clip-path">
      <rect id="Rectángulo_34073" data-name="Rectángulo 34073" width="70" height="70" transform="translate(840 10472)" fill="#fff" stroke="#707070" stroke-width="1"/>
    </clipPath>
  </defs>
  <g id="Enmascarar_grupo_95" data-name="Enmascarar grupo 95" transform="translate(-840 -10472)" clip-path="url(#clip-path)">
    <g id="gobernancia" transform="translate(844.744 10472)">
      <path id="Trazado_114476" data-name="Trazado 114476" d="M44.039,5.134H38.868v2.6l-6.86,4.285H44.039a.41.41,0,0,0,.41-.41V5.545A.41.41,0,0,0,44.039,5.134Z" transform="translate(3.985 1.4)" fill="#01d0fb"/>
      <path id="Trazado_114477" data-name="Trazado 114477" d="M32.008,11.464l6.86-4.285h-6.86Z" transform="translate(3.985 1.958)" fill="#3675bb"/>
      <g id="Grupo_80776" data-name="Grupo 80776" transform="translate(30.256 2.25)">
        <path id="Trazado_114478" data-name="Trazado 114478" d="M40.1,8.654H27.5V1.768H39.687a.41.41,0,0,1,.41.41Z" transform="translate(-27.5 -1.768)" fill="#01c0fa"/>
      </g>
      <g id="Grupo_80777" data-name="Grupo 80777" transform="translate(7.147 35)">
        <path id="Trazado_114479" data-name="Trazado 114479" d="M9.343,27.5H14.66V50.456H9.343Z" transform="translate(-9.343 -27.5)" fill="#dff6fd"/>
        <path id="Trazado_114480" data-name="Trazado 114480" d="M9.343,27.5h2.206V50.456H9.343Z" transform="translate(-9.343 -27.5)" fill="#c8effe"/>
        <path id="Trazado_114481" data-name="Trazado 114481" d="M17.377,27.5h5.317V50.456H17.377Z" transform="translate(-7.152 -27.5)" fill="#dff6fd"/>
        <path id="Trazado_114482" data-name="Trazado 114482" d="M17.377,27.5h2.235V50.456H17.377Z" transform="translate(-7.152 -27.5)" fill="#c8effe"/>
        <path id="Trazado_114483" data-name="Trazado 114483" d="M25.411,27.5h5.317V50.456H25.411Z" transform="translate(-4.961 -27.5)" fill="#dff6fd"/>
        <path id="Trazado_114484" data-name="Trazado 114484" d="M25.411,27.5h2.263V50.456H25.411Z" transform="translate(-4.961 -27.5)" fill="#c8effe"/>
        <path id="Trazado_114485" data-name="Trazado 114485" d="M33.445,27.5h5.317V50.456H33.445Z" transform="translate(-2.77 -27.5)" fill="#dff6fd"/>
        <path id="Trazado_114486" data-name="Trazado 114486" d="M33.445,27.5h2.292V50.456H33.445Z" transform="translate(-2.77 -27.5)" fill="#c8effe"/>
        <path id="Trazado_114487" data-name="Trazado 114487" d="M41.479,27.5H46.8V50.456H41.479Z" transform="translate(-0.579 -27.5)" fill="#dff6fd"/>
        <path id="Trazado_114488" data-name="Trazado 114488" d="M41.479,27.5H43.8V50.456H41.479Z" transform="translate(-0.579 -27.5)" fill="#c8effe"/>
      </g>
      <path id="Trazado_114489" data-name="Trazado 114489" d="M6.856,24.123v3.614a.684.684,0,0,0,.684.684H58.721a.684.684,0,0,0,.684-.684V24.123Z" transform="translate(-2.874 6.579)" fill="#8bc2ea"/>
      <path id="Trazado_114490" data-name="Trazado 114490" d="M12.622,27.737V24.123H6.856v3.614a.684.684,0,0,0,.684.684h5.767A.684.684,0,0,1,12.622,27.737Z" transform="translate(-2.874 6.579)" fill="#77abdb"/>
      <path id="Trazado_114491" data-name="Trazado 114491" d="M59.4,50.724v-4.5a.684.684,0,0,0-.684-.684H7.539a.684.684,0,0,0-.684.684v4.5Z" transform="translate(-2.874 12.419)" fill="#8bc2ea"/>
      <path id="Trazado_114492" data-name="Trazado 114492" d="M12.622,50.724v-4.5a.684.684,0,0,1,.684-.684H7.539a.684.684,0,0,0-.684.684v4.5Z" transform="translate(-2.874 12.419)" fill="#77abdb"/>
      <g id="Grupo_80778" data-name="Grupo 80778" transform="translate(1.025 63.006)">
        <path id="Trazado_114493" data-name="Trazado 114493" d="M62.311,55.473H5.217a.684.684,0,0,1-.684-.684v-4.6a.684.684,0,0,1,.684-.684H62.311a.684.684,0,0,1,.684.684v4.6A.684.684,0,0,1,62.311,55.473Z" transform="translate(-4.533 -49.505)" fill="#dff6fd"/>
      </g>
      <g id="Grupo_80779" data-name="Grupo 80779" transform="translate(1.025 63.006)">
        <path id="Trazado_114494" data-name="Trazado 114494" d="M10.3,54.79v-4.6a.684.684,0,0,1,.684-.684H5.217a.684.684,0,0,0-.684.684v4.6a.684.684,0,0,0,.684.684h5.77A.684.684,0,0,1,10.3,54.79Z" transform="translate(-4.533 -49.505)" fill="#c8effe"/>
      </g>
      <g id="Grupo_80780" data-name="Grupo 80780" transform="translate(1.448 13.293)">
        <path id="Trazado_114495" data-name="Trazado 114495" d="M33.673,10.445,5,27.345a.273.273,0,0,0,.139.509H62.207a.273.273,0,0,0,.139-.509Z" transform="translate(-4.865 -10.445)" fill="#dff6fd"/>
      </g>
      <g id="Grupo_80781" data-name="Grupo 80781" transform="translate(1.448 13.293)">
        <path id="Trazado_114496" data-name="Trazado 114496" d="M11.192,27.345,36.769,12.269l-3.1-1.825L5,27.345a.273.273,0,0,0,.139.509h6.192a.273.273,0,0,1-.139-.509Z" transform="translate(-4.865 -10.445)" fill="#c8effe"/>
      </g>
      <g id="Grupo_80782" data-name="Grupo 80782" transform="translate(26.736 19.62)">
        <circle id="Elipse_4754" data-name="Elipse 4754" cx="3.52" cy="3.52" r="3.52" fill="#3675bb"/>
      </g>
      <g id="Grupo_80783" data-name="Grupo 80783" transform="translate(26.736 19.62)">
        <path id="Trazado_114497" data-name="Trazado 114497" d="M27.5,18.935A3.52,3.52,0,0,1,29.639,15.7a3.52,3.52,0,1,0,0,6.473A3.52,3.52,0,0,1,27.5,18.935Z" transform="translate(-24.734 -15.415)" fill="#2b68b6"/>
      </g>
      <g id="Grupo_80784" data-name="Grupo 80784" transform="translate(0)">
        <path id="Trazado_114498" data-name="Trazado 114498" d="M62.53,61.981H61.283V59.746a4.5,4.5,0,0,0-.3-1.889,1.525,1.525,0,0,0-1.411-.926H58.118v-20.9h1.457a1.711,1.711,0,0,0,1.709-1.709V31.728h1.234a1.3,1.3,0,0,0,.659-2.418L50.565,21.877a1.025,1.025,0,1,0-1.041,1.767l10.237,6.034H8.206L33.983,14.484,45.4,21.21a1.025,1.025,0,0,0,1.041-1.767L35.009,12.707V10.162h3.686v3.26a1.025,1.025,0,0,0,1.025,1.025H51.752a1.437,1.437,0,0,0,1.436-1.436V6.945a1.437,1.437,0,0,0-1.436-1.436H47.606V2.66A1.437,1.437,0,0,0,46.17,1.224H35.009v-.2a1.025,1.025,0,0,0-2.051,0V12.707L4.79,29.31a1.3,1.3,0,0,0,.659,2.418H6.684v2.588a1.711,1.711,0,0,0,1.709,1.709H9.849v20.9H8.393a1.711,1.711,0,0,0-1.709,1.709v3.341H5.437A1.711,1.711,0,0,0,3.728,63.69v4.6A1.711,1.711,0,0,0,5.437,70H62.53a1.711,1.711,0,0,0,1.709-1.709v-4.6a1.711,1.711,0,0,0-1.709-1.709ZM40.746,11.572v-1.41H43ZM47.128,10a1.024,1.024,0,0,0,.478-.866V7.56h3.53V12.4H43.3ZM35.009,3.275H45.555V8.111H35.009ZM47.892,56.93v-20.9H50.75v20.9ZM26.417,51.885a1.025,1.025,0,0,0-1.025,1.025v3.867H22.125V36.025h3.266v12.1a1.025,1.025,0,0,0,2.051,0v-12.1H30.3v20.9H27.442V52.91A1.025,1.025,0,0,0,26.417,51.885Zm5.933,4.893V36.025h3.266V56.777Zm5.317-20.752h2.857v20.9H37.667Zm4.908,20.752V36.025h3.266V56.777Zm13.492,0H52.8V36.025h3.266ZM8.734,31.728h50.5v2.247H8.734Zm6.432,4.3V56.777H11.9V36.025Zm2.051,0h2.857v20.9H17.217ZM62.188,67.949H5.778V64.032H47.655a1.025,1.025,0,1,0,0-2.051H8.734v-3H59.188a5.36,5.36,0,0,1,.044.765v2.235H52.44a1.025,1.025,0,0,0,0,2.051h9.748Z" transform="translate(-3.728 0)"/>
        <path id="Trazado_114499" data-name="Trazado 114499" d="M23.929,19.155a4.545,4.545,0,1,0,4.545-4.545A4.55,4.55,0,0,0,23.929,19.155Zm7.04,0a2.495,2.495,0,1,1-2.495-2.495A2.5,2.5,0,0,1,30.969,19.155Z" transform="translate(1.782 3.984)"/>
      </g>
    </g>
  </g>
</svg>
