<svg xmlns="http://www.w3.org/2000/svg" xmlns:xlink="http://www.w3.org/1999/xlink" width="80" height="80" viewBox="0 0 80 80">
  <defs>
    <clipPath id="clip-path">
      <rect id="Rectángulo_34169" data-name="Rectángulo 34169" width="80" height="80" transform="translate(1279 857)" fill="#fff" stroke="#707070" stroke-width="1"/>
    </clipPath>
  </defs>
  <g id="Enmascarar_grupo_118" data-name="Enmascarar grupo 118" transform="translate(-1279 -857)" clip-path="url(#clip-path)">
    <g id="policia_1_" data-name="policia (1)" transform="translate(1279 857)">
      <g id="Grupo_81265" data-name="Grupo 81265">
        <path id="Trazado_116292" data-name="Trazado 116292" d="M62.087,78.828C62.087,65.5,52.7,60.9,52.7,60.9H27.453s-9.386,4.6-9.386,17.926Z" fill="#ffb25a"/>
        <path id="Trazado_116293" data-name="Trazado 116293" d="M52.633,71.388v7.44H44.417v-7.44l4.108-5.27Z" fill="#f8d070"/>
        <path id="Trazado_116294" data-name="Trazado 116294" d="M35.737,71.388v7.44H27.522v-7.44l4.107-5.27Z" fill="#f8d070"/>
        <path id="Trazado_116295" data-name="Trazado 116295" d="M27.522,60.848h8.215v10.54H27.522Z" fill="#fff"/>
        <path id="Trazado_116296" data-name="Trazado 116296" d="M44.417,60.848h8.215v10.54H44.417Z" fill="#fff"/>
        <path id="Trazado_116297" data-name="Trazado 116297" d="M15.138,21.282A30.564,30.564,0,0,0,9.371,39.071H70.783a30.45,30.45,0,0,0-5.7-17.771L40.077,26.541Z" fill="#e3986d"/>
        <path id="Trazado_116298" data-name="Trazado 116298" d="M19.828,36.475a55.277,55.277,0,0,1,1.724-13.816l-6.415-1.377A30.564,30.564,0,0,0,9.371,39.071H19.889c-.039-.859-.061-1.724-.061-2.6Z" fill="#de8957"/>
        <circle id="Elipse_4795" data-name="Elipse 4795" cx="6.806" cy="6.806" r="6.806" transform="translate(58.331 32.265)" fill="#ffcabd"/>
        <circle id="Elipse_4796" data-name="Elipse 4796" cx="25.215" cy="25.215" r="25.215" transform="translate(14.863 13.857)" fill="#ffdcce"/>
        <path id="Trazado_116299" data-name="Trazado 116299" d="M62.351,8.888C57.713,8.237,51.1,6.71,46.213,3.126a10.368,10.368,0,0,0-12.117,0C29.209,6.71,22.6,8.237,17.958,8.888a4.271,4.271,0,0,0-3.542,5.243,30.573,30.573,0,0,1,.756,7.15l24.905,5.26L65.086,21.3a30.349,30.349,0,0,1,.807-7.169A4.27,4.27,0,0,0,62.351,8.888Z" fill="#3b4556"/>
        <ellipse id="Elipse_4797" data-name="Elipse 4797" cx="3.805" cy="4.65" rx="3.805" ry="4.65" transform="translate(36.195 6.597)" fill="#f8d070"/>
        <g id="Grupo_81263" data-name="Grupo 81263">
          <path id="Trazado_116300" data-name="Trazado 116300" d="M61.15,59.911h5.469V73.305H61.15Z" fill="#475066"/>
        </g>
        <path id="Trazado_116301" data-name="Trazado 116301" d="M63.884,70.18a5.337,5.337,0,0,0-5.337,5.337,3.311,3.311,0,0,0,3.311,3.311H65.91a3.311,3.311,0,0,0,3.311-3.311A5.337,5.337,0,0,0,63.884,70.18Z" fill="#ffdcce"/>
        <circle id="Elipse_4798" data-name="Elipse 4798" cx="6.488" cy="6.488" r="6.488" transform="translate(57.396 50.059)" fill="#ff6f7f"/>
        <path id="Trazado_116302" data-name="Trazado 116302" d="M30.089,5.482A43.122,43.122,0,0,1,17.958,8.889a4.271,4.271,0,0,0-3.542,5.243,30.846,30.846,0,0,1,.722,7.15l6.422,1.349A43.678,43.678,0,0,1,30.089,5.482Z" fill="#303646"/>
        <path id="Trazado_116303" data-name="Trazado 116303" d="M24.738,59.082a52.535,52.535,0,0,1-4.91-22.607,55.023,55.023,0,0,1,1.986-14.788,25.181,25.181,0,0,0-6.04,10.646,5.976,5.976,0,0,0-.911-.068,6.806,6.806,0,1,0,0,13.613,5.95,5.95,0,0,0,.912-.068,25.244,25.244,0,0,0,8.963,13.273Z" fill="#ffcabd"/>
        <path id="Trazado_116304" data-name="Trazado 116304" d="M40.077,21.282H15.138C17.489,27.284,27.727,31.8,40,31.8h.155c12.273,0,22.58-4.5,24.932-10.5Z" fill="#475066"/>
        <path id="Trazado_116305" data-name="Trazado 116305" d="M21.929,21.282H15.138A12.747,12.747,0,0,0,20.6,27.126,52.629,52.629,0,0,1,21.929,21.282Z" fill="#3b4556"/>
        <g id="Grupo_81264" data-name="Grupo 81264">
          <path id="Trazado_116306" data-name="Trazado 116306" d="M29.387,35.049H24a3.556,3.556,0,0,0-3.477,4.3l.3,1.392a5.075,5.075,0,0,0,4.962,4.011H27.6a5.075,5.075,0,0,0,4.962-4.011l.3-1.392a3.556,3.556,0,0,0-3.477-4.3Z" fill="#475066"/>
          <path id="Trazado_116307" data-name="Trazado 116307" d="M51.162,35.049h5.39a3.556,3.556,0,0,1,3.477,4.3l-.3,1.392a5.075,5.075,0,0,1-4.962,4.011H52.946a5.075,5.075,0,0,1-4.962-4.011l-.3-1.392a3.556,3.556,0,0,1,3.477-4.3Z" fill="#475066"/>
        </g>
      </g>
      <g id="Grupo_81266" data-name="Grupo 81266">
        <path id="Trazado_116308" data-name="Trazado 116308" d="M44.363,42.351a1.172,1.172,0,0,0-1.653.114,3.615,3.615,0,0,1-5.457,0A1.172,1.172,0,1,0,35.485,44a5.959,5.959,0,0,0,8.991,0A1.172,1.172,0,0,0,44.363,42.351Z"/>
        <path id="Trazado_116309" data-name="Trazado 116309" d="M33.71,40.988c.136-.957.709-2.134.189-3.794a56.653,56.653,0,0,1,12.748,0c-.52,1.66.053,2.834.189,3.794a6.28,6.28,0,0,0,6.108,4.937h1.822a6.28,6.28,0,0,0,6.108-4.937l.3-1.392a4.728,4.728,0,0,0-4.623-5.72h-5.39a4.7,4.7,0,0,0-3.069,1.132,59.212,59.212,0,0,0-15.637,0,4.7,4.7,0,0,0-3.069-1.132H24a4.728,4.728,0,0,0-4.623,5.72l.3,1.392a6.28,6.28,0,0,0,6.108,4.937H27.6a6.279,6.279,0,0,0,6.109-4.937ZM56.551,36.22A2.384,2.384,0,0,1,58.883,39.1l-.3,1.392a3.924,3.924,0,0,1-3.817,3.085H52.945A3.924,3.924,0,0,1,49.129,40.5l-.3-1.392a2.386,2.386,0,0,1,2.332-2.885ZM21.963,40.5l-.3-1.392A2.384,2.384,0,0,1,24,36.22h5.39a2.371,2.371,0,0,1,1.687.7,1.172,1.172,0,0,0,.178.2,2.373,2.373,0,0,1,.466,1.984l-.3,1.392A3.924,3.924,0,0,1,27.6,43.581H25.779A3.924,3.924,0,0,1,21.963,40.5Z"/>
        <path id="Trazado_116310" data-name="Trazado 116310" d="M40,5.423c-2.744,0-4.977,2.612-4.977,5.822S37.255,17.067,40,17.067s4.977-2.612,4.977-5.822S42.743,5.423,40,5.423Zm0,9.3c-1.452,0-2.633-1.56-2.633-3.478S38.547,7.767,40,7.767s2.633,1.56,2.633,3.478S41.451,14.724,40,14.724Z"/>
        <path id="Trazado_116311" data-name="Trazado 116311" d="M71.611,34.417a31.782,31.782,0,0,0-5.3-13.405,29.334,29.334,0,0,1,.72-6.607,5.445,5.445,0,0,0-4.518-6.678C57.976,7.09,51.584,5.61,46.905,2.18a11.547,11.547,0,0,0-13.5,0C28.723,5.61,22.331,7.09,17.793,7.726A5.445,5.445,0,0,0,13.275,14.4a29.033,29.033,0,0,1,.717,6.387A31.8,31.8,0,0,0,8.581,34.158a7.971,7.971,0,0,0,6.342,12.89A26.5,26.5,0,0,0,25.265,60.9c-2.861,2.078-8.371,7.441-8.371,17.931A1.172,1.172,0,0,0,18.065,80H65.909a4.488,4.488,0,0,0,4.483-4.483,6.5,6.5,0,0,0-2.6-5.2V63.133a7.657,7.657,0,0,0-3.229-14.215q.374-.926.675-1.872a7.984,7.984,0,0,0,6.375-12.63Zm-5.74,10.24a26.676,26.676,0,0,0,0-11.173,5.634,5.634,0,0,1,0,11.173Zm-.637-13.565a26.747,26.747,0,0,0-2.226-5.082,13.057,13.057,0,0,0,2.155-2.487,29.5,29.5,0,0,1,3.575,8.423A8.073,8.073,0,0,0,65.234,31.092ZM14.99,23.523a13.052,13.052,0,0,0,2.155,2.487,26.566,26.566,0,0,0-2.226,5.082,8.074,8.074,0,0,0-3.483.773A29.516,29.516,0,0,1,14.99,23.523Zm-.7,21.153a5.634,5.634,0,0,1,0-11.21A26.694,26.694,0,0,0,14.287,44.676Zm4.722-17.191a26.111,26.111,0,0,0,5.215,2.727,1.173,1.173,0,0,0,.861-2.182c-2.931-1.156-6.186-2.994-7.989-5.578H49.4a1.172,1.172,0,0,0,0-2.344H16.326a30.561,30.561,0,0,0-.772-6.253,3.1,3.1,0,0,1,2.565-3.808c4.8-.674,11.6-2.259,16.669-5.978a9.2,9.2,0,0,1,10.731,0c5.072,3.719,11.864,5.3,16.669,5.978a3.1,3.1,0,0,1,2.565,3.808,30.568,30.568,0,0,0-.772,6.253H54.035a1.172,1.172,0,1,0,0,2.344h9.022c-5.893,8.462-23.634,9.413-33.667,6.939a1.172,1.172,0,0,0-.562,2.275c10.191,2.514,24.108,1.505,32.315-4.182a24.064,24.064,0,0,1,.769,21.659,7.655,7.655,0,0,0-5.682,7.733,23.979,23.979,0,0,1-14.6,6.185C22.886,64.272,9.812,44.182,19.009,27.485Zm9.684,35.4a26.668,26.668,0,0,0,5.872,2v5.336H28.693Zm8.215,2.384a26.811,26.811,0,0,0,6.337,0V77.656H36.908Zm8.68-.387a26.289,26.289,0,0,0,5.872-2v7.333H45.588Zm14.389-1.747v3.328a19.654,19.654,0,0,0-5.083-5.553q.984-.67,1.912-1.431A7.7,7.7,0,0,0,59.977,63.133ZM23.591,65.7a17.048,17.048,0,0,1,2.758-2.676V77.656H19.263A19.681,19.681,0,0,1,23.591,65.7Zm5.1,11.958v-5.1h5.872v5.1Zm16.9,0v-5.1H51.46v5.1Zm8.215,0V63.028a17.915,17.915,0,0,1,5.681,7.692c-1.93,1.77-2.735,4.791-1.566,6.936H53.8Zm12.106,0c-4.025,0-4.095.008-4.3-.016a2.141,2.141,0,0,1-1.889-2.123h0a4.165,4.165,0,0,1,8.33,0,2.142,2.142,0,0,1-2.139,2.139Zm-.463-13.608V69.2a6.55,6.55,0,0,0-3.125,0v-5.15A7.741,7.741,0,0,0,65.446,64.048Zm3.754-7.5a5.316,5.316,0,0,1-10.591.658h0A5.316,5.316,0,1,1,69.2,56.547Z"/>
      </g>
    </g>
  </g>
</svg>
