<svg xmlns="http://www.w3.org/2000/svg" xmlns:xlink="http://www.w3.org/1999/xlink" width="60" height="60" viewBox="0 0 60 60">
  <defs>
    <clipPath id="clip-path">
      <rect id="Rectángulo_33967" data-name="Rectángulo 33967" width="60" height="60" transform="translate(205 3132)" stroke="#707070" stroke-width="1"/>
    </clipPath>
  </defs>
  <g id="Enmascarar_grupo_80" data-name="Enmascarar grupo 80" transform="translate(-205 -3132)" clip-path="url(#clip-path)">
    <g id="policia" transform="translate(205 3132)">
      <path id="Trazado_114162" data-name="Trazado 114162" d="M33.272,31.763a.879.879,0,0,0-1.24.085,2.711,2.711,0,0,1-4.093,0A.879.879,0,0,0,26.614,33a4.469,4.469,0,0,0,6.743,0A.879.879,0,0,0,33.272,31.763Z"/>
      <path id="Trazado_114163" data-name="Trazado 114163" d="M25.283,30.741a5.239,5.239,0,0,0,.142-2.845,42.49,42.49,0,0,1,9.561,0,5.236,5.236,0,0,0,.142,2.845,4.71,4.71,0,0,0,4.581,3.7h1.367a4.71,4.71,0,0,0,4.581-3.7l.224-1.044a3.546,3.546,0,0,0-3.467-4.29H38.371a3.528,3.528,0,0,0-2.3.849,44.409,44.409,0,0,0-11.728,0,3.528,3.528,0,0,0-2.3-.849H18a3.546,3.546,0,0,0-3.467,4.29l.224,1.044a4.71,4.71,0,0,0,4.581,3.7H20.7a4.71,4.71,0,0,0,4.581-3.7Zm17.131-3.576a1.788,1.788,0,0,1,1.749,2.163l-.224,1.044a2.943,2.943,0,0,1-2.863,2.314H39.709a2.943,2.943,0,0,1-2.863-2.314l-.224-1.044a1.79,1.79,0,0,1,1.749-2.163ZM16.472,30.372l-.224-1.044A1.788,1.788,0,0,1,18,27.165h4.042a1.778,1.778,0,0,1,1.265.525.879.879,0,0,0,.134.15,1.78,1.78,0,0,1,.35,1.488l-.224,1.044A2.943,2.943,0,0,1,20.7,32.686H19.335a2.943,2.943,0,0,1-2.863-2.314Z"/>
      <path id="Trazado_114164" data-name="Trazado 114164" d="M30,4.068c-2.058,0-3.732,1.959-3.732,4.367S27.941,12.8,30,12.8s3.732-1.959,3.732-4.367S32.057,4.068,30,4.068Zm0,6.975c-1.089,0-1.975-1.17-1.975-2.609S28.91,5.825,30,5.825,31.974,7,31.974,8.434,31.088,11.043,30,11.043Z"/>
      <path id="Trazado_114165" data-name="Trazado 114165" d="M53.708,25.813a23.837,23.837,0,0,0-3.975-10.054,22,22,0,0,1,.54-4.955,4.084,4.084,0,0,0-3.389-5.009c-3.4-.478-8.2-1.587-11.706-4.16a8.661,8.661,0,0,0-10.128,0c-3.509,2.573-8.3,3.682-11.706,4.16A4.084,4.084,0,0,0,9.956,10.8a21.775,21.775,0,0,1,.538,4.79A23.848,23.848,0,0,0,6.435,25.619a5.979,5.979,0,0,0,4.756,9.667,19.878,19.878,0,0,0,7.757,10.387C16.8,47.232,12.67,51.254,12.67,59.121a.879.879,0,0,0,.879.879H49.432a3.366,3.366,0,0,0,3.362-3.362,4.877,4.877,0,0,0-1.952-3.9V47.35a5.743,5.743,0,0,0-2.422-10.661q.28-.694.507-1.4a5.988,5.988,0,0,0,4.781-9.472ZM49.4,33.493a20.007,20.007,0,0,0,0-8.38,4.226,4.226,0,0,1,0,8.38Zm-.478-10.174a20.06,20.06,0,0,0-1.67-3.812,9.793,9.793,0,0,0,1.616-1.866,22.122,22.122,0,0,1,2.681,6.318A6.055,6.055,0,0,0,48.925,23.319ZM11.242,17.642a9.789,9.789,0,0,0,1.616,1.866,19.924,19.924,0,0,0-1.67,3.812,6.055,6.055,0,0,0-2.612.579A22.137,22.137,0,0,1,11.242,17.642Zm-.527,15.865a4.226,4.226,0,0,1,0-8.408A20.021,20.021,0,0,0,10.716,33.507Zm3.541-12.893a19.583,19.583,0,0,0,3.911,2.046.88.88,0,0,0,.645-1.637,13.319,13.319,0,0,1-5.992-4.184h24.23a.879.879,0,1,0,0-1.758H12.244a22.921,22.921,0,0,0-.579-4.689,2.324,2.324,0,0,1,1.924-2.856c3.6-.506,8.7-1.694,12.5-4.483a6.9,6.9,0,0,1,8.049,0c3.8,2.789,8.9,3.978,12.5,4.483a2.324,2.324,0,0,1,1.924,2.856,22.926,22.926,0,0,0-.579,4.689H40.527a.879.879,0,0,0,0,1.758h6.766c-4.42,6.346-17.726,7.06-25.25,5.2a.879.879,0,0,0-.421,1.707c7.643,1.886,18.081,1.129,24.236-3.136a18.048,18.048,0,0,1,.577,16.244,5.741,5.741,0,0,0-4.261,5.8A18.032,18.032,0,0,1,14.257,20.614ZM21.52,47.162a20,20,0,0,0,4.4,1.5v4h-4.4Zm6.161,1.788a20.108,20.108,0,0,0,4.752,0v9.29H27.681V48.95Zm6.51-.29a19.716,19.716,0,0,0,4.4-1.5v5.5h-4.4Zm10.792-1.31v2.5a14.741,14.741,0,0,0-3.812-4.165q.738-.5,1.434-1.073A5.778,5.778,0,0,0,44.983,47.35Zm-27.29,1.924a12.786,12.786,0,0,1,2.069-2.007V58.242H14.447A14.761,14.761,0,0,1,17.693,49.273Zm3.827,8.969V54.42h4.4v3.822Zm12.672,0V54.42h4.4v3.822Zm6.161,0V47.271a13.436,13.436,0,0,1,4.261,5.769,4.5,4.5,0,0,0-1.175,5.2H40.353Zm9.079,0c-3.019,0-3.071.006-3.227-.012a1.606,1.606,0,0,1-1.417-1.592h0a3.124,3.124,0,0,1,6.248,0,1.606,1.606,0,0,1-1.6,1.6Zm-.347-10.206V51.9a4.912,4.912,0,0,0-2.344,0V48.036A5.805,5.805,0,0,0,49.085,48.036ZM51.9,42.41a3.987,3.987,0,0,1-7.943.494h0A3.987,3.987,0,1,1,51.9,42.41Z"/>
    </g>
  </g>
</svg>
