<svg xmlns="http://www.w3.org/2000/svg" xmlns:xlink="http://www.w3.org/1999/xlink" width="105" height="91.737" viewBox="0 0 105 91.737">
  <defs>
    <clipPath id="clip-path">
      <rect id="Imagen_18" data-name="Imagen 18" width="105" height="91.737" rx="19" transform="translate(915 3648.333)"/>
    </clipPath>
  </defs>
  <g id="Enmascarar_grupo_121" data-name="Enmascarar grupo 121" transform="translate(-915 -3648.333)" clip-path="url(#clip-path)">
    <g id="registros-medicos" transform="translate(925.701 3648.333)">
      <g id="Grupo_81269" data-name="Grupo 81269" transform="translate(1.344 1.344)">
        <path id="Trazado_116362" data-name="Trazado 116362" d="M63.727,98.3H14.276A4.479,4.479,0,0,1,9.8,93.819V22.149a4.479,4.479,0,0,1,4.479-4.479H63.727a4.479,4.479,0,0,1,4.479,4.479V93.819A4.479,4.479,0,0,1,63.727,98.3Z" transform="translate(-9.796 -9.249)" fill="#e29a6c"/>
        <path id="Trazado_116363" data-name="Trazado 116363" d="M107.512,22.149V93.819a4.479,4.479,0,0,1-4.479,4.479H97.658a4.479,4.479,0,0,0,4.479-4.479V22.149a4.479,4.479,0,0,0-4.479-4.479h5.375A4.479,4.479,0,0,1,107.512,22.149Z" transform="translate(-49.103 -9.249)" fill="#ce845c"/>
        <path id="Trazado_116364" data-name="Trazado 116364" d="M66.287,97.274H20.419a.9.9,0,0,1-.9-.9V28.292a.9.9,0,0,1,.9-.9H66.287a.9.9,0,0,1,.9.9V96.378A.9.9,0,0,1,66.287,97.274Z" transform="translate(-14.148 -13.6)" fill="#fff"/>
        <path id="Trazado_116365" data-name="Trazado 116365" d="M61.876,21.6H54.709a1.792,1.792,0,0,1-1.792-1.792V4.223a1.792,1.792,0,0,1,1.792-1.792h7.167a1.792,1.792,0,0,1,1.792,1.792V19.811A1.792,1.792,0,0,1,61.876,21.6Z" transform="translate(-29.087 -2.432)" fill="#bcf1f8"/>
        <path id="Trazado_116366" data-name="Trazado 116366" d="M66.567,4.223V19.811A1.791,1.791,0,0,1,64.775,21.6H59.4a1.791,1.791,0,0,0,1.792-1.792V4.223A1.791,1.791,0,0,0,59.4,2.432h5.375A1.791,1.791,0,0,1,66.567,4.223Z" transform="translate(-31.987 -2.432)" fill="#8ef0f0"/>
        <path id="Trazado_116367" data-name="Trazado 116367" d="M46.39,13.319H38.328V11.527a3.583,3.583,0,0,1,3.583-3.583H46.39Z" transform="translate(-22.56 -4.897)" fill="#7de8f9"/>
        <path id="Trazado_116368" data-name="Trazado 116368" d="M80.433,13.319H72.37V7.943H76.85a3.583,3.583,0,0,1,3.583,3.583Z" transform="translate(-37.79 -4.897)" fill="#7de8f9"/>
        <path id="Trazado_116369" data-name="Trazado 116369" d="M80.432,11.527v1.792H75.056V11.527a3.584,3.584,0,0,0-2.688-3.471V7.943h4.479A3.582,3.582,0,0,1,80.432,11.527Z" transform="translate(-37.789 -4.897)" fill="#00ddf9"/>
        <path id="Trazado_116370" data-name="Trazado 116370" d="M65.263,68.53H30.145a.9.9,0,0,1-.9-.9V47.745a.9.9,0,0,1,.9-.9H65.263a.9.9,0,0,1,.9.9V67.634A.9.9,0,0,1,65.263,68.53Z" transform="translate(-18.499 -22.303)" fill="#baf39a"/>
        <path id="Trazado_116371" data-name="Trazado 116371" d="M91.988,80.792l8.649-2.109a7.047,7.047,0,0,1,3.772.1A17.364,17.364,0,1,0,92.959,67.223a7.065,7.065,0,0,1,.086,3.714l-2.14,8.772a.9.9,0,0,0,1.083,1.083Z" transform="translate(-46.07 -21.393)" fill="#fcf1f2"/>
        <path id="Trazado_116372" data-name="Trazado 116372" d="M139.957,62.193a17.389,17.389,0,0,1-20.069,17.172,17.381,17.381,0,0,0,0-34.344,17.381,17.381,0,0,1,20.067,17.172Z" transform="translate(-59.048 -21.392)" fill="#f4e5e0"/>
        <path id="Trazado_116373" data-name="Trazado 116373" d="M126.6,67.831a5.283,5.283,0,0,0-8.938-3.817.763.763,0,0,1-1.057,0,5.283,5.283,0,0,0-8.938,3.817V68c0,5.228,8.426,10.988,9.467,10.988S126.6,73.225,126.6,68Z" transform="translate(-53.581 -29.325)" fill="#ff8d95"/>
        <path id="Trazado_116374" data-name="Trazado 116374" d="M132.088,67.831V68c0,2.614-2.105,5.361-4.343,7.455s-4.6,3.533-5.123,3.533a8.3,8.3,0,0,1-2.688-1.519,26.109,26.109,0,0,0,2.435-2.014c2.238-2.095,4.343-4.841,4.343-7.455v-.165a5.279,5.279,0,0,0-2.594-4.549,5.094,5.094,0,0,1,.684-.344,5.286,5.286,0,0,1,7.285,4.893Z" transform="translate(-59.069 -29.324)" fill="#ff738a"/>
      </g>
      <g id="Grupo_81270" data-name="Grupo 81270" transform="translate(0)">
        <path id="Trazado_116375" data-name="Trazado 116375" d="M72.238,23.422a18.738,18.738,0,0,0-3.775.383V14.244A5.83,5.83,0,0,0,62.64,8.421H52.7V7.973a4.933,4.933,0,0,0-4.927-4.927h-3.14A3.137,3.137,0,0,0,41.5,0H34.33A3.137,3.137,0,0,0,31.2,3.046h-3.14a4.933,4.933,0,0,0-4.927,4.927v.448H13.188a5.83,5.83,0,0,0-5.823,5.823V85.914a5.83,5.83,0,0,0,5.823,5.823H46.625a1.344,1.344,0,0,0,0-2.688H13.188a3.139,3.139,0,0,1-3.136-3.136V14.244a3.139,3.139,0,0,1,3.136-3.136H31.195V13.8H14.98a2.242,2.242,0,0,0-2.24,2.24v9.855a1.344,1.344,0,0,0,2.688,0V16.484H31.195v2.24a3.139,3.139,0,0,0,3.136,3.136H41.5a3.139,3.139,0,0,0,3.136-3.136v-2.24H60.4V27.651a18.879,18.879,0,0,0-2.688,2.695V26.786a2.242,2.242,0,0,0-2.24-2.24H20.355a2.242,2.242,0,0,0-2.24,2.24V46.675a2.242,2.242,0,0,0,2.24,2.24H54.538a5.852,5.852,0,0,1-.16,1.655L52.859,56.8h-17.1a1.344,1.344,0,0,0,0,2.688H52.213a2.234,2.234,0,0,0,2.732,2.563l5.455-1.33V83.674H15.428V32.162a1.344,1.344,0,0,0-2.688,0v51.96a2.242,2.242,0,0,0,2.24,2.24H60.848a2.242,2.242,0,0,0,2.24-2.24V60.062l.506-.123a5.8,5.8,0,0,1,2.182-.112V85.914a3.139,3.139,0,0,1-3.136,3.136H52.9a1.344,1.344,0,0,0,0,2.688H62.64a5.83,5.83,0,0,0,5.823-5.823V60.485a18.724,18.724,0,1,0,3.775-37.063ZM50.008,7.973v.448H44.633V5.734h3.136A2.242,2.242,0,0,1,50.008,7.973Zm-24.188.448V7.973a2.242,2.242,0,0,1,2.24-2.24h3.136V8.421Zm16.126,10.3a.448.448,0,0,1-.448.448H34.33a.448.448,0,0,1-.448-.448V3.136a.448.448,0,0,1,.448-.448H41.5a.448.448,0,0,1,.448.448Zm18.9-4.927H44.633V11.109H62.64a3.139,3.139,0,0,1,3.136,3.136V24.572a18.646,18.646,0,0,0-2.688,1.243v-9.78A2.242,2.242,0,0,0,60.848,13.8ZM20.8,27.234H55.025v7.481c0,.02,0,.039,0,.059a18.759,18.759,0,0,0-1.066,11.452H20.8ZM72.238,58.182a16.029,16.029,0,0,1-4.79-.728,8.386,8.386,0,0,0-4.491-.126l-7.932,1.935,1.965-8.056a8.413,8.413,0,0,0-.105-4.421,16.038,16.038,0,1,1,15.354,11.4Z" transform="translate(-7.365)"/>
        <path id="Trazado_116376" data-name="Trazado 116376" d="M64.047,59.2H61.614a1.344,1.344,0,0,0-1.182.705l-1.767,3.271L55.6,53.99a1.352,1.352,0,0,0-2.5-.123L50.718,59.2H48.193a1.344,1.344,0,0,0-1.215.77l-.828,1.754-2.41-7.03a1.351,1.351,0,0,0-2.582.137L40.164,59.2H37.888a1.344,1.344,0,1,0,0,2.688h3.348a1.344,1.344,0,0,0,1.31-1.045l.183-.806,1.95,5.689a1.352,1.352,0,0,0,2.486.138l1.878-3.975h2.545a1.344,1.344,0,0,0,1.227-.8l1.329-2.974L57.1,66.969a1.352,1.352,0,0,0,2.457.214l2.861-5.3h1.632a1.344,1.344,0,0,0,0-2.688Z" transform="translate(-20.419 -23.749)"/>
        <path id="Trazado_116377" data-name="Trazado 116377" d="M57.665,139.508h10.9a1.344,1.344,0,1,0,0-2.688h-10.9a1.344,1.344,0,1,0,0,2.688Z" transform="translate(-29.266 -61.209)"/>
        <path id="Trazado_116378" data-name="Trazado 116378" d="M57.665,129.781h20.6a1.344,1.344,0,1,0,0-2.688h-20.6a1.344,1.344,0,1,0,0,2.688Z" transform="translate(-29.266 -56.858)"/>
        <path id="Trazado_116379" data-name="Trazado 116379" d="M27.262,129.828l3.021,3.021a1.344,1.344,0,0,0,1.89.01l8.057-7.89a1.344,1.344,0,1,0-1.88-1.92l-7.107,6.96-2.081-2.081a1.344,1.344,0,0,0-1.9,1.9Z" transform="translate(-16.09 -54.876)"/>
        <path id="Trazado_116380" data-name="Trazado 116380" d="M57.665,115.192h10.9a1.344,1.344,0,1,0,0-2.688h-10.9a1.344,1.344,0,1,0,0,2.688Z" transform="translate(-29.266 -50.331)"/>
        <path id="Trazado_116381" data-name="Trazado 116381" d="M30.283,108.533a1.344,1.344,0,0,0,1.89.01l8.057-7.89a1.344,1.344,0,0,0-1.88-1.92l-7.107,6.96-2.081-2.081a1.344,1.344,0,0,0-1.9,1.9Z" transform="translate(-16.09 -43.998)"/>
        <path id="Trazado_116382" data-name="Trazado 116382" d="M120.229,60.115a6.591,6.591,0,0,0-4.182,1.487,6.628,6.628,0,0,0-10.811,5.142v.165c0,3.283,2.593,6.4,4.769,8.436,1.728,1.618,4.746,3.9,6.042,3.9s4.314-2.278,6.042-3.9c2.176-2.036,4.769-5.152,4.769-8.436v-.165a6.637,6.637,0,0,0-6.629-6.629Zm3.941,6.794c0,3.943-6.4,8.824-8.123,9.589-1.726-.764-8.123-5.646-8.123-9.589v-.165a3.94,3.94,0,0,1,6.665-2.847,2.1,2.1,0,0,0,2.917,0,3.94,3.94,0,0,1,6.665,2.847v.165Z" transform="translate(-51.149 -26.893)"/>
      </g>
    </g>
  </g>
</svg>
