<svg xmlns="http://www.w3.org/2000/svg" width="190" height="169" viewBox="0 0 190 169">
  <g id="Grupo_81570" data-name="Grupo 81570" transform="translate(-264.94 -181.695)">
    <g id="Grupo_81292" data-name="Grupo 81292" transform="translate(267.716 243.86)">
      <g id="Grupo_81291" data-name="Grupo 81291" transform="translate(0 0)">
        <g id="Grupo_81290" data-name="Grupo 81290">
          <path id="Trazado_116436" data-name="Trazado 116436" d="M397.479,335.559c-33.792-4.515-109.646,15.542-122.618-18.643-17.931-47.25,62.866-79.735,91.722-81.687,23.726-1.606,74.874-1.757,62.295,50.432-8.947,37.121,19.059,15.065,28.85,33.042C467.354,336.379,436.811,340.813,397.479,335.559Z" transform="translate(-272.292 -234.776)" fill="#e7f4fa"/>
        </g>
      </g>
    </g>
    <g id="Grupo_81296" data-name="Grupo 81296" transform="translate(354.22 307.875)">
      <g id="Grupo_81295" data-name="Grupo 81295" transform="translate(0 0)">
        <g id="Grupo_81294" data-name="Grupo 81294">
          <g id="Grupo_81293" data-name="Grupo 81293">
            <path id="Trazado_116437" data-name="Trazado 116437" d="M307.417,268.4c0-.057-.007-.111-.007-.168a6.729,6.729,0,0,1,6.5-6.931,6.3,6.3,0,0,1,4.623,2.053,11.719,11.719,0,0,1,11.231-9.525c5.866,0,10.694,4.66,11.433,10.691.091,0,.185-.013.279-.013,7.21,0,13.056,6.226,13.056,13.9,0,.494-.03.981-.077,1.458a5.674,5.674,0,0,1,4.1,3.81h-60.02a12.677,12.677,0,0,1-.5-3.528A11.716,11.716,0,0,1,307.417,268.4Z" transform="translate(-298.04 -253.83)" fill="#caae48"/>
          </g>
        </g>
      </g>
    </g>
    <g id="Grupo_81300" data-name="Grupo 81300" transform="translate(374.478 298.45)">
      <g id="Grupo_81299" data-name="Grupo 81299" transform="translate(0 0)">
        <g id="Grupo_81298" data-name="Grupo 81298">
          <g id="Grupo_81297" data-name="Grupo 81297">
            <path id="Trazado_116438" data-name="Trazado 116438" d="M316.407,270.2c0-.077-.01-.151-.01-.222a8.853,8.853,0,0,1,8.557-9.121,8.333,8.333,0,0,1,6.084,2.695c1.549-7.166,7.569-12.525,14.779-12.525,7.714,0,14.07,6.131,15.038,14.07.124-.007.245-.027.366-.027,9.491,0,17.178,8.191,17.178,18.293a19.156,19.156,0,0,1-.1,1.925,7.423,7.423,0,0,1,5.4,5.009H304.725a16.859,16.859,0,0,1-.655-4.646C304.07,277.862,309.415,271.415,316.407,270.2Z" transform="translate(-304.07 -251.025)" fill="#b6a03c"/>
          </g>
        </g>
      </g>
    </g>
    <g id="Grupo_81304" data-name="Grupo 81304" transform="translate(264.94 309.152)">
      <g id="Grupo_81303" data-name="Grupo 81303" transform="translate(0 0)">
        <g id="Grupo_81302" data-name="Grupo 81302">
          <g id="Grupo_81301" data-name="Grupo 81301">
            <path id="Trazado_116439" data-name="Trazado 116439" d="M280.843,268.781c0-.057-.007-.114-.007-.168a6.727,6.727,0,0,1,6.5-6.931,6.311,6.311,0,0,1,4.623,2.049,11.716,11.716,0,0,1,11.231-9.521c5.866,0,10.694,4.656,11.433,10.69.094,0,.185-.017.279-.017,7.21,0,13.056,6.225,13.056,13.906a14,14,0,0,1-.077,1.458,5.662,5.662,0,0,1,4.1,3.81H271.967a12.7,12.7,0,0,1-.5-3.528A11.713,11.713,0,0,1,280.843,268.781Z" transform="translate(-271.466 -254.21)" fill="#caae48"/>
          </g>
        </g>
      </g>
    </g>
    <g id="Grupo_81308" data-name="Grupo 81308" transform="translate(285.199 299.724)">
      <g id="Grupo_81307" data-name="Grupo 81307" transform="translate(0 0)">
        <g id="Grupo_81306" data-name="Grupo 81306">
          <g id="Grupo_81305" data-name="Grupo 81305">
            <path id="Trazado_116440" data-name="Trazado 116440" d="M289.833,270.581c0-.081-.01-.151-.01-.225a8.852,8.852,0,0,1,8.557-9.118,8.3,8.3,0,0,1,6.081,2.694c1.552-7.166,7.573-12.528,14.779-12.528,7.717,0,14.074,6.131,15.041,14.07.124-.007.245-.023.366-.023,9.491,0,17.178,8.191,17.178,18.293a19.123,19.123,0,0,1-.1,1.922,7.427,7.427,0,0,1,5.4,5.013H278.151a16.873,16.873,0,0,1-.655-4.646C277.5,278.241,282.841,271.794,289.833,270.581Z" transform="translate(-277.496 -251.404)" fill="#b6a03c"/>
          </g>
        </g>
      </g>
    </g>
    <g id="Grupo_81310" data-name="Grupo 81310" transform="translate(264.94 340.83)">
      <g id="Grupo_81309" data-name="Grupo 81309">
        <path id="Trazado_116441" data-name="Trazado 116441" d="M264.94,273.252h190v-9.477h-190Z" transform="translate(-264.94 -263.387)" fill="#e7eeff"/>
      </g>
    </g>
    <g id="Grupo_81312" data-name="Grupo 81312" transform="translate(264.94 336.348)">
      <g id="Grupo_81311" data-name="Grupo 81311" transform="translate(0 0)">
        <rect id="Rectángulo_34170" data-name="Rectángulo 34170" width="190" height="4.871" transform="translate(190 4.871) rotate(-180)" fill="#8fa1d3"/>
      </g>
    </g>
    <g id="Grupo_81569" data-name="Grupo 81569" transform="translate(317.265 181.695)">
      <g id="Grupo_81313" data-name="Grupo 81313" transform="translate(68.524 44.796)">
        <path id="Trazado_116442" data-name="Trazado 116442" d="M307.926,238.466s.133-2.33,1.537-3.069a4.625,4.625,0,0,1,2.733-.5v4.97l-3.077.919Z" transform="translate(-307.926 -234.862)" fill="#ffbe9e"/>
      </g>
      <g id="Grupo_81319" data-name="Grupo 81319" transform="translate(37.443 51.313)">
        <g id="Grupo_81318" data-name="Grupo 81318">
          <g id="Grupo_81317" data-name="Grupo 81317">
            <g id="Grupo_81316" data-name="Grupo 81316">
              <g id="Grupo_81315" data-name="Grupo 81315">
                <g id="Grupo_81314" data-name="Grupo 81314">
                  <path id="Trazado_116443" data-name="Trazado 116443" d="M320.81,246.965s-12.113,1.806-17.282-1.912-3.171-8.524-3.171-8.524,13.783,5.576,20.476,3.953S320.81,246.965,320.81,246.965Z" transform="translate(-299.977 -236.529)" fill="#ffbe9e"/>
                </g>
              </g>
            </g>
          </g>
        </g>
      </g>
      <g id="Grupo_81325" data-name="Grupo 81325" transform="translate(29.47 47.072)">
        <g id="Grupo_81324" data-name="Grupo 81324">
          <g id="Grupo_81323" data-name="Grupo 81323">
            <g id="Grupo_81322" data-name="Grupo 81322">
              <g id="Grupo_81321" data-name="Grupo 81321">
                <g id="Grupo_81320" data-name="Grupo 81320">
                  <path id="Trazado_116444" data-name="Trazado 116444" d="M298.1,236.9c-2.127,7.961,18,14.834,18,14.834l3.879-9.45S299.495,231.655,298.1,236.9Z" transform="translate(-297.938 -235.444)" fill="#90b3dd"/>
                </g>
              </g>
            </g>
          </g>
        </g>
      </g>
      <g id="Grupo_81337" data-name="Grupo 81337" transform="translate(54.186 48.4)">
        <g id="Grupo_81336" data-name="Grupo 81336">
          <g id="Grupo_81335" data-name="Grupo 81335">
            <g id="Grupo_81334" data-name="Grupo 81334">
              <g id="Grupo_81333" data-name="Grupo 81333">
                <g id="Grupo_81332" data-name="Grupo 81332">
                  <g id="Grupo_81331" data-name="Grupo 81331">
                    <g id="Grupo_81330" data-name="Grupo 81330">
                      <g id="Grupo_81329" data-name="Grupo 81329">
                        <g id="Grupo_81328" data-name="Grupo 81328">
                          <g id="Grupo_81327" data-name="Grupo 81327">
                            <g id="Grupo_81326" data-name="Grupo 81326">
                              <path id="Trazado_116445" data-name="Trazado 116445" d="M309.1,249.105c4.5-2.369,13.384-12.531,13.384-12.531l-3.887-.79-14.338,8.86S304.513,251.518,309.1,249.105Z" transform="translate(-304.259 -235.784)" fill="#ffbe9e"/>
                            </g>
                          </g>
                        </g>
                      </g>
                    </g>
                  </g>
                </g>
              </g>
            </g>
          </g>
        </g>
      </g>
      <g id="Grupo_81338" data-name="Grupo 81338" transform="translate(10.848 31.267)">
        <path id="Trazado_116446" data-name="Trazado 116446" d="M298.086,234.811s-5.814,10.721-4.79,14.357,15.831,15.558,20.973,3.335a21.187,21.187,0,0,0-2.205-21.1Z" transform="translate(-293.175 -231.402)" fill="#552b19"/>
      </g>
      <g id="Grupo_81344" data-name="Grupo 81344" transform="translate(13.517 77.285)">
        <g id="Grupo_81343" data-name="Grupo 81343">
          <g id="Grupo_81342" data-name="Grupo 81342">
            <g id="Grupo_81341" data-name="Grupo 81341">
              <g id="Grupo_81340" data-name="Grupo 81340">
                <g id="Grupo_81339" data-name="Grupo 81339">
                  <path id="Trazado_116447" data-name="Trazado 116447" d="M293.858,271.537,324.6,249.03l-.606-4.609-29.26-1.25Z" transform="translate(-293.858 -243.171)" fill="#2f4463"/>
                </g>
              </g>
            </g>
          </g>
        </g>
      </g>
      <g id="Grupo_81349" data-name="Grupo 81349" transform="translate(13.519 46.524)">
        <g id="Grupo_81348" data-name="Grupo 81348">
          <g id="Grupo_81347" data-name="Grupo 81347">
            <g id="Grupo_81346" data-name="Grupo 81346">
              <g id="Grupo_81345" data-name="Grupo 81345">
                <path id="Trazado_116448" data-name="Trazado 116448" d="M315.5,236.883c-3.73-3.081-18.717-1.576-21.164,3.836,0,0-.411,3.468-.473,6.334,1.4,2.487,3.808,4.7,4.352,6.78,2.835,10.815-5.134,11.491-4.133,13.974,1.8,4.45,16.023,3.754,19.268,2.878,2.494-.676,10.987-2.983,10.232-4.113-6.588-9.9-.395-13.661-1.49-19.108C321.493,244.523,316.993,238.115,315.5,236.883Z" transform="translate(-293.858 -235.304)" fill="#90b3dd"/>
              </g>
            </g>
          </g>
        </g>
      </g>
      <g id="Grupo_81351" data-name="Grupo 81351" transform="translate(38.036 157.409)">
        <g id="Grupo_81350" data-name="Grupo 81350">
          <path id="Trazado_116449" data-name="Trazado 116449" d="M305.46,264.419s1.181,1.431,2.569,3.366,2.424,3.957.485,4.884-4.3-1.349-5.063-2.694-1.627-1.2-2.674-2.1c-1.063-.907-.5-4.215-.5-4.215Z" transform="translate(-300.128 -263.664)" fill="#302e3b"/>
        </g>
      </g>
      <g id="Grupo_81353" data-name="Grupo 81353" transform="translate(25.287 82.237)">
        <g id="Grupo_81352" data-name="Grupo 81352">
          <path id="Trazado_116450" data-name="Trazado 116450" d="M297.126,256.75c2.835,3.726,12.277,63.728,12.277,63.728,2.839,2.475,7.093,0,7.093,0,3.073-30.6-.731-76.04-.731-76.04s-21.477,16.039-18.639,12.312Z" transform="translate(-296.868 -244.438)" fill="#2f4463"/>
        </g>
      </g>
      <g id="Grupo_81360" data-name="Grupo 81360" transform="translate(38.224 82.771)">
        <g id="Grupo_81359" data-name="Grupo 81359">
          <g id="Grupo_81358" data-name="Grupo 81358">
            <g id="Grupo_81357" data-name="Grupo 81357">
              <g id="Grupo_81356" data-name="Grupo 81356">
                <g id="Grupo_81355" data-name="Grupo 81355">
                  <g id="Grupo_81354" data-name="Grupo 81354">
                    <path id="Trazado_116451" data-name="Trazado 116451" d="M301.031,244.9c3.5,24.809,6.588,51.017,4.066,76.036-.055.579-.938.583-.876,0,2.514-24.945-.555-51.064-4.039-75.794-.082-.575.766-.821.848-.242Z" transform="translate(-300.177 -244.575)" fill="#192c47"/>
                  </g>
                </g>
              </g>
            </g>
          </g>
        </g>
      </g>
      <g id="Grupo_81366" data-name="Grupo 81366" transform="translate(10.971 158.394)">
        <g id="Grupo_81365" data-name="Grupo 81365">
          <g id="Grupo_81364" data-name="Grupo 81364">
            <g id="Grupo_81363" data-name="Grupo 81363">
              <g id="Grupo_81362" data-name="Grupo 81362">
                <g id="Grupo_81361" data-name="Grupo 81361">
                  <path id="Trazado_116452" data-name="Trazado 116452" d="M297.322,264.671s-1.177,1.431-2.565,3.366-2.424,3.957-.485,4.883,4.3-1.349,5.063-2.694,1.626-1.2,2.674-2.1c1.064-.911.5-4.215.5-4.215Z" transform="translate(-293.206 -263.916)" fill="#302e3b"/>
                </g>
              </g>
            </g>
          </g>
        </g>
      </g>
      <g id="Grupo_81372" data-name="Grupo 81372" transform="translate(12.242 80.442)">
        <g id="Grupo_81371" data-name="Grupo 81371">
          <g id="Grupo_81370" data-name="Grupo 81370">
            <g id="Grupo_81369" data-name="Grupo 81369">
              <g id="Grupo_81368" data-name="Grupo 81368">
                <g id="Grupo_81367" data-name="Grupo 81367">
                  <path id="Trazado_116453" data-name="Trazado 116453" d="M314.2,259.071c-2.835,3.726-12.277,63.728-12.277,63.728-2.839,2.475-7.093,0-7.093,0-3.073-30.6.266-78.82.266-78.82s21.943,18.818,19.1,15.092Z" transform="translate(-293.531 -243.979)" fill="#2f4463"/>
                </g>
              </g>
            </g>
          </g>
        </g>
      </g>
      <g id="Grupo_81379" data-name="Grupo 81379" transform="translate(14.39 83.756)">
        <g id="Grupo_81378" data-name="Grupo 81378">
          <g id="Grupo_81377" data-name="Grupo 81377">
            <g id="Grupo_81376" data-name="Grupo 81376">
              <g id="Grupo_81375" data-name="Grupo 81375">
                <g id="Grupo_81374" data-name="Grupo 81374">
                  <g id="Grupo_81373" data-name="Grupo 81373">
                    <path id="Trazado_116454" data-name="Trazado 116454" d="M299.919,245.4c-3.484,24.726-6.553,50.853-4.039,75.794.059.583-.821.579-.88,0-2.522-25.02.575-51.228,4.07-76.036.082-.579.931-.332.849.242Z" transform="translate(-294.081 -244.827)" fill="#192c47"/>
                  </g>
                </g>
              </g>
            </g>
          </g>
        </g>
      </g>
      <g id="Grupo_81381" data-name="Grupo 81381" transform="translate(13.409 76.771)">
        <g id="Grupo_81380" data-name="Grupo 81380">
          <path id="Trazado_116455" data-name="Trazado 116455" d="M293.83,248.3s19.2,3.859,31.2-2.084l-.821-3.175a58.2,58.2,0,0,1-30.075,1.611Z" transform="translate(-293.83 -243.04)" fill="#192c47"/>
        </g>
      </g>
      <g id="Grupo_81387" data-name="Grupo 81387" transform="translate(22.262 78.806)">
        <g id="Grupo_81386" data-name="Grupo 81386">
          <g id="Grupo_81385" data-name="Grupo 81385">
            <g id="Grupo_81384" data-name="Grupo 81384">
              <g id="Grupo_81383" data-name="Grupo 81383">
                <g id="Grupo_81382" data-name="Grupo 81382">
                  <path id="Trazado_116456" data-name="Trazado 116456" d="M296.8,243.561H298.5l.4,5.31h-2.813Z" transform="translate(-296.094 -243.561)" fill="#2f4463"/>
                </g>
              </g>
            </g>
          </g>
        </g>
      </g>
      <g id="Grupo_81393" data-name="Grupo 81393" transform="translate(34.883 77.791)">
        <g id="Grupo_81392" data-name="Grupo 81392">
          <g id="Grupo_81391" data-name="Grupo 81391">
            <g id="Grupo_81390" data-name="Grupo 81390">
              <g id="Grupo_81389" data-name="Grupo 81389">
                <g id="Grupo_81388" data-name="Grupo 81388">
                  <path id="Trazado_116457" data-name="Trazado 116457" d="M299.322,243.7l1.236-.4,2.117,4.87-2.54.827Z" transform="translate(-299.322 -243.301)" fill="#2f4463"/>
                </g>
              </g>
            </g>
          </g>
        </g>
      </g>
      <g id="Grupo_81394" data-name="Grupo 81394" transform="translate(26.512 78.572)">
        <rect id="Rectángulo_34171" data-name="Rectángulo 34171" width="7.221" height="4.992" transform="translate(0 0.48) rotate(-3.808)" fill="#a1c3e5"/>
      </g>
      <g id="Grupo_81395" data-name="Grupo 81395" transform="translate(27.464 79.699)">
        <rect id="Rectángulo_34172" data-name="Rectángulo 34172" width="5.474" height="3.167" transform="translate(0 0.364) rotate(-3.808)" fill="#192c47"/>
      </g>
      <g id="Grupo_81405" data-name="Grupo 81405" transform="translate(41.311 70.815)">
        <g id="Grupo_81396" data-name="Grupo 81396" transform="translate(0 0)">
          <rect id="Rectángulo_34173" data-name="Rectángulo 34173" width="2.875" height="12.205" rx="0.368" transform="translate(0 0.43) rotate(-8.593)" fill="#302e3b"/>
        </g>
        <g id="Grupo_81397" data-name="Grupo 81397" transform="translate(1.88 10.248)">
          <rect id="Rectángulo_34174" data-name="Rectángulo 34174" width="2.19" height="22.868" rx="0.28" transform="translate(0 0.327) rotate(-8.593)" fill="#302e3b"/>
        </g>
        <g id="Grupo_81404" data-name="Grupo 81404" transform="translate(2.728 13.698)">
          <g id="Grupo_81398" data-name="Grupo 81398">
            <path id="Trazado_116458" data-name="Trazado 116458" d="M303.5,245.02l-1.838,2.492.268,1.773,1.838-2.492Z" transform="translate(-301.664 -245.02)" fill="#a1c3e5"/>
          </g>
          <g id="Grupo_81399" data-name="Grupo 81399" transform="translate(0.465 3.077)">
            <path id="Trazado_116459" data-name="Trazado 116459" d="M303.621,245.807l-1.838,2.492.268,1.773,1.838-2.492Z" transform="translate(-301.783 -245.807)" fill="#a1c3e5"/>
          </g>
          <g id="Grupo_81400" data-name="Grupo 81400" transform="translate(0.982 6.496)">
            <path id="Trazado_116460" data-name="Trazado 116460" d="M303.753,246.681l-1.838,2.492.268,1.773,1.838-2.492Z" transform="translate(-301.915 -246.681)" fill="#a1c3e5"/>
          </g>
          <g id="Grupo_81401" data-name="Grupo 81401" transform="translate(1.446 9.572)">
            <path id="Trazado_116461" data-name="Trazado 116461" d="M303.872,247.468l-1.838,2.492.268,1.773,1.838-2.492Z" transform="translate(-302.034 -247.468)" fill="#a1c3e5"/>
          </g>
          <g id="Grupo_81402" data-name="Grupo 81402" transform="translate(1.963 12.991)">
            <path id="Trazado_116462" data-name="Trazado 116462" d="M304,248.343l-1.838,2.492.268,1.773,1.838-2.492Z" transform="translate(-302.166 -248.343)" fill="#a1c3e5"/>
          </g>
          <g id="Grupo_81403" data-name="Grupo 81403" transform="translate(2.428 16.069)">
            <path id="Trazado_116463" data-name="Trazado 116463" d="M304.123,249.13l-1.838,2.491.09.587a.341.341,0,0,0,.391.289l.5-.074,1.122-1.521Z" transform="translate(-302.285 -249.13)" fill="#a1c3e5"/>
          </g>
        </g>
      </g>
      <g id="Grupo_81410" data-name="Grupo 81410" transform="translate(15.758 74.178)">
        <g id="Grupo_81406" data-name="Grupo 81406" transform="translate(0 3.186)">
          <rect id="Rectángulo_34175" data-name="Rectángulo 34175" width="4.979" height="9.213" rx="0.637" transform="matrix(0.991, 0.137, -0.137, 0.991, 1.26, 0)" fill="#302e3b"/>
        </g>
        <g id="Grupo_81407" data-name="Grupo 81407" transform="translate(4.385 0)">
          <rect id="Rectángulo_34176" data-name="Rectángulo 34176" width="0.479" height="5.458" rx="0.061" transform="translate(0.747 0) rotate(7.864)" fill="#302e3b"/>
        </g>
        <g id="Grupo_81408" data-name="Grupo 81408" transform="translate(1.617 4.678)">
          <circle id="Elipse_4811" data-name="Elipse 4811" cx="1.714" cy="1.714" r="1.714" fill="#4a4956"/>
        </g>
        <g id="Grupo_81409" data-name="Grupo 81409" transform="translate(1.308 8.225)">
          <rect id="Rectángulo_34177" data-name="Rectángulo 34177" width="3.428" height="0.287" transform="matrix(0.991, 0.137, -0.137, 0.991, 0.039, 0)" fill="#4a4956"/>
        </g>
      </g>
      <g id="Grupo_81440" data-name="Grupo 81440" transform="translate(0 49.032)">
        <g id="Grupo_81416" data-name="Grupo 81416" transform="translate(0.014 6.454)">
          <g id="Grupo_81415" data-name="Grupo 81415">
            <g id="Grupo_81414" data-name="Grupo 81414">
              <g id="Grupo_81413" data-name="Grupo 81413">
                <g id="Grupo_81412" data-name="Grupo 81412">
                  <g id="Grupo_81411" data-name="Grupo 81411">
                    <path id="Trazado_116464" data-name="Trazado 116464" d="M290.4,255.53s1.716-12.129,6.752-16.027,9.075-.614,9.075-.614-9.267,11.628-9.618,18.506S290.4,255.53,290.4,255.53Z" transform="translate(-290.404 -237.596)" fill="#ffbe9e"/>
                  </g>
                </g>
              </g>
            </g>
          </g>
        </g>
        <g id="Grupo_81422" data-name="Grupo 81422" transform="translate(1.5)">
          <g id="Grupo_81421" data-name="Grupo 81421">
            <g id="Grupo_81420" data-name="Grupo 81420">
              <g id="Grupo_81419" data-name="Grupo 81419">
                <g id="Grupo_81418" data-name="Grupo 81418">
                  <g id="Grupo_81417" data-name="Grupo 81417">
                    <path id="Trazado_116465" data-name="Trazado 116465" d="M310.13,236.631c-7.026-4.3-19.346,13.036-19.346,13.036l7.957,6.4S314.756,239.466,310.13,236.631Z" transform="translate(-290.784 -235.946)" fill="#90b3dd"/>
                  </g>
                </g>
              </g>
            </g>
          </g>
        </g>
        <g id="Grupo_81434" data-name="Grupo 81434" transform="translate(0 20.88)">
          <g id="Grupo_81433" data-name="Grupo 81433">
            <g id="Grupo_81432" data-name="Grupo 81432">
              <g id="Grupo_81431" data-name="Grupo 81431">
                <g id="Grupo_81430" data-name="Grupo 81430">
                  <g id="Grupo_81429" data-name="Grupo 81429">
                    <g id="Grupo_81428" data-name="Grupo 81428">
                      <g id="Grupo_81427" data-name="Grupo 81427">
                        <g id="Grupo_81426" data-name="Grupo 81426">
                          <g id="Grupo_81425" data-name="Grupo 81425">
                            <g id="Grupo_81424" data-name="Grupo 81424">
                              <g id="Grupo_81423" data-name="Grupo 81423">
                                <path id="Trazado_116466" data-name="Trazado 116466" d="M291.333,246.963c3.269,3.9,15.08,10.428,15.08,10.428l-.051-3.969-11.7-12.136S288,242.995,291.333,246.963Z" transform="translate(-290.4 -241.286)" fill="#ffbe9e"/>
                              </g>
                            </g>
                          </g>
                        </g>
                      </g>
                    </g>
                  </g>
                </g>
              </g>
            </g>
          </g>
        </g>
        <g id="Grupo_81439" data-name="Grupo 81439" transform="translate(11.993 31.01)">
          <g id="Grupo_81438" data-name="Grupo 81438">
            <g id="Grupo_81437" data-name="Grupo 81437">
              <g id="Grupo_81436" data-name="Grupo 81436">
                <g id="Grupo_81435" data-name="Grupo 81435">
                  <path id="Trazado_116467" data-name="Trazado 116467" d="M297.339,245.183a5.565,5.565,0,0,0,1.24-.551,7.387,7.387,0,0,1,2.459-.418c.461-.02,1.412-.614,1.8-.156.633.743-1.212,1.3-1.564,1.56a.97.97,0,0,0-.426,1.044,1.2,1.2,0,0,0,.555.551,24.544,24.544,0,0,0,2.276,1.122c.4.188.778.4,1.161.614a4.37,4.37,0,0,1,.966.481.449.449,0,0,1-.012.684c-.211.141-.395-.031-.6-.1-.461-.152-.923-.3-1.388-.438-.106-.031-.551-.235-.649-.168-.473.328.712.9.9.993a2.583,2.583,0,0,1,1.188,1.009.261.261,0,0,1,.031.207c-.047.1-.2.1-.305.074-.649-.141-1.235-.52-1.888-.649a.32.32,0,0,0-.305.055c-.274.34.419.868.633,1.063.133.121.289.285.227.458a.305.305,0,0,1-.285.172.886.886,0,0,1-.344-.094,7.92,7.92,0,0,1-.97-.422c-.148-.086-.555-.371-.712-.2a.157.157,0,0,0-.031.125.915.915,0,0,0,.246.422.437.437,0,0,1,.106.454c-.094.184-.356.176-.551.121a7.53,7.53,0,0,1-1.959-1.036c-.657-.418-1.29-.868-1.908-1.341a26.156,26.156,0,0,1-2.327-2.037,4.036,4.036,0,0,1-1.419-2.342,3.408,3.408,0,0,1,.043-.8,3.48,3.48,0,0,1,.266-1.017,1.383,1.383,0,0,1,.731-.719.284.284,0,0,1,.141-.027.366.366,0,0,1,.156.086,10.153,10.153,0,0,0,1.11.86A2.422,2.422,0,0,0,297.339,245.183Z" transform="translate(-293.468 -243.877)" fill="#ffbe9e"/>
                </g>
              </g>
            </g>
          </g>
        </g>
      </g>
      <g id="Grupo_81547" data-name="Grupo 81547" transform="translate(15.28 26.151)">
        <g id="Grupo_81441" data-name="Grupo 81441" transform="translate(2.031 20.462)">
          <path id="Trazado_116468" data-name="Trazado 116468" d="M304.282,240.039l-3.179,5.185-6.275-8.047a14.158,14.158,0,0,1,5.716-1.849C302.91,235.269,304.282,240.039,304.282,240.039Z" transform="translate(-294.828 -235.327)" fill="#6590c4"/>
        </g>
        <g id="Grupo_81442" data-name="Grupo 81442" transform="translate(11.174 19.387)">
          <path id="Trazado_116469" data-name="Trazado 116469" d="M297.352,240.984l5.059,3.378,2.3-8.731s-1.365-.852-5.947-.489C296.41,235.33,297.352,240.984,297.352,240.984Z" transform="translate(-297.166 -235.052)" fill="#6590c4"/>
        </g>
        <g id="Grupo_81443" data-name="Grupo 81443" transform="translate(9.843 25.489)">
          <path id="Trazado_116470" data-name="Trazado 116470" d="M298.5,236.613l-1.678,2.572,2.506,2.255,1.792-3.14Z" transform="translate(-296.826 -236.613)" fill="#2f4463"/>
        </g>
        <g id="Grupo_81444" data-name="Grupo 81444" transform="translate(10.882 28.692)">
          <path id="Trazado_116471" data-name="Trazado 116471" d="M297.346,237.925l-.254,17.006,5.015,5.27,3.176-6.855-5.8-15.913Z" transform="translate(-297.092 -237.432)" fill="#2f4463"/>
        </g>
        <g id="Grupo_81544" data-name="Grupo 81544">
          <g id="Grupo_81450" data-name="Grupo 81450" transform="translate(9.269 0.736)">
            <g id="Grupo_81449" data-name="Grupo 81449">
              <g id="Grupo_81448" data-name="Grupo 81448">
                <g id="Grupo_81447" data-name="Grupo 81447">
                  <g id="Grupo_81446" data-name="Grupo 81446">
                    <g id="Grupo_81445" data-name="Grupo 81445">
                      <path id="Trazado_116472" data-name="Trazado 116472" d="M300.476,243.659s-.919,6.268,1.271,6.526c4.7.551,10.7,3.754,10.874-.176s-6.94-17.036-10.737-19.1a3.424,3.424,0,0,0-5.2,1.677S305.785,234.92,300.476,243.659Z" transform="translate(-296.679 -230.282)" fill="#552b19"/>
                    </g>
                  </g>
                </g>
              </g>
            </g>
          </g>
          <g id="Grupo_81456" data-name="Grupo 81456" transform="translate(4.972 11.493)">
            <g id="Grupo_81455" data-name="Grupo 81455">
              <g id="Grupo_81454" data-name="Grupo 81454">
                <g id="Grupo_81453" data-name="Grupo 81453">
                  <g id="Grupo_81452" data-name="Grupo 81452">
                    <g id="Grupo_81451" data-name="Grupo 81451">
                      <path id="Trazado_116473" data-name="Trazado 116473" d="M296.768,233.033s7.82,1.333,7.347,2.1.324,2.322.332,3.824a8.968,8.968,0,0,0,2.229,5.02c.888,1.161-.172,2.42-1.6,2.706-6.15,1.236-10.592-1-9.259-3.042C298.41,239.692,296.768,233.033,296.768,233.033Z" transform="translate(-295.58 -233.033)" fill="#ffbe9e"/>
                    </g>
                  </g>
                </g>
              </g>
            </g>
          </g>
          <g id="Grupo_81464" data-name="Grupo 81464" transform="translate(6.16 11.493)">
            <g id="Grupo_81463" data-name="Grupo 81463">
              <g id="Grupo_81462" data-name="Grupo 81462">
                <g id="Grupo_81461" data-name="Grupo 81461">
                  <g id="Grupo_81460" data-name="Grupo 81460">
                    <g id="Grupo_81459" data-name="Grupo 81459">
                      <g id="Grupo_81458" data-name="Grupo 81458">
                        <g id="Grupo_81457" data-name="Grupo 81457">
                          <path id="Trazado_116474" data-name="Trazado 116474" d="M303.563,238.956c-.008-1.5-.809-3.061-.332-3.824s-7.347-2.1-7.347-2.1a8.482,8.482,0,0,1,1.333,3.918,30.066,30.066,0,0,0,6.791,4.055A5.932,5.932,0,0,1,303.563,238.956Z" transform="translate(-295.884 -233.033)" fill="#ff9c81"/>
                        </g>
                      </g>
                    </g>
                  </g>
                </g>
              </g>
            </g>
          </g>
          <g id="Grupo_81475" data-name="Grupo 81475" transform="translate(3.962 0.25)">
            <g id="Grupo_81474" data-name="Grupo 81474">
              <g id="Grupo_81473" data-name="Grupo 81473">
                <g id="Grupo_81472" data-name="Grupo 81472">
                  <g id="Grupo_81471" data-name="Grupo 81471">
                    <g id="Grupo_81470" data-name="Grupo 81470">
                      <g id="Grupo_81469" data-name="Grupo 81469">
                        <g id="Grupo_81468" data-name="Grupo 81468">
                          <g id="Grupo_81467" data-name="Grupo 81467">
                            <g id="Grupo_81466" data-name="Grupo 81466">
                              <g id="Grupo_81465" data-name="Grupo 81465">
                                <path id="Trazado_116475" data-name="Trazado 116475" d="M303.338,231.075c2.846,1.955,9.134,10.483,5.106,15.518-1.716,2.154-7.812.336-11.491-3.781-1.513-1.685-2.24-5.845-1-9.732A5.02,5.02,0,0,1,303.338,231.075Z" transform="translate(-295.322 -230.157)" fill="#ffbe9e"/>
                              </g>
                            </g>
                          </g>
                        </g>
                      </g>
                    </g>
                  </g>
                </g>
              </g>
            </g>
          </g>
          <g id="Grupo_81484" data-name="Grupo 81484" transform="translate(1.729)">
            <g id="Grupo_81483" data-name="Grupo 81483">
              <g id="Grupo_81482" data-name="Grupo 81482">
                <g id="Grupo_81481" data-name="Grupo 81481">
                  <g id="Grupo_81480" data-name="Grupo 81480">
                    <g id="Grupo_81479" data-name="Grupo 81479">
                      <g id="Grupo_81478" data-name="Grupo 81478">
                        <g id="Grupo_81477" data-name="Grupo 81477">
                          <g id="Grupo_81476" data-name="Grupo 81476">
                            <path id="Trazado_116476" data-name="Trazado 116476" d="M309.269,235.558c-.367.993-.454-1.279-2.768-1.838a4.706,4.706,0,0,0-.88-.094,1.947,1.947,0,0,0-.735.1,1.16,1.16,0,0,0-.7,1.181,5.16,5.16,0,0,1-1.075,2.905,7.212,7.212,0,0,0-1.368,3.163,3.972,3.972,0,0,1-.156,1.017,2.919,2.919,0,0,0-.2,1.278c.031.422.153.833.215,1.247a1.581,1.581,0,0,1-.434,1.509,3.112,3.112,0,0,1-.571.469,3.372,3.372,0,0,1-1.415.532,3.291,3.291,0,0,1-3.007-1.282c-1.247-1.572-1.443-3.824-1.423-5.752a27.468,27.468,0,0,1,.387-4.082,6.2,6.2,0,0,1,1.681-3.288,8.769,8.769,0,0,1,6.878-2.495C309.77,230.674,309.559,234.776,309.269,235.558Z" transform="translate(-294.751 -230.093)" fill="#552b19"/>
                          </g>
                        </g>
                      </g>
                    </g>
                  </g>
                </g>
              </g>
            </g>
          </g>
          <g id="Grupo_81490" data-name="Grupo 81490" transform="translate(0 1.233)">
            <g id="Grupo_81489" data-name="Grupo 81489">
              <g id="Grupo_81488" data-name="Grupo 81488">
                <g id="Grupo_81487" data-name="Grupo 81487">
                  <g id="Grupo_81486" data-name="Grupo 81486">
                    <g id="Grupo_81485" data-name="Grupo 81485">
                      <path id="Trazado_116477" data-name="Trazado 116477" d="M302.889,243.6s1.439,5.716-.68,6.338-6.26,1-7.476-2.737.278-12.473,3.374-15.495a3.418,3.418,0,0,1,5.462.2S295.429,236.63,302.889,243.6Z" transform="translate(-294.308 -230.409)" fill="#552b19"/>
                    </g>
                  </g>
                </g>
              </g>
            </g>
          </g>
          <g id="Grupo_81498" data-name="Grupo 81498" transform="translate(5.167 10.871)">
            <g id="Grupo_81497" data-name="Grupo 81497">
              <g id="Grupo_81496" data-name="Grupo 81496">
                <g id="Grupo_81495" data-name="Grupo 81495">
                  <g id="Grupo_81494" data-name="Grupo 81494">
                    <g id="Grupo_81493" data-name="Grupo 81493">
                      <g id="Grupo_81492" data-name="Grupo 81492">
                        <g id="Grupo_81491" data-name="Grupo 81491">
                          <path id="Trazado_116478" data-name="Trazado 116478" d="M299.489,234.134s-2.369-1.783-3.523-1.107.852,3.9,3.3,3.214S300.212,234.611,299.489,234.134Z" transform="translate(-295.63 -232.874)" fill="#ffbe9e"/>
                        </g>
                      </g>
                    </g>
                  </g>
                </g>
              </g>
            </g>
          </g>
          <g id="Grupo_81503" data-name="Grupo 81503" transform="translate(7.239 13.424)">
            <g id="Grupo_81502" data-name="Grupo 81502">
              <g id="Grupo_81501" data-name="Grupo 81501">
                <g id="Grupo_81500" data-name="Grupo 81500">
                  <g id="Grupo_81499" data-name="Grupo 81499">
                    <path id="Trazado_116479" data-name="Trazado 116479" d="M296.16,234.462a.909.909,0,1,0,.88-.935A.911.911,0,0,0,296.16,234.462Z" transform="translate(-296.16 -233.527)" fill="#e8d04b"/>
                  </g>
                </g>
              </g>
            </g>
          </g>
          <g id="Grupo_81543" data-name="Grupo 81543" transform="translate(10.151 6.684)">
            <g id="Grupo_81509" data-name="Grupo 81509" transform="translate(0.603 3.337)">
              <g id="Grupo_81508" data-name="Grupo 81508">
                <g id="Grupo_81507" data-name="Grupo 81507">
                  <g id="Grupo_81506" data-name="Grupo 81506">
                    <g id="Grupo_81505" data-name="Grupo 81505">
                      <g id="Grupo_81504" data-name="Grupo 81504">
                        <path id="Trazado_116480" data-name="Trazado 116480" d="M297.376,233.2c-.059-.039.07.031.094.043a1.477,1.477,0,0,0,.317.094c.426.059.637-.211.755-.571.078-.223.43-.078.352.145a1.122,1.122,0,0,1-1.752.579c-.211-.125.027-.41.235-.289Z" transform="translate(-297.059 -232.657)" fill="#201714"/>
                      </g>
                    </g>
                  </g>
                </g>
              </g>
            </g>
            <g id="Grupo_81515" data-name="Grupo 81515" transform="translate(4.613 2.399)">
              <g id="Grupo_81514" data-name="Grupo 81514">
                <g id="Grupo_81513" data-name="Grupo 81513">
                  <g id="Grupo_81512" data-name="Grupo 81512">
                    <g id="Grupo_81511" data-name="Grupo 81511">
                      <g id="Grupo_81510" data-name="Grupo 81510">
                        <path id="Trazado_116481" data-name="Trazado 116481" d="M298.438,232.68a1.318,1.318,0,0,0,.348.25c.407.2.657-.043.829-.407.1-.215.454-.074.352.145-.2.43-.544.809-1.083.688a1.537,1.537,0,0,1-.751-.453c-.168-.176.141-.395.3-.223Z" transform="translate(-298.085 -232.417)" fill="#201714"/>
                      </g>
                    </g>
                  </g>
                </g>
              </g>
            </g>
            <g id="Grupo_81520" data-name="Grupo 81520" transform="translate(3.847)">
              <g id="Grupo_81519" data-name="Grupo 81519">
                <g id="Grupo_81518" data-name="Grupo 81518">
                  <g id="Grupo_81517" data-name="Grupo 81517">
                    <g id="Grupo_81516" data-name="Grupo 81516">
                      <path id="Trazado_116482" data-name="Trazado 116482" d="M299.7,232.307a1.131,1.131,0,0,0-1.384.712c-.117.27-.524.055-.407-.215a1.568,1.568,0,0,1,1.892-.942.229.229,0,0,1-.1.446Z" transform="translate(-297.889 -231.803)" fill="#56301b"/>
                    </g>
                  </g>
                </g>
              </g>
            </g>
            <g id="Grupo_81525" data-name="Grupo 81525" transform="translate(0 1.228)">
              <g id="Grupo_81524" data-name="Grupo 81524">
                <g id="Grupo_81523" data-name="Grupo 81523">
                  <g id="Grupo_81522" data-name="Grupo 81522">
                    <g id="Grupo_81521" data-name="Grupo 81521">
                      <path id="Trazado_116483" data-name="Trazado 116483" d="M298.818,232.754a1.135,1.135,0,0,0-1.525.309c-.188.227-.52-.09-.332-.317a1.565,1.565,0,0,1,2.076-.395c.258.149.039.551-.219.4Z" transform="translate(-296.905 -232.117)" fill="#56301b"/>
                    </g>
                  </g>
                </g>
              </g>
            </g>
            <g id="Grupo_81530" data-name="Grupo 81530" transform="translate(3.154 2.108)">
              <g id="Grupo_81529" data-name="Grupo 81529">
                <g id="Grupo_81528" data-name="Grupo 81528">
                  <g id="Grupo_81527" data-name="Grupo 81527">
                    <g id="Grupo_81526" data-name="Grupo 81526">
                      <path id="Trazado_116484" data-name="Trazado 116484" d="M298.112,232.49a2.316,2.316,0,0,0,.012,1.275c.211.579.892.8,1.282,1.267.539.637.066,1.063-.731,1.341-.2.066-.3-.176-.11-.242,1.787-.618-.383-1.435-.7-2.178a2.43,2.43,0,0,1-.062-1.5c.039-.168.356-.129.313.039Z" transform="translate(-297.711 -232.342)" fill="#56301b"/>
                    </g>
                  </g>
                </g>
              </g>
            </g>
            <g id="Grupo_81534" data-name="Grupo 81534" transform="translate(3.293 7.292)">
              <g id="Grupo_81533" data-name="Grupo 81533">
                <g id="Grupo_81532" data-name="Grupo 81532">
                  <g id="Grupo_81531" data-name="Grupo 81531">
                    <path id="Trazado_116485" data-name="Trazado 116485" d="M297.747,233.668s-.023,1.208.974,1.161,1.052-1.134,1.052-1.134Z" transform="translate(-297.747 -233.668)" fill="#faffff"/>
                  </g>
                </g>
              </g>
            </g>
            <g id="Grupo_81538" data-name="Grupo 81538" transform="translate(0.083 5.506)">
              <g id="Grupo_81537" data-name="Grupo 81537">
                <g id="Grupo_81536" data-name="Grupo 81536">
                  <g id="Grupo_81535" data-name="Grupo 81535">
                    <circle id="Elipse_4812" data-name="Elipse 4812" cx="0.891" cy="0.891" r="0.891" fill="#ff9c81"/>
                  </g>
                </g>
              </g>
            </g>
            <g id="Grupo_81542" data-name="Grupo 81542" transform="translate(5.777 4.182)">
              <g id="Grupo_81541" data-name="Grupo 81541">
                <g id="Grupo_81540" data-name="Grupo 81540">
                  <g id="Grupo_81539" data-name="Grupo 81539">
                    <circle id="Elipse_4813" data-name="Elipse 4813" cx="0.902" cy="0.902" r="0.902" fill="#ff9c81"/>
                  </g>
                </g>
              </g>
            </g>
          </g>
        </g>
        <g id="Grupo_81545" data-name="Grupo 81545" transform="translate(11.52 20.691)">
          <path id="Trazado_116486" data-name="Trazado 116486" d="M300.62,235.385l3.44.779-1.908,7.225-4.9-3.206Z" transform="translate(-297.255 -235.385)" fill="#6590c4"/>
        </g>
        <g id="Grupo_81546" data-name="Grupo 81546" transform="translate(3.329 22.016)">
          <path id="Trazado_116487" data-name="Trazado 116487" d="M296.981,235.724l-1.821,1.884,4.976,6.518,3.216-4.93Z" transform="translate(-295.16 -235.724)" fill="#6590c4"/>
        </g>
      </g>
      <g id="Grupo_81551" data-name="Grupo 81551" transform="translate(13.314 20.184)">
        <g id="Grupo_81548" data-name="Grupo 81548">
          <path id="Trazado_116488" data-name="Trazado 116488" d="M296.251,243.06s-4.4-3.273-1.392-6.6c3.046-3.363,8.821-8.23,12.187-7.879s7.624,5.834,5.052,9.462Z" transform="translate(-293.806 -228.567)" fill="#192c47"/>
        </g>
        <g id="Grupo_81549" data-name="Grupo 81549" transform="translate(6.343 8.022)">
          <path id="Trazado_116489" data-name="Trazado 116489" d="M295.428,234.607s4.152,3.992,9.622,2.987,9.458-3.085,1.845-6.131S295.428,234.607,295.428,234.607Z" transform="translate(-295.428 -230.619)" fill="#192c47"/>
        </g>
        <g id="Grupo_81550" data-name="Grupo 81550" transform="translate(2.445 7.674)">
          <path id="Trazado_116490" data-name="Trazado 116490" d="M294.431,237.347l16.231-5.261.362-1.556Z" transform="translate(-294.431 -230.53)" fill="#142438"/>
        </g>
      </g>
      <g id="Grupo_81554" data-name="Grupo 81554" transform="translate(24.979 22.958)">
        <g id="Grupo_81552" data-name="Grupo 81552">
          <path id="Trazado_116491" data-name="Trazado 116491" d="M296.789,231.259s1.169,4.9,3.965,3.421c2.741-1.451-.629-5.2-.629-5.2a1.693,1.693,0,0,1-2.272-.207S297.931,230.786,296.789,231.259Z" transform="translate(-296.789 -229.277)" fill="#ffaa3b"/>
        </g>
        <g id="Grupo_81553" data-name="Grupo 81553" transform="translate(1.12 1.518)">
          <path id="Trazado_116492" data-name="Trazado 116492" d="M297.839,229.665l.8.575.926-.332-.3.937.6.778-.984,0-.554.813-.309-.935-.945-.276.793-.582Z" transform="translate(-297.076 -229.665)" fill="#e88813"/>
        </g>
      </g>
      <g id="Grupo_81566" data-name="Grupo 81566" transform="translate(51.506)">
        <g id="Grupo_81556" data-name="Grupo 81556" transform="translate(18.423 26.613)">
          <g id="Grupo_81555" data-name="Grupo 81555">
            <rect id="Rectángulo_34178" data-name="Rectángulo 34178" width="2.478" height="36.936" fill="#9e9eaf"/>
          </g>
        </g>
        <g id="Grupo_81558" data-name="Grupo 81558">
          <g id="Grupo_81557" data-name="Grupo 81557">
            <path id="Trazado_116493" data-name="Trazado 116493" d="M332.611,223.405H313.253l-9.679,16.765,9.679,16.765h19.359l9.679-16.765Z" transform="translate(-303.574 -223.405)" fill="#ce3a5e"/>
          </g>
        </g>
        <g id="Grupo_81560" data-name="Grupo 81560" transform="translate(2.789 2.419)">
          <g id="Grupo_81559" data-name="Grupo 81559">
            <path id="Trazado_116494" data-name="Trazado 116494" d="M329.139,252.719H312.572l-8.285-14.349,8.285-14.346h16.566l8.285,14.346Zm-16.238-.571H328.81l7.957-13.779-7.957-13.779H312.9l-7.957,13.779Z" transform="translate(-304.287 -224.024)" fill="#fff"/>
          </g>
        </g>
        <text id="PARE" transform="translate(30.169 20.5)" fill="#fff" font-size="9" font-family="Roboto-Black, Roboto" font-weight="800"><tspan x="-22.113" y="0">PARE</tspan></text>
      </g>
      <g id="Grupo_81567" data-name="Grupo 81567" transform="translate(68.164 43.312)">
        <path id="Trazado_116499" data-name="Trazado 116499" d="M307.834,239.946s.665-5.122,2.111-5.443-.215,3.265-.215,3.265Z" transform="translate(-307.834 -234.483)" fill="#ffbe9e"/>
      </g>
      <g id="Grupo_81568" data-name="Grupo 81568" transform="translate(71.211 43.312)">
        <path id="Trazado_116500" data-name="Trazado 116500" d="M309.1,235.176s.594-.919,1.243-.641,2.006,4.418,1.185,5.568-1.693,3.218-2.428,2.158S308.549,235.712,309.1,235.176Z" transform="translate(-308.613 -234.483)" fill="#ffbe9e"/>
      </g>
    </g>
  </g>
</svg>
