<svg xmlns="http://www.w3.org/2000/svg" xmlns:xlink="http://www.w3.org/1999/xlink" width="54" height="54" viewBox="0 0 54 54">
  <defs>
    <clipPath id="clip-path">
      <rect id="Rectángulo_34153" data-name="Rectángulo 34153" width="33" height="33" transform="translate(204 2988)" fill="#f88f05" stroke="#707070" stroke-width="1"/>
    </clipPath>
  </defs>
  <g id="Grupo_82290" data-name="Grupo 82290" transform="translate(-917 -3018)">
    <circle id="Elipse_4816" data-name="Elipse 4816" cx="27" cy="27" r="27" transform="translate(917 3018)" fill="#fff"/>
    <g id="Enmascarar_grupo_107" data-name="Enmascarar grupo 107" transform="translate(724 41)" clip-path="url(#clip-path)">
      <g id="decreto" transform="translate(206.578 2988)">
        <path id="Trazado_114684" data-name="Trazado 114684" d="M25.263,33a2.581,2.581,0,0,1-2.577-2.577.515.515,0,0,1,1.031,0,1.546,1.546,0,0,0,3.093,0,.515.515,0,0,1,1.031,0A2.58,2.58,0,0,1,25.263,33Zm0,0" fill="#f88f05"/>
        <path id="Trazado_114685" data-name="Trazado 114685" d="M6.705,33a2.581,2.581,0,0,1-2.577-2.577.515.515,0,1,1,1.031,0,1.548,1.548,0,0,0,1.546,1.546.515.515,0,0,1,0,1.031Zm0,0" fill="#f88f05"/>
        <path id="Trazado_114686" data-name="Trazado 114686" d="M23.2,3.093a.515.515,0,0,1-.515-.515,1.546,1.546,0,1,0-3.093,0,.515.515,0,0,1-1.031,0,2.577,2.577,0,0,1,5.155,0A.515.515,0,0,1,23.2,3.093Zm0,0" fill="#f88f05"/>
        <path id="Trazado_114687" data-name="Trazado 114687" d="M23.2,30.938a.515.515,0,0,1-.515-.515V2.577a.515.515,0,0,1,1.031,0V30.423A.515.515,0,0,1,23.2,30.938Zm0,0" fill="#f88f05"/>
        <path id="Trazado_114688" data-name="Trazado 114688" d="M.52,3.093A.515.515,0,0,1,0,2.577,2.581,2.581,0,0,1,2.582,0a.515.515,0,0,1,0,1.031A1.548,1.548,0,0,0,1.035,2.577.515.515,0,0,1,.52,3.093Zm0,0" fill="#f88f05"/>
        <path id="Trazado_114689" data-name="Trazado 114689" d="M4.643,30.938a.515.515,0,0,1-.515-.515V2.577a.515.515,0,1,1,1.031,0V30.423A.515.515,0,0,1,4.643,30.938Zm0,0" fill="#f88f05"/>
        <path id="Trazado_114690" data-name="Trazado 114690" d="M19.077,3.093H.52a.515.515,0,1,1,0-1.031H19.077a.515.515,0,1,1,0,1.031Zm0,0" fill="#f88f05"/>
        <path id="Trazado_114691" data-name="Trazado 114691" d="M21.139,1.031H2.582A.515.515,0,0,1,2.582,0H21.139a.515.515,0,1,1,0,1.031Zm0,0" fill="#f88f05"/>
        <path id="Trazado_114692" data-name="Trazado 114692" d="M25.263,33H6.705a.515.515,0,0,1,0-1.031H25.263a.515.515,0,0,1,0,1.031Zm0,0" fill="#f88f05"/>
        <path id="Trazado_114693" data-name="Trazado 114693" d="M27.325,30.938H23.2a.515.515,0,1,1,0-1.031h4.124a.515.515,0,1,1,0,1.031Zm0,0" fill="#f88f05"/>
        <path id="Trazado_114694" data-name="Trazado 114694" d="M20.622,11.353H7.221a.515.515,0,0,1-.515-.515V9.291a.515.515,0,0,1,.515-.515h13.4a.515.515,0,0,1,.515.515v1.546A.515.515,0,0,1,20.622,11.353ZM7.736,10.322h12.37V9.807H7.736Zm0,0" fill="#f88f05"/>
        <path id="Trazado_114695" data-name="Trazado 114695" d="M11.858,14.446H7.218a.515.515,0,1,1,0-1.031h4.64a.515.515,0,1,1,0,1.031Zm0,0" fill="#f88f05"/>
        <path id="Trazado_114696" data-name="Trazado 114696" d="M20.625,14.446h-4.64a.515.515,0,1,1,0-1.031h4.64a.515.515,0,1,1,0,1.031Zm0,0" fill="#f88f05"/>
        <path id="Trazado_114697" data-name="Trazado 114697" d="M13.929,14.446a.516.516,0,0,1-.006-1.031h.006a.515.515,0,1,1,0,1.031Zm0,0" fill="#f88f05"/>
        <path id="Trazado_114698" data-name="Trazado 114698" d="M20.623,17.537H7.221a.515.515,0,1,1,0-1.031h13.4a.515.515,0,0,1,0,1.031Zm0,0" fill="#f88f05"/>
        <path id="Trazado_114699" data-name="Trazado 114699" d="M20.623,19.6H7.221a.515.515,0,1,1,0-1.031h13.4a.515.515,0,1,1,0,1.031Zm0,0" fill="#f88f05"/>
        <path id="Trazado_114700" data-name="Trazado 114700" d="M17.012,21.66H10.832a.515.515,0,1,1,0-1.031h6.181a.515.515,0,0,1,0,1.031Zm0,0" fill="#f88f05"/>
        <path id="Trazado_114701" data-name="Trazado 114701" d="M10.827,28.876a.515.515,0,0,1-.515-.515V25.782a.515.515,0,1,1,1.031,0v2.578A.515.515,0,0,1,10.827,28.876Zm0,0" fill="#f88f05"/>
        <path id="Trazado_114702" data-name="Trazado 114702" d="M17.012,28.876H10.827a.515.515,0,1,1,0-1.031h6.185a.515.515,0,0,1,0,1.031Zm0,0" fill="#f88f05"/>
        <path id="Trazado_114703" data-name="Trazado 114703" d="M17.012,28.876a.515.515,0,0,1-.515-.515V25.782a.515.515,0,0,1,1.031,0v2.578A.515.515,0,0,1,17.012,28.876Zm0,0" fill="#f88f05"/>
        <path id="Trazado_114704" data-name="Trazado 114704" d="M15.468,26.813a.516.516,0,0,1-.163-1l1.544-.515a.515.515,0,1,1,.326.978l-1.544.515a.517.517,0,0,1-.164.027Zm0,0" fill="#f88f05"/>
        <path id="Trazado_114705" data-name="Trazado 114705" d="M15.468,26.813a.516.516,0,0,1-.364-.151l-1.547-1.545a.516.516,0,1,1,.729-.73l1.547,1.545a.515.515,0,0,1-.364.88Zm0,0" fill="#f88f05"/>
        <path id="Trazado_114706" data-name="Trazado 114706" d="M12.373,26.813a.511.511,0,0,1-.163-.027l-1.544-.515a.515.515,0,0,1,.326-.978l1.544.515a.516.516,0,0,1-.163,1Zm0,0" fill="#f88f05"/>
        <path id="Trazado_114707" data-name="Trazado 114707" d="M12.373,26.813a.515.515,0,0,1-.364-.88l1.547-1.545a.516.516,0,1,1,.729.73l-1.547,1.545a.516.516,0,0,1-.364.151Zm0,0" fill="#f88f05"/>
      </g>
    </g>
  </g>
</svg>
