<svg xmlns="http://www.w3.org/2000/svg" xmlns:xlink="http://www.w3.org/1999/xlink" width="85" height="85" viewBox="0 0 85 85">
  <defs>
    <clipPath id="clip-path">
      <rect id="Rectángulo_33849" data-name="Rectángulo 33849" width="85" height="85" transform="translate(338 3226)" fill="#535353" stroke="#707070" stroke-width="1"/>
    </clipPath>
  </defs>
  <g id="Enmascarar_grupo_52" data-name="Enmascarar grupo 52" transform="translate(-338 -3226)" clip-path="url(#clip-path)">
    <g id="escudo-de-armas" transform="translate(338 3226)">
      <g id="Grupo_80159" data-name="Grupo 80159">
        <path id="Trazado_113612" data-name="Trazado 113612" d="M25.372,72.521a18.617,18.617,0,0,0,13.276-2.674l-3.371-3.769c-.159.2-7.343,6.433-9.905,6.443Z" fill="#d16161"/>
        <path id="Trazado_113613" data-name="Trazado 113613" d="M31.924,68.845q1.5,1.4,3.276,2.768a17.285,17.285,0,0,0,3.449-1.766l-3.371-3.769C35.207,66.167,33.748,67.449,31.924,68.845Z" fill="#ae3030"/>
        <path id="Trazado_113614" data-name="Trazado 113614" d="M34.785,66.7q.254-.318.493-.621L28.671,58.69,15.047,68.956a31.71,31.71,0,0,0,10.325,3.565c2.563-.01,6.617-2.33,9.413-5.822Z" fill="#eec06b"/>
        <path id="Trazado_113615" data-name="Trazado 113615" d="M34.785,66.7q.254-.318.493-.621L28.671,58.69l-2.888,2.177.081.314a30.031,30.031,0,0,0,6.467,8.04A18.572,18.572,0,0,0,34.785,66.7Z" fill="#e69642"/>
        <path id="Trazado_113616" data-name="Trazado 113616" d="M16.353,32.572l-7.54-5.657s-.267,1.747-.582,4.628l1.737,4.214-2.176.353c-.31,3.736-.57,8.307-.57,13.124,0,11.911,2.316,16.719,7.825,19.723a9.8,9.8,0,0,0,8.329.152c-4.166-2.677-7.023-36.536-7.023-36.536Z" fill="#f8e883"/>
        <path id="Trazado_113617" data-name="Trazado 113617" d="M15.993,37.366,8.231,31.542c-.143,1.308-.3,2.849-.439,4.567l7.943,5.96Z" fill="#eec06b"/>
        <path id="Trazado_113618" data-name="Trazado 113618" d="M21.031,36.081l-4.678-3.51s-.172,1.875-.36,4.794l1.468,3.593-1.726,1.11c-.122,2.7-.213,5.748-.213,8.825,0,11.911,3.688,15.538,7.854,18.214a18.72,18.72,0,0,0,4.8-2.777c-4.291-2.234-7.149-30.249-7.149-30.249Z" fill="#5a86cc"/>
        <path id="Trazado_113619" data-name="Trazado 113619" d="M20.782,40.959l-4.788-3.593c-.088,1.367-.179,2.963-.258,4.7L20.6,45.717Z" fill="#3b68b0"/>
        <path id="Trazado_113620" data-name="Trazado 113620" d="M21.031,36.081s-.123,2.072-.25,4.878l1.567,3.059-1.752,1.7c-.056,1.791-.094,3.594-.094,5.177,0,9.456,3.386,13.2,7.677,15.437a19.921,19.921,0,0,0,3.212-3.157l-5.846-23.7Z" fill="#d97b7b"/>
        <path id="Trazado_113621" data-name="Trazado 113621" d="M26.786,40.4l-2.778-2.084c-.225,1.079-.523,2.67-.758,4.5l-2.468-1.852c-.066,1.451-.133,3.1-.184,4.758l2.281,1.711c-.008.294-.012.589-.012.883A25.746,25.746,0,0,0,28.937,65.7a19.491,19.491,0,0,0,2.456-2.532Z" fill="#d16161"/>
        <path id="Trazado_113622" data-name="Trazado 113622" d="M59.628,72.521a18.617,18.617,0,0,1-13.276-2.674l3.371-3.769c.159.2,7.343,6.433,9.905,6.443Z" fill="#d16161"/>
        <path id="Trazado_113623" data-name="Trazado 113623" d="M50.215,66.7q-.254-.318-.493-.621l6.607-7.388L69.953,68.956a31.71,31.71,0,0,1-10.325,3.565c-2.563-.01-6.617-2.33-9.413-5.822Z" fill="#eec06b"/>
        <path id="Trazado_113624" data-name="Trazado 113624" d="M68.647,32.572l7.54-5.657s.267,1.747.582,4.628l-1.737,4.214,2.176.353c.31,3.736.57,8.307.57,13.124,0,11.911-2.316,16.719-7.825,19.723a9.8,9.8,0,0,1-8.329.152c4.166-2.677,7.023-36.536,7.023-36.536Z" fill="#f8e883"/>
        <path id="Trazado_113625" data-name="Trazado 113625" d="M69.007,37.366l7.762-5.824c.143,1.308.3,2.849.439,4.567l-7.943,5.96Z" fill="#eec06b"/>
        <path id="Trazado_113626" data-name="Trazado 113626" d="M63.969,36.081l4.678-3.51s.172,1.875.36,4.794l-1.468,3.593,1.726,1.11c.122,2.7.213,5.748.213,8.825,0,11.911-3.688,15.538-7.854,18.214a18.72,18.72,0,0,1-4.8-2.777c4.291-2.234,7.149-30.249,7.149-30.249Z" fill="#5a86cc"/>
        <path id="Trazado_113627" data-name="Trazado 113627" d="M64.219,40.959l4.788-3.593c.088,1.367.179,2.963.258,4.7L64.4,45.717Z" fill="#3b68b0"/>
        <path id="Trazado_113628" data-name="Trazado 113628" d="M62.7,44.076l1.518-3.117c-.127-2.805-.25-4.878-.25-4.878L58.214,40.4,53.607,63.173a19.907,19.907,0,0,0,3.212,3.157C61.111,64.1,64.5,60.35,64.5,50.894c0-1.583-.038-3.386-.094-5.177Z" fill="#d97b7b"/>
        <path id="Trazado_113629" data-name="Trazado 113629" d="M59.615,44.412l-.162,5.017L64.4,45.717c-.052-1.659-.119-3.306-.184-4.758Z" fill="#d16161"/>
        <path id="Trazado_113630" data-name="Trazado 113630" d="M38.649,69.847l-5.054,9.3a9.368,9.368,0,0,0,5.372,4.091l4.29-13.394Z" fill="#f8e883"/>
        <path id="Trazado_113631" data-name="Trazado 113631" d="M36.975,72.928q1.119.8,2.335,1.589a1.443,1.443,0,0,0,1.476.062c.411-.222.806-.462,1.184-.711l1.288-4.022H38.649Z" fill="#eec06b"/>
        <path id="Trazado_113632" data-name="Trazado 113632" d="M51.405,79.149l-5.054-9.3H41.743l4.29,13.394A9.368,9.368,0,0,0,51.405,79.149Z" fill="#d97b7b"/>
        <path id="Trazado_113633" data-name="Trazado 113633" d="M41.743,69.847l1.093,3.412a17.07,17.07,0,0,0,3.515-3.412Z" fill="#d16161"/>
        <path id="Trazado_113634" data-name="Trazado 113634" d="M41.743,69.847,38.967,83.241a12.4,12.4,0,0,0,7.066,0L43.257,69.847Z" fill="#5a86cc"/>
        <path id="Trazado_113635" data-name="Trazado 113635" d="M40.76,74.591l.025-.011A17.9,17.9,0,0,0,43.8,72.488l-.547-2.641H41.743Z" fill="#3b68b0"/>
        <path id="Trazado_113636" data-name="Trazado 113636" d="M42.545,1.245a5.389,5.389,0,0,0-2.069.511L37.64,3.57s2.447,5,3.33,5.445,5.1-2.389,5.1-2.389V4.767a3.521,3.521,0,0,0-3.521-3.521Z" fill="#f5deb2"/>
        <path id="Trazado_113637" data-name="Trazado 113637" d="M40.97,7.537V6.414c0-1.374-1.1-2.845-3.33-2.845-1.485.949-2.461,2.354-1.157,5.063,1.661,0,3.166,1.123,4.255,2.94l.006.011,5.322-2.6V6.625a13.372,13.372,0,0,0-4.2,1.438.6.6,0,0,1-.9-.526Z" fill="#f4c497"/>
        <path id="Trazado_113638" data-name="Trazado 113638" d="M50.236,20.493c8.19,0,14.939-6.176,14.939-6.176l9.175,3.528,6.734-6.422L62.313,4.2a9.3,9.3,0,0,0-3.331-.635,5.445,5.445,0,0,0-5.445,5.443,5.446,5.446,0,0,1-5.445,5.446H36.908a5.446,5.446,0,0,1-5.445-5.446,5.445,5.445,0,0,0-5.445-5.443,9.3,9.3,0,0,0-3.331.635L3.916,11.422l6.734,6.422,9.175-3.528s6.748,6.176,14.939,6.176H50.236Z" fill="#ab7b64"/>
        <path id="Trazado_113639" data-name="Trazado 113639" d="M49.088,19a16.31,16.31,0,0,0,10.366-3.24l2.928-2.2a2.368,2.368,0,0,1,2.285-.311l9.185,3.6,7.232-5.426,2.67,1.027-9.4,7.056-9.175-3.528-3.984,2.989a16.785,16.785,0,0,1-10.421,3.406H34.229a16.785,16.785,0,0,1-10.421-3.406l-3.984-2.989L10.65,19.505l-9.4-7.056,2.67-1.027,7.232,5.426,9.185-3.6a2.368,2.368,0,0,1,2.285.311l2.928,2.2A16.309,16.309,0,0,0,35.912,19Z" fill="#8c5e5e"/>
        <path id="Trazado_113640" data-name="Trazado 113640" d="M37.274,19.822c-.919,2.342-.5,8.666-.255,12.312l13.5-3.3c.473-6.5.843-10.427-4.453-15.723C41.853,13.109,38.509,16.675,37.274,19.822Z" fill="#ab7b64"/>
        <path id="Trazado_113641" data-name="Trazado 113641" d="M38.448,29.209c-.248-3.646-.432-7.045.486-9.387a12.781,12.781,0,0,1,7.132-6.714V8.983a16.714,16.714,0,0,0-5.322,2.6,15.078,15.078,0,0,0-1.81,1.525c-6.943,6.943-4.149,11.535-4.149,22.647h15.43c0-2.635.157-4.9.3-6.924A62.718,62.718,0,0,0,42.5,29.866s-1.722-.353-4.053-.657Z" fill="#8c5e5e"/>
        <path id="Trazado_113642" data-name="Trazado 113642" d="M59.645,45.82A53.865,53.865,0,0,0,58.17,34.349a22.493,22.493,0,0,1-15.67,0,22.484,22.484,0,0,1-12.885.835c-.422,2.221-3.853,10.5-1.038,18.526s9.5,13.324,13.8,16.434C50.16,67.89,56.555,58.8,56.644,58.692v0l2.97-11.455q.028-.7.029-1.414Z" fill="#80b6fc"/>
        <path id="Trazado_113643" data-name="Trazado 113643" d="M32.65,58.69a25.046,25.046,0,0,1-3.834-11.455c-.092-1-.14-2.019-.14-3.075a50.264,50.264,0,0,1,.939-8.976,22.2,22.2,0,0,1-2.785-.835A53.865,53.865,0,0,0,25.356,45.82q0,.717.029,1.414l2.97,11.455c2.709,5.062,7.325,9.445,14.146,13.789,6.82-4.343,11.436-8.725,14.144-13.786-.086.1-5.45,6.939-12.5,10.047a1.853,1.853,0,0,1-1.74-.138A36.645,36.645,0,0,1,32.65,58.69Z" fill="#5a86cc"/>
        <path id="Trazado_113644" data-name="Trazado 113644" d="M32.65,58.69h24a25.934,25.934,0,0,0,2.97-11.455h-30.8c.2,2.132-1.055,4.134-.42,6.034s3.155,3.7,4.254,5.421Z" fill="#f3f1f4"/>
        <path id="Trazado_113645" data-name="Trazado 113645" d="M28.815,47.235H25.384a25.934,25.934,0,0,0,2.97,11.455h4.3A25.048,25.048,0,0,1,28.815,47.235Z" fill="#c8c3ca"/>
        <path id="Trazado_113646" data-name="Trazado 113646" d="M46.139,44.964c0-1.614.63-2.955,1.893-2.955s3.334,2.557,4.378.491h0c-.518,1.871-.365,4.735-3.3,4.735A2.74,2.74,0,0,1,46.139,44.964Z" fill="#eec06b"/>
        <path id="Trazado_113647" data-name="Trazado 113647" d="M38.861,44.964c0-1.614-.63-2.955-1.893-2.955s-3.334,2.557-4.378.491h0c.518,1.871.365,4.735,3.3,4.735A2.74,2.74,0,0,0,38.861,44.964Z" fill="#eec06b"/>
        <path id="Trazado_113648" data-name="Trazado 113648" d="M46.351,53.709s-1.64-6.475-3.851-6.475-3.851,6.475-3.851,6.475Z" fill="#d16161"/>
      </g>
      <g id="Grupo_80160" data-name="Grupo 80160">
        <path id="Trazado_113649" data-name="Trazado 113649" d="M40.428,82.324a11.641,11.641,0,0,0,4.143,0l-1.789-8.632a1.244,1.244,0,0,1-.564,0ZM35.041,79.1a8.2,8.2,0,0,0,3.005,2.452L39.963,72.3q-.456-.309-.9-.618Zm10-6.794,1.916,9.243a8.258,8.258,0,0,0,3.005-2.45l-4.026-7.41Q45.493,71.993,45.037,72.3Zm6.9-5.5c2.536,2.761,5.7,4.408,7.584,4.477a25.731,25.731,0,0,0,2.854-.6,16.187,16.187,0,0,1-1.814-.656,21.166,21.166,0,0,1-6.953-4.944q-.787.868-1.67,1.72Zm-29.316,3.88a25.809,25.809,0,0,0,2.854.6c1.882-.069,5.048-1.715,7.583-4.477q-.884-.853-1.67-1.72a21.169,21.169,0,0,1-6.953,4.944A16.238,16.238,0,0,1,22.623,70.677ZM34.9,68.471a20.189,20.189,0,0,1-3.17,2.793,16.137,16.137,0,0,0,4.683-1.55Q35.631,69.094,34.9,68.471Zm13.681,1.243a16.123,16.123,0,0,0,4.683,1.55A20.187,20.187,0,0,1,50.1,68.47q-.727.623-1.513,1.243Zm-9.167-.847Q40.867,69.935,42.5,71q1.633-1.064,3.083-2.131l.059-.043q1.788-1.321,3.3-2.66c-1.447-1.16-3.4-1.3-6.392-.524a19.237,19.237,0,0,1-6.463.556q1.5,1.325,3.268,2.628C39.378,68.837,39.4,68.851,39.417,68.867ZM8.863,38.469c-.227,3.235-.4,6.928-.4,10.764,0,12.309,2.631,16.152,7.176,18.629a7.578,7.578,0,0,0,4.9.744,14.676,14.676,0,0,1-3.758-4.561c-1.688-3.195-2.509-7.5-2.509-13.152,0-2.839.078-5.666.187-8.222Zm8.023,6.02c-.071,2.047-.118,4.223-.118,6.405,0,11,3.132,14.389,6.75,16.818a16.935,16.935,0,0,0,2.375-1.281c-3.374-2.245-6.634-6.3-6.634-15.537,0-1.4.03-2.978.076-4.569ZM59.108,66.431a16.951,16.951,0,0,0,2.375,1.28c3.618-2.429,6.75-5.82,6.75-16.818,0-2.182-.047-4.358-.118-6.405l-2.448,1.837c.046,1.591.076,3.168.076,4.569C65.742,60.135,62.482,64.186,59.108,66.431ZM21.779,48.16c-.019.954-.031,1.877-.031,2.734,0,8.766,3.07,12.069,6.29,13.939a19.09,19.09,0,0,0,1.737-1.682q-.738-.956-1.376-1.939a26.159,26.159,0,0,1-4.023-11.1ZM55.225,63.151a19.134,19.134,0,0,0,1.737,1.682c3.22-1.87,6.29-5.173,6.29-13.939,0-.856-.011-1.78-.031-2.734l-2.6,1.949a26.162,26.162,0,0,1-4.023,11.1Q55.962,62.2,55.225,63.151Zm-9.5-.478a7.4,7.4,0,0,1,5.045,1.773,28.948,28.948,0,0,0,3.69-4.511H30.544q.6.917,1.3,1.809c2.859,3.062,8.437,1.913,10.087,1.485a15.272,15.272,0,0,1,3.793-.555ZM45.668,48.48A22.049,22.049,0,0,1,47.558,53.4a1.245,1.245,0,0,1-1.207,1.551H43.745v2.49H55.884a24.35,24.35,0,0,0,2.41-8.965ZM29.116,57.445H41.255v-2.49H38.649A1.245,1.245,0,0,1,37.442,53.4a22.041,22.041,0,0,1,1.891-4.924H26.706A24.344,24.344,0,0,0,29.116,57.445Zm15.56-4.98c-1.018-3.022-1.79-3.931-2.176-3.979-.386.048-1.158.957-2.176,3.979ZM60.507,40.235a44.916,44.916,0,0,1,.383,5.585q0,.5-.013.985l2.261-1.7c-.084-2.506-.2-4.938-.285-6.634ZM21.863,45.11l2.261,1.7q-.013-.489-.013-.985a44.92,44.92,0,0,1,.383-5.585l-2.345-1.759C22.062,40.172,21.947,42.6,21.863,45.11Zm12.43-.624c.3,1.158.663,1.5,1.6,1.5,1.337,0,1.712-.874,1.726-1.034,0-.938-.277-1.682-.633-1.7-.519,0-1.535.933-2.69,1.232ZM26.6,45.99H32.17c-.293-.726-.637-2.736-1-3.716-.034-.092-.1-.155-.494-.086a1.245,1.245,0,0,1-.421-2.454,2.744,2.744,0,0,1,3.012,1.2c.213.332.29.964.5,1.124s.783-.35,1.08-.519a4.443,4.443,0,0,1,2.119-.772c1.877,0,3.138,1.688,3.138,4.2a2.807,2.807,0,0,1-.21,1.026H45.1a2.807,2.807,0,0,1-.21-1.026c0-2.512,1.261-4.2,3.138-4.2a4.443,4.443,0,0,1,2.119.772c.3.169.869.679,1.08.519s.289-.792.5-1.124a2.745,2.745,0,0,1,3.012-1.2,1.245,1.245,0,1,1-.421,2.454c-.395-.068-.46-.006-.494.086-.362.981-.707,2.991-1,3.716H58.4c0-.057,0-.113,0-.169a51.1,51.1,0,0,0-1.14-9.849,23.662,23.662,0,0,1-14.76-.3,23.66,23.66,0,0,1-14.76.3A51.1,51.1,0,0,0,26.6,45.82c0,.057,0,.113,0,.169H32.17c-.293-.726-.637-2.736-1-3.716-.034-.092-.1-.155-.494-.086a1.245,1.245,0,0,1-.421-2.454,2.744,2.744,0,0,1,3.012,1.2c.213.332.29.964.5,1.124s.783-.35,1.08-.519a4.443,4.443,0,0,1,2.119-.772c1.877,0,3.138,1.688,3.138,4.2a2.807,2.807,0,0,1-.21,1.026m8.121-2.736c-.356.02-.633.763-.633,1.7.014.161.389,1.034,1.726,1.034.934,0,1.3-.346,1.6-1.5-1.155-.3-2.171-1.232-2.69-1.232ZM34.293,44.486c.3,1.158.663,1.5,1.6,1.5,1.337,0,1.712-.874,1.726-1.034,0-.938-.277-1.682-.633-1.7-.519,0-1.535.933-2.69,1.232ZM65.25,36.677c.065,1.168.2,3.73.313,6.613l2.427-1.821c-.128-2.677-.283-4.974-.4-6.547ZM17.011,41.469l2.427,1.821c.113-2.883.248-5.445.313-6.613l-2.338-1.754C17.294,36.5,17.139,38.793,17.011,41.469Zm52.936-8.316c.093,1.114.277,3.485.443,6.515l5.518-4.14c-.232-2.666-.484-4.863-.67-6.345ZM9.094,35.529l5.517,4.139c.166-3.03.351-5.4.443-6.515L9.763,29.184c-.186,1.481-.437,3.678-.669,6.346ZM35.637,72.783a19.568,19.568,0,0,1-6.955,1.228,31.115,31.115,0,0,1-14.231-3.961M61.979,31.69c-1.968-.353-5.763-1.668-9.577-1.668-.238,0-.478,0-.72.009-.094,1.362-.179,2.84-.21,4.456a21.162,21.162,0,0,0,6.262-1.3,1.245,1.245,0,0,1,1.642.861c.029.114.36,1.436.706,3.4l22.925-17.2A1.245,1.245,0,0,1,84.5,22.233l-6.978,5.236c.15,1.094.439,3.333.724,6.3l4.76-3.571A1.245,1.245,0,0,1,84.5,32.194l-6,4.5c.176,2.224.332,4.71.425,7.341a1.245,1.245,0,1,1-2.489.088c-.071-1.987-.177-3.889-.3-5.655l-5.6,4.2c.108,2.556.187,5.383.187,8.222,0,5.655-.821,9.957-2.509,13.152a14.676,14.676,0,0,1-3.758,4.561,7.578,7.578,0,0,0,4.9-.744c4.545-2.477,7.176-6.32,7.176-18.629a1.245,1.245,0,0,1,2.49,0c0,6.128-.617,10.474-1.941,13.677a13.817,13.817,0,0,1-6.534,7.138,31.115,31.115,0,0,1-14.231,3.961,19.572,19.572,0,0,1-6.955-1.228h0L52.5,78.555a1.245,1.245,0,0,1,.011,1.168C52.4,79.939,49.686,85,42.5,85s-9.9-5.061-10.01-5.276a1.245,1.245,0,0,1,.011-1.168l3.136-5.772a19.568,19.568,0,0,1-6.955,1.228A31.115,31.115,0,0,1,14.452,70.05a13.815,13.815,0,0,1-6.533-7.138c-1.324-3.2-1.941-7.55-1.941-13.677,0-4.545.233-8.9.522-12.538l-6-4.5A1.245,1.245,0,1,1,1.993,30.2l4.761,3.572c.284-2.974.573-5.212.723-6.305L.5,22.233a1.245,1.245,0,0,1,1.494-1.992l22.925,17.2c.345-1.962.677-3.284.706-3.4a1.245,1.245,0,0,1,1.642-.861,21.155,21.155,0,0,0,6.262,1.3c-.031-1.643-.118-3.13-.21-4.456-.242-.006-.482-.009-.72-.009-3.814,0-7.609,1.315-9.577,1.668a3.238,3.238,0,0,1-3.751-2.626,3.6,3.6,0,0,1,1.254-3.11c.431-.478.69-.784.65-1.009a.748.748,0,0,0-.866-.606l-5.008.883a1.245,1.245,0,1,1-.432-2.452l5.008-.883a3.238,3.238,0,0,1,3.751,2.626,3.6,3.6,0,0,1-1.254,3.11c-.431.478-.69.784-.65,1.009a.738.738,0,0,0,.866.606,68.557,68.557,0,0,1,9.361-1.692,11.88,11.88,0,0,1-2.156-4.407,17.447,17.447,0,0,1-6.741-3.184,1.245,1.245,0,1,1,1.512-1.978,14.835,14.835,0,0,0,4.741,2.459q-.084-.861-.085-1.765a15.714,15.714,0,0,1,1.537-7.02,6.707,6.707,0,0,1-.54-2.635,4.2,4.2,0,0,0-4.2-4.2,8.133,8.133,0,0,0-2.885.552L1.692,13.612A1.245,1.245,0,1,1,.8,11.287L22.241,3.043a10.647,10.647,0,0,1,3.778-.718,6.7,6.7,0,0,1,6.69,6.658A6.091,6.091,0,0,1,34.8,7.68a4.38,4.38,0,0,1,2.167-5.159L39.805.707A6.3,6.3,0,0,1,42.482,0l.063,0a4.772,4.772,0,0,1,4.766,4.766v2.7a9.9,9.9,0,0,1,1.245-.081,1.245,1.245,0,0,1,0,2.49,7.772,7.772,0,0,0-1.245.106V12.6c.2.211.608.614.781.614a4.2,4.2,0,0,0,4.2-4.2,6.7,6.7,0,0,1,6.69-6.69,10.65,10.65,0,0,1,3.778.718L84.2,11.287a1.245,1.245,0,0,1-.894,2.324L61.866,5.367a8.133,8.133,0,0,0-2.885-.552,4.2,4.2,0,0,0-4.2,4.2,6.7,6.7,0,0,1-5.1,6.5A13.308,13.308,0,0,1,51.83,21.1a15.1,15.1,0,0,0,8.6-3.122,1.245,1.245,0,0,1,1.512,1.978,17.486,17.486,0,0,1-9.932,3.628c.017,1.244-.056,2.548-.154,3.954q.271,0,.541,0c4.083,0,8.1,1.291,10.01,1.706a.748.748,0,0,0,.866-.606c.04-.225-.219-.531-.65-1.009a3.6,3.6,0,0,1-1.254-3.11,3.238,3.238,0,0,1,3.751-2.627l5.008.883a1.245,1.245,0,0,1-.432,2.452l-5.008-.883a.748.748,0,0,0-.866.607c-.04.225.219.531.65,1.009a3.6,3.6,0,0,1,1.254,3.11,3.243,3.243,0,0,1-3.751,2.626ZM6.395,17.139A1.245,1.245,0,0,1,5.5,14.815l9.175-3.528a1.245,1.245,0,1,1,.894,2.324Zm4.7,3.528a1.245,1.245,0,1,1-.894-2.324l9.175-3.528a1.245,1.245,0,0,1,.894,2.324Zm67.509-3.528L69.43,13.612a1.245,1.245,0,0,1,.894-2.324L79.5,14.815a1.245,1.245,0,0,1-.894,2.324Zm-4.7,3.528-9.175-3.528a1.245,1.245,0,0,1,.894-2.324L74.8,18.343a1.245,1.245,0,1,1-.894,2.324Zm-38.08,9.508c.086,1.288.165,2.72.194,4.3a21.159,21.159,0,0,0,6.047-1.292,1.245,1.245,0,0,1,.871,0,21.166,21.166,0,0,0,6.047,1.292c.029-1.558.107-2.982.195-4.3a64.122,64.122,0,0,0-6.427.911,1.248,1.248,0,0,1-.5,0A64.1,64.1,0,0,0,35.824,30.175Zm4.569-1.946c.987.155,1.736.3,2.107.367a65.053,65.053,0,0,1,6.856-.937c.409-5.727.436-9.065-4.17-13.671a1.245,1.245,0,0,1-.365-.88v-2.4a16.017,16.017,0,0,0-2.452,1.271,15.927,15.927,0,0,1,1.377,6.69C43.745,22.744,42.422,26.25,40.393,28.23Zm-.074-14.716a13.417,13.417,0,0,0-4.326,6.348,1.245,1.245,0,0,1-1.549.837,1.226,1.226,0,0,1-.837-1.549,16.516,16.516,0,0,1,5.451-7.834,3.442,3.442,0,0,0-2.552-1.437h-.023c-2.587,0-4.772,4.026-4.772,8.792s2.185,8.792,4.772,8.792,4.772-4.026,4.772-8.792A14.036,14.036,0,0,0,40.319,13.514ZM37.338,7.462a6.228,6.228,0,0,1,3.732,2.4,17.967,17.967,0,0,1,3.751-1.8V4.767a2.278,2.278,0,0,0-2.244-2.276,4.122,4.122,0,0,0-1.43.314L38.31,4.619a2.038,2.038,0,0,0-.973,2.843Z"/>
      </g>
    </g>
  </g>
</svg>
