<svg xmlns="http://www.w3.org/2000/svg" xmlns:xlink="http://www.w3.org/1999/xlink" width="105" height="88.974" viewBox="0 0 105 88.974">
  <defs>
    <clipPath id="clip-path">
      <rect id="Imagen_19" data-name="Imagen 19" width="105" height="88.974" rx="19" transform="translate(495 3913)"/>
    </clipPath>
  </defs>
  <g id="Enmascarar_grupo_122" data-name="Enmascarar grupo 122" transform="translate(-495 -3913)" clip-path="url(#clip-path)">
    <g id="prueba-de-recuento-de-sangre" transform="translate(503.013 3913)">
      <path id="Trazado_116383" data-name="Trazado 116383" d="M114.52,57.918v.373A33.006,33.006,0,0,1,57.1,80.505c.014-.23.014-.459.014-.689V39.635h2.87a2.879,2.879,0,0,0,2.87-2.87v-2.87a2.87,2.87,0,0,0-2.411-2.827L79.217,6.342a2.87,2.87,0,0,1,4.592,0L107.8,37.97A32.953,32.953,0,0,1,114.52,57.918Z" transform="translate(-26.981 -3.758)" fill="#ef7385"/>
      <path id="Trazado_116384" data-name="Trazado 116384" d="M32.8,31.161h2.87a2.879,2.879,0,0,1,2.87,2.87v8.61H15.581v-8.61a2.879,2.879,0,0,1,2.87-2.87H32.8Z" transform="translate(-8.405 -15.376)" fill="#37bc9b"/>
      <path id="Trazado_116385" data-name="Trazado 116385" d="M33.895,51.935h2.87a2.375,2.375,0,0,1,.459.043,2.87,2.87,0,0,1,2.411,2.827v2.87a2.879,2.879,0,0,1-2.87,2.87H8.064a2.879,2.879,0,0,1-2.87-2.87v-2.87a2.879,2.879,0,0,1,2.87-2.87H33.895Z" transform="translate(-3.758 -24.669)" fill="#aab2bd"/>
      <path id="Trazado_116386" data-name="Trazado 116386" d="M38.542,90.477v10.045c0-1.435-2.87-4.305-7.175-4.305-3.415,0-6.845,2.554-9.055,4.607-2.454-1.636-4.75-3.171-6.73-3.171V67.516H38.542V90.477Z" transform="translate(-8.405 -31.64)" fill="#e6e9ed"/>
      <path id="Trazado_116387" data-name="Trazado 116387" d="M38.527,132.783a11.483,11.483,0,0,1-22.947-.689V122.048c1.98,0,4.276,1.536,6.73,3.171,2.87,1.923,5.97,4,9.055,4,4.305,0,7.175-2.87,7.175-4.305v7.175C38.542,132.323,38.542,132.553,38.527,132.783Z" transform="translate(-8.405 -56.036)" fill="#ed5565"/>
      <path id="Trazado_116388" data-name="Trazado 116388" d="M36.815,119.452c4.305,0,7.175,2.87,7.175,4.305s-2.87,4.305-7.175,4.305c-3.085,0-6.185-2.081-9.055-4C29.97,122.006,33.4,119.452,36.815,119.452Z" transform="translate(-13.854 -54.874)" fill="#da4453"/>
      <g id="Grupo_81271" data-name="Grupo 81271" transform="translate(35.877 18.656)">
        <ellipse id="Elipse_4802" data-name="Elipse 4802" cx="4.305" cy="5.74" rx="4.305" ry="5.74" transform="translate(8.61)" fill="#ed5565"/>
        <ellipse id="Elipse_4803" data-name="Elipse 4803" cx="4.305" cy="5.74" rx="4.305" ry="5.74" transform="translate(22.961 7.175)" fill="#ed5565"/>
        <path id="Trazado_116389" data-name="Trazado 116389" d="M83.589,74.131c4.434,4.434,5.338,10.734,2.009,14.064s-9.629,2.425-14.064-2.009S66.2,75.452,69.525,72.122s9.629-2.425,14.064,2.009Z" transform="translate(-67.517 -51.457)" fill="#ed5565"/>
        <path id="Trazado_116390" data-name="Trazado 116390" d="M95.985,116.267c3.329,3.329,2.425,9.629-2.009,14.064s-10.734,5.338-14.064,2.009-2.425-9.629,2.009-14.064S92.656,112.938,95.985,116.267Z" transform="translate(-72.164 -71.207)" fill="#ed5565"/>
        <path id="Trazado_116391" data-name="Trazado 116391" d="M132.34,79.913c3.329,3.329,2.425,9.629-2.009,14.064s-10.734,5.338-14.064,2.009-2.425-9.629,2.009-14.064,10.734-5.338,14.064-2.009Z" transform="translate(-88.428 -54.943)" fill="#ed5565"/>
      </g>
      <path id="Trazado_116392" data-name="Trazado 116392" d="M96.586,124.975c.689.689.459,3.473-2.009,5.941a7.257,7.257,0,0,1-4.793,2.339,1.728,1.728,0,0,1-1.148-.33c-.7-.689-.459-3.473,2.009-5.941a7.257,7.257,0,0,1,4.779-2.339,1.766,1.766,0,0,1,1.162.33Z" transform="translate(-40.935 -57.197)" fill="#da4453"/>
      <path id="Trazado_116393" data-name="Trazado 116393" d="M86.514,87.633a1.766,1.766,0,0,1-.33,1.162c-.689.689-3.473.459-5.941-2.009A7.257,7.257,0,0,1,77.9,81.994a1.728,1.728,0,0,1,.33-1.148c.689-.7,3.473-.459,5.941,2.009A7.257,7.257,0,0,1,86.514,87.633Z" transform="translate(-36.287 -37.449)" fill="#da4453"/>
      <path id="Trazado_116394" data-name="Trazado 116394" d="M132.894,88.62c.7.689.459,3.473-2.009,5.941a7.257,7.257,0,0,1-4.779,2.339,1.766,1.766,0,0,1-1.162-.33c-.689-.689-.459-3.473,2.009-5.941a7.257,7.257,0,0,1,4.793-2.339A1.728,1.728,0,0,1,132.894,88.62Z" transform="translate(-57.181 -40.933)" fill="#da4453"/>
      <path id="Trazado_116395" data-name="Trazado 116395" d="M111.116,135.333l.6,2.806a28.883,28.883,0,0,0,19.988-15.974l-2.6-1.213A26.013,26.013,0,0,1,111.116,135.333Z" transform="translate(-51.145 -55.545)"/>
      <path id="Trazado_116396" data-name="Trazado 116396" d="M145.557,113.953l2.718.923a28.186,28.186,0,0,0,.871-3.154l-2.806-.6A26.133,26.133,0,0,1,145.557,113.953Z" transform="translate(-66.553 -51.146)"/>
      <path id="Trazado_116397" data-name="Trazado 116397" d="M84.569,35.935,60.575,4.307a4.325,4.325,0,0,0-6.891,0l-18.3,24.12H34.168V21.253a4.31,4.31,0,0,0-4.305-4.305H12.642a4.31,4.31,0,0,0-4.305,4.305v7.175H6.9A4.31,4.31,0,0,0,2.6,32.733V35.6A4.31,4.31,0,0,0,6.9,39.908H8.337V78.655a12.912,12.912,0,0,0,25.3,3.642A34.428,34.428,0,0,0,91.57,57.129v-.377A34.65,34.65,0,0,0,84.569,35.935ZM11.207,21.253a1.437,1.437,0,0,1,1.435-1.435h1.435v5.74h2.87v-5.74h2.87v5.74h2.87v-5.74h2.87v5.74h2.87v-5.74h1.435A1.437,1.437,0,0,1,31.3,21.253v7.175H11.207ZM5.467,35.6v-2.87A1.437,1.437,0,0,1,6.9,31.3H35.6a1.437,1.437,0,0,1,1.435,1.435V35.6A1.437,1.437,0,0,1,35.6,37.038H6.9A1.437,1.437,0,0,1,5.467,35.6ZM31.3,71.452c-.1.6-2.1,2.9-5.74,2.9-2.153,0-4.433-1.261-6.686-2.721,2.428-1.959,4.762-3.019,6.686-3.019,3.639,0,5.641,2.3,5.74,2.836Zm0-31.544v2.87h-8.61v2.87H31.3v2.87h-5.74v2.87H31.3v2.87h-8.61v2.87H31.3V60h-5.74v2.87H31.3V67.44a10.4,10.4,0,0,0-5.74-1.7c-3.441,0-6.769,2.153-9.18,4.232a17.494,17.494,0,0,0-5.171-2.609V39.908ZM21.253,88.7A10.056,10.056,0,0,1,11.207,78.655v-8.3A25.385,25.385,0,0,1,15.752,73c2.949,1.976,6.293,4.216,9.806,4.216a10.4,10.4,0,0,0,5.74-1.7v3.136A10.056,10.056,0,0,1,21.253,88.7ZM88.7,57.129A31.561,31.561,0,0,1,34.162,78.777c0-.042.006-.08.006-.122V39.908H35.6A4.31,4.31,0,0,0,39.908,35.6v-2.87a4.281,4.281,0,0,0-1.64-3.355l17.7-23.334a1.511,1.511,0,0,1,2.318,0L82.281,37.67A31.751,31.751,0,0,1,88.7,56.752Z" transform="translate(-2.597 -2.597)"/>
      <path id="Trazado_116398" data-name="Trazado 116398" d="M88.54,132.892a5.763,5.763,0,0,1,1.93-3.823l-2.029-2.029a9.455,9.455,0,0,0-2.566,4.294,3.8,3.8,0,0,0,.555,3.678,3.06,3.06,0,0,0,2.174.751,8.664,8.664,0,0,0,5.8-2.758l-2.029-2.029A6.051,6.051,0,0,1,88.54,132.892Z" transform="translate(-39.761 -58.268)"/>
      <path id="Trazado_116399" data-name="Trazado 116399" d="M95.854,114.1c-3.882-3.885-11.1-2.982-16.091,2.009s-5.891,12.209-2.009,16.091a8.617,8.617,0,0,0,6.22,2.412,14.332,14.332,0,0,0,9.872-4.421c4.99-4.99,5.891-12.208,2.009-16.091Zm-4.038,14.064c-3.872,3.87-9.269,4.773-12.033,2.009s-1.863-8.163,2.009-12.033a11.515,11.515,0,0,1,7.825-3.612,5.813,5.813,0,0,1,4.209,1.6c2.761,2.762,1.86,8.161-2.011,12.033Z" transform="translate(-35.141 -51.402)"/>
      <path id="Trazado_116400" data-name="Trazado 116400" d="M88.827,87.188a9.429,9.429,0,0,0-2.566-4.294l-2.029,2.029a5.761,5.761,0,0,1,1.93,3.823,5.99,5.99,0,0,1-3.836-1.916L80.3,88.86a8.674,8.674,0,0,0,5.8,2.757,3.056,3.056,0,0,0,2.171-.749,3.811,3.811,0,0,0,.557-3.679Z" transform="translate(-37.358 -38.519)"/>
      <path id="Trazado_116401" data-name="Trazado 116401" d="M85.466,88.063c3.883-3.883,2.982-11.1-2.009-16.091s-12.211-5.892-16.091-2.009-2.982,11.1,2.009,16.091a14.332,14.332,0,0,0,9.872,4.421,8.631,8.631,0,0,0,6.22-2.412ZM69.393,71.99a5.813,5.813,0,0,1,4.209-1.6A11.518,11.518,0,0,1,81.427,74c3.872,3.872,4.773,9.269,2.009,12.033S75.274,87.893,71.4,84.023s-4.773-9.269-2.011-12.033Z" transform="translate(-30.493 -31.655)"/>
      <path id="Trazado_116402" data-name="Trazado 116402" d="M122.786,98.655a3.06,3.06,0,0,0,2.174.751,8.664,8.664,0,0,0,5.8-2.758l-2.029-2.029a6.064,6.064,0,0,1-3.836,1.916,5.763,5.763,0,0,1,1.93-3.823L124.8,90.682a9.455,9.455,0,0,0-2.566,4.294,3.813,3.813,0,0,0,.555,3.679Z" transform="translate(-56.026 -42.003)"/>
      <path id="Trazado_116403" data-name="Trazado 116403" d="M116.114,79.759c-4.991,4.991-5.891,12.209-2.009,16.091a8.617,8.617,0,0,0,6.22,2.412,14.332,14.332,0,0,0,9.872-4.421c4.991-4.991,5.891-12.209,2.009-16.091S121.1,74.77,116.114,79.759Zm14.064.02c2.764,2.764,1.863,8.163-2.009,12.033s-9.27,4.774-12.033,2.009-1.863-8.163,2.009-12.033a11.515,11.515,0,0,1,7.825-3.612,5.824,5.824,0,0,1,4.208,1.6Z" transform="translate(-51.403 -35.139)"/>
      <path id="Trazado_116404" data-name="Trazado 116404" d="M86.24,48.109c3.166,0,5.74-3.219,5.74-7.175s-2.574-7.175-5.74-7.175-5.74,3.219-5.74,7.175S83.074,48.109,86.24,48.109Zm0-11.48c1.556,0,2.87,1.972,2.87,4.305s-1.315,4.305-2.87,4.305-2.87-1.972-2.87-4.305S84.685,36.628,86.24,36.628Z" transform="translate(-37.448 -16.537)"/>
      <path id="Trazado_116405" data-name="Trazado 116405" d="M112.208,61.093c3.166,0,5.74-3.219,5.74-7.175s-2.574-7.175-5.74-7.175-5.74,3.219-5.74,7.175S109.042,61.093,112.208,61.093Zm0-11.48c1.556,0,2.87,1.972,2.87,4.305s-1.315,4.305-2.87,4.305-2.87-1.972-2.87-4.305S110.652,49.612,112.208,49.612Z" transform="translate(-49.065 -22.346)"/>
    </g>
  </g>
</svg>
