<svg xmlns="http://www.w3.org/2000/svg" width="84" height="84" viewBox="0 0 84 84">
  <g id="documento" transform="translate(-16 -16)">
    <path id="Trazado_114278" data-name="Trazado 114278" d="M363.158,118.4H354.8l-2.8-2.8.042-75.6,2.758.5,21,3.7Z" transform="translate(-277.2 -19.8)" fill="#fdbf44"/>
    <path id="Trazado_114279" data-name="Trazado 114279" d="M396.158,197.891H392v-2.8h2.977l10.3-60.435,2.76.47-10.5,61.6A1.4,1.4,0,0,1,396.158,197.891Z" transform="translate(-310.201 -97.891)"/>
    <path id="Trazado_114280" data-name="Trazado 114280" d="M407.364,53.57l-2.76-.47,1.436-8.427-15.429-2.721.486-2.757,16.8,2.962a1.4,1.4,0,0,1,1.137,1.614Z" transform="translate(-309.055 -19.135)"/>
    <g id="Grupo_80661" data-name="Grupo 80661" transform="translate(16 16)">
      <path id="Trazado_114281" data-name="Trazado 114281" d="M24,24H84.2v81.2H24Z" transform="translate(-22.6 -22.6)" fill="#25b1fa"/>
      <rect id="Rect치ngulo_34026" data-name="Rect치ngulo 34026" width="14" height="14" rx="7" transform="translate(8.002 42)" fill="#fcfeff"/>
      <rect id="Rect치ngulo_34027" data-name="Rect치ngulo 34027" width="14" height="14" rx="7" transform="translate(8.002 63)" fill="#fcfeff"/>
      <path id="Trazado_114282" data-name="Trazado 114282" d="M77.6,100H17.4A1.4,1.4,0,0,1,16,98.6v-21h2.8V97.2H76.2V18.8H18.8v56H16V17.4A1.4,1.4,0,0,1,17.4,16H77.6A1.4,1.4,0,0,1,79,17.4V98.6A1.4,1.4,0,0,1,77.6,100Z" transform="translate(-16 -16)"/>
      <g id="Grupo_80660" data-name="Grupo 80660" transform="translate(7 40.6)">
        <g id="Grupo_80658" data-name="Grupo 80658" transform="translate(0 0)">
          <path id="Trazado_114283" data-name="Trazado 114283" d="M87.533,262.9a1.4,1.4,0,0,1-.99-.41l-4.2-4.2,1.98-1.98,3.131,3.131,7.416-8.652L97,252.615l-8.4,9.8a1.4,1.4,0,0,1-1.009.488Z" transform="translate(-77.733 -250.304)"/>
          <path id="Trazado_114284" data-name="Trazado 114284" d="M67.9,264.8h-7a4.906,4.906,0,0,1-4.9-4.9v-7a4.906,4.906,0,0,1,4.9-4.9h6.3v2.8H60.9a2.1,2.1,0,0,0-2.1,2.1v7a2.1,2.1,0,0,0,2.1,2.1h7a2.1,2.1,0,0,0,2.1-2.1v-.7h2.8v.7A4.906,4.906,0,0,1,67.9,264.8Z" transform="translate(-56 -248)"/>
        </g>
        <g id="Grupo_80659" data-name="Grupo 80659" transform="translate(0 21)">
          <path id="Trazado_114285" data-name="Trazado 114285" d="M87.533,382.9a1.4,1.4,0,0,1-.99-.41l-4.2-4.2,1.98-1.98,3.131,3.131,7.416-8.652L97,372.615l-8.4,9.8a1.4,1.4,0,0,1-1.009.488Z" transform="translate(-77.733 -370.304)"/>
          <path id="Trazado_114286" data-name="Trazado 114286" d="M67.9,384.8h-7a4.906,4.906,0,0,1-4.9-4.9v-7a4.906,4.906,0,0,1,4.9-4.9h6.3v2.8H60.9a2.1,2.1,0,0,0-2.1,2.1v7a2.1,2.1,0,0,0,2.1,2.1h7a2.1,2.1,0,0,0,2.1-2.1v-.7h2.8v.7A4.906,4.906,0,0,1,67.9,384.8Z" transform="translate(-56 -368)"/>
        </g>
        <path id="Trazado_114287" data-name="Trazado 114287" d="M184,368h21v2.8H184Z" transform="translate(-161.6 -347)"/>
        <path id="Trazado_114288" data-name="Trazado 114288" d="M184,408h7v2.8h-7Z" transform="translate(-161.6 -380)"/>
      </g>
      <path id="Trazado_114289" data-name="Trazado 114289" d="M240,408h11.2v2.8H240Z" transform="translate(-200.8 -339.401)"/>
      <path id="Trazado_114290" data-name="Trazado 114290" d="M184,248h21v2.8H184Z" transform="translate(-154.6 -207.4)"/>
      <path id="Trazado_114291" data-name="Trazado 114291" d="M184,288h7v2.8h-7Z" transform="translate(-154.6 -240.4)"/>
      <path id="Trazado_114292" data-name="Trazado 114292" d="M240,288h11.2v2.8H240Z" transform="translate(-200.8 -240.4)"/>
      <path id="Trazado_114293" data-name="Trazado 114293" d="M137.542,81.763a21.52,21.52,0,0,1-8.493-13.494L128,61.611,140.582,56l12.582,5.611-1.06,6.714A21.514,21.514,0,0,1,143.5,81.9l-2.908,2.114Z" transform="translate(-108.4 -49)" fill="#ffd817"/>
      <path id="Trazado_114294" data-name="Trazado 114294" d="M134,78.81a1.4,1.4,0,0,1-.83-.273l-3.052-2.248a22.915,22.915,0,0,1-9.04-14.37c0-.011,0-.022-.006-.033l-1.048-6.659a1.4,1.4,0,0,1,.813-1.5l12.582-5.611a1.4,1.4,0,0,1,1.14,0l12.582,5.611a1.4,1.4,0,0,1,.813,1.5l-1.06,6.714c0,.011,0,.022-.005.033a22.909,22.909,0,0,1-9.158,14.455l-2.908,2.114A1.4,1.4,0,0,1,134,78.81ZM123.831,61.435a20.127,20.127,0,0,0,7.943,12.6L134,75.676l2.079-1.511a20.121,20.121,0,0,0,8.047-12.675l.89-5.637-11.033-4.919-11.033,4.92Z" transform="translate(-101.802 -42.4)"/>
      <path id="Trazado_114295" data-name="Trazado 114295" d="M167.343,109.191a1.4,1.4,0,0,1-.99-.41l-4.2-4.2,1.98-1.98,3.21,3.21,7.41-7.41,1.98,1.98-8.4,8.4A1.4,1.4,0,0,1,167.343,109.191Z" transform="translate(-136.576 -83.98)"/>
      <path id="Trazado_114296" data-name="Trazado 114296" d="M56,48h8.4v2.8H56Z" transform="translate(-49 -42.4)"/>
      <path id="Trazado_114297" data-name="Trazado 114297" d="M56,80h5.6v2.8H56Z" transform="translate(-49 -68.8)"/>
      <path id="Trazado_114298" data-name="Trazado 114298" d="M296,48h2.8v2.8H296Z" transform="translate(-247 -42.4)"/>
      <path id="Trazado_114299" data-name="Trazado 114299" d="M328,48h2.8v2.8H328Z" transform="translate(-273.4 -42.4)"/>
    </g>
  </g>
</svg>
