<svg xmlns="http://www.w3.org/2000/svg" xmlns:xlink="http://www.w3.org/1999/xlink" width="105" height="105" viewBox="0 0 105 105">
  <defs>
    <clipPath id="clip-path">
      <rect id="Rectángulo_34832" data-name="Rectángulo 34832" width="105" height="105" transform="translate(1020 2945)" fill="#fff" stroke="#707070" stroke-width="1"/>
    </clipPath>
  </defs>
  <g id="Enmascarar_grupo_125" data-name="Enmascarar grupo 125" transform="translate(-1020 -2945)" clip-path="url(#clip-path)">
    <g id="policia_2_" data-name="policia (2)" transform="translate(1038.628 2945)">
      <g id="Grupo_82333" data-name="Grupo 82333">
        <g id="Grupo_82316" data-name="Grupo 82316">
          <path id="Trazado_118932" data-name="Trazado 118932" d="M47.421,86.37l-1.456,8.739a1.692,1.692,0,0,1-1.677,1.423h-3.9a1.692,1.692,0,0,1-1.677-1.423L37.259,86.37H47.421Z" fill="#aab2bd"/>
        </g>
        <g id="Grupo_82317" data-name="Grupo 82317">
          <path id="Trazado_118933" data-name="Trazado 118933" d="M50.808,79.6A3.4,3.4,0,0,1,54.2,82.983a3.412,3.412,0,0,1-3.387,3.387H40.646V82.983A3.4,3.4,0,0,1,44.034,79.6Z" fill="#ccd1d9"/>
        </g>
        <g id="Grupo_82318" data-name="Grupo 82318">
          <path id="Trazado_118934" data-name="Trazado 118934" d="M28.791,103.306H15.242V86.37H37.259l1.457,8.739a1.692,1.692,0,0,0,1.677,1.423H42.34v6.774Z" fill="#969faa"/>
        </g>
        <g id="Grupo_82319" data-name="Grupo 82319">
          <path id="Trazado_118935" data-name="Trazado 118935" d="M55.872,55.886,54.2,64.354A28.946,28.946,0,0,0,42.34,57.19c-.559-.169-1.135-.339-1.711-.474a14.792,14.792,0,0,1-3.98,1.88l-1.084,9.145L28.791,62.66l-6.774,5.081L20.933,58.6a11.486,11.486,0,0,1-1.8-.677v.017a22.671,22.671,0,0,0-3.9,2.219A23.632,23.632,0,0,0,5.081,79.6a3.412,3.412,0,0,0,3.387,3.387h6.774V86.37h25.4V82.983a3.381,3.381,0,0,1,1.694-2.93V69.434l9.7,5.538a9.362,9.362,0,0,0,14.006-8.129V55.886Z" fill="#aab2bd"/>
        </g>
        <g id="Grupo_82320" data-name="Grupo 82320">
          <path id="Trazado_118936" data-name="Trazado 118936" d="M25.4,59.273h6.774A15.043,15.043,0,0,0,36.65,58.6l-1.084,9.145L28.791,62.66l-6.774,5.081L20.933,58.6A15.043,15.043,0,0,0,25.4,59.273Z" fill="#969faa"/>
        </g>
        <g id="Grupo_82321" data-name="Grupo 82321">
          <path id="Trazado_118937" data-name="Trazado 118937" d="M52.5,16.933H5.081l-2.862-4.3A3.1,3.1,0,0,1,1.694,10.9v-.051a3.1,3.1,0,0,1,2.32-3L25.472,2.131a12.85,12.85,0,0,1,3.319-.44,13.078,13.078,0,0,1,3.336.44L53.586,7.889a3.135,3.135,0,0,1,2.3,3.015,3.1,3.1,0,0,1-.525,1.727Z" fill="#969faa"/>
        </g>
        <g id="Grupo_82322" data-name="Grupo 82322">
          <path id="Trazado_118938" data-name="Trazado 118938" d="M50.808,23.707H3.387a1.7,1.7,0,0,1-1.694-1.694V18.626a1.7,1.7,0,0,1,1.694-1.694H54.2a1.7,1.7,0,0,1,1.694,1.694v3.387A1.7,1.7,0,0,1,54.2,23.707H50.808Z" fill="#aab2bd"/>
        </g>
        <g id="Grupo_82323" data-name="Grupo 82323">
          <path id="Trazado_118939" data-name="Trazado 118939" d="M6.774,23.707H50.808a12.411,12.411,0,0,1-3.387,4.132,12.167,12.167,0,0,1-7.57,2.642H17.732a12.167,12.167,0,0,1-7.57-2.642,12.411,12.411,0,0,1-3.387-4.132Z" fill="#ccd1d9"/>
        </g>
        <g id="Grupo_82324" data-name="Grupo 82324">
          <path id="Trazado_118940" data-name="Trazado 118940" d="M53.857,23.707a18.823,18.823,0,0,1-1.389,11.432,5.107,5.107,0,0,0-3.353-1.27H47.421V27.839a12.411,12.411,0,0,0,3.387-4.132Z" fill="#b27946"/>
        </g>
        <g id="Grupo_82325" data-name="Grupo 82325">
          <path id="Trazado_118941" data-name="Trazado 118941" d="M6.774,23.707a12.411,12.411,0,0,0,3.387,4.132v6.029H8.468a5.053,5.053,0,0,0-3.607,1.507,12.132,12.132,0,0,1-1.473-5.809V26.2a12.174,12.174,0,0,1,.254-2.49Z" fill="#b27946"/>
        </g>
        <g id="Grupo_82326" data-name="Grupo 82326">
          <path id="Trazado_118942" data-name="Trazado 118942" d="M15.242,86.37v6.774H11.855a3.4,3.4,0,0,1-3.387-3.387V82.983h6.774Z" fill="#f0d0b4"/>
        </g>
        <g id="Grupo_82327" data-name="Grupo 82327">
          <path id="Trazado_118943" data-name="Trazado 118943" d="M66.051,47.417v8.468H55.872L53.5,53.514a3.34,3.34,0,0,1-1-2.4v-.3a3.366,3.366,0,0,1,.982-2.388,3.322,3.322,0,0,1,2.4-1,5.081,5.081,0,0,1,10.162,0Z" fill="#f0d0b4"/>
        </g>
        <g id="Grupo_82328" data-name="Grupo 82328">
          <path id="Trazado_118944" data-name="Trazado 118944" d="M54.2,38.949a5.088,5.088,0,0,1-5.081,5.081H47.421V33.869h1.694a5.107,5.107,0,0,1,3.353,1.27A5.023,5.023,0,0,1,54.2,38.949Z" fill="#f0d0b4"/>
        </g>
        <g id="Grupo_82329" data-name="Grupo 82329">
          <path id="Trazado_118945" data-name="Trazado 118945" d="M17.732,30.481H39.85a12.167,12.167,0,0,0,7.57-2.642V44.03A15.217,15.217,0,0,1,40.63,56.715a14.793,14.793,0,0,1-3.98,1.88,15.043,15.043,0,0,1-4.471.677H25.4a15.043,15.043,0,0,1-4.471-.677,11.486,11.486,0,0,1-1.8-.677A15.216,15.216,0,0,1,10.162,44.03V27.839a12.167,12.167,0,0,0,7.57,2.642Z" fill="#f0d0b4"/>
        </g>
        <g id="Grupo_82330" data-name="Grupo 82330">
          <path id="Trazado_118946" data-name="Trazado 118946" d="M10.162,33.869V44.03H8.468a5.081,5.081,0,0,1,0-10.162Z" fill="#f0d0b4"/>
        </g>
        <g id="Grupo_82331" data-name="Grupo 82331">
          <path id="Trazado_118947" data-name="Trazado 118947" d="M22.017,45.724H35.566a6.774,6.774,0,1,1-13.549,0Z" fill="#ff826e"/>
        </g>
        <g id="Grupo_82332" data-name="Grupo 82332">
          <path id="Trazado_118948" data-name="Trazado 118948" d="M28.537,15.154a7.065,7.065,0,0,1-4.827-6.69l5.081-1.694,5.081,1.694a6.991,6.991,0,0,1-1.338,4.115,7.152,7.152,0,0,1-3.489,2.574l-.254.085Z" fill="#fcd770"/>
        </g>
      </g>
      <g id="Grupo_82334" data-name="Grupo 82334">
        <path id="Trazado_118949" data-name="Trazado 118949" d="M20.322,45.724a8.468,8.468,0,1,0,16.936,0V44.03H20.322Zm13.259,1.694a5.082,5.082,0,0,1-9.582,0Z"/>
        <path id="Trazado_118950" data-name="Trazado 118950" d="M20.322,37.256a3.391,3.391,0,0,1,3.387,3.387H27.1a6.774,6.774,0,1,0-13.549,0h3.387A3.391,3.391,0,0,1,20.322,37.256Z"/>
        <path id="Trazado_118951" data-name="Trazado 118951" d="M37.258,37.256a3.391,3.391,0,0,1,3.387,3.387h3.387a6.774,6.774,0,1,0-13.549,0H33.87A3.391,3.391,0,0,1,37.258,37.256Z"/>
        <circle id="Elipse_4817" data-name="Elipse 4817" cx="1.694" cy="1.694" r="1.694" transform="translate(33.872 77.902)"/>
        <circle id="Elipse_4818" data-name="Elipse 4818" cx="1.694" cy="1.694" r="1.694" transform="translate(33.872 71.128)"/>
        <path id="Trazado_118952" data-name="Trazado 118952" d="M60.97,40.643a6.784,6.784,0,0,0-6.617,5.318,5.1,5.1,0,0,0-3.55,4.847v.3a5.051,5.051,0,0,0,1.5,3.607l1.733,1.726-.925,4.669a30.532,30.532,0,0,0-8.986-5.093,16.889,16.889,0,0,0,4.9-10.3h.086a6.781,6.781,0,0,0,6.774-6.774A6.7,6.7,0,0,0,54.426,34.8,19.772,19.772,0,0,0,55.752,25a3.377,3.377,0,0,0,1.831-2.991V18.626a3.389,3.389,0,0,0-2.09-3.126l1.28-1.921a4.812,4.812,0,0,0-2.754-7.318L32.566.5A14.652,14.652,0,0,0,25.03.489L3.572,6.21A4.834,4.834,0,0,0,0,10.908a4.777,4.777,0,0,0,.81,2.669L2.092,15.5A3.391,3.391,0,0,0,0,18.626v3.387a3.375,3.375,0,0,0,1.756,2.95c-.036.412-.063.825-.063,1.236v3.37a14,14,0,0,0,1.184,5.563,6.767,6.767,0,0,0,5.591,10.59h.086A16.933,16.933,0,0,0,15.662,57.86,25.434,25.434,0,0,0,3.387,79.6a5.074,5.074,0,0,0,3.387,4.769v5.392a5.087,5.087,0,0,0,5.081,5.081h1.694V105H44.034V98.226h.259a3.38,3.38,0,0,0,3.341-2.83l1.221-7.332h1.953a5.081,5.081,0,1,0,0-10.162H44.034v-5.55L51.2,76.444A11.061,11.061,0,0,0,56.68,77.9h0A11.064,11.064,0,0,0,67.744,66.84V47.417a6.782,6.782,0,0,0-6.774-6.774ZM54.19,50.81a1.7,1.7,0,0,1,1.7-1.7h1.694V47.417a3.387,3.387,0,0,1,6.774,0v6.774H56.571l-1.88-1.871a1.691,1.691,0,0,1-.5-1.208ZM5.618,32.825a10.523,10.523,0,0,1-.537-3.255V26.2c0-.268.02-.533.041-.8h.689a13.992,13.992,0,0,0,2.657,3.231v3.545a6.676,6.676,0,0,0-2.85.649ZM25.534,9.643l3.257-1.087,3.257,1.086a5.352,5.352,0,0,1-3.257,3.806,5.352,5.352,0,0,1-3.257-3.8ZM54.2,18.626l0,3.387H3.387V18.626ZM9.979,25.4H47.6a10.5,10.5,0,0,1-7.757,3.387H17.735A10.5,10.5,0,0,1,9.979,25.4Zm41.791,0h.62a16.688,16.688,0,0,1-.766,7.269,6.724,6.724,0,0,0-2.51-.495V28.63A13.9,13.9,0,0,0,51.77,25.4ZM49.114,42.337V35.562a3.387,3.387,0,1,1,0,6.774ZM4.446,9.484,25.9,3.763a11.236,11.236,0,0,1,5.784.005L53.14,9.533a1.423,1.423,0,0,1,.815,2.166l-2.361,3.54H32.321a8.712,8.712,0,0,0,3.245-6.774V7.245L28.791,4.988,22.017,7.245V8.466a8.718,8.718,0,0,0,3.245,6.774H5.987L3.626,11.7a1.456,1.456,0,0,1-.239-.835A1.426,1.426,0,0,1,4.446,9.484Zm.635,29.465a3.391,3.391,0,0,1,3.387-3.387v6.774A3.391,3.391,0,0,1,5.081,38.949Zm6.774,5.083V30.873a13.951,13.951,0,0,0,5.88,1.3H39.849a13.957,13.957,0,0,0,5.88-1.3V44.03A13.564,13.564,0,0,1,32.178,57.579H25.4A13.563,13.563,0,0,1,11.855,44.032Zm11.5,20.589-.459-3.861a16.8,16.8,0,0,0,2.51.207h3.379a1.7,1.7,0,0,0-1.009.337Zm6.456-3.316a1.7,1.7,0,0,0-1.009-.337h3.377a17.029,17.029,0,0,0,2.51-.207l-.459,3.863ZM19.375,59.838l.96,8.1a1.694,1.694,0,0,0,2.7,1.155L27.1,66.047V84.678H16.936V76.21H23.71V72.823H16.936V61.043a21.711,21.711,0,0,1,2.281-1.262c.051.02.105.037.158.058Zm-5.826,3.883V81.29H8.468A1.7,1.7,0,0,1,6.774,79.6,22.044,22.044,0,0,1,13.549,63.722ZM11.855,91.451a1.7,1.7,0,0,1-1.694-1.694V84.677h3.387v6.774Zm28.791,10.162H30.485V94.838h3.387V91.451H23.71v3.387H27.1v6.774H16.936V88.064H35.825L37.046,95.4a3.379,3.379,0,0,0,3.341,2.827h.259Zm3.645-6.774H40.386l-1.128-6.774h6.163ZM50.808,81.29a1.694,1.694,0,1,1,0,3.387H42.34V82.983a1.7,1.7,0,0,1,1.694-1.694ZM38.953,82.983v1.694H30.485V66.047L34.548,69.1a1.7,1.7,0,0,0,1.018.339,1.67,1.67,0,0,0,.667-.137,1.7,1.7,0,0,0,1.016-1.358l.96-8.1a17.036,17.036,0,0,0,2.439-1.162v20.55A5.05,5.05,0,0,0,38.953,82.983ZM62.11,72.268A7.672,7.672,0,0,1,52.878,73.5l-8.844-5.052V59.606a27.2,27.2,0,0,1,8.69,5.691l1.558,4.674L57.493,68.9l-1.551-4.656,1.319-6.664h7.1V66.84a7.632,7.632,0,0,1-2.247,5.428Z"/>
      </g>
    </g>
  </g>
</svg>
