<svg xmlns="http://www.w3.org/2000/svg" xmlns:xlink="http://www.w3.org/1999/xlink" width="190" height="190" viewBox="0 0 190 190">
  <defs>
    <clipPath id="clip-path">
      <rect id="Rect치ngulo_34327" data-name="Rect치ngulo 34327" width="190" height="190" transform="translate(285 4627)"/>
    </clipPath>
  </defs>
  <g id="Enmascarar_grupo_123" data-name="Enmascarar grupo 123" transform="translate(-285 -4627)" clip-path="url(#clip-path)">
    <g id="senal-de-stop_1_" data-name="senal-de-stop (1)" transform="translate(285 4627)">
      <path id="Trazado_116905" data-name="Trazado 116905" d="M190,95a95.019,95.019,0,0,1-82.658,94.205,96.3,96.3,0,0,1-24.688,0A95.023,95.023,0,0,1,.148,100.316Q0,97.676,0,95a95,95,0,1,1,190,0Zm0,0" fill="#69b8d4"/>
      <path id="Trazado_116906" data-name="Trazado 116906" d="M120.376,102.1a6.338,6.338,0,0,1,6.338-6.339H180.13a6.339,6.339,0,0,1,0,12.678H162.852a6.338,6.338,0,1,0,0,12.677h1.761a6.339,6.339,0,1,1,0,12.678H113.418a6.338,6.338,0,0,1-6.338-6.339,6.339,6.339,0,0,0-6.339-6.339H98.98a6.338,6.338,0,1,1,0-12.677h15.057a6.339,6.339,0,0,0,6.339-6.339Zm0,0" fill="#8cd2e5"/>
      <path id="Trazado_116907" data-name="Trazado 116907" d="M32.99,68.625a6.34,6.34,0,0,1-6.339,6.336H9.372a6.34,6.34,0,0,0,0,12.679h1.761a6.338,6.338,0,1,1,0,12.675H.148Q0,97.676,0,95A94.809,94.809,0,0,1,5.785,62.286H26.651a6.339,6.339,0,0,1,6.339,6.339Zm0,0" fill="#8cd2e5"/>
      <path id="Trazado_116908" data-name="Trazado 116908" d="M49.1,125.595a6.339,6.339,0,0,1,6.339-6.339h53.416a6.338,6.338,0,0,1,0,12.677H91.577a6.339,6.339,0,0,0,0,12.678H93.34a6.338,6.338,0,0,1,0,12.677H42.145a6.339,6.339,0,0,1-6.339-6.339,6.338,6.338,0,0,0-6.339-6.338H27.706a6.339,6.339,0,0,1,0-12.678H42.762a6.339,6.339,0,0,0,6.339-6.338Zm0,0" fill="#8cd2e5"/>
      <path id="Trazado_116909" data-name="Trazado 116909" d="M107.342,128.475v60.73a96.3,96.3,0,0,1-24.688,0v-60.73Zm0,0" fill="#ccc"/>
      <path id="Trazado_116910" data-name="Trazado 116910" d="M107.342,150.077v39.128A96.03,96.03,0,0,1,95,190V150.077Zm0,0" fill="#e6e6e6"/>
      <g id="Icon" transform="translate(24 -2)">
        <path id="Trazado_116911" data-name="Trazado 116911" d="M73,2a71,71,0,1,0,71,71A71,71,0,0,0,73,2Zm56.8,71a56.5,56.5,0,0,1-11.226,33.861L39.139,27.426A56.77,56.77,0,0,1,129.8,73ZM16.2,73A56.5,56.5,0,0,1,27.426,39.139l79.435,79.435A56.77,56.77,0,0,1,16.2,73Z" transform="translate(-7 1)" fill="#d82525"/>
        <circle id="Elipse_4814" data-name="Elipse 4814" cx="57" cy="57" r="57" transform="translate(16 16)" fill="#f5f5f5"/>
        <path id="Trazado_116912" data-name="Trazado 116912" d="M61.11,25.19H43.719l.8-7.2a4.734,4.734,0,0,0-7.828-4.077L15.772,32.275a4.737,4.737,0,0,0,0,7.114l20.914,18.36a4.734,4.734,0,0,0,7.828-4.077l-.793-7.2,12.665.017a7.11,7.11,0,0,1,7.091,7.1v40.23a7.108,7.108,0,0,0,7.1,7.1h7.1a7.108,7.108,0,0,0,7.1-7.1V48.857A23.694,23.694,0,0,0,61.11,25.19Z" transform="translate(16.623 14.676)" fill="#212121"/>
        <path id="Sustracci칩n_1" data-name="Sustracci칩n 1" d="M7718,6561a70.775,70.775,0,1,1,27.637-5.58A70.559,70.559,0,0,1,7718,6561Zm-33.749-116.688-11.875,11.875.009.008a56.77,56.77,0,0,0,79.384,79.447l.045.046,11.938-11.813-.109-.109a56.77,56.77,0,0,0-79.375-79.437Z" transform="translate(-7645 -6417)" fill="#f73e3e"/>
      </g>
    </g>
  </g>
</svg>
