<svg xmlns="http://www.w3.org/2000/svg" xmlns:xlink="http://www.w3.org/1999/xlink" width="190" height="190" viewBox="0 0 190 190">
  <defs>
    <clipPath id="clip-path">
      <rect id="Rectángulo_33860" data-name="Rectángulo 33860" width="190" height="190" transform="translate(285 4627)"/>
    </clipPath>
  </defs>
  <g id="Enmascarar_grupo_53" data-name="Enmascarar grupo 53" transform="translate(-285 -4627)" clip-path="url(#clip-path)">
    <g id="senal-de-stop_1_" data-name="senal-de-stop (1)" transform="translate(285 4627)">
      <path id="Trazado_113716" data-name="Trazado 113716" d="M190,95a95.019,95.019,0,0,1-82.658,94.205,96.3,96.3,0,0,1-24.688,0A95.023,95.023,0,0,1,.148,100.316Q0,97.676,0,95a95,95,0,1,1,190,0Zm0,0" fill="#69b8d4"/>
      <path id="Trazado_113717" data-name="Trazado 113717" d="M120.376,102.1a6.338,6.338,0,0,1,6.338-6.339H180.13a6.339,6.339,0,0,1,0,12.678H162.852a6.338,6.338,0,1,0,0,12.677h1.761a6.339,6.339,0,1,1,0,12.678H113.418a6.338,6.338,0,0,1-6.338-6.339,6.339,6.339,0,0,0-6.339-6.339H98.98a6.338,6.338,0,1,1,0-12.677h15.057a6.339,6.339,0,0,0,6.339-6.339Zm0,0" fill="#8cd2e5"/>
      <path id="Trazado_113718" data-name="Trazado 113718" d="M32.99,68.625a6.34,6.34,0,0,1-6.339,6.336H9.372a6.34,6.34,0,0,0,0,12.679h1.761a6.338,6.338,0,1,1,0,12.675H.148Q0,97.676,0,95A94.809,94.809,0,0,1,5.785,62.286H26.651a6.339,6.339,0,0,1,6.339,6.339Zm0,0" fill="#8cd2e5"/>
      <path id="Trazado_113719" data-name="Trazado 113719" d="M49.1,125.595a6.339,6.339,0,0,1,6.339-6.339h53.416a6.338,6.338,0,0,1,0,12.677H91.577a6.339,6.339,0,0,0,0,12.678H93.34a6.338,6.338,0,0,1,0,12.677H42.145a6.339,6.339,0,0,1-6.339-6.339,6.338,6.338,0,0,0-6.339-6.338H27.706a6.339,6.339,0,0,1,0-12.678H42.762a6.339,6.339,0,0,0,6.339-6.338Zm0,0" fill="#8cd2e5"/>
      <path id="Trazado_113720" data-name="Trazado 113720" d="M107.342,128.475v60.73a96.3,96.3,0,0,1-24.688,0v-60.73Zm0,0" fill="#ccc"/>
      <path id="Trazado_113721" data-name="Trazado 113721" d="M107.342,150.077v39.128A96.03,96.03,0,0,1,95,190V150.077Zm0,0" fill="#e6e6e6"/>
      <path id="Trazado_113722" data-name="Trazado 113722" d="M120.057,0H58.307A16.1,16.1,0,0,0,44.362,8.052L13.487,61.529a16.1,16.1,0,0,0,0,16.1l30.875,53.476a16.1,16.1,0,0,0,13.945,8.051h61.751A16.1,16.1,0,0,0,134,131.109l30.875-53.476a16.1,16.1,0,0,0,0-16.1L134,8.052A16.1,16.1,0,0,0,120.057,0Zm0,0" fill="#d82525"/>
      <path id="Trazado_113723" data-name="Trazado 113723" d="M125.873,0H64.124A16.1,16.1,0,0,0,50.179,8.052L19.3,61.529a16.106,16.106,0,0,0,0,16.1l30.876,53.476a16.1,16.1,0,0,0,13.945,8.051h61.749a16.1,16.1,0,0,0,13.946-8.051l30.875-53.476a16.106,16.106,0,0,0,0-16.1L139.82,8.052A16.1,16.1,0,0,0,125.873,0Zm0,0" fill="#f73e3e"/>
      <g id="Grupo_80179" data-name="Grupo 80179">
        <path id="Trazado_113724" data-name="Trazado 113724" d="M125.873,130.824H64.124A7.787,7.787,0,0,1,57.4,126.94L26.523,73.464a7.789,7.789,0,0,1,0-7.767L57.4,12.22a7.79,7.79,0,0,1,6.726-3.883h61.749A7.788,7.788,0,0,1,132.6,12.22L163.475,65.7a7.792,7.792,0,0,1,0,7.767L132.6,126.94A7.787,7.787,0,0,1,125.873,130.824ZM64.124,14.929a1.2,1.2,0,0,0-1.018.587L32.232,68.993a1.193,1.193,0,0,0,0,1.174l30.876,53.478a1.192,1.192,0,0,0,1.016.587h61.751a1.192,1.192,0,0,0,1.016-.587l30.875-53.476a1.193,1.193,0,0,0,0-1.176L126.891,15.516a1.2,1.2,0,0,0-1.018-.587Zm0,0" fill="#fff"/>
        <path id="Trazado_116524" data-name="Trazado 116524" d="M-223.573,518.832l7.251-35.524h2.684l7.715,35.524h-2.854l-2.2-9.388h-7.875l-2.073,9.388Zm5.419-12.568h6.4l-3.3-14.278Z" transform="translate(298.406 -430.558)" fill="#fff" stroke="#fff" stroke-linecap="round" stroke-width="2" fill-rule="evenodd"/>
        <path id="Trazado_116525" data-name="Trazado 116525" d="M-237.81,518.832V483.309h7.106a7.722,7.722,0,0,1,3.7.677A6.339,6.339,0,0,1-224.4,487.4a15.184,15.184,0,0,1,.969,5.807,12.9,12.9,0,0,1-1.585,6.864,5.662,5.662,0,0,1-5.474,3.028h-4.827v15.733Zm2.5-18.634h4.879a3.757,3.757,0,0,0,3.372-1.613c.711-1.077,1.066-3.5,1.066-5.664a15.292,15.292,0,0,0-.606-4.26,4.309,4.309,0,0,0-1.273-2.06,4.717,4.717,0,0,0-2.69-.555h-4.827Z" transform="translate(291.861 -430.558)" fill="#fff" stroke="#fff" stroke-linecap="round" stroke-width="2" fill-rule="evenodd"/>
        <path id="Trazado_116526" data-name="Trazado 116526" d="M-205.393,518.832V483.309h7.106a7.717,7.717,0,0,1,3.7.677,6.337,6.337,0,0,1,2.606,3.414,15.154,15.154,0,0,1,.971,5.807,12.9,12.9,0,0,1-1.585,6.864,5.278,5.278,0,0,1-3.165,2.7l3.446,16.027h-2.5l-3.375-15.7h-4.7v15.733Zm2.5-18.634h4.878a3.755,3.755,0,0,0,3.372-1.613c.711-1.077,1.066-3.5,1.066-5.664a15.292,15.292,0,0,0-.606-4.26,4.288,4.288,0,0,0-1.274-2.06,4.706,4.706,0,0,0-2.687-.555h-4.83Z" transform="translate(306.765 -430.558)" fill="#fff" stroke="#fff" stroke-linecap="round" stroke-width="2" fill-rule="evenodd"/>
        <path id="Trazado_116527" data-name="Trazado 116527" d="M-190.353,518.832V483.308h11.371v3.464h-8.4v12.412h5.83v3.362h-5.83v13.465h9.643v2.822Z" transform="translate(313.68 -430.558)" fill="#fff" stroke="#fff" stroke-linecap="round" stroke-width="2" fill-rule="evenodd"/>
      </g>
    </g>
  </g>
</svg>
