<svg xmlns="http://www.w3.org/2000/svg" xmlns:xlink="http://www.w3.org/1999/xlink" width="190" height="190" viewBox="0 0 190 190">
  <defs>
    <clipPath id="clip-path">
      <rect id="Rectángulo_33913" data-name="Rectángulo 33913" width="190" height="190" transform="translate(285 4627)"/>
    </clipPath>
  </defs>
  <g id="Enmascarar_grupo_66" data-name="Enmascarar grupo 66" transform="translate(-285 -4627)" clip-path="url(#clip-path)">
    <g id="senal-de-stop_1_" data-name="senal-de-stop (1)" transform="translate(285 4627)">
      <path id="Trazado_113863" data-name="Trazado 113863" d="M190,95a95.019,95.019,0,0,1-82.658,94.205,96.3,96.3,0,0,1-24.688,0A95.023,95.023,0,0,1,.148,100.316Q0,97.676,0,95a95,95,0,1,1,190,0Zm0,0" fill="#69b8d4"/>
      <path id="Trazado_113864" data-name="Trazado 113864" d="M120.376,102.1a6.338,6.338,0,0,1,6.338-6.339H180.13a6.339,6.339,0,0,1,0,12.678H162.852a6.338,6.338,0,1,0,0,12.677h1.761a6.339,6.339,0,1,1,0,12.678H113.418a6.338,6.338,0,0,1-6.338-6.339,6.339,6.339,0,0,0-6.339-6.339H98.98a6.338,6.338,0,1,1,0-12.677h15.057a6.339,6.339,0,0,0,6.339-6.339Zm0,0" fill="#8cd2e5"/>
      <path id="Trazado_113865" data-name="Trazado 113865" d="M32.99,68.625a6.34,6.34,0,0,1-6.339,6.336H9.372a6.34,6.34,0,0,0,0,12.679h1.761a6.338,6.338,0,1,1,0,12.675H.148Q0,97.676,0,95A94.809,94.809,0,0,1,5.785,62.286H26.651a6.339,6.339,0,0,1,6.339,6.339Zm0,0" fill="#8cd2e5"/>
      <path id="Trazado_113866" data-name="Trazado 113866" d="M49.1,125.595a6.339,6.339,0,0,1,6.339-6.339h53.416a6.338,6.338,0,0,1,0,12.677H91.577a6.339,6.339,0,0,0,0,12.678H93.34a6.338,6.338,0,0,1,0,12.677H42.145a6.339,6.339,0,0,1-6.339-6.339,6.338,6.338,0,0,0-6.339-6.338H27.706a6.339,6.339,0,0,1,0-12.678H42.762a6.339,6.339,0,0,0,6.339-6.338Zm0,0" fill="#8cd2e5"/>
      <path id="Trazado_113867" data-name="Trazado 113867" d="M107.342,128.475v60.73a96.3,96.3,0,0,1-24.688,0v-60.73Zm0,0" fill="#ccc"/>
      <path id="Trazado_113868" data-name="Trazado 113868" d="M107.342,150.077v39.128A96.03,96.03,0,0,1,95,190V150.077Zm0,0" fill="#e6e6e6"/>
      <g id="_023---Cyclist-Steep-Hil" data-name="023---Cyclist-Steep-Hil" transform="translate(19.125 -0.014)">
        <rect id="Rectangle-path" width="103.898" height="103.898" rx="2" transform="translate(64.878 0.343) rotate(45)" fill="#eba00c"/>
        <rect id="Rectangle-path-2" data-name="Rectangle-path" width="103.898" height="103.898" rx="2" transform="translate(73.878 0.343) rotate(45)" fill="#f0c419"/>
        <g id="Grupo_80255" data-name="Grupo 80255" transform="translate(0.003 0.014)">
          <path id="Shape" d="M68.654,145.52c-.246,0,3.669,3.645-66.491-66.491a7.388,7.388,0,0,1,0-10.442L68.654,2.1A7.585,7.585,0,0,1,79.1,2.1l66.491,66.491a7.388,7.388,0,0,1,0,10.442L79.1,145.52A7.388,7.388,0,0,1,68.654,145.52ZM72.126,5.545,5.636,72.035a2.463,2.463,0,0,0,0,3.472C75.8,145.569,71.88,142,72.126,142a2.463,2.463,0,0,0,3.5,0l66.491-66.491a2.463,2.463,0,0,0,0-3.472L75.623,5.545a2.463,2.463,0,0,0-3.5,0Z" transform="translate(-0.003 -0.014)" fill="#393f4a"/>
        </g>
        <path id="Trazado_117427" data-name="Trazado 117427" d="M317.226,280.372h2.219a1.53,1.53,0,0,1,1.282.7c.179-.407.354-.79.52-1.142a39.226,39.226,0,0,1,5.23-7.987,7.439,7.439,0,0,1,4.2-2.472,133.781,133.781,0,0,1,24.771,0,7.439,7.439,0,0,1,4.2,2.472,39.837,39.837,0,0,1,5.127,7.767c.184.385.379.808.579,1.261a1.527,1.527,0,0,1,1.211-.6h2.217A1.535,1.535,0,0,1,370.3,281.9v.536a1.534,1.534,0,0,1-1.529,1.529h-2.194a35.065,35.065,0,0,1,2.436,9.093c.061,1.192.077,2.482.064,3.831q.249,1.676-.716,1.649V304.2a3.791,3.791,0,0,1-3.779,3.779h-1.927a3.791,3.791,0,0,1-3.779-3.779v-3.634a219.494,219.494,0,0,1-31.641,0V304.2a3.791,3.791,0,0,1-3.779,3.779h-1.927a3.791,3.791,0,0,1-3.781-3.779v-5.657q-.963.027-.716-1.649c-.012-1.4,0-2.714.067-3.92a34.111,34.111,0,0,1,2.429-9.009.774.774,0,0,1-.087,0h-2.219a1.536,1.536,0,0,1-1.531-1.529V281.9a1.536,1.536,0,0,1,1.531-1.531m45.547,9.692a3.409,3.409,0,1,0,3.412,3.41,3.417,3.417,0,0,0-3.412-3.41m-39.921,0a3.409,3.409,0,1,0,3.41,3.41,3.416,3.416,0,0,0-3.41-3.41m7.8-18.455a3.73,3.73,0,0,0-1.567.989l-5.716,9.673q-.593,1.286.658,1.318a294.841,294.841,0,0,1,38.192,0q1.252-.032.66-1.318l-5.857-9.673a3.714,3.714,0,0,0-1.565-.989,165.058,165.058,0,0,0-24.8,0" transform="translate(-262.514 -214.72)" fill="#393f4a" fill-rule="evenodd"/>
        <path id="Trazado_117428" data-name="Trazado 117428" d="M307.116,278.687l13.027-1.224v4.7l-7.153.866,3.832,23.241H303.276s3.585-27.836,3.84-27.583M322.95,277.2l14.811-1.392v4.22l-14.811,1.8Zm17.62-1.657,14.046-1.322v3.762l-14.046,1.705Zm16.855-1.587,14.556-1.368v3.292l-14.556,1.763Zm17.365-1.633,5.619-.53v3.065l-5.619.681Z" transform="translate(-270.535 -212.85)" fill="#393f4a" fill-rule="evenodd"/>
      </g>
    </g>
  </g>
</svg>
