<svg xmlns="http://www.w3.org/2000/svg" xmlns:xlink="http://www.w3.org/1999/xlink" width="190" height="190" viewBox="0 0 190 190">
  <defs>
    <clipPath id="clip-path">
      <rect id="Rectángulo_33914" data-name="Rectángulo 33914" width="190" height="190" transform="translate(285 4627)"/>
    </clipPath>
  </defs>
  <g id="Enmascarar_grupo_67" data-name="Enmascarar grupo 67" transform="translate(-285 -4627)" clip-path="url(#clip-path)">
    <g id="senal-de-stop_1_" data-name="senal-de-stop (1)" transform="translate(285 4627)">
      <path id="Trazado_113869" data-name="Trazado 113869" d="M190,95a95.019,95.019,0,0,1-82.658,94.205,96.3,96.3,0,0,1-24.688,0A95.023,95.023,0,0,1,.148,100.316Q0,97.676,0,95a95,95,0,1,1,190,0Zm0,0" fill="#69b8d4"/>
      <path id="Trazado_113870" data-name="Trazado 113870" d="M120.376,102.1a6.338,6.338,0,0,1,6.338-6.339H180.13a6.339,6.339,0,0,1,0,12.678H162.852a6.338,6.338,0,1,0,0,12.677h1.761a6.339,6.339,0,1,1,0,12.678H113.418a6.338,6.338,0,0,1-6.338-6.339,6.339,6.339,0,0,0-6.339-6.339H98.98a6.338,6.338,0,1,1,0-12.677h15.057a6.339,6.339,0,0,0,6.339-6.339Zm0,0" fill="#8cd2e5"/>
      <path id="Trazado_113871" data-name="Trazado 113871" d="M32.99,68.625a6.34,6.34,0,0,1-6.339,6.336H9.372a6.34,6.34,0,0,0,0,12.679h1.761a6.338,6.338,0,1,1,0,12.675H.148Q0,97.676,0,95A94.809,94.809,0,0,1,5.785,62.286H26.651a6.339,6.339,0,0,1,6.339,6.339Zm0,0" fill="#8cd2e5"/>
      <path id="Trazado_113872" data-name="Trazado 113872" d="M49.1,125.595a6.339,6.339,0,0,1,6.339-6.339h53.416a6.338,6.338,0,0,1,0,12.677H91.577a6.339,6.339,0,0,0,0,12.678H93.34a6.338,6.338,0,0,1,0,12.677H42.145a6.339,6.339,0,0,1-6.339-6.339,6.338,6.338,0,0,0-6.339-6.338H27.706a6.339,6.339,0,0,1,0-12.678H42.762a6.339,6.339,0,0,0,6.339-6.338Zm0,0" fill="#8cd2e5"/>
      <path id="Trazado_113873" data-name="Trazado 113873" d="M107.342,128.475v60.73a96.3,96.3,0,0,1-24.688,0v-60.73Zm0,0" fill="#ccc"/>
      <path id="Trazado_113874" data-name="Trazado 113874" d="M107.342,150.077v39.128A96.03,96.03,0,0,1,95,190V150.077Zm0,0" fill="#e6e6e6"/>
      <g id="_019---Uneven-Surface" data-name="019---Uneven-Surface" transform="translate(18.998 -0.027)">
        <rect id="Rectangle-path" width="104.823" height="104.823" rx="2" transform="translate(65.532 0.38) rotate(45)" fill="#d55307"/>
        <rect id="Rectangle-path-2" data-name="Rectangle-path" width="104.823" height="104.823" rx="2" transform="translate(74.532 0.38) rotate(45)" fill="#e57e25"/>
        <g id="Grupo_80257" data-name="Grupo 80257" transform="translate(0.003 0.027)">
          <path id="Shape" d="M69.265,146.847c-.248,0,3.727,3.7-67.083-67.083a7.454,7.454,0,0,1,0-10.534L69.265,2.147a7.6,7.6,0,0,1,10.534,0L146.883,69.23a7.454,7.454,0,0,1,0,10.534L79.8,146.847A7.454,7.454,0,0,1,69.265,146.847Zm3.5-141.2L5.686,72.733a2.485,2.485,0,0,0,0,3.528c70.785,70.685,66.834,67.083,67.083,67.083a2.485,2.485,0,0,0,3.528,0l67.083-67.083a2.485,2.485,0,0,0,0-3.528L76.3,5.65a2.485,2.485,0,0,0-3.528,0Z" transform="translate(-0.003 -0.027)" fill="#393f4a"/>
          <path id="Shape-2" data-name="Shape" d="M76.556,56.29c2.485-10.311,2.981-10.758,2.087-12.8.472-.87.323-.248.3-12.845a7.454,7.454,0,0,0-5.69-7.205L39.661,15.22a7.454,7.454,0,0,0-8.373,3.752C25.151,30.649,25.822,29.208,25.673,29.9a4.82,4.82,0,0,0-2.335,3.106l-2.485,9.64a2.485,2.485,0,0,0,1.839,3.006l-2.485,9.665a2.485,2.485,0,0,0,2.062,3.006l4.82,1.168A2.485,2.485,0,0,0,30.1,57.681l2.36-9.64L73.475,58.1a2.485,2.485,0,0,0,3.081-1.814ZM31.288,29.9l4.5-8.547a2.485,2.485,0,0,1,2.783-1.242l5.69,1.416a6.211,6.211,0,1,0,7.081,1.714L71.96,28.264a2.485,2.485,0,0,1,1.913,2.485v9.665Z" transform="translate(29.9 22.206)" fill="#393f4a"/>
          <path id="Shape-3" data-name="Shape" d="M102.928,42.9H84.89l2.236-9.069-9.64-2.485L75,41.015a2.485,2.485,0,0,0,.273,1.789H58.206v-4.87a2.485,2.485,0,0,0-2.485-2.485H15.969a2.485,2.485,0,0,0-2.485,2.485V42.9a2.485,2.485,0,0,0,0,4.969h89.444a2.485,2.485,0,1,0,0-4.969Z" transform="translate(16.323 46.474)" fill="#393f4a"/>
        </g>
      </g>
    </g>
  </g>
</svg>
