<svg xmlns="http://www.w3.org/2000/svg" xmlns:xlink="http://www.w3.org/1999/xlink" width="70" height="70" viewBox="0 0 70 70">
  <defs>
    <clipPath id="clip-path">
      <rect id="Rectángulo_34082" data-name="Rectángulo 34082" width="70" height="70" transform="translate(1230 10504)" fill="#fff" stroke="#707070" stroke-width="1"/>
    </clipPath>
  </defs>
  <g id="Enmascarar_grupo_97" data-name="Enmascarar grupo 97" transform="translate(-1230 -10504)" clip-path="url(#clip-path)">
    <g id="empresario" transform="translate(1228.871 10502.858)">
      <path id="Trazado_114513" data-name="Trazado 114513" d="M22.581,37.259,27.1,41.775l4.516-4.516L46.275,39.7a6.775,6.775,0,0,1,5.661,6.683V70H2.258V46.385A6.773,6.773,0,0,1,7.919,39.7Z" fill="#e39854"/>
      <path id="Trazado_114514" data-name="Trazado 114514" d="M68.872,70H37.259a1.129,1.129,0,0,1-1.129-1.129V46.291a1.129,1.129,0,0,1,1.129-1.129H68.872A1.129,1.129,0,0,1,70,46.291V68.872A1.129,1.129,0,0,1,68.872,70Z" fill="#606060"/>
      <path id="Trazado_114515" data-name="Trazado 114515" d="M36.13,65.062c.075,0,.147.011.222.011A21.975,21.975,0,0,0,58.225,45.162H37.259a1.129,1.129,0,0,0-1.129,1.129Z" fill="#8c8787"/>
      <path id="Trazado_114516" data-name="Trazado 114516" d="M70,49.678a6.774,6.774,0,0,1-6.774,6.774H42.9a6.774,6.774,0,0,1-6.774-6.774V46.291a1.129,1.129,0,0,1,1.129-1.129H68.872A1.129,1.129,0,0,1,70,46.291Z" fill="#d5cec2"/>
      <path id="Trazado_114517" data-name="Trazado 114517" d="M58.225,45.162H37.259a1.129,1.129,0,0,0-1.129,1.129v3.387A6.774,6.774,0,0,0,42.9,56.453H53.776A21.835,21.835,0,0,0,58.225,45.162Z" fill="#e7e4dd"/>
      <path id="Trazado_114518" data-name="Trazado 114518" d="M70,65.485v3.387A1.129,1.129,0,0,1,68.872,70H37.259a1.129,1.129,0,0,1-1.129-1.129V65.485Z" fill="#d5cec2"/>
      <path id="Trazado_114519" data-name="Trazado 114519" d="M24.839,39.517,23.71,42.9l2.258,3.387h2.258L30.484,42.9l-1.129-3.387" fill="#d5cec2"/>
      <path id="Trazado_114520" data-name="Trazado 114520" d="M35,12.42l-1.806,1.355a10.161,10.161,0,0,1-12.194,0L19.194,12.42l-2.258,4.516V23.71A10.15,10.15,0,0,0,22.581,32.8v4.456L27.1,41.775l4.516-4.516V32.8a10.152,10.152,0,0,0,5.645-9.092V16.936Z" fill="#fadfb2"/>
      <path id="Trazado_114521" data-name="Trazado 114521" d="M37.259,18.065l1.3-3.011A7.992,7.992,0,0,0,34.532,4.616l-3.15-1.435A10.261,10.261,0,0,0,20.974,4.31L19.029,5.778A5.9,5.9,0,0,0,15,14.189l1.937,3.876V16.936l2.258-4.516L21,13.774a10.161,10.161,0,0,0,12.194,0L35,12.42l2.258,4.516Z" fill="#c18e59"/>
      <path id="Trazado_114522" data-name="Trazado 114522" d="M16.936,18.065H14.678a2.258,2.258,0,0,0,0,4.516h2.258" fill="#efbe9a"/>
      <path id="Trazado_114523" data-name="Trazado 114523" d="M37.259,18.065h2.258a2.258,2.258,0,1,1,0,4.516H37.259" fill="#efbe9a"/>
      <g id="Grupo_80785" data-name="Grupo 80785">
        <path id="Trazado_114524" data-name="Trazado 114524" d="M12.42,49.677h2.258V70H12.42Z" fill="#c16b3f"/>
      </g>
      <path id="Trazado_114525" data-name="Trazado 114525" d="M28.226,46.291l2.258,5.645L27.1,66.614,23.71,51.936l2.258-5.645" fill="#e7e4dd"/>
      <path id="Trazado_114526" data-name="Trazado 114526" d="M53.065,60.969a2.257,2.257,0,0,1-2.258-2.258V51.936h4.516v6.774A2.257,2.257,0,0,1,53.065,60.969Z" fill="#f2c351"/>
      <g id="Grupo_80786" data-name="Grupo 80786">
        <path id="Trazado_114527" data-name="Trazado 114527" d="M59.84,45.161V40.645a1.129,1.129,0,0,0-1.129-1.129H47.42a1.129,1.129,0,0,0-1.129,1.129V45.16H44.033V40.645a3.391,3.391,0,0,1,3.387-3.387H58.709A3.391,3.391,0,0,1,62.1,40.645V45.16Z" fill="#8c8787"/>
      </g>
      <path id="Trazado_114528" data-name="Trazado 114528" d="M55.323,54.152V51.936H50.807v6.774a2.255,2.255,0,0,0,.146.778,22.044,22.044,0,0,0,4.371-5.337Z" fill="#f7d881"/>
      <path id="Trazado_114529" data-name="Trazado 114529" d="M68.872,44.033H62.1V40.646a3.391,3.391,0,0,0-3.387-3.387H47.42a3.368,3.368,0,0,0-2.464,1.078L32.742,36.3V33.472a11.286,11.286,0,0,0,5.645-9.762h1.129a3.387,3.387,0,0,0,0-6.774h-.542l.619-1.435A9.12,9.12,0,0,0,35,3.588L31.847,2.153A11.573,11.573,0,0,0,20.3,3.406L18.515,4.742l0,0a7.024,7.024,0,0,0-4.531,9.948l1.122,2.242h-.431a3.387,3.387,0,1,0,0,6.774h1.129a11.287,11.287,0,0,0,5.645,9.763V36.3L7.733,38.588a7.878,7.878,0,0,0-6.6,7.8V70a1.128,1.128,0,0,0,1.129,1.129H68.871a2.26,2.26,0,0,0,2.258-2.258V46.291A2.258,2.258,0,0,0,68.872,44.033Zm0,5.644a5.652,5.652,0,0,1-5.646,5.644H56.451V51.935a1.128,1.128,0,0,0-1.129-1.129H50.806a1.128,1.128,0,0,0-1.129,1.129v3.386H42.9a5.651,5.651,0,0,1-5.645-5.638V46.291H68.871ZM37.259,55.2A7.877,7.877,0,0,0,42.9,57.579h6.774v1.131a3.387,3.387,0,0,0,6.774,0V57.579h6.774A7.879,7.879,0,0,0,68.873,55.2v9.159H37.259Zm14.678,3.514V53.064h2.258v5.646a1.128,1.128,0,0,1-1.129,1.127h0A1.128,1.128,0,0,1,51.936,58.711ZM46.291,40.866a5.644,5.644,0,0,1,3.986,3.167H46.291Zm13.549-.22v3.387H52.692a7.908,7.908,0,0,0-3.656-4.516h9.675A1.13,1.13,0,0,1,59.84,40.646ZM40.645,20.323a1.13,1.13,0,0,1-1.128,1.129H38.388V19.194h1.129A1.129,1.129,0,0,1,40.645,20.323ZM16.184,9.092a4.8,4.8,0,0,1,4.094-2.318,5.273,5.273,0,0,1,4.4,2.352l.355.532,1.88-1.252-.355-.532A7.521,7.521,0,0,0,22.294,4.8a9.288,9.288,0,0,1,8.619-.59l3.151,1.435a6.864,6.864,0,0,1,3.457,8.964l-.077.178-1.434-2.869a1.124,1.124,0,0,0-.751-.594,1.144,1.144,0,0,0-.937.2l-1.806,1.355a9.03,9.03,0,0,1-10.839,0l-1.806-1.355a1.143,1.143,0,0,0-.937-.2,1.13,1.13,0,0,0-.751.594l-1.531,3.061-.646-1.292a4.75,4.75,0,0,1,.177-4.591Zm-1.506,12.36a1.129,1.129,0,1,1,0-2.258h1.129v2.258Zm3.387,2.258V17.2L19.6,14.135l.725.543a11.291,11.291,0,0,0,13.549,0l.724-.543L36.13,17.2V23.71a9.032,9.032,0,1,1-18.065,0ZM27.1,35a11.274,11.274,0,0,0,3.387-.52v2.311L27.1,40.178,23.71,36.791V34.48A11.274,11.274,0,0,0,27.1,35Zm-.365,12.418h.729l1.844,4.607L27.1,61.592l-2.208-9.566Zm2.505-4.682-1.617,2.424H26.572l-1.617-2.424.376-1.13.966.966a1.133,1.133,0,0,0,1.6,0l.966-.966ZM14.677,68.87V49.677H12.418V68.87H3.387V46.384A5.628,5.628,0,0,1,8.1,40.815l14.089-2.347,1.354,1.354-.908,2.724a1.129,1.129,0,0,0,.131.983L24.7,46.422l-2.037,5.092a1.128,1.128,0,0,0-.052.674L26,66.866a1.13,1.13,0,0,0,2.2,0l3.387-14.678a1.129,1.129,0,0,0-.052-.674L29.5,46.422l1.928-2.893a1.129,1.129,0,0,0,.131-.983l-.908-2.724L32,38.468,44.05,40.475c0,.058-.017.112-.017.17v3.387H37.259A2.26,2.26,0,0,0,35,46.291V68.87Zm23.71,0H37.259V66.612H68.873V68.87Z"/>
    </g>
  </g>
</svg>
