<svg xmlns="http://www.w3.org/2000/svg" xmlns:xlink="http://www.w3.org/1999/xlink" width="70" height="70" viewBox="0 0 70 70">
  <defs>
    <clipPath id="clip-path">
      <rect id="Rectángulo_34059" data-name="Rectángulo 34059" width="70" height="70" transform="translate(210 10467)" fill="#fff" stroke="#707070" stroke-width="1"/>
    </clipPath>
  </defs>
  <g id="Enmascarar_grupo_85" data-name="Enmascarar grupo 85" transform="translate(-210 -10467)" clip-path="url(#clip-path)">
    <g id="placa-de-policia" transform="translate(210 10467.003)">
      <path id="Trazado_114326" data-name="Trazado 114326" d="M35.646,69.516l21.016-7A18.8,18.8,0,0,0,69.517,44.677h0a23.117,23.117,0,0,1-6.774-16.351v-.779a23.118,23.118,0,0,1,4.629-13.872l2.145-2.869L60.484,1.774,59.341,2.918a15.367,15.367,0,0,1-10.867,4.5h0a15.365,15.365,0,0,1-8.933-2.863l-3.9-2.782-3.9,2.783a15.364,15.364,0,0,1-8.932,2.862h0a15.367,15.367,0,0,1-10.867-4.5L10.807,1.774,1.775,10.806,3.92,13.673A23.118,23.118,0,0,1,8.549,27.545v.779A23.119,23.119,0,0,1,1.772,44.68l0,0a18.8,18.8,0,0,0,12.859,17.84Z" transform="translate(-0.646 -0.645)" fill="gray"/>
      <path id="Trazado_114327" data-name="Trazado 114327" d="M55.484,27.545a23.118,23.118,0,0,1,4.629-13.872l2.145-2.867L53.226,1.774,52.082,2.918a15.367,15.367,0,0,1-10.867,4.5,15.365,15.365,0,0,1-8.933-2.863l-3.9-2.782V69.516l21.016-7A18.8,18.8,0,0,0,62.258,44.677a23.117,23.117,0,0,1-6.774-16.351Z" transform="translate(6.613 -0.645)" fill="#b3b3b3"/>
      <path id="Trazado_114328" data-name="Trazado 114328" d="M15.089,57.016c-5.309-1.769-9.132-5.834-9.766-11.29A29.1,29.1,0,0,0,12.1,27.115v-.779c0-5.829-2.206-10.9-5.645-15.61L9.839,7.339c3.41,2.546,7.677,3.387,12.011,3.387a19.776,19.776,0,0,0,11.557-3.7l1.271-.813,1.27.814a19.782,19.782,0,0,0,11.558,3.7c4.333,0,8.6-.841,12.011-3.387L62.9,10.726c-3.439,4.706-5.645,9.782-5.645,15.61v.779a29.1,29.1,0,0,0,6.774,18.611c-.636,5.457-4.457,9.521-9.766,11.29L34.677,63.79Z" transform="translate(0.323 0.564)" fill="#0f3c72"/>
      <path id="Trazado_114329" data-name="Trazado 114329" d="M16.862,38.923l4.132-7.082-4.135-7.087,1.123-1.945h8.279l4.132-7.082h2.274L36.8,22.808h8.279l1.12,1.951L42.068,31.84,46.2,38.923l-1.121,1.95H36.8l-4.131,7.081H30.393l-4.131-7.081H17.983Z" transform="translate(3.469 3.16)" fill="#fbb03b"/>
      <path id="Trazado_114330" data-name="Trazado 114330" d="M50.968,27.115v-.779c0-5.828,2.206-10.9,5.645-15.61L53.226,7.339c-3.41,2.546-7.677,3.387-12.011,3.387a19.782,19.782,0,0,1-11.558-3.7l-1.27-.813V63.79l19.589-6.774c5.306-1.769,9.13-5.834,9.766-11.29a29.1,29.1,0,0,1-6.774-18.611Z" transform="translate(6.613 0.564)" fill="#1861b7"/>
      <path id="Trazado_114331" data-name="Trazado 114331" d="M38.924,31.84l4.131-7.081-1.12-1.951H33.656l-4.132-7.082H28.387V47.954h1.138l4.131-7.081h8.279l1.121-1.95Z" transform="translate(6.613 3.16)" fill="#f9d023"/>
      <circle id="Elipse_4735" data-name="Elipse 4735" cx="4.516" cy="4.516" r="4.516" transform="translate(30.484 30.484)" fill="gray"/>
      <path id="Trazado_114332" data-name="Trazado 114332" d="M28.387,33.871a4.516,4.516,0,0,0,0-9.032" transform="translate(6.613 5.645)" fill="#b3b3b3"/>
      <circle id="Elipse_4736" data-name="Elipse 4736" cx="2.258" cy="2.258" r="2.258" transform="translate(32.742 50.806)" fill="#4d4d4d"/>
      <path id="Trazado_114333" data-name="Trazado 114333" d="M28.387,45.323a2.258,2.258,0,0,0,0-4.516" transform="translate(6.613 10)" fill="#b3b3b3"/>
      <circle id="Elipse_4737" data-name="Elipse 4737" cx="2.258" cy="2.258" r="2.258" transform="translate(16.935 23.709)" fill="#4d4d4d"/>
      <circle id="Elipse_4738" data-name="Elipse 4738" cx="2.258" cy="2.258" r="2.258" transform="translate(48.548 23.709)" fill="#b3b3b3"/>
      <circle id="Elipse_4739" data-name="Elipse 4739" cx="2.258" cy="2.258" r="2.258" transform="translate(16.935 41.774)" fill="#4d4d4d"/>
      <circle id="Elipse_4740" data-name="Elipse 4740" cx="2.258" cy="2.258" r="2.258" transform="translate(48.548 41.774)" fill="#b3b3b3"/>
      <circle id="Elipse_4741" data-name="Elipse 4741" cx="2.258" cy="2.258" r="2.258" transform="translate(32.742 14.677)" fill="#4d4d4d"/>
      <path id="Trazado_114334" data-name="Trazado 114334" d="M28.387,16.935a2.258,2.258,0,0,0,0-4.516" transform="translate(6.613 2.258)" fill="#b3b3b3"/>
      <path id="Trazado_114335" data-name="Trazado 114335" d="M64.113,28.566v-.779a22.136,22.136,0,0,1,4.4-13.195l2.145-2.867a1.129,1.129,0,0,0-.1-1.476L61.524,1.218a1.129,1.129,0,0,0-1.6,0L58.783,2.362A14.146,14.146,0,0,1,48.714,6.532,14.156,14.156,0,0,1,40.438,3.88L36.543,1.1a1.129,1.129,0,0,0-1.312,0l-3.9,2.782a14.156,14.156,0,0,1-8.276,2.652A14.146,14.146,0,0,1,12.989,2.362L11.847,1.218a1.129,1.129,0,0,0-1.6,0L1.218,10.25a1.129,1.129,0,0,0-.1,1.476l2.145,2.867a22.129,22.129,0,0,1,4.4,13.195v.779A21.852,21.852,0,0,1,1.218,44.12a1.129,1.129,0,0,0-.331.8,19.9,19.9,0,0,0,13.626,18.9l21.016,7a1.138,1.138,0,0,0,.715,0l21.016-7a19.9,19.9,0,0,0,13.627-18.9,1.129,1.129,0,0,0-.331-.8A21.847,21.847,0,0,1,64.113,28.566ZM56.548,61.682,35.887,68.568,15.226,61.681A17.648,17.648,0,0,1,3.151,45.371a24.087,24.087,0,0,0,6.769-16.8v-.779a24.406,24.406,0,0,0-4.855-14.55L3.506,11.154l7.542-7.541.339.344A16.389,16.389,0,0,0,23.058,8.79a16.408,16.408,0,0,0,9.589-3.072L35.887,3.4l3.239,2.315A16.4,16.4,0,0,0,48.714,8.79,16.392,16.392,0,0,0,60.379,3.959l.347-.347,7.541,7.542L66.71,13.238a24.387,24.387,0,0,0-4.855,14.55v.779a24.087,24.087,0,0,0,6.774,16.8A17.651,17.651,0,0,1,56.548,61.682Z" transform="translate(-0.887 -0.887)"/>
      <path id="Trazado_114336" data-name="Trazado 114336" d="M58.629,26.578c0-5.058,1.775-9.946,5.427-14.944a1.129,1.129,0,0,0-.113-1.468L60.556,6.779a1.129,1.129,0,0,0-1.476-.1C56.233,8.8,52.524,9.839,47.747,9.839A18.718,18.718,0,0,1,36.8,6.314L35.526,5.5a1.129,1.129,0,0,0-1.217,0l-1.319.846a18.654,18.654,0,0,1-10.9,3.493c-4.777,0-8.485-1.035-11.334-3.161a1.129,1.129,0,0,0-1.473.106L5.9,10.171a1.129,1.129,0,0,0-.113,1.468c3.651,4.994,5.427,9.881,5.427,14.939v.779a28.085,28.085,0,0,1-6.5,17.874,1.129,1.129,0,0,0-.265.868c.66,5.679,4.6,10.249,10.524,12.229L34.55,65.1a1.129,1.129,0,0,0,.738,0l19.576-6.774C60.8,56.349,64.734,51.779,65.4,46.1a1.129,1.129,0,0,0-.265-.868,28.078,28.078,0,0,1-6.5-17.871Zm4.459,19.735c-.719,4.567-4.027,8.242-8.95,9.878L34.919,62.837,15.7,56.191h-.011c-4.911-1.636-8.219-5.306-8.939-9.873a30.484,30.484,0,0,0,6.718-18.961v-.779a26.678,26.678,0,0,0-5.3-15.487L10.21,9.047A21.435,21.435,0,0,0,22.09,12.1,20.842,20.842,0,0,0,34.257,8.215l.663-.425.614.393A20.905,20.905,0,0,0,47.747,12.1a21.435,21.435,0,0,0,11.88-3.048l2.044,2.044a26.685,26.685,0,0,0-5.3,15.486v.779a30.492,30.492,0,0,0,6.717,18.956Z" transform="translate(0.081 0.322)"/>
      <path id="Trazado_114337" data-name="Trazado 114337" d="M47.678,27.28a3.335,3.335,0,0,0,.632.064,3.387,3.387,0,1,0-3.179-4.516H38.42L35.079,17.1a3.387,3.387,0,1,0-5.152,0l-3.341,5.73H19.875a3.387,3.387,0,1,0-2.548,4.453l3.332,5.708L17.327,38.7a3.387,3.387,0,1,0,2.548,4.453h6.711l3.342,5.729a3.388,3.388,0,1,0,5.151,0l3.341-5.73h6.711a3.381,3.381,0,1,0,3.179-4.516,3.334,3.334,0,0,0-.632.064l-3.331-5.71Zm.632-4.452a1.129,1.129,0,1,1-1.129,1.129A1.129,1.129,0,0,1,48.31,22.828ZM32.5,13.8a1.129,1.129,0,1,1-1.129,1.129A1.129,1.129,0,0,1,32.5,13.8ZM15.568,23.957A1.129,1.129,0,1,1,16.7,25.086,1.129,1.129,0,0,1,15.568,23.957ZM16.7,43.151a1.129,1.129,0,1,1,1.129-1.129A1.129,1.129,0,0,1,16.7,43.151ZM32.5,52.183a1.129,1.129,0,1,1,1.129-1.129A1.129,1.129,0,0,1,32.5,52.183ZM49.439,42.022a1.129,1.129,0,1,1-1.129-1.129A1.129,1.129,0,0,1,49.439,42.022Zm-3.705-2.173a3.368,3.368,0,0,0-.6,1.044H37.772a1.129,1.129,0,0,0-.977.565l-3.66,6.277a3.428,3.428,0,0,0-.631-.068,3.335,3.335,0,0,0-.632.064l-3.658-6.274a1.129,1.129,0,0,0-.974-.565H19.875a3.372,3.372,0,0,0-.6-1.045l3.668-6.293a1.129,1.129,0,0,0,0-1.138l-3.668-6.289a3.372,3.372,0,0,0,.6-1.041h7.359a1.129,1.129,0,0,0,.975-.565l3.663-6.279a3.314,3.314,0,0,0,.631.069,3.405,3.405,0,0,0,.63-.063l3.66,6.273a1.129,1.129,0,0,0,.977.565h7.359a3.353,3.353,0,0,0,.6,1.045L42.064,32.42a1.136,1.136,0,0,0,0,1.138Z" transform="translate(2.497 2.01)"/>
      <path id="Trazado_114338" data-name="Trazado 114338" d="M29.6,23.952A5.645,5.645,0,1,0,35.242,29.6,5.645,5.645,0,0,0,29.6,23.952Zm0,9.032A3.387,3.387,0,1,1,32.984,29.6,3.387,3.387,0,0,1,29.6,32.984Z" transform="translate(5.403 5.403)"/>
    </g>
  </g>
</svg>
