<svg xmlns="http://www.w3.org/2000/svg" xmlns:xlink="http://www.w3.org/1999/xlink" width="70" height="70" viewBox="0 0 70 70">
  <defs>
    <clipPath id="clip-path">
      <rect id="Rectángulo_34068" data-name="Rectángulo 34068" width="70" height="70" transform="translate(524.571 10472)" fill="#fff" stroke="#707070" stroke-width="1"/>
    </clipPath>
  </defs>
  <g id="Enmascarar_grupo_90" data-name="Enmascarar grupo 90" transform="translate(-524.571 -10472)" clip-path="url(#clip-path)">
    <g id="sombrero-de-policia" transform="translate(524.999 10480.365)">
      <g id="Grupo_80760" data-name="Grupo 80760" transform="translate(1.4 1.403)">
        <path id="Trazado_114407" data-name="Trazado 114407" d="M4.675,32.044H62.3v7.794H4.675Z" transform="translate(-0.174 -1.363)" fill="#ffe7b1"/>
        <path id="Trazado_114408" data-name="Trazado 114408" d="M4.815,38.331c3.691,6.6,15.114,11.414,28.634,11.414s24.944-4.812,28.634-11.414Z" transform="translate(-0.137 0.286)" fill="#bfdaff"/>
        <path id="Trazado_114409" data-name="Trazado 114409" d="M63.232,38.42l4.5-10.094A75.361,75.361,0,0,1,49.8,18.451C41.434,12.173,39.389,7.691,34.421,7.739c-5.367.051-6.884,5.683-15.981,11.77A83.711,83.711,0,0,1,1.109,28.326l4.5,10.094Z" transform="translate(-1.109 -7.739)" fill="#bfdaff"/>
        <path id="Trazado_114410" data-name="Trazado 114410" d="M33.968,20.646c-.116-.459,1.184-2.922,1.184-2.922a46.515,46.515,0,0,1-4.787-1.253l-1.484-1.85h0l-1.484,1.85a42.049,42.049,0,0,1-4.55,1.192,13,13,0,0,1,.947,2.983L22.77,24.677a3.775,3.775,0,0,0,2.406,4.357l2.671,1.125a1.113,1.113,0,0,1,.471.366l.561.772h0l.561-.772a1.112,1.112,0,0,1,.471-.366l2.671-1.125a3.775,3.775,0,0,0,2.406-4.357Z" transform="translate(4.545 -5.933)" fill="#ffcd69"/>
      </g>
      <g id="Grupo_80761" data-name="Grupo 80761" transform="translate(0 0)">
        <path id="Trazado_114411" data-name="Trazado 114411" d="M69.322,28.084a1.4,1.4,0,0,0-.789-.774,73.864,73.864,0,0,1-17.6-9.69,83.592,83.592,0,0,1-6.88-5.844c-3.351-3.1-5.575-5.149-9.26-5.149h-.1c-3.625.035-5.774,2.209-8.494,4.962a50.143,50.143,0,0,1-8.254,7.045A82.224,82.224,0,0,1,.911,27.3a1.418,1.418,0,0,0-.792,1.887L4.5,39.01v7.5a1.4,1.4,0,0,0,.268.823l0,.007c2,3.553,5.926,6.571,11.349,8.728a50.917,50.917,0,0,0,18.593,3.26,51,51,0,0,0,18.6-3.26c5.431-2.157,9.359-5.176,11.361-8.728a1.7,1.7,0,0,0,.248-.829v-7.5l4.38-9.821a1.4,1.4,0,0,0,.016-1.105ZM52.281,53.455a48.181,48.181,0,0,1-17.568,3.062,48.1,48.1,0,0,1-17.556-3.062,22.48,22.48,0,0,1-8.532-5.546h52.2a22.5,22.5,0,0,1-8.542,5.546ZM62.612,37.309H56.556a1.4,1.4,0,0,0,0,2.806h5.563V45.1H7.3V40.115H43.926a1.4,1.4,0,1,0,0-2.806H6.812L3.285,29.4a84.67,84.67,0,0,0,16.226-8.433,52.544,52.544,0,0,0,8.689-7.4c2.739-2.772,4.161-4.106,6.525-4.128h.062c2.594,0,4.3,1.571,7.363,4.4a86.007,86.007,0,0,0,7.1,6.027,76.247,76.247,0,0,0,16.9,9.515Z" transform="translate(0 -6.627)"/>
        <circle id="Elipse_4744" data-name="Elipse 4744" cx="1.403" cy="1.403" r="1.403" transform="translate(48.931 30.605)"/>
        <path id="Trazado_114412" data-name="Trazado 114412" d="M36.95,16.882a1.4,1.4,0,0,0-1.033-.726c-.01,0-1.026-.151-2.125-.343a5.716,5.716,0,0,1-3.476-2.053,1.405,1.405,0,0,0-2.191,0,5.715,5.715,0,0,1-3.476,2.053c-1.1.192-2.115.342-2.125.343a1.4,1.4,0,0,0-1.064,1.989,23.255,23.255,0,0,1,1.078,2.613l-1,3.935a5.326,5.326,0,0,0,3.3,6.145l2.707,1.14.533.733a1.405,1.405,0,0,0,2.272,0l.533-.733,2.707-1.14a5.325,5.325,0,0,0,3.3-6.144l-1-3.935a22.773,22.773,0,0,1,1.078-2.614,1.4,1.4,0,0,0-.031-1.263ZM32.507,28.251l-2.763,1.163a2.619,2.619,0,0,0-.524.295,2.621,2.621,0,0,0-.524-.295l-2.763-1.163a2.515,2.515,0,0,1-1.673-2.869l1.056-4.169c.078-.306.187-.736-.564-2.571l.379-.065a8.523,8.523,0,0,0,4.087-1.93,8.524,8.524,0,0,0,4.087,1.93l.379.065c-.751,1.835-.642,2.265-.564,2.571l1.056,4.17A2.515,2.515,0,0,1,32.507,28.251Z" transform="translate(5.594 -4.894)"/>
      </g>
    </g>
  </g>
</svg>
