<svg xmlns="http://www.w3.org/2000/svg" xmlns:xlink="http://www.w3.org/1999/xlink" width="190" height="190" viewBox="0 0 190 190">
  <defs>
    <clipPath id="clip-path">
      <rect id="Rectángulo_33916" data-name="Rectángulo 33916" width="190" height="190" transform="translate(285 4627)"/>
    </clipPath>
  </defs>
  <g id="Enmascarar_grupo_69" data-name="Enmascarar grupo 69" transform="translate(-285 -4627)" clip-path="url(#clip-path)">
    <g id="senal-de-stop_1_" data-name="senal-de-stop (1)" transform="translate(285 4627)">
      <path id="Trazado_113888" data-name="Trazado 113888" d="M190,95a95.019,95.019,0,0,1-82.658,94.205,96.3,96.3,0,0,1-24.688,0A95.023,95.023,0,0,1,.148,100.316Q0,97.676,0,95a95,95,0,1,1,190,0Zm0,0" fill="#69b8d4"/>
      <path id="Trazado_113889" data-name="Trazado 113889" d="M120.376,102.1a6.338,6.338,0,0,1,6.338-6.339H180.13a6.339,6.339,0,0,1,0,12.678H162.852a6.338,6.338,0,1,0,0,12.677h1.761a6.339,6.339,0,1,1,0,12.678H113.418a6.338,6.338,0,0,1-6.338-6.339,6.339,6.339,0,0,0-6.339-6.339H98.98a6.338,6.338,0,1,1,0-12.677h15.057a6.339,6.339,0,0,0,6.339-6.339Zm0,0" fill="#8cd2e5"/>
      <path id="Trazado_113890" data-name="Trazado 113890" d="M32.99,68.625a6.34,6.34,0,0,1-6.339,6.336H9.372a6.34,6.34,0,0,0,0,12.679h1.761a6.338,6.338,0,1,1,0,12.675H.148Q0,97.676,0,95A94.809,94.809,0,0,1,5.785,62.286H26.651a6.339,6.339,0,0,1,6.339,6.339Zm0,0" fill="#8cd2e5"/>
      <path id="Trazado_113891" data-name="Trazado 113891" d="M49.1,125.595a6.339,6.339,0,0,1,6.339-6.339h53.416a6.338,6.338,0,0,1,0,12.677H91.577a6.339,6.339,0,0,0,0,12.678H93.34a6.338,6.338,0,0,1,0,12.677H42.145a6.339,6.339,0,0,1-6.339-6.339,6.338,6.338,0,0,0-6.339-6.338H27.706a6.339,6.339,0,0,1,0-12.678H42.762a6.339,6.339,0,0,0,6.339-6.338Zm0,0" fill="#8cd2e5"/>
      <path id="Trazado_113892" data-name="Trazado 113892" d="M107.342,128.475v60.73a96.3,96.3,0,0,1-24.688,0v-60.73Zm0,0" fill="#ccc"/>
      <path id="Trazado_113893" data-name="Trazado 113893" d="M107.342,150.077v39.128A96.03,96.03,0,0,1,95,190V150.077Zm0,0" fill="#e6e6e6"/>
      <g id="Parking" transform="translate(24 7)">
        <rect id="Rectángulo_34167" data-name="Rectángulo 34167" width="137" height="137" rx="5" transform="translate(4 4)" fill="#034c8b"/>
        <path id="Trazado_116290" data-name="Trazado 116290" d="M56.03,12H20.438A2.438,2.438,0,0,0,18,14.439v92.625a2.438,2.438,0,0,0,2.438,2.438H35.063a2.438,2.438,0,0,0,2.438-2.437V70.5H57A29.25,29.25,0,0,0,86.245,40.7,29.887,29.887,0,0,0,56.03,12ZM57,51H37.5V31.5H57A9.75,9.75,0,1,1,57,51Z" transform="translate(20.125 11.499)" fill="#034c8b"/>
      </g>
      <g id="Parking-2" data-name="Parking" transform="translate(29 4)">
        <rect id="Rectángulo_34167-2" data-name="Rectángulo 34167" width="137" height="137" rx="5" transform="translate(4 4)" fill="#1e88e5"/>
        <path id="Trazado_116290-2" data-name="Trazado 116290" d="M56.03,12H20.438A2.438,2.438,0,0,0,18,14.439v92.625a2.438,2.438,0,0,0,2.438,2.438H35.063a2.438,2.438,0,0,0,2.438-2.437V70.5H57A29.25,29.25,0,0,0,86.245,40.7,29.887,29.887,0,0,0,56.03,12ZM57,51H37.5V31.5H57A9.75,9.75,0,1,1,57,51Z" transform="translate(20.125 11.499)" fill="#fafafa"/>
      </g>
    </g>
  </g>
</svg>
