<svg xmlns="http://www.w3.org/2000/svg" xmlns:xlink="http://www.w3.org/1999/xlink" width="190" height="190" viewBox="0 0 190 190">
  <defs>
    <clipPath id="clip-path">
      <rect id="Rectángulo_33917" data-name="Rectángulo 33917" width="190" height="190" transform="translate(285 4627)"/>
    </clipPath>
  </defs>
  <g id="Enmascarar_grupo_70" data-name="Enmascarar grupo 70" transform="translate(-285 -4627)" clip-path="url(#clip-path)">
    <g id="senal-de-stop_1_" data-name="senal-de-stop (1)" transform="translate(285 4627)">
      <path id="Trazado_113897" data-name="Trazado 113897" d="M190,95a95.019,95.019,0,0,1-82.658,94.205,96.3,96.3,0,0,1-24.688,0A95.023,95.023,0,0,1,.148,100.316Q0,97.676,0,95a95,95,0,1,1,190,0Zm0,0" fill="#69b8d4"/>
      <path id="Trazado_113898" data-name="Trazado 113898" d="M120.376,102.1a6.338,6.338,0,0,1,6.338-6.339H180.13a6.339,6.339,0,0,1,0,12.678H162.852a6.338,6.338,0,1,0,0,12.677h1.761a6.339,6.339,0,1,1,0,12.678H113.418a6.338,6.338,0,0,1-6.338-6.339,6.339,6.339,0,0,0-6.339-6.339H98.98a6.338,6.338,0,1,1,0-12.677h15.057a6.339,6.339,0,0,0,6.339-6.339Zm0,0" fill="#8cd2e5"/>
      <path id="Trazado_113899" data-name="Trazado 113899" d="M32.99,68.625a6.34,6.34,0,0,1-6.339,6.336H9.372a6.34,6.34,0,0,0,0,12.679h1.761a6.338,6.338,0,1,1,0,12.675H.148Q0,97.676,0,95A94.809,94.809,0,0,1,5.785,62.286H26.651a6.339,6.339,0,0,1,6.339,6.339Zm0,0" fill="#8cd2e5"/>
      <path id="Trazado_113900" data-name="Trazado 113900" d="M49.1,125.595a6.339,6.339,0,0,1,6.339-6.339h53.416a6.338,6.338,0,0,1,0,12.677H91.577a6.339,6.339,0,0,0,0,12.678H93.34a6.338,6.338,0,0,1,0,12.677H42.145a6.339,6.339,0,0,1-6.339-6.339,6.338,6.338,0,0,0-6.339-6.338H27.706a6.339,6.339,0,0,1,0-12.678H42.762a6.339,6.339,0,0,0,6.339-6.338Zm0,0" fill="#8cd2e5"/>
      <path id="Trazado_113901" data-name="Trazado 113901" d="M107.342,128.475v60.73a96.3,96.3,0,0,1-24.688,0v-60.73Zm0,0" fill="#ccc"/>
      <g id="Gas_Station" data-name="Gas Station" transform="translate(18.5 3)">
        <rect id="Rectángulo_34168" data-name="Rectángulo 34168" width="138" height="139" rx="5" transform="translate(4.5 4)" fill="#44230c"/>
        <path id="Trazado_116291" data-name="Trazado 116291" d="M96.881,21.156,93.394,17.67l-4.945-4.945a2.472,2.472,0,1,0-3.5,3.5l4.22,4.22V31.186a7.379,7.379,0,0,0,4.1,6.633l.843.426V78.756a2.417,2.417,0,0,1-.758,1.763,2.372,2.372,0,0,1-1.714.71,2.474,2.474,0,0,1-2.472-2.472V63.921a12.383,12.383,0,0,0-9.89-12.112V14.472A2.472,2.472,0,0,0,76.811,12H22.417a2.472,2.472,0,0,0-2.472,2.472V96.063H17.472A2.472,2.472,0,0,0,15,98.536v9.89a2.472,2.472,0,0,0,2.472,2.472H81.756a2.472,2.472,0,0,0,2.472-2.472v-9.89a2.472,2.472,0,0,0-2.472-2.472H79.284V56.96a7.4,7.4,0,0,1,4.945,6.962V78.756a7.417,7.417,0,1,0,14.835,0V26.414A7.389,7.389,0,0,0,96.881,21.156ZM29.835,49.087V24.362a2.472,2.472,0,0,1,2.472-2.472H66.921a2.472,2.472,0,0,1,2.472,2.472V49.087a2.472,2.472,0,0,1-2.472,2.472H32.307A2.472,2.472,0,0,1,29.835,49.087Z" transform="translate(16.154 11.78)" fill="#44230c"/>
      </g>
      <path id="Trazado_113902" data-name="Trazado 113902" d="M107.342,150.077v39.128A96.03,96.03,0,0,1,95,190V150.077Zm0,0" fill="#e6e6e6"/>
      <g id="Gas_Station-2" data-name="Gas Station" transform="translate(23.5 1)">
        <rect id="Rectángulo_34168-2" data-name="Rectángulo 34168" width="138" height="139" rx="5" transform="translate(4.5 4)" fill="#522c13"/>
      </g>
      <path id="Trazado_118929" data-name="Trazado 118929" d="M500.167,157.577l23.945,12.3c-2.827-7.076-3.84-21.011-8.477-21.229h-32.36c-4.1-.237-5.221,14.152-7.832,21.229l24.434-12.153Zm-15.419-6.99,15.128-.033,15.023-.03c3.98.126,3.682,11.346,6.108,15.532L499.948,155.8l-.072.033L478.742,165.6c1.853-3.8,2.491-15.155,6.006-15.015" transform="translate(-398.36 -99.975)" fill="#fff"/>
      <path id="Trazado_118930" data-name="Trazado 118930" d="M544.629,181.884l-.4.051-.387.087-.38.108-.364.13-.355.153-.339.172-.333.18-.32.2-.309.206-.3.211-.3.221-.29.219-.283.221-.277.221-.276.219-.265.218-.268.212-.263.206-.254.19-.253.19-.25.17-.241.16-.24.146-.237.133-.231.114-.227.1-.215.082-.218.061-.206.04-.214.027-.211.009v0l-.209-.013-.227-.027-.24-.045-.255-.068-.263-.089-.279-.1-.289-.124-.3-.14-.3-.159-.312-.166-.326-.182-.323-.2-.333-.2-.335-.206-.342-.218-.346-.218-.346-.219-.3-.185c2.058-2.454,5.063-8.441,5.319-12.272v-.965l-.017-.18L509.611,157.2l-26.75,13.375a3.637,3.637,0,0,0,.027,1.355c-3.195-1.469-5.2-4.613-6.9-8.19-1.631-2.164-3.137-3.25-4.457-3.62a1.608,1.608,0,0,0-1.47-1.416,1.693,1.693,0,0,0-1.506,1.821v.012a3.777,3.777,0,0,0-.362.261c-1.883,1.495-2.635,4.6-1.645,5.83.436.763,1.017,1.716,1.645,2.724l.362.583v2.143H456.032v3.211h12.521v8.591l-.31.182-.325.189-.322.182-.316.179-.312.173-.307.164-.3.154-.3.149-.3.128-.3.12-.293.1-.292.1-.291.074-.289.064-.289.042-.293.027-.294.006-.156-.006-.167-.022-.185-.036-.2-.058-.211-.068-.234-.089-.237-.105-.25-.12-.263-.13-.264-.146-.273-.156-.28-.163-.287-.173-.287-.18-.292-.183-.293-.188-.3-.2-.3-.186-.3-.19-.313-.186L458,183.14l-.31-.179-.315-.169-.32-.166-.32-.153-.323-.141-.329-.124-.33-.117-.342-.091-.343-.072-.354-.046-.358-.016v3l.15.006.165.02.186.038.195.058.218.068.225.089.238.107.248.118.257.128.264.146.276.157.279.162.281.175.292.18.293.188.294.185.3.189.3.192.309.19.306.188.312.186.315.177.317.172.315.165.322.153.33.14.329.126.338.115.338.091.349.072.356.046.355.017.44-.017.429-.039.424-.068.414-.085.407-.108.4-.12.387-.14.378-.153.366-.166.365-.169.355-.18.351-.186.342-.186.338-.19.33-.195.326-.189.043-.026a1.251,1.251,0,0,0,.551.133,1.557,1.557,0,0,0,1.413-1.2l.183-.085.3-.136.3-.12.3-.1.293-.091.293-.081.29-.062.291-.042.3-.027.3-.006.355.009.355.035.364.055.374.081.384.1.388.115.4.141.4.156.414.172.414.183.421.2.426.209.427.212.437.228.437.228.44.234.447.235.449.237.449.229.459.235.457.222.46.219.469.208.463.192.476.183.479.162.482.151.488.126.491.1.5.081.5.046.5.02.442-.02.437-.052.429-.087.418-.11.411-.136.4-.157.393-.176.38-.185.375-.206.369-.214.361-.219.354-.227.349-.235.346-.235.345-.24.333-.232.336-.235.325-.227.325-.224.322-.211.32-.2.312-.19.307-.177.3-.165.292-.146.3-.134.284-.11.277-.089.273-.075.266-.051.26-.029.26-.009v-.006l.323.014.326.035.33.055.343.075.354.1.354.114.368.136.371.157.377.163.385.185.387.195.391.211.4.212.4.222.4.232.411.235.413.234.416.234.421.234.42.235.431.222.431.219.434.206.442.2.443.18.452.169.459.151.456.124.468.11.479.081.482.046.481.014.489-.014.489-.046.478-.081.472-.11.466-.124.459-.151.447-.169.449-.185.436-.2.43-.212.43-.221.42-.221.42-.235.416-.228.4-.238.4-.235.4-.235.4-.227.392-.228.39-.214.385-.208.381-.2.377-.179.374-.17.364-.15.364-.136.356-.114.351-.1.346-.075.341-.055.335-.035.332-.014.211.013.225.027.24.045.254.069.264.087.277.1.292.126.3.139.306.159.31.166.328.182.323.195.335.2.335.208.341.218.346.218.345.219.354.216.354.218.355.222.364.206.358.2.367.2.374.183.374.175.372.16.382.149.388.123.391.1.4.079.4.053.41.012v.007l.408-.019.4-.053.4-.085.375-.11.372-.127.351-.154.343-.173.33-.179.322-.195.316-.206.3-.216.294-.212.294-.227.284-.219.277-.222.276-.219.268-.219.265-.211.263-.206.257-.2.248-.183.25-.176.247-.159.238-.143.228-.133.234-.113.221-.1L544.2,185l.212-.062.209-.039.2-.027.209-.007v-3Zm-76.438-15.04-.045-.066a4.1,4.1,0,0,1,.045-3.28,3.668,3.668,0,0,1,.362-.636v4.529Zm22.616,19.226-.3.159-.3.152-.287.13-.284.11-.276.089-.27.075-.263.049-.258.03-.254.007-.354-.007-.356-.036-.364-.055-.377-.082-.381-.1-.39-.115-.394-.141-.4-.156-.413-.172-.414-.183-.421-.2-.426-.209-.427-.212-.439-.228-.439-.228-.436-.234-.45-.234-.449-.238-.447-.229-.457-.235-.459-.222-.46-.218-.468-.208-.466-.193-.475-.183-.479-.162-.483-.152-.486-.126-.489-.1-.5-.081-.5-.048-.5-.019-.442.016-.431.04-.426.066-.417.085-.408.1-.4.127-.222.079v-7.625c.734,1.215,1.166,2.01.948,1.928.065,2.133,2.237,1.144,1.6-.623a47.9,47.9,0,0,0-2.548-4.234V161.8a5.146,5.146,0,0,1,2.313,1.746c3.446,6.6,6.515,10.144,9.128,9.985l.348.131c1.4,4.024,5.154,9.926,7.724,12.252Z" transform="translate(-407.698 -96.186)" fill="#fff"/>
      <path id="Trazado_118931" data-name="Trazado 118931" d="M544.228,181.74l-.387.09-.38.107-.364.131-.355.154-.339.167-.333.18-.315.2-.315.2-.3.212-.3.219-.291.221-.281.218-.277.222-.277.227-.264.214-.268.209-.263.208-.254.19-.253.189-.25.17-.242.16-.24.144-.235.137-.231.113-.227.094-.215.082-.218.063-.206.038-.214.026-.211.01v.006l-.209-.016-.227-.026-.24-.045-.257-.068-.263-.088-.277-.1-.289-.123-.3-.141-.3-.159-.307-.163-.326-.182-.323-.193-.335-.2-.333-.206-.342-.218-.346-.216-.346-.219-.351-.218-.356-.216-.355-.221-.364-.208-.358-.206-.372-.2-.368-.183-.372-.173-.375-.16-.379-.149-.391-.123-.388-.1-.4-.082-.4-.049-.407-.014-.491.014-.488.049-.479.079-.472.108-.465.124-.459.152-.447.172-.449.183-.436.2-.431.214-.429.218-.421.221-.418.238-.414.228-.408.237-.4.234-.4.237-.4.227-.391.228-.39.212-.385.212-.379.193-.38.177-.372.172-.365.15-.362.137-.356.114-.351.1-.346.074-.342.055-.333.038-.333.016-.323-.016-.323-.038-.332-.055-.343-.074-.354-.1-.355-.114-.365-.137-.372-.157-.377-.165-.385-.185-.388-.195-.39-.211-.4-.209-.4-.224-.406-.234-.413-.234-.41-.234-.416-.232-.421-.237-.423-.234-.43-.222-.431-.219-.436-.206-.44-.2-.446-.178-.449-.172-.46-.152-.459-.124-.465-.108-.48-.079-.479-.049-.481-.014h0v0l-.447.019-.437.053-.433.087-.418.108-.413.137-.4.156-.388.17-.387.192-.377.2-.369.214-.364.225-.352.227-.351.237-.348.232-.345.241-.335.232-.336.237-.325.225-.323.224-.32.212-.32.2-.31.195-.3.18-.3.159-.3.15-.287.13-.284.111-.276.089-.27.074-.263.051-.258.03-.254.007-.355-.007-.356-.038-.362-.055-.377-.081-.381-.1-.39-.117-.394-.139-.4-.159-.413-.17-.414-.183-.421-.2-.426-.209-.427-.214-.439-.228-.439-.225-.436-.234-.45-.235-.449-.239-.447-.229-.457-.232-.459-.222-.462-.221-.466-.208-.466-.195-.475-.18-.481-.162-.482-.152-.486-.128-.489-.1-.5-.079-.5-.049-.5-.019-.442.016-.431.04-.427.066-.416.085-.408.1-.4.124-.39.141-.375.153-.372.162-.365.175-.356.179-.346.186-.343.188-.341.19-.333.192-.325.188-.326.192-.32.182-.316.179-.312.175-.307.163-.3.154-.3.147-.3.131-.3.117-.294.105-.292.1-.29.075-.289.063-.289.042-.293.027-.294.007-.156-.007-.167-.022-.185-.038-.2-.056-.211-.069-.234-.089-.237-.105-.25-.117-.263-.131-.264-.147-.273-.156-.28-.163-.287-.173-.287-.179-.292-.18-.294-.191-.3-.2-.3-.188-.3-.19-.315-.185-.307-.187-.31-.179-.315-.172-.32-.165-.32-.153-.323-.14-.329-.126-.33-.115-.342-.091-.343-.072-.354-.046-.358-.016v3l.15.006.165.023.186.038.195.056.218.068.225.089.238.105.248.12.255.128.266.146.276.159.279.16.281.175.292.179.293.189.294.183.3.189.3.193.309.19.306.188.312.185.315.18.317.169.315.166.322.154.33.137.329.128.336.113.339.1.349.071.355.043.356.017.44-.017.429-.038.424-.066.414-.087.407-.108.4-.12.387-.14.38-.154.366-.165.364-.17.356-.179.349-.188.343-.185.338-.192.33-.193.326-.189.326-.189.32-.183.31-.18.313-.172.315-.163.3-.156.3-.139.3-.139.3-.118.294-.1.294-.091.293-.079.29-.062.291-.045.3-.027.3-.006.355.009.355.038.362.053.375.079.384.1.387.115.4.141.4.156.414.17.414.183.421.2.426.211.427.212.437.228.437.228.44.234.447.234.447.238.45.229.459.235.457.222.46.218.468.208.465.195.476.18.479.165.482.15.488.124.491.105.5.078.5.048.5.02.442-.02.437-.053.429-.084.418-.11.41-.137.4-.157.394-.175.38-.188.374-.206.371-.212.361-.221.352-.227.351-.235.346-.234.345-.238.333-.235.336-.234.325-.225.325-.227.322-.209.32-.206.31-.189.309-.176.3-.167.292-.146.3-.134.284-.108.277-.091.273-.075.266-.048.26-.032.26-.009v-.006l.323.014.325.038.33.053.345.075.354.1.354.117.368.136.371.156.377.166.385.183.387.195.391.209.4.214.4.221.4.234.411.234.411.235.417.232.421.235.42.234.431.222.431.219.434.209.442.2.443.182.45.169.46.15.456.127.468.11.479.078.482.048.479.014.491-.014.489-.048.478-.078.472-.11.466-.127.459-.15.447-.169.449-.186.436-.193.43-.214.43-.219.42-.222.418-.235.417-.229.4-.238.4-.235.4-.232.4-.23.392-.229.39-.209.385-.211.38-.2.378-.176.374-.172.364-.15.364-.136.355-.117.352-.1.346-.075.339-.053.336-.038.332-.014.211.014.225.027.24.045.254.068.264.088.277.1.292.124.3.14.307.159.309.166.328.179.323.195.335.2.335.208.341.218.346.216.345.219.354.216.354.218.355.222.364.208.356.2.374.2.367.18.374.175.374.16.382.147.388.126.391.1.4.079.4.051.41.016v0l.408-.02.4-.051.4-.085.375-.108.372-.131.351-.153.343-.17.33-.18.322-.195.316-.2.3-.216.3-.212.294-.228.284-.219.276-.222.277-.225.268-.214.266-.209.261-.206.257-.2.25-.185.25-.175.241-.16.244-.14.228-.136.234-.113.219-.094.218-.082.212-.062.209-.039.2-.027.209-.009v-3l-.408.019Z" transform="translate(-407.698 -85.345)" fill="#fff"/>
    </g>
  </g>
</svg>
